<svg width="16" height="16" viewBox="0 0 16 16" fill="none" xmlns="http://www.w3.org/2000/svg">
<path d="M13.6471 2.82353H13.1765V2.35294C13.1765 1.7289 12.9286 1.13042 12.4873 0.689161C12.046 0.247898 11.4476 0 10.8235 0H2.35294C1.7289 0 1.13042 0.247898 0.689161 0.689161C0.247898 1.13042 0 1.7289 0 2.35294V10.8235C0 11.4476 0.247898 12.046 0.689161 12.4873C1.13042 12.9286 1.7289 13.1765 2.35294 13.1765H2.82353V13.6471C2.82353 13.9561 2.88439 14.262 3.00264 14.5475C3.12088 14.833 3.2942 15.0923 3.51269 15.3108C3.73118 15.5293 3.99057 15.7026 4.27604 15.8209C4.56151 15.9391 4.86748 16 5.17647 16H13.6471C13.9561 16 14.262 15.9391 14.5475 15.8209C14.833 15.7026 15.0923 15.5293 15.3108 15.3108C15.5293 15.0923 15.7026 14.833 15.8209 14.5475C15.9391 14.262 16 13.9561 16 13.6471V5.17647C16 4.86748 15.9391 4.56151 15.8209 4.27604C15.7026 3.99057 15.5293 3.73118 15.3108 3.51269C15.0923 3.2942 14.833 3.12088 14.5475 3.00264C14.262 2.88439 13.9561 2.82353 13.6471 2.82353V2.82353ZM2.35294 12.2353C1.97852 12.2353 1.61943 12.0866 1.35467 11.8218C1.08992 11.557 0.941176 11.198 0.941176 10.8235V2.35294C0.941176 1.97852 1.08992 1.61943 1.35467 1.35467C1.61943 1.08992 1.97852 0.941176 2.35294 0.941176H10.8235C11.198 0.941176 11.557 1.08992 11.8218 1.35467C12.0866 1.61943 12.2353 1.97852 12.2353 2.35294V10.8235C12.2353 11.198 12.0866 11.557 11.8218 11.8218C11.557 12.0866 11.198 12.2353 10.8235 12.2353H2.35294ZM15.0588 13.6471C15.0588 14.0215 14.9101 14.3806 14.6453 14.6453C14.3806 14.9101 14.0215 15.0588 13.6471 15.0588H5.17647C4.80205 15.0588 4.44296 14.9101 4.1782 14.6453C3.91344 14.3806 3.76471 14.0215 3.76471 13.6471V13.1765H10.8235C11.4476 13.1765 12.046 12.9286 12.4873 12.4873C12.9286 12.046 13.1765 11.4476 13.1765 10.8235V3.76471H13.6471C14.0215 3.76471 14.3806 3.91344 14.6453 4.1782C14.9101 4.44296 15.0588 4.80205 15.0588 5.17647V13.6471Z" fill="white"/>
<path d="M8.47065 6.11764H7.05888V4.70588C7.05888 4.58107 7.0093 4.46137 6.92105 4.37312C6.8328 4.28487 6.7131 4.23529 6.58829 4.23529C6.46349 4.23529 6.34379 4.28487 6.25554 4.37312C6.16728 4.46137 6.1177 4.58107 6.1177 4.70588V6.11764H4.70594C4.58113 6.11764 4.46144 6.16722 4.37318 6.25548C4.28493 6.34373 4.23535 6.46342 4.23535 6.58823C4.23535 6.71304 4.28493 6.83274 4.37318 6.92099C4.46144 7.00924 4.58113 7.05882 4.70594 7.05882H6.1177V8.47058C6.1177 8.59539 6.16728 8.71509 6.25554 8.80334C6.34379 8.89159 6.46349 8.94117 6.58829 8.94117C6.7131 8.94117 6.8328 8.89159 6.92105 8.80334C7.0093 8.71509 7.05888 8.59539 7.05888 8.47058V7.05882H8.47065C8.59545 7.05882 8.71515 7.00924 8.8034 6.92099C8.89165 6.83274 8.94123 6.71304 8.94123 6.58823C8.94123 6.46342 8.89165 6.34373 8.8034 6.25548C8.71515 6.16722 8.59545 6.11764 8.47065 6.11764Z" fill="white"/>
</svg>
