<svg width="16" height="14" viewBox="0 0 16 14" fill="none" xmlns="http://www.w3.org/2000/svg">
<path fill-rule="evenodd" clip-rule="evenodd" d="M13.7921 3.67327V4.78218H14.901C15.6634 4.78218 15.6634 5.9604 14.901 5.9604H13.7921V7C13.7921 7.83168 12.6139 7.83168 12.6139 7V5.9604H11.505C10.7426 5.9604 10.7426 4.78218 11.505 4.78218H12.6139V3.67327C12.6139 2.91089 13.7921 2.91089 13.7921 3.67327ZM6.44554 0C8.38614 0 9.84158 1.59406 9.84158 3.60396C9.84158 4.92079 9.21782 6.09901 8.10891 6.72277C10.8812 7.55446 12.8911 10.396 12.8911 13.7228C12.8911 13.7921 12.8911 13.8614 12.8911 14H0.0693069C0.0693069 13.8614 0 13.7921 0 13.7228C0 10.396 2.0099 7.55446 4.78218 6.72277C3.67327 6.09901 2.9802 4.92079 2.9802 3.60396C2.9802 1.59406 4.50495 0 6.44554 0Z" fill="white"/>
</svg>
