<svg width="34" height="34" viewBox="0 0 34 34" fill="none" xmlns="http://www.w3.org/2000/svg">
<path d="M29 6H28V5C28 3.67392 27.4732 2.40215 26.5355 1.46447C25.5979 0.526784 24.3261 0 23 0H5C3.67392 0 2.40215 0.526784 1.46447 1.46447C0.526784 2.40215 0 3.67392 0 5V23C0 24.3261 0.526784 25.5979 1.46447 26.5355C2.40215 27.4732 3.67392 28 5 28H6V29C6 29.6566 6.12933 30.3068 6.3806 30.9134C6.63188 31.52 7.00017 32.0712 7.46447 32.5355C7.92876 32.9998 8.47995 33.3681 9.08658 33.6194C9.69321 33.8707 10.3434 34 11 34H29C29.6566 34 30.3068 33.8707 30.9134 33.6194C31.52 33.3681 32.0712 32.9998 32.5355 32.5355C32.9998 32.0712 33.3681 31.52 33.6194 30.9134C33.8707 30.3068 34 29.6566 34 29V11C34 10.3434 33.8707 9.69321 33.6194 9.08658C33.3681 8.47995 32.9998 7.92876 32.5355 7.46447C32.0712 7.00017 31.52 6.63188 30.9134 6.3806C30.3068 6.12933 29.6566 6 29 6ZM5 26C4.20435 26 3.44129 25.6839 2.87868 25.1213C2.31607 24.5587 2 23.7956 2 23V5C2 4.20435 2.31607 3.44129 2.87868 2.87868C3.44129 2.31607 4.20435 2 5 2H23C23.7956 2 24.5587 2.31607 25.1213 2.87868C25.6839 3.44129 26 4.20435 26 5V23C26 23.7956 25.6839 24.5587 25.1213 25.1213C24.5587 25.6839 23.7956 26 23 26H5ZM32 29C32 29.7956 31.6839 30.5587 31.1213 31.1213C30.5587 31.6839 29.7956 32 29 32H11C10.2044 32 9.44129 31.6839 8.87868 31.1213C8.31607 30.5587 8 29.7956 8 29V28H23C24.3261 28 25.5979 27.4732 26.5355 26.5355C27.4732 25.5979 28 24.3261 28 23V8H29C29.7956 8 30.5587 8.31607 31.1213 8.87868C31.6839 9.44129 32 10.2044 32 11V29Z" fill="#BFC2CE"/>
<path d="M18 13H15V10C15 9.73478 14.8946 9.48043 14.7071 9.29289C14.5196 9.10536 14.2652 9 14 9C13.7348 9 13.4804 9.10536 13.2929 9.29289C13.1054 9.48043 13 9.73478 13 10V13H10C9.73478 13 9.48043 13.1054 9.29289 13.2929C9.10536 13.4804 9 13.7348 9 14C9 14.2652 9.10536 14.5196 9.29289 14.7071C9.48043 14.8946 9.73478 15 10 15H13V18C13 18.2652 13.1054 18.5196 13.2929 18.7071C13.4804 18.8946 13.7348 19 14 19C14.2652 19 14.5196 18.8946 14.7071 18.7071C14.8946 18.5196 15 18.2652 15 18V15H18C18.2652 15 18.5196 14.8946 18.7071 14.7071C18.8946 14.5196 19 14.2652 19 14C19 13.7348 18.8946 13.4804 18.7071 13.2929C18.5196 13.1054 18.2652 13 18 13Z" fill="#BFC2CE"/>
</svg>
