<svg width="27" height="19" viewBox="0 0 27 19" fill="none" xmlns="http://www.w3.org/2000/svg">
<path d="M15.7281 17.6625H0.699027C0.349514 17.6625 0 17.313 0 16.9635V1.93438C0 1.58487 0.349514 1.23535 0.699027 1.23535H15.7281C16.0776 1.23535 16.4271 1.58487 16.4271 1.93438V16.9635C16.4271 17.313 16.0776 17.6625 15.7281 17.6625ZM1.39805 16.2644H15.0291V2.63341H1.39805V16.2644Z" fill="white"/>
<path d="M26.7386 16.614C27.0007 16.3519 27.0007 15.8276 26.7386 15.5654C25.9522 14.779 24.5541 13.381 24.5541 13.381C24.292 13.1189 23.8551 13.1189 23.593 13.4684C23.3308 13.8179 23.3308 14.1674 23.6803 14.4295L24.8162 15.3907H23.2434C22.0201 15.3907 21.059 14.4295 21.059 13.2062V5.77907C21.059 4.55577 22.0201 3.59461 23.2434 3.59461H24.8162L23.6803 4.55577C23.4182 4.81791 23.3308 5.2548 23.593 5.51693C23.7677 5.69169 23.9425 5.77907 24.1172 5.77907C24.292 5.77907 24.4667 5.69169 24.5541 5.60431C24.5541 5.60431 25.9522 4.29364 26.7386 3.50723C27.0881 3.2451 27.0881 2.72083 26.7386 2.37131C25.9522 1.58491 24.5541 0.186853 24.5541 0.186853C24.292 -0.0752818 23.8551 -0.0752819 23.593 0.274232C23.3308 0.623745 23.3308 0.973258 23.6803 1.23539L24.8162 2.19656H23.2434C21.2337 2.19656 19.6609 3.76937 19.6609 5.77907V8.74993H17.826C17.4765 8.74993 17.127 9.09945 17.127 9.44896C17.127 9.79847 17.4765 10.148 17.826 10.148H19.6609V13.1189C19.6609 15.1286 21.2337 16.7014 23.2434 16.7014H24.8162L23.6803 17.6625C23.4182 17.9247 23.3308 18.3616 23.593 18.6237C23.7677 18.7984 23.9425 18.8858 24.1172 18.8858C24.292 18.8858 24.4667 18.7984 24.5541 18.7111C24.5541 18.7984 25.9522 17.4004 26.7386 16.614Z" fill="white"/>
<path d="M11.9714 7.61387H4.45684C4.10733 7.61387 3.75781 7.26436 3.75781 6.91485C3.75781 6.56533 4.10733 6.21582 4.45684 6.21582H11.9714C12.3209 6.21582 12.6704 6.56533 12.6704 6.91485C12.6704 7.26436 12.3209 7.61387 11.9714 7.61387Z" fill="white"/>
<path d="M11.9714 12.6822H4.45684C4.10733 12.6822 3.75781 12.3327 3.75781 11.9832C3.75781 11.6337 4.10733 11.2842 4.45684 11.2842H11.9714C12.3209 11.2842 12.6704 11.6337 12.6704 11.9832C12.6704 12.3327 12.3209 12.6822 11.9714 12.6822Z" fill="white"/>
</svg>
