<svg width="19" height="24" viewBox="0 0 19 24" fill="none" xmlns="http://www.w3.org/2000/svg">
<path d="M5.87941 17.8428H3.34915C3.12715 17.8428 2.94727 18.0227 2.94727 18.2447V20.7749C2.94727 20.9969 3.12715 21.1768 3.34915 21.1768H5.87941C6.10141 21.1768 6.28129 20.9969 6.28129 20.7749V18.2447C6.28129 18.0227 6.10141 17.8428 5.87941 17.8428ZM5.47752 20.373H3.75103V18.6465H5.47752V20.373Z" fill="white"/>
<path d="M6.28129 8.40872C6.28129 8.18672 6.10141 8.00684 5.87941 8.00684H3.34915C3.12715 8.00684 2.94727 8.18672 2.94727 8.40872V10.939C2.94727 11.161 3.12715 11.3409 3.34915 11.3409H5.87941C6.10141 11.3409 6.28129 11.161 6.28129 10.939V8.40872ZM5.47752 10.5373H3.75103V8.81076H5.47752V10.5373Z" fill="white"/>
<path d="M6.28129 13.3267C6.28129 13.1047 6.10141 12.9248 5.87941 12.9248H3.34915C3.12715 12.9248 2.94727 13.1047 2.94727 13.3267V15.8569C2.94727 16.0789 3.12715 16.2588 3.34915 16.2588H5.87941C6.10141 16.2588 6.28129 16.0789 6.28129 15.8569V13.3267ZM5.47752 15.4551H3.75103V13.7286H5.47752V15.4551Z" fill="white"/>
<path d="M12.9388 9.67386C12.9388 9.45186 12.7589 9.27197 12.5369 9.27197H7.90188C7.67988 9.27197 7.5 9.45186 7.5 9.67386C7.5 9.89586 7.67988 10.0757 7.90188 10.0757H12.5369C12.7587 10.0757 12.9388 9.89586 12.9388 9.67386Z" fill="white"/>
<path d="M7.90188 14.1899C7.67988 14.1899 7.5 14.3698 7.5 14.5918C7.5 14.8138 7.67988 14.9937 7.90188 14.9937H11.4402C11.597 14.7042 11.7863 14.4351 12.0024 14.1899H7.90188Z" fill="white"/>
<path d="M7.5 19.5098C7.5 19.7318 7.67988 19.9117 7.90188 19.9117H12.018C11.7998 19.6668 11.6085 19.3976 11.45 19.1079H7.90188C7.67988 19.1079 7.5 19.2878 7.5 19.5098Z" fill="white"/>
<path d="M14.6774 21.3218V22.8746H1.12527V5.0446H3.48771V5.97633C3.48771 6.28707 3.73961 6.53897 4.05034 6.53897H11.7522C12.0629 6.53897 12.3148 6.28707 12.3148 5.97633V5.0446H14.6774V12.7621C14.8618 12.7379 15.0493 12.724 15.2401 12.724C15.4309 12.724 15.6183 12.7378 15.8027 12.7617V4.48197C15.8027 4.17123 15.5508 3.91933 15.2401 3.91933H12.3148V2.9876C12.3148 2.67687 12.0629 2.42497 11.7522 2.42497H9.77332V1.87197C9.77332 0.839776 8.93355 0 7.90135 0C6.86915 0 6.02938 0.839776 6.02938 1.87197V2.42497H4.05034C3.73961 2.42497 3.48771 2.67687 3.48771 2.9876V3.91933H0.562637C0.251901 3.91933 0 4.17123 0 4.48197V23.4374C0 23.7481 0.251901 24 0.562637 24H15.2401C15.5508 24 15.8027 23.7481 15.8027 23.4374V21.322C15.6183 21.3461 15.4309 21.3598 15.2401 21.3598C15.0493 21.3599 14.8618 21.346 14.6774 21.3218ZM7.15465 1.87181C7.15465 1.46012 7.48966 1.12511 7.90135 1.12511C8.31304 1.12511 8.64805 1.46012 8.64805 1.87181V2.4248H7.15465V1.87181ZM4.61298 3.55008H11.1896V5.41369H4.61298V3.55008Z" fill="white"/>
<path d="M15.2397 13.2866C13.1691 13.2866 11.4844 14.9712 11.4844 17.0418C11.4844 19.1126 13.1691 20.7972 15.2397 20.7972C17.3104 20.7972 18.9949 19.1126 18.9949 17.0418C18.9949 14.9713 17.3104 13.2866 15.2397 13.2866ZM15.2397 19.6721C13.7896 19.6721 12.6096 18.4921 12.6096 17.042C12.6096 15.5918 13.7894 14.4121 15.2397 14.4121C16.6901 14.4121 17.8697 15.5918 17.8697 17.042C17.8697 18.4921 16.6899 19.6721 15.2397 19.6721Z" fill="white"/>
<path d="M16.144 15.9572L14.9249 17.3062L14.2883 16.7952C14.115 16.656 13.8621 16.6843 13.7232 16.8569C13.5844 17.0301 13.612 17.2829 13.785 17.422L14.7172 18.1703C14.7913 18.2298 14.8802 18.2589 14.9686 18.2589C15.0786 18.2589 15.1879 18.214 15.2668 18.1264L16.7401 16.496C16.889 16.3314 16.8761 16.0774 16.7113 15.9286C16.547 15.7796 16.2927 15.7924 16.144 15.9572Z" fill="white"/>
</svg>
