<svg width="20" height="24" viewBox="0 0 20 24" fill="none" xmlns="http://www.w3.org/2000/svg">
<path d="M16.1906 10.119H16.1905H15.5571V6.55238C15.5571 5.05328 14.9616 3.61557 13.9016 2.55554C12.8416 1.49552 11.4039 0.9 9.90476 0.9C8.40566 0.9 6.96795 1.49552 5.90793 2.55554C4.8479 3.61557 4.25238 5.05328 4.25238 6.55238V10.119H3.61905H3.61894C2.89808 10.1199 2.20698 10.4066 1.69725 10.9163C1.18753 11.426 0.900811 12.1171 0.9 12.838V12.8381L0.9 20.381L0.9 20.3811C0.900811 21.1019 1.18753 21.793 1.69725 22.3027C2.20698 22.8125 2.89808 23.0992 3.61894 23.1H3.61905H16.1905H16.1906C16.9114 23.0992 17.6025 22.8125 18.1123 22.3027C18.622 21.793 18.9087 21.1019 18.9095 20.3811V20.381V12.8381V12.838C18.9087 12.1171 18.622 11.426 18.1123 10.9163C17.6025 10.4066 16.9114 10.1199 16.1906 10.119ZM5.5 6.55238C5.5 5.38417 5.96407 4.2638 6.79013 3.43774C7.61618 2.61169 8.73655 2.14762 9.90476 2.14762C11.073 2.14762 12.1933 2.61169 13.0194 3.43774C13.8455 4.2638 14.3095 5.38417 14.3095 6.55238V10.119H5.5V6.55238ZM17.6619 20.3808C17.6614 20.771 17.5062 21.145 17.2304 21.4208C16.9545 21.6967 16.5805 21.8519 16.1904 21.8524H3.61917C3.22904 21.8519 2.85503 21.6967 2.57917 21.4208C2.30333 21.145 2.14813 20.771 2.14762 20.3809C2.14762 20.3809 2.14762 20.3809 2.14762 20.3808V12.8382C2.14762 12.8382 2.14762 12.8382 2.14762 12.8381C2.14813 12.448 2.30333 12.0741 2.57917 11.7982C2.85503 11.5224 3.22904 11.3672 3.61917 11.3667H16.1904C16.5805 11.3672 16.9545 11.5224 17.2304 11.7982C17.5062 12.0741 17.6614 12.4481 17.6619 12.8382V20.3808Z" fill="white" stroke="white" stroke-width="0.2"/>
<path d="M16.8383 15.5097C16.7688 15.3894 16.6544 15.3016 16.5202 15.2656C16.386 15.2296 16.243 15.2484 16.1226 15.3177L15.4564 15.7024V14.9335C15.4564 14.7946 15.4012 14.6613 15.3029 14.5631C15.2047 14.4649 15.0715 14.4097 14.9325 14.4097C14.7936 14.4097 14.6604 14.4649 14.5622 14.5631C14.4639 14.6613 14.4087 14.7946 14.4087 14.9335V15.7021L13.7429 15.3177C13.6833 15.2833 13.6175 15.261 13.5493 15.2521C13.4811 15.2431 13.4118 15.2476 13.3453 15.2655C13.2788 15.2833 13.2165 15.314 13.162 15.3559C13.1074 15.3978 13.0616 15.4501 13.0272 15.5097C12.9928 15.5693 12.9705 15.6351 12.9615 15.7033C12.9525 15.7715 12.9571 15.8408 12.9749 15.9073C12.9927 15.9737 13.0235 16.036 13.0654 16.0906C13.1073 16.1452 13.1595 16.191 13.2191 16.2254L13.8847 16.6097L13.2191 16.9939C13.1595 17.0283 13.1073 17.0741 13.0654 17.1287C13.0235 17.1833 12.9927 17.2456 12.9749 17.312C12.9571 17.3785 12.9525 17.4478 12.9615 17.5161C12.9705 17.5843 12.9928 17.6501 13.0272 17.7097C13.0966 17.83 13.2111 17.9179 13.3453 17.9539C13.4118 17.9717 13.4811 17.9762 13.5493 17.9673C13.6175 17.9583 13.6833 17.936 13.7429 17.9016L14.4087 17.5172V18.2859C14.4087 18.4248 14.4639 18.558 14.5622 18.6562C14.6604 18.7545 14.7936 18.8097 14.9325 18.8097C15.0715 18.8097 15.2047 18.7545 15.3029 18.6562C15.4012 18.558 15.4564 18.4248 15.4564 18.2859V17.517L16.1226 17.9016C16.2429 17.9711 16.386 17.9899 16.5202 17.9539C16.6544 17.9179 16.7689 17.83 16.8383 17.7097C16.9078 17.5893 16.9266 17.4463 16.8906 17.312C16.8546 17.1778 16.7668 17.0634 16.6464 16.9939L15.9808 16.6097L16.6464 16.2254C16.7667 16.1559 16.8544 16.0414 16.8904 15.9072C16.9264 15.773 16.9077 15.6301 16.8383 15.5097Z" fill="white"/>
<path d="M11.811 15.5097C11.7414 15.3894 11.627 15.3016 11.4928 15.2656C11.3586 15.2297 11.2156 15.2484 11.0952 15.3177L10.429 15.7024V14.9335C10.429 14.7946 10.3738 14.6613 10.2756 14.5631C10.1774 14.4649 10.0441 14.4097 9.90521 14.4097C9.76628 14.4097 9.63305 14.4649 9.53482 14.5631C9.43658 14.6613 9.3814 14.7946 9.3814 14.9335V15.7021L8.71558 15.3177C8.59521 15.2483 8.45219 15.2295 8.31796 15.2655C8.18373 15.3015 8.0693 15.3893 7.99984 15.5097C7.93038 15.63 7.91158 15.7731 7.94757 15.9073C7.98356 16.0415 8.0714 16.1559 8.19177 16.2254L8.85738 16.6097L8.19177 16.9939C8.0714 17.0634 7.98356 17.1778 7.94757 17.312C7.91158 17.4463 7.93038 17.5893 7.99984 17.7097C8.0693 17.83 8.18373 17.9179 8.31796 17.9539C8.45219 17.9899 8.59521 17.9711 8.71558 17.9016L9.3814 17.5172V18.2859C9.3814 18.4248 9.43658 18.558 9.53482 18.6562C9.63305 18.7545 9.76628 18.8097 9.90521 18.8097C10.0441 18.8097 10.1774 18.7545 10.2756 18.6562C10.3738 18.558 10.429 18.4248 10.429 18.2859V17.517L11.0952 17.9016C11.1548 17.936 11.2206 17.9583 11.2888 17.9673C11.3571 17.9762 11.4264 17.9717 11.4929 17.9539C11.5593 17.936 11.6216 17.9053 11.6762 17.8634C11.7308 17.8215 11.7766 17.7693 11.811 17.7097C11.8454 17.6501 11.8677 17.5843 11.8767 17.5161C11.8856 17.4478 11.8811 17.3785 11.8632 17.312C11.8454 17.2456 11.8147 17.1833 11.7728 17.1287C11.7309 17.0741 11.6786 17.0283 11.619 16.9939L10.9534 16.6097L11.619 16.2254C11.7393 16.1559 11.8271 16.0414 11.8631 15.9072C11.8991 15.773 11.8803 15.6301 11.811 15.5097Z" fill="white"/>
<path d="M6.78168 15.5097C6.71217 15.3894 6.59774 15.3016 6.46353 15.2656C6.32932 15.2296 6.18632 15.2483 6.06594 15.3177L5.39972 15.7024V14.9335C5.39972 14.7946 5.34453 14.6613 5.2463 14.5631C5.14807 14.4649 5.01483 14.4097 4.87591 14.4097C4.73699 14.4097 4.60375 14.4649 4.50552 14.5631C4.40729 14.6613 4.3521 14.7946 4.3521 14.9335V15.7021L3.68628 15.3177C3.56592 15.2483 3.42289 15.2295 3.28866 15.2655C3.15443 15.3015 3.04 15.3893 2.97054 15.5097C2.90108 15.63 2.88228 15.7731 2.91827 15.9073C2.95427 16.0415 3.04211 16.1559 3.16247 16.2254L3.82809 16.6097L3.16247 16.9939C3.04211 17.0634 2.95427 17.1778 2.91827 17.312C2.88228 17.4463 2.90108 17.5893 2.97054 17.7097C3.04 17.83 3.15443 17.9179 3.28866 17.9539C3.42289 17.9899 3.56592 17.9711 3.68628 17.9016L4.3521 17.5172V18.2859C4.3521 18.4248 4.40729 18.558 4.50552 18.6562C4.60375 18.7545 4.73699 18.8097 4.87591 18.8097C5.01483 18.8097 5.14807 18.7545 5.2463 18.6562C5.34453 18.558 5.39972 18.4248 5.39972 18.2859V17.517L6.06594 17.9016C6.1863 17.9711 6.32933 17.9899 6.46356 17.9539C6.59779 17.9179 6.71222 17.83 6.78168 17.7097C6.85114 17.5893 6.86994 17.4463 6.83395 17.312C6.79795 17.1778 6.71011 17.0634 6.58975 16.9939L5.92414 16.6097L6.58975 16.2254C6.71002 16.1559 6.79779 16.0414 6.83377 15.9072C6.86976 15.773 6.85102 15.6301 6.78168 15.5097Z" fill="white"/>
</svg>
