<svg width="28" height="26" viewBox="0 0 28 26" fill="none" xmlns="http://www.w3.org/2000/svg">
<mask id="path-1-outside-1_102_334" maskUnits="userSpaceOnUse" x="0" y="0" width="28" height="26" fill="black">
<rect fill="white" width="28" height="26"/>
<path d="M24.5948 8.92806H17.2438V3.77923C17.2426 3.04249 16.9494 2.33626 16.4285 1.8153C15.9075 1.29435 15.2013 1.00116 14.4645 1H3.77926C3.04252 1.00116 2.33629 1.29435 1.81534 1.8153C1.29439 2.33626 1.0012 3.04249 1.00004 3.77923V10.4608C0.997112 11.014 1.16306 11.5549 1.47572 12.0112C2.49316 13.9932 7.33808 16.9662 7.38653 17.0103C7.45535 17.0529 7.5346 17.0758 7.61556 17.0763C7.71903 17.0753 7.81882 17.0379 7.89745 16.9706C7.96739 16.9109 8.01689 16.8308 8.039 16.7416C8.06112 16.6523 8.05475 16.5584 8.02078 16.4729C7.63373 15.4214 7.33899 14.3383 7.13988 13.2356H11.1303V18.3889C11.1315 19.1252 11.4248 19.831 11.9459 20.3512C12.467 20.8715 13.1732 21.1637 13.9096 21.1637H21.2342C21.0351 22.2663 20.7404 23.3495 20.3533 24.401C20.3204 24.4859 20.3145 24.5789 20.3366 24.6672C20.3587 24.7556 20.4076 24.8349 20.4766 24.8943C20.5553 24.9615 20.6551 24.999 20.7585 25C20.8395 24.9994 20.9187 24.9766 20.9876 24.9339C21.036 24.9031 25.8809 21.9169 26.8984 19.9349C27.211 19.4785 27.377 18.9376 27.3741 18.3845V11.7073C27.3729 10.9705 27.0797 10.2643 26.5587 9.74336C26.0378 9.22241 25.3316 8.92923 24.5948 8.92806ZM9.55794 12.3547H6.61575C6.55213 12.3547 6.48926 12.3685 6.43148 12.3951C6.37369 12.4217 6.32236 12.4606 6.28101 12.5089C6.2392 12.5574 6.20847 12.6145 6.19098 12.6761C6.17348 12.7377 6.16963 12.8024 6.1797 12.8657C6.3313 13.7782 6.53571 14.6812 6.79193 15.57C5.26798 14.5394 2.86754 12.7688 2.26853 11.628C2.25503 11.5973 2.23882 11.5678 2.22008 11.5399C1.99819 11.2239 1.87971 10.8469 1.88093 10.4608V3.77923C1.8821 3.27611 2.08247 2.79394 2.43823 2.43819C2.79398 2.08243 3.27615 1.88206 3.77926 1.8809H14.4645C14.9676 1.88206 15.4498 2.08243 15.8056 2.43819C16.1613 2.79394 16.3617 3.27611 16.3629 3.77923V8.92806H13.9096C13.4947 8.92824 13.0851 9.02129 12.7109 9.2004C12.3367 9.3795 12.0073 9.64011 11.747 9.96311C11.1183 9.96442 10.4986 9.81328 9.94113 9.52266C10.7633 8.59184 11.2474 7.41092 11.3153 6.17086H11.8703C11.9871 6.17086 12.0991 6.12445 12.1817 6.04185C12.2643 5.95925 12.3107 5.84722 12.3107 5.73041C12.3107 5.6136 12.2643 5.50157 12.1817 5.41897C12.0991 5.33637 11.9871 5.28996 11.8703 5.28996H9.57996V3.89815C9.57996 3.78133 9.53356 3.6693 9.45096 3.5867C9.36836 3.5041 9.25633 3.4577 9.13951 3.4577C9.0227 3.4577 8.91067 3.5041 8.82807 3.5867C8.74547 3.6693 8.69907 3.78133 8.69907 3.89815V5.27675H6.40433C6.28752 5.27675 6.17549 5.32315 6.09289 5.40575C6.01029 5.48835 5.96388 5.60038 5.96388 5.7172C5.96388 5.83401 6.01029 5.94604 6.09289 6.02864C6.17549 6.11124 6.28752 6.15764 6.40433 6.15764H10.43C10.3658 7.17774 9.96457 8.1476 9.28927 8.91485L9.21879 8.98091C8.72882 8.5023 8.35253 7.9198 8.11767 7.27638C8.07562 7.16716 7.9919 7.07912 7.88494 7.03162C7.77797 6.98413 7.65652 6.98107 7.54729 7.02312C7.43807 7.06518 7.35003 7.14889 7.30254 7.25586C7.25504 7.36283 7.25198 7.48428 7.29404 7.5935C7.55669 8.30677 7.96465 8.9577 8.49205 9.50505C7.84985 9.82953 7.13677 9.9885 6.41755 9.96752C6.30073 9.96752 6.1887 10.0139 6.1061 10.0965C6.0235 10.1791 5.9771 10.2912 5.9771 10.408C5.9771 10.5248 6.0235 10.6368 6.1061 10.7194C6.1887 10.802 6.30073 10.8484 6.41755 10.8484C7.40535 10.8793 8.38063 10.6206 9.2232 10.1041C9.84269 10.4985 10.5484 10.7372 11.2801 10.8C11.1815 11.0832 11.1309 11.3809 11.1303 11.6809V12.3283L9.55794 12.3547ZM26.4932 18.3889C26.4944 18.775 26.3759 19.152 26.154 19.468C26.1351 19.4934 26.1202 19.5216 26.11 19.5517C25.511 20.6924 23.1061 22.4674 21.5822 23.5157C21.8384 22.6268 22.0428 21.7239 22.1944 20.8113C22.2045 20.7481 22.2006 20.6834 22.1831 20.6218C22.1656 20.5602 22.1349 20.5031 22.0931 20.4546C22.0517 20.4062 22.0004 20.3674 21.9426 20.3408C21.8848 20.3142 21.822 20.3004 21.7583 20.3004H13.9096C13.4069 20.3004 12.9247 20.101 12.5688 19.746C12.2129 19.3909 12.0124 18.9092 12.0112 18.4065V11.7073C12.0124 11.2042 12.2128 10.722 12.5685 10.3662C12.9243 10.0105 13.4065 9.81012 13.9096 9.80896H24.5948C25.0979 9.81012 25.5801 10.0105 25.9359 10.3662C26.2916 10.722 26.492 11.2042 26.4932 11.7073V18.3889ZM19.6794 11.6148C19.6627 11.5779 19.6404 11.5437 19.6134 11.5135C19.6134 11.5135 19.6134 11.4827 19.5825 11.4694C19.567 11.4582 19.5509 11.4479 19.5341 11.4386C19.506 11.4142 19.4749 11.3935 19.4416 11.3769C19.4181 11.3749 19.3946 11.3749 19.3711 11.3769C19.3403 11.3749 19.3094 11.3749 19.2786 11.3769C19.2397 11.38 19.2013 11.3874 19.1641 11.399H19.1157C19.0745 11.4172 19.0359 11.4409 19.0011 11.4694L18.9703 11.4915L18.9351 11.5443C18.912 11.5734 18.8914 11.6043 18.8734 11.6368L16.2307 18.2435C16.2093 18.2973 16.1986 18.3548 16.1994 18.4127C16.2002 18.4706 16.2124 18.5278 16.2353 18.581C16.2582 18.6342 16.2914 18.6823 16.3329 18.7226C16.3745 18.763 16.4235 18.7948 16.4774 18.8161C16.5291 18.8373 16.5845 18.8478 16.6403 18.8469C16.7286 18.847 16.8148 18.8206 16.8878 18.7712C16.9608 18.7217 17.0173 18.6514 17.05 18.5695L17.8163 16.6447H20.7453L21.5161 18.5695C21.5487 18.6514 21.6052 18.7217 21.6783 18.7712C21.7513 18.8206 21.8375 18.847 21.9257 18.8469C21.9815 18.8471 22.0368 18.8366 22.0887 18.8161C22.1425 18.7948 22.1916 18.763 22.2331 18.7226C22.2747 18.6823 22.3078 18.6342 22.3307 18.581C22.3537 18.5278 22.3658 18.4706 22.3666 18.4127C22.3674 18.3548 22.3568 18.2973 22.3353 18.2435L19.6794 11.6148ZM18.1511 15.7418L19.2654 12.9626L20.3753 15.7418H18.1511Z"/>
</mask>
<path d="M24.5948 8.92806H17.2438V3.77923C17.2426 3.04249 16.9494 2.33626 16.4285 1.8153C15.9075 1.29435 15.2013 1.00116 14.4645 1H3.77926C3.04252 1.00116 2.33629 1.29435 1.81534 1.8153C1.29439 2.33626 1.0012 3.04249 1.00004 3.77923V10.4608C0.997112 11.014 1.16306 11.5549 1.47572 12.0112C2.49316 13.9932 7.33808 16.9662 7.38653 17.0103C7.45535 17.0529 7.5346 17.0758 7.61556 17.0763C7.71903 17.0753 7.81882 17.0379 7.89745 16.9706C7.96739 16.9109 8.01689 16.8308 8.039 16.7416C8.06112 16.6523 8.05475 16.5584 8.02078 16.4729C7.63373 15.4214 7.33899 14.3383 7.13988 13.2356H11.1303V18.3889C11.1315 19.1252 11.4248 19.831 11.9459 20.3512C12.467 20.8715 13.1732 21.1637 13.9096 21.1637H21.2342C21.0351 22.2663 20.7404 23.3495 20.3533 24.401C20.3204 24.4859 20.3145 24.5789 20.3366 24.6672C20.3587 24.7556 20.4076 24.8349 20.4766 24.8943C20.5553 24.9615 20.6551 24.999 20.7585 25C20.8395 24.9994 20.9187 24.9766 20.9876 24.9339C21.036 24.9031 25.8809 21.9169 26.8984 19.9349C27.211 19.4785 27.377 18.9376 27.3741 18.3845V11.7073C27.3729 10.9705 27.0797 10.2643 26.5587 9.74336C26.0378 9.22241 25.3316 8.92923 24.5948 8.92806ZM9.55794 12.3547H6.61575C6.55213 12.3547 6.48926 12.3685 6.43148 12.3951C6.37369 12.4217 6.32236 12.4606 6.28101 12.5089C6.2392 12.5574 6.20847 12.6145 6.19098 12.6761C6.17348 12.7377 6.16963 12.8024 6.1797 12.8657C6.3313 13.7782 6.53571 14.6812 6.79193 15.57C5.26798 14.5394 2.86754 12.7688 2.26853 11.628C2.25503 11.5973 2.23882 11.5678 2.22008 11.5399C1.99819 11.2239 1.87971 10.8469 1.88093 10.4608V3.77923C1.8821 3.27611 2.08247 2.79394 2.43823 2.43819C2.79398 2.08243 3.27615 1.88206 3.77926 1.8809H14.4645C14.9676 1.88206 15.4498 2.08243 15.8056 2.43819C16.1613 2.79394 16.3617 3.27611 16.3629 3.77923V8.92806H13.9096C13.4947 8.92824 13.0851 9.02129 12.7109 9.2004C12.3367 9.3795 12.0073 9.64011 11.747 9.96311C11.1183 9.96442 10.4986 9.81328 9.94113 9.52266C10.7633 8.59184 11.2474 7.41092 11.3153 6.17086H11.8703C11.9871 6.17086 12.0991 6.12445 12.1817 6.04185C12.2643 5.95925 12.3107 5.84722 12.3107 5.73041C12.3107 5.6136 12.2643 5.50157 12.1817 5.41897C12.0991 5.33637 11.9871 5.28996 11.8703 5.28996H9.57996V3.89815C9.57996 3.78133 9.53356 3.6693 9.45096 3.5867C9.36836 3.5041 9.25633 3.4577 9.13951 3.4577C9.0227 3.4577 8.91067 3.5041 8.82807 3.5867C8.74547 3.6693 8.69907 3.78133 8.69907 3.89815V5.27675H6.40433C6.28752 5.27675 6.17549 5.32315 6.09289 5.40575C6.01029 5.48835 5.96388 5.60038 5.96388 5.7172C5.96388 5.83401 6.01029 5.94604 6.09289 6.02864C6.17549 6.11124 6.28752 6.15764 6.40433 6.15764H10.43C10.3658 7.17774 9.96457 8.1476 9.28927 8.91485L9.21879 8.98091C8.72882 8.5023 8.35253 7.9198 8.11767 7.27638C8.07562 7.16716 7.9919 7.07912 7.88494 7.03162C7.77797 6.98413 7.65652 6.98107 7.54729 7.02312C7.43807 7.06518 7.35003 7.14889 7.30254 7.25586C7.25504 7.36283 7.25198 7.48428 7.29404 7.5935C7.55669 8.30677 7.96465 8.9577 8.49205 9.50505C7.84985 9.82953 7.13677 9.9885 6.41755 9.96752C6.30073 9.96752 6.1887 10.0139 6.1061 10.0965C6.0235 10.1791 5.9771 10.2912 5.9771 10.408C5.9771 10.5248 6.0235 10.6368 6.1061 10.7194C6.1887 10.802 6.30073 10.8484 6.41755 10.8484C7.40535 10.8793 8.38063 10.6206 9.2232 10.1041C9.84269 10.4985 10.5484 10.7372 11.2801 10.8C11.1815 11.0832 11.1309 11.3809 11.1303 11.6809V12.3283L9.55794 12.3547ZM26.4932 18.3889C26.4944 18.775 26.3759 19.152 26.154 19.468C26.1351 19.4934 26.1202 19.5216 26.11 19.5517C25.511 20.6924 23.1061 22.4674 21.5822 23.5157C21.8384 22.6268 22.0428 21.7239 22.1944 20.8113C22.2045 20.7481 22.2006 20.6834 22.1831 20.6218C22.1656 20.5602 22.1349 20.5031 22.0931 20.4546C22.0517 20.4062 22.0004 20.3674 21.9426 20.3408C21.8848 20.3142 21.822 20.3004 21.7583 20.3004H13.9096C13.4069 20.3004 12.9247 20.101 12.5688 19.746C12.2129 19.3909 12.0124 18.9092 12.0112 18.4065V11.7073C12.0124 11.2042 12.2128 10.722 12.5685 10.3662C12.9243 10.0105 13.4065 9.81012 13.9096 9.80896H24.5948C25.0979 9.81012 25.5801 10.0105 25.9359 10.3662C26.2916 10.722 26.492 11.2042 26.4932 11.7073V18.3889ZM19.6794 11.6148C19.6627 11.5779 19.6404 11.5437 19.6134 11.5135C19.6134 11.5135 19.6134 11.4827 19.5825 11.4694C19.567 11.4582 19.5509 11.4479 19.5341 11.4386C19.506 11.4142 19.4749 11.3935 19.4416 11.3769C19.4181 11.3749 19.3946 11.3749 19.3711 11.3769C19.3403 11.3749 19.3094 11.3749 19.2786 11.3769C19.2397 11.38 19.2013 11.3874 19.1641 11.399H19.1157C19.0745 11.4172 19.0359 11.4409 19.0011 11.4694L18.9703 11.4915L18.9351 11.5443C18.912 11.5734 18.8914 11.6043 18.8734 11.6368L16.2307 18.2435C16.2093 18.2973 16.1986 18.3548 16.1994 18.4127C16.2002 18.4706 16.2124 18.5278 16.2353 18.581C16.2582 18.6342 16.2914 18.6823 16.3329 18.7226C16.3745 18.763 16.4235 18.7948 16.4774 18.8161C16.5291 18.8373 16.5845 18.8478 16.6403 18.8469C16.7286 18.847 16.8148 18.8206 16.8878 18.7712C16.9608 18.7217 17.0173 18.6514 17.05 18.5695L17.8163 16.6447H20.7453L21.5161 18.5695C21.5487 18.6514 21.6052 18.7217 21.6783 18.7712C21.7513 18.8206 21.8375 18.847 21.9257 18.8469C21.9815 18.8471 22.0368 18.8366 22.0887 18.8161C22.1425 18.7948 22.1916 18.763 22.2331 18.7226C22.2747 18.6823 22.3078 18.6342 22.3307 18.581C22.3537 18.5278 22.3658 18.4706 22.3666 18.4127C22.3674 18.3548 22.3568 18.2973 22.3353 18.2435L19.6794 11.6148ZM18.1511 15.7418L19.2654 12.9626L20.3753 15.7418H18.1511Z" fill="white"/>
<path d="M24.5948 8.92806H17.2438V3.77923C17.2426 3.04249 16.9494 2.33626 16.4285 1.8153C15.9075 1.29435 15.2013 1.00116 14.4645 1H3.77926C3.04252 1.00116 2.33629 1.29435 1.81534 1.8153C1.29439 2.33626 1.0012 3.04249 1.00004 3.77923V10.4608C0.997112 11.014 1.16306 11.5549 1.47572 12.0112C2.49316 13.9932 7.33808 16.9662 7.38653 17.0103C7.45535 17.0529 7.5346 17.0758 7.61556 17.0763C7.71903 17.0753 7.81882 17.0379 7.89745 16.9706C7.96739 16.9109 8.01689 16.8308 8.039 16.7416C8.06112 16.6523 8.05475 16.5584 8.02078 16.4729C7.63373 15.4214 7.33899 14.3383 7.13988 13.2356H11.1303V18.3889C11.1315 19.1252 11.4248 19.831 11.9459 20.3512C12.467 20.8715 13.1732 21.1637 13.9096 21.1637H21.2342C21.0351 22.2663 20.7404 23.3495 20.3533 24.401C20.3204 24.4859 20.3145 24.5789 20.3366 24.6672C20.3587 24.7556 20.4076 24.8349 20.4766 24.8943C20.5553 24.9615 20.6551 24.999 20.7585 25C20.8395 24.9994 20.9187 24.9766 20.9876 24.9339C21.036 24.9031 25.8809 21.9169 26.8984 19.9349C27.211 19.4785 27.377 18.9376 27.3741 18.3845V11.7073C27.3729 10.9705 27.0797 10.2643 26.5587 9.74336C26.0378 9.22241 25.3316 8.92923 24.5948 8.92806ZM9.55794 12.3547H6.61575C6.55213 12.3547 6.48926 12.3685 6.43148 12.3951C6.37369 12.4217 6.32236 12.4606 6.28101 12.5089C6.2392 12.5574 6.20847 12.6145 6.19098 12.6761C6.17348 12.7377 6.16963 12.8024 6.1797 12.8657C6.3313 13.7782 6.53571 14.6812 6.79193 15.57C5.26798 14.5394 2.86754 12.7688 2.26853 11.628C2.25503 11.5973 2.23882 11.5678 2.22008 11.5399C1.99819 11.2239 1.87971 10.8469 1.88093 10.4608V3.77923C1.8821 3.27611 2.08247 2.79394 2.43823 2.43819C2.79398 2.08243 3.27615 1.88206 3.77926 1.8809H14.4645C14.9676 1.88206 15.4498 2.08243 15.8056 2.43819C16.1613 2.79394 16.3617 3.27611 16.3629 3.77923V8.92806H13.9096C13.4947 8.92824 13.0851 9.02129 12.7109 9.2004C12.3367 9.3795 12.0073 9.64011 11.747 9.96311C11.1183 9.96442 10.4986 9.81328 9.94113 9.52266C10.7633 8.59184 11.2474 7.41092 11.3153 6.17086H11.8703C11.9871 6.17086 12.0991 6.12445 12.1817 6.04185C12.2643 5.95925 12.3107 5.84722 12.3107 5.73041C12.3107 5.6136 12.2643 5.50157 12.1817 5.41897C12.0991 5.33637 11.9871 5.28996 11.8703 5.28996H9.57996V3.89815C9.57996 3.78133 9.53356 3.6693 9.45096 3.5867C9.36836 3.5041 9.25633 3.4577 9.13951 3.4577C9.0227 3.4577 8.91067 3.5041 8.82807 3.5867C8.74547 3.6693 8.69907 3.78133 8.69907 3.89815V5.27675H6.40433C6.28752 5.27675 6.17549 5.32315 6.09289 5.40575C6.01029 5.48835 5.96388 5.60038 5.96388 5.7172C5.96388 5.83401 6.01029 5.94604 6.09289 6.02864C6.17549 6.11124 6.28752 6.15764 6.40433 6.15764H10.43C10.3658 7.17774 9.96457 8.1476 9.28927 8.91485L9.21879 8.98091C8.72882 8.5023 8.35253 7.9198 8.11767 7.27638C8.07562 7.16716 7.9919 7.07912 7.88494 7.03162C7.77797 6.98413 7.65652 6.98107 7.54729 7.02312C7.43807 7.06518 7.35003 7.14889 7.30254 7.25586C7.25504 7.36283 7.25198 7.48428 7.29404 7.5935C7.55669 8.30677 7.96465 8.9577 8.49205 9.50505C7.84985 9.82953 7.13677 9.9885 6.41755 9.96752C6.30073 9.96752 6.1887 10.0139 6.1061 10.0965C6.0235 10.1791 5.9771 10.2912 5.9771 10.408C5.9771 10.5248 6.0235 10.6368 6.1061 10.7194C6.1887 10.802 6.30073 10.8484 6.41755 10.8484C7.40535 10.8793 8.38063 10.6206 9.2232 10.1041C9.84269 10.4985 10.5484 10.7372 11.2801 10.8C11.1815 11.0832 11.1309 11.3809 11.1303 11.6809V12.3283L9.55794 12.3547ZM26.4932 18.3889C26.4944 18.775 26.3759 19.152 26.154 19.468C26.1351 19.4934 26.1202 19.5216 26.11 19.5517C25.511 20.6924 23.1061 22.4674 21.5822 23.5157C21.8384 22.6268 22.0428 21.7239 22.1944 20.8113C22.2045 20.7481 22.2006 20.6834 22.1831 20.6218C22.1656 20.5602 22.1349 20.5031 22.0931 20.4546C22.0517 20.4062 22.0004 20.3674 21.9426 20.3408C21.8848 20.3142 21.822 20.3004 21.7583 20.3004H13.9096C13.4069 20.3004 12.9247 20.101 12.5688 19.746C12.2129 19.3909 12.0124 18.9092 12.0112 18.4065V11.7073C12.0124 11.2042 12.2128 10.722 12.5685 10.3662C12.9243 10.0105 13.4065 9.81012 13.9096 9.80896H24.5948C25.0979 9.81012 25.5801 10.0105 25.9359 10.3662C26.2916 10.722 26.492 11.2042 26.4932 11.7073V18.3889ZM19.6794 11.6148C19.6627 11.5779 19.6404 11.5437 19.6134 11.5135C19.6134 11.5135 19.6134 11.4827 19.5825 11.4694C19.567 11.4582 19.5509 11.4479 19.5341 11.4386C19.506 11.4142 19.4749 11.3935 19.4416 11.3769C19.4181 11.3749 19.3946 11.3749 19.3711 11.3769C19.3403 11.3749 19.3094 11.3749 19.2786 11.3769C19.2397 11.38 19.2013 11.3874 19.1641 11.399H19.1157C19.0745 11.4172 19.0359 11.4409 19.0011 11.4694L18.9703 11.4915L18.9351 11.5443C18.912 11.5734 18.8914 11.6043 18.8734 11.6368L16.2307 18.2435C16.2093 18.2973 16.1986 18.3548 16.1994 18.4127C16.2002 18.4706 16.2124 18.5278 16.2353 18.581C16.2582 18.6342 16.2914 18.6823 16.3329 18.7226C16.3745 18.763 16.4235 18.7948 16.4774 18.8161C16.5291 18.8373 16.5845 18.8478 16.6403 18.8469C16.7286 18.847 16.8148 18.8206 16.8878 18.7712C16.9608 18.7217 17.0173 18.6514 17.05 18.5695L17.8163 16.6447H20.7453L21.5161 18.5695C21.5487 18.6514 21.6052 18.7217 21.6783 18.7712C21.7513 18.8206 21.8375 18.847 21.9257 18.8469C21.9815 18.8471 22.0368 18.8366 22.0887 18.8161C22.1425 18.7948 22.1916 18.763 22.2331 18.7226C22.2747 18.6823 22.3078 18.6342 22.3307 18.581C22.3537 18.5278 22.3658 18.4706 22.3666 18.4127C22.3674 18.3548 22.3568 18.2973 22.3353 18.2435L19.6794 11.6148ZM18.1511 15.7418L19.2654 12.9626L20.3753 15.7418H18.1511Z" stroke="white" stroke-width="0.4" mask="url(#path-1-outside-1_102_334)"/>
</svg>
