<svg width="34" height="20" viewBox="0 0 34 20" fill="none" xmlns="http://www.w3.org/2000/svg">
<path d="M10.334 18.3335C10.334 16.5654 11.0364 14.8697 12.2866 13.6195C13.5368 12.3692 15.2325 11.6668 17.0007 11.6668C18.7688 11.6668 20.4645 12.3692 21.7147 13.6195C22.9649 14.8697 23.6673 16.5654 23.6673 18.3335H22.0006C22.0006 17.0074 21.4739 15.7356 20.5362 14.798C19.5985 13.8603 18.3267 13.3335 17.0007 13.3335C15.6746 13.3335 14.4028 13.8603 13.4651 14.798C12.5274 15.7356 12.0007 17.0074 12.0007 18.3335H10.334ZM17.0007 10.8335C14.2382 10.8335 12.0007 8.596 12.0007 5.8335C12.0007 3.071 14.2382 0.833496 17.0007 0.833496C19.7632 0.833496 22.0006 3.071 22.0006 5.8335C22.0006 8.596 19.7632 10.8335 17.0007 10.8335ZM17.0007 9.16683C18.8423 9.16683 20.334 7.67516 20.334 5.8335C20.334 3.99183 18.8423 2.50016 17.0007 2.50016C15.159 2.50016 13.6673 3.99183 13.6673 5.8335C13.6673 7.67516 15.159 9.16683 17.0007 9.16683Z" fill="white"/>
<path d="M2.5 15.75C2.5 14.4239 3.02678 13.1521 3.96447 12.2145C4.90215 11.2768 6.17392 10.75 7.5 10.75C8.82608 10.75 10.0979 11.2768 11.0355 12.2145C11.9732 13.1521 12.5 14.4239 12.5 15.75H11.25C11.25 14.7554 10.8549 13.8016 10.1517 13.0983C9.44839 12.3951 8.49456 12 7.5 12C6.50544 12 5.55161 12.3951 4.84835 13.0983C4.14509 13.8016 3.75 14.7554 3.75 15.75H2.5ZM7.5 10.125C5.42812 10.125 3.75 8.44688 3.75 6.375C3.75 4.30312 5.42812 2.625 7.5 2.625C9.57188 2.625 11.25 4.30312 11.25 6.375C11.25 8.44688 9.57188 10.125 7.5 10.125ZM7.5 8.875C8.88125 8.875 10 7.75625 10 6.375C10 4.99375 8.88125 3.875 7.5 3.875C6.11875 3.875 5 4.99375 5 6.375C5 7.75625 6.11875 8.875 7.5 8.875Z" fill="white"/>
<path d="M21.5 15.75C21.5 14.4239 22.0268 13.1521 22.9645 12.2145C23.9021 11.2768 25.1739 10.75 26.5 10.75C27.8261 10.75 29.0979 11.2768 30.0355 12.2145C30.9732 13.1521 31.5 14.4239 31.5 15.75H30.25C30.25 14.7554 29.8549 13.8016 29.1517 13.0983C28.4484 12.3951 27.4946 12 26.5 12C25.5054 12 24.5516 12.3951 23.8483 13.0983C23.1451 13.8016 22.75 14.7554 22.75 15.75H21.5ZM26.5 10.125C24.4281 10.125 22.75 8.44688 22.75 6.375C22.75 4.30312 24.4281 2.625 26.5 2.625C28.5719 2.625 30.25 4.30312 30.25 6.375C30.25 8.44688 28.5719 10.125 26.5 10.125ZM26.5 8.875C27.8813 8.875 29 7.75625 29 6.375C29 4.99375 27.8813 3.875 26.5 3.875C25.1187 3.875 24 4.99375 24 6.375C24 7.75625 25.1187 8.875 26.5 8.875Z" fill="white"/>
</svg>
