<svg width="19" height="14" viewBox="0 0 19 14" fill="none" xmlns="http://www.w3.org/2000/svg">
<path d="M17.9685 7.70754H0.718271C0.527774 7.70754 0.345079 7.63186 0.210377 7.49716C0.0756748 7.36246 0 7.17976 0 6.98927C0 6.79877 0.0756748 6.61607 0.210377 6.48137C0.345079 6.34667 0.527774 6.271 0.718271 6.271H17.9685C18.159 6.271 18.3416 6.34667 18.4763 6.48137C18.6111 6.61607 18.6867 6.79877 18.6867 6.98927C18.6867 7.17976 18.6111 7.36246 18.4763 7.49716C18.3416 7.63186 18.159 7.70754 17.9685 7.70754Z" fill="#1A2145"/>
<path d="M7.46914 13.9997C7.28802 13.9998 7.11367 13.9309 6.98154 13.807L0.230959 7.51774C0.15911 7.45004 0.101862 7.36837 0.0627324 7.27774C0.0236029 7.18711 0.00341797 7.08943 0.00341797 6.99072C0.00341797 6.892 0.0236029 6.79432 0.0627324 6.70369C0.101862 6.61306 0.15911 6.53139 0.230959 6.46369L6.98154 0.191962C7.05075 0.127736 7.13193 0.0777721 7.22045 0.0449212C7.30897 0.0120704 7.40309 -0.0030235 7.49744 0.000501173C7.5918 0.00402584 7.68453 0.0261 7.77035 0.0654636C7.85617 0.104827 7.9334 0.160709 7.99763 0.229919C8.06185 0.299129 8.11182 0.380311 8.14467 0.46883C8.17752 0.55735 8.19261 0.651473 8.18909 0.745826C8.18556 0.840178 8.16349 0.932913 8.12413 1.01873C8.08476 1.10456 8.02888 1.18178 7.95967 1.24601L1.77553 6.99218L7.95967 12.7383C8.07185 12.8353 8.15126 12.9646 8.18701 13.1085C8.22277 13.2524 8.21311 13.4039 8.15937 13.5421C8.10563 13.6803 8.01043 13.7984 7.88685 13.8804C7.76327 13.9623 7.61736 14.004 7.46914 13.9997Z" fill="#1A2145"/>
</svg>
