<svg width="21" height="21" viewBox="0 0 21 21" fill="none" xmlns="http://www.w3.org/2000/svg">
<path d="M6.00667 3.69633C6.00667 4.25319 5.56173 4.69867 5.00555 4.69867C4.44938 4.69867 4.00444 4.25319 4.00444 3.69633V1.0234C4.00444 0.466545 4.44938 0.0210571 5.00555 0.0210571C5.56173 0.0210571 6.00667 0.466545 6.00667 1.0234V3.69633ZM15.7953 1.0234C15.7953 0.466545 15.3504 0.0210571 14.7942 0.0210571C14.238 0.0210571 13.7931 0.466545 13.7931 1.0234V3.69633C13.7931 4.25319 14.238 4.69867 14.7942 4.69867C15.3504 4.69867 15.7953 4.25319 15.7953 3.69633V1.0234ZM20.0222 3.56268V18.9543C20.0222 19.5557 19.5328 20.0457 18.9099 20.0457H1.11235C0.489432 20.0457 0 19.5557 0 18.9543V3.56268C0 2.96127 0.489432 2.47124 1.11235 2.47124H3.33704V3.69633C3.33704 4.65413 4.04894 5.41145 5.00555 5.41145C5.96217 5.41145 6.67407 4.63185 6.67407 3.69633V2.47124H13.1257V3.69633C13.1257 4.65413 13.8376 5.41145 14.7942 5.41145C15.7508 5.41145 16.4627 4.63185 16.4627 3.69633V2.47124H18.8876C19.4883 2.47124 20.0222 2.96127 20.0222 3.56268ZM18.2425 7.57207C18.2425 7.34932 18.0422 7.14886 17.7975 7.14886H2.22469C1.97997 7.14886 1.77975 7.32705 1.77975 7.57207V17.8628C1.77975 18.0856 1.97997 18.286 2.22469 18.286H17.7975C18.0422 18.286 18.2425 18.1078 18.2425 17.8628V7.57207Z" fill="#1A2145"/>
</svg>
