<svg width="9" height="8" viewBox="0 0 9 8" fill="none" xmlns="http://www.w3.org/2000/svg">
<path d="M3.05563 7.18059L0.132171 4.12657C0.0902852 4.08308 0.0570442 4.03137 0.034361 3.97442C0.0116777 3.91746 0 3.85638 0 3.79469C0 3.733 0.0116777 3.67192 0.034361 3.61496C0.0570442 3.558 0.0902852 3.50629 0.132171 3.46281L0.767555 2.79905C0.809478 2.75518 0.859269 2.72038 0.91408 2.69663C0.968891 2.67289 1.02765 2.66067 1.08698 2.66067C1.14632 2.66067 1.20507 2.67289 1.25989 2.69663C1.3147 2.72038 1.36449 2.75518 1.40641 2.79905L3.37506 4.85562L7.59359 0.448685C7.63551 0.404817 7.6853 0.370015 7.74011 0.34627C7.79493 0.322525 7.85368 0.310303 7.91302 0.310303C7.97235 0.310303 8.03111 0.322525 8.08592 0.34627C8.14073 0.370015 8.19052 0.404817 8.23244 0.448685L8.86783 1.11244C8.90971 1.15593 8.94296 1.20764 8.96564 1.2646C8.98832 1.32155 9 1.38263 9 1.44432C9 1.50601 8.98832 1.5671 8.96564 1.62405C8.94296 1.68101 8.90971 1.73272 8.86783 1.7762L3.69449 7.18059C3.65256 7.22445 3.60277 7.25926 3.54796 7.283C3.49315 7.30675 3.4344 7.31897 3.37506 7.31897C3.31572 7.31897 3.25697 7.30675 3.20216 7.283C3.14734 7.25926 3.09755 7.22445 3.05563 7.18059Z" fill="white"/>
</svg>
