<?xml version="1.0" encoding="UTF-8"?>
<svg xmlns="http://www.w3.org/2000/svg" xmlns:xlink="http://www.w3.org/1999/xlink" width="21px" height="21px" viewBox="0 0 21 21" version="1.1">
<g id="surface1">
<path style=" stroke:none;fill-rule:nonzero;fill:rgb(9.411765%,85.490196%,62.745098%);fill-opacity:1;" d="M 21 10.5 C 21 16.300781 16.300781 21 10.5 21 C 4.699219 21 0 16.300781 0 10.5 C 0 4.699219 4.699219 0 10.5 0 C 16.300781 0 21 4.699219 21 10.5 Z M 21 10.5 "/>
<path style=" stroke:none;fill-rule:nonzero;fill:rgb(100%,100%,100%);fill-opacity:1;" d="M 15.800781 15.300781 L 12.800781 12.300781 C 13.398438 11.601562 13.800781 10.601562 13.800781 9.5 C 13.800781 7.101562 11.898438 5.199219 9.5 5.199219 C 7.101562 5.199219 5.199219 7.101562 5.199219 9.5 C 5.199219 11.898438 7.101562 13.800781 9.5 13.800781 C 10.5 13.800781 11.5 13.398438 12.300781 12.800781 L 15.300781 15.800781 Z M 6 9.5 C 6 7.5 7.5 6 9.5 6 C 11.5 6 13 7.5 13 9.5 C 13 10.5 12.601562 11.398438 11.898438 12.101562 L 11.601562 10.601562 L 9.898438 10.300781 L 9.699219 10.5 L 10 12.199219 L 9.5 12.898438 L 9 12.101562 L 9.300781 10.398438 L 9.101562 10.199219 L 7.398438 10.5 L 7.101562 12 C 6.398438 11.398438 6 10.5 6 9.5 Z M 6 9.5 "/>
<path style=" stroke:none;fill-rule:nonzero;fill:rgb(100%,100%,100%);fill-opacity:1;" d="M 10 7.199219 C 10.699219 7.5 11.101562 8.300781 10.800781 9.101562 C 10.5 9.800781 9.699219 10.199219 8.898438 9.898438 C 8.199219 9.5 7.898438 8.601562 8.199219 7.898438 C 8.5 7.199219 9.300781 6.898438 10 7.199219 "/>
</g>
</svg>
