<svg width="17" height="17" viewBox="0 0 17 17" fill="none" xmlns="http://www.w3.org/2000/svg">
<path d="M8.41511 0C3.76759 0 0 3.76759 0 8.41511C0 13.0627 3.76759 16.8303 8.41511 16.8303C13.0627 16.8303 16.8303 13.0627 16.8303 8.41511C16.8303 3.76755 13.0627 0 8.41511 0ZM12.0722 10.5455C12.4938 10.9671 12.4938 11.6506 12.0722 12.0722C11.8614 12.283 11.5851 12.3884 11.3088 12.3884C11.0326 12.3884 10.7563 12.283 10.5455 12.0722L8.41511 9.9419L6.28475 12.0722C6.074 12.283 5.7976 12.3884 5.52138 12.3884C5.24507 12.3884 4.9688 12.2831 4.758 12.0722C4.33641 11.6506 4.33641 10.9671 4.758 10.5455L6.88836 8.41515L4.758 6.2848C4.33641 5.8632 4.33641 5.17964 4.758 4.75805C5.1796 4.33646 5.86316 4.33646 6.28475 4.75805L8.41511 6.88841L10.5455 4.75805C10.9671 4.33641 11.6507 4.33646 12.0722 4.75805C12.4938 5.17964 12.4938 5.8632 12.0722 6.2848L9.94185 8.41515L12.0722 10.5455Z" fill="white"/>
</svg>
