<svg width="18" height="18" viewBox="0 0 18 18" fill="none" xmlns="http://www.w3.org/2000/svg">
<circle cx="9" cy="9" r="9" fill="#18DAA0"/>
<path d="M8.05563 12.1806L5.13217 9.12657C5.09029 9.08308 5.05704 9.03137 5.03436 8.97442C5.01168 8.91746 5 8.85638 5 8.79469C5 8.733 5.01168 8.67192 5.03436 8.61496C5.05704 8.558 5.09029 8.50629 5.13217 8.46281L5.76755 7.79905C5.80948 7.75518 5.85927 7.72038 5.91408 7.69663C5.96889 7.67289 6.02765 7.66067 6.08698 7.66067C6.14632 7.66067 6.20507 7.67289 6.25989 7.69663C6.3147 7.72038 6.36449 7.75518 6.40641 7.79905L8.37506 9.85562L12.5936 5.44869C12.6355 5.40482 12.6853 5.37002 12.7401 5.34627C12.7949 5.32253 12.8537 5.3103 12.913 5.3103C12.9724 5.3103 13.0311 5.32253 13.0859 5.34627C13.1407 5.37002 13.1905 5.40482 13.2324 5.44869L13.8678 6.11244C13.9097 6.15593 13.943 6.20764 13.9656 6.2646C13.9883 6.32155 14 6.38263 14 6.44432C14 6.50601 13.9883 6.5671 13.9656 6.62405C13.943 6.68101 13.9097 6.73272 13.8678 6.7762L8.69449 12.1806C8.65256 12.2245 8.60277 12.2593 8.54796 12.283C8.49315 12.3067 8.4344 12.319 8.37506 12.319C8.31572 12.319 8.25697 12.3067 8.20216 12.283C8.14734 12.2593 8.09755 12.2245 8.05563 12.1806Z" fill="white"/>
</svg>
