<svg width="20" height="20" viewBox="0 0 20 20" fill="none" xmlns="http://www.w3.org/2000/svg">
<path d="M8.75 13.125C8.90745 13.1245 9.05929 13.1834 9.17516 13.29C9.29104 13.3966 9.3624 13.5431 9.375 13.7V19.425C9.3624 19.5819 9.29104 19.7284 9.17516 19.835C9.05929 19.9416 8.90745 20.0005 8.75 20H0.625C0.46755 20.0005 0.31571 19.9416 0.199837 19.835C0.0839635 19.7284 0.0125953 19.5819 0 19.425V13.7C0.0125953 13.5431 0.0839635 13.3966 0.199837 13.29C0.31571 13.1834 0.46755 13.1245 0.625 13.125H8.75ZM19.375 8.125C19.5408 8.125 19.6997 8.19085 19.8169 8.30806C19.9342 8.42527 20 8.58424 20 8.75V19.375C20 19.5408 19.9342 19.6997 19.8169 19.8169C19.6997 19.9341 19.5408 20 19.375 20H11.25C11.0842 20 10.9253 19.9341 10.8081 19.8169C10.6908 19.6997 10.625 19.5408 10.625 19.375V8.75C10.625 8.58424 10.6908 8.42527 10.8081 8.30806C10.9253 8.19085 11.0842 8.125 11.25 8.125H19.375ZM8.125 14.2687H1.25V18.8562H8.125V14.2687ZM18.75 9.375H11.875V18.75H18.75V9.375ZM8.75 3.21318e-06C8.91576 3.21318e-06 9.07473 0.0658512 9.19194 0.183061C9.30915 0.300272 9.375 0.459243 9.375 0.625003V11.25C9.375 11.4158 9.30915 11.5747 9.19194 11.6919C9.07473 11.8092 8.91576 11.875 8.75 11.875H0.625C0.45924 11.875 0.300269 11.8092 0.183058 11.6919C0.065848 11.5747 0 11.4158 0 11.25V0.625003C0 0.459243 0.065848 0.300272 0.183058 0.183061C0.300269 0.0658512 0.45924 3.21318e-06 0.625 3.21318e-06H8.75ZM8.125 1.25H1.25V10.625H8.125V1.25ZM19.375 3.21318e-06C19.5324 -0.000501374 19.6843 0.0584398 19.8002 0.165043C19.916 0.271646 19.9874 0.418056 20 0.575003V6.3C19.9874 6.45695 19.916 6.60336 19.8002 6.70996C19.6843 6.81656 19.5324 6.8755 19.375 6.875H11.25C11.0925 6.8755 10.9407 6.81656 10.8248 6.70996C10.709 6.60336 10.6376 6.45695 10.625 6.3V0.575003C10.6376 0.418056 10.709 0.271646 10.8248 0.165043C10.9407 0.0584398 11.0925 -0.000501374 11.25 3.21318e-06H19.375ZM18.75 1.14375H11.875V5.73125H18.75V1.14375Z" fill="white"/>
</svg>
