<svg width="25" height="30" viewBox="0 0 11 14" fill="none" xmlns="http://www.w3.org/2000/svg">
<path d="M7.30149 0.857422C7.70475 0.857422 8.03164 1.18432 8.03164 1.58757H9.49194C9.8952 1.58757 10.2221 1.91447 10.2221 2.31772C10.2221 2.72097 9.8952 3.04787 9.49194 3.04787H0.730149C0.326902 3.04787 0 2.72097 0 2.31772C0 1.91447 0.326902 1.58757 0.730149 1.58757H2.19045C2.19045 1.18432 2.51735 0.857422 2.9206 0.857422H7.30149Z" fill="red"/>
<path fill-rule="evenodd" clip-rule="evenodd" d="M0.730469 3.77832H9.49226V12.5401C9.49226 13.3466 8.83848 14.0004 8.03196 14.0004H2.19077C1.38427 14.0004 0.730469 13.3466 0.730469 12.5401V3.77832ZM3.28599 5.23862C3.08437 5.23862 2.92092 5.40207 2.92092 5.60369V12.175C2.92092 12.3766 3.08437 12.5401 3.28599 12.5401C3.48761 12.5401 3.65107 12.3766 3.65107 12.175V5.60369C3.65107 5.40207 3.48761 5.23862 3.28599 5.23862ZM6.93674 5.23862C6.73514 5.23862 6.57166 5.40207 6.57166 5.60369V12.175C6.57166 12.3766 6.73514 12.5401 6.93674 12.5401C7.13833 12.5401 7.30181 12.3766 7.30181 12.175V5.60369C7.30181 5.40207 7.13833 5.23862 6.93674 5.23862Z" fill="red"/>
</svg>
