<svg width="30" height="30" viewBox="0 0 30 30" fill="none" xmlns="http://www.w3.org/2000/svg">
<rect width="30" height="30" rx="5" fill="#EEEEEE"/>
<path d="M17.4657 21.9997C17.2846 21.9998 17.1102 21.9309 16.9781 21.807L10.2275 15.5177C10.1557 15.45 10.0984 15.3684 10.0593 15.2777C10.0202 15.1871 10 15.0894 10 14.9907C10 14.892 10.0202 14.7943 10.0593 14.7037C10.0984 14.6131 10.1557 14.5314 10.2275 14.4637L16.9781 8.19196C17.0473 8.12774 17.1285 8.07777 17.217 8.04492C17.3056 8.01207 17.3997 7.99698 17.494 8.0005C17.5884 8.00403 17.6811 8.0261 17.7669 8.06546C17.8528 8.10483 17.93 8.16071 17.9942 8.22992C18.0584 8.29913 18.1084 8.38031 18.1413 8.46883C18.1741 8.55735 18.1892 8.65147 18.1857 8.74583C18.1821 8.84018 18.1601 8.93291 18.1207 9.01873C18.0813 9.10456 18.0255 9.18178 17.9563 9.24601L11.7721 14.9922L17.9563 20.7383C18.0684 20.8353 18.1478 20.9646 18.1836 21.1085C18.2194 21.2524 18.2097 21.4039 18.156 21.5421C18.1022 21.6803 18.007 21.7984 17.8834 21.8804C17.7599 21.9623 17.6139 22.004 17.4657 21.9997Z" fill="black" fill-opacity="0.21"/>
</svg>
