<svg width="5" height="17" viewBox="0 0 5 17" fill="none" xmlns="http://www.w3.org/2000/svg">
<path d="M2.875 0C2.45472 0 2.04387 0.124629 1.69441 0.358127C1.34496 0.591625 1.07259 0.923505 0.911757 1.3118C0.750921 1.70009 0.708839 2.12736 0.790832 2.53957C0.872826 2.95178 1.07521 3.33042 1.3724 3.6276C1.66959 3.92479 2.04822 4.12717 2.46043 4.20917C2.87264 4.29116 3.29991 4.24908 3.6882 4.08824C4.0765 3.92741 4.40838 3.65504 4.64187 3.30559C4.87537 2.95613 5 2.54529 5 2.125C5 1.56141 4.77612 1.02091 4.3776 0.622398C3.97909 0.223883 3.43859 0 2.875 0V0ZM2.875 2.83333C2.73491 2.83333 2.59796 2.79179 2.48147 2.71396C2.36499 2.63612 2.2742 2.5255 2.22059 2.39607C2.16697 2.26664 2.15295 2.12421 2.18028 1.98681C2.20761 1.84941 2.27507 1.72319 2.37413 1.62413C2.4732 1.52507 2.59941 1.45761 2.73681 1.43028C2.87422 1.40295 3.01664 1.41697 3.14607 1.47059C3.2755 1.5242 3.38613 1.61499 3.46396 1.73147C3.54179 1.84796 3.58333 1.9849 3.58333 2.125C3.58333 2.31286 3.50871 2.49303 3.37587 2.62587C3.24303 2.75871 3.06286 2.83333 2.875 2.83333Z" fill="#BFC2CE"/>
<path d="M2.875 6.375C2.45472 6.375 2.04387 6.49963 1.69441 6.73313C1.34496 6.96663 1.07259 7.2985 0.911757 7.6868C0.750921 8.07509 0.708839 8.50236 0.790832 8.91457C0.872826 9.32678 1.07521 9.70542 1.3724 10.0026C1.66959 10.2998 2.04822 10.5022 2.46043 10.5842C2.87264 10.6662 3.29991 10.6241 3.6882 10.4632C4.0765 10.3024 4.40838 10.03 4.64187 9.68059C4.87537 9.33113 5 8.92028 5 8.5C5 7.93641 4.77612 7.39591 4.3776 6.9974C3.97909 6.59888 3.43859 6.375 2.875 6.375ZM2.875 9.20833C2.73491 9.20833 2.59796 9.16679 2.48147 9.08896C2.36499 9.01112 2.2742 8.9005 2.22059 8.77107C2.16697 8.64164 2.15295 8.49921 2.18028 8.36181C2.20761 8.22441 2.27507 8.09819 2.37413 7.99913C2.4732 7.90007 2.59941 7.83261 2.73681 7.80528C2.87422 7.77795 3.01664 7.79197 3.14607 7.84559C3.2755 7.8992 3.38613 7.98999 3.46396 8.10647C3.54179 8.22296 3.58333 8.3599 3.58333 8.5C3.58333 8.68786 3.50871 8.86803 3.37587 9.00087C3.24303 9.13371 3.06286 9.20833 2.875 9.20833Z" fill="#BFC2CE"/>
<path d="M2.875 12.75C2.45472 12.75 2.04387 12.8746 1.69441 13.1081C1.34496 13.3416 1.07259 13.6735 0.911757 14.0618C0.750921 14.4501 0.708839 14.8774 0.790832 15.2896C0.872826 15.7018 1.07521 16.0804 1.3724 16.3776C1.66959 16.6748 2.04822 16.8772 2.46043 16.9592C2.87264 17.0412 3.29991 16.9991 3.6882 16.8382C4.0765 16.6774 4.40838 16.405 4.64187 16.0556C4.87537 15.7061 5 15.2953 5 14.875C5 14.3114 4.77612 13.7709 4.3776 13.3724C3.97909 12.9739 3.43859 12.75 2.875 12.75ZM2.875 15.5833C2.73491 15.5833 2.59796 15.5418 2.48147 15.464C2.36499 15.3861 2.2742 15.2755 2.22059 15.1461C2.16697 15.0166 2.15295 14.8742 2.18028 14.7368C2.20761 14.5994 2.27507 14.4732 2.37413 14.3741C2.4732 14.2751 2.59941 14.2076 2.73681 14.1803C2.87422 14.1529 3.01664 14.167 3.14607 14.2206C3.2755 14.2742 3.38613 14.365 3.46396 14.4815C3.54179 14.598 3.58333 14.7349 3.58333 14.875C3.58333 15.0629 3.50871 15.243 3.37587 15.3759C3.24303 15.5087 3.06286 15.5833 2.875 15.5833Z" fill="#BFC2CE"/>
</svg>
