<svg width="17" height="22" viewBox="0 0 17 22" fill="none" xmlns="http://www.w3.org/2000/svg">
<path d="M16.2511 3.86187L12.5955 0.206262C12.529 0.140346 12.4502 0.0881969 12.3636 0.0528039C12.2769 0.017411 12.1841 -0.000529265 12.0905 1.18873e-05H4.62996C4.15709 0.00188466 3.70412 0.190562 3.36975 0.524933C3.03538 0.859305 2.8467 1.31227 2.84483 1.78514V2.84484H1.77802C1.30581 2.84672 0.853576 3.03563 0.520335 3.3702C0.187095 3.70477 -3.74765e-06 4.15775 0 4.62997V19.5653C0.00373946 20.0351 0.192491 20.4844 0.525328 20.8159C0.858165 21.1474 1.30826 21.3344 1.77802 21.3362H11.7349C12.2071 21.3343 12.6594 21.1454 12.9926 20.8109C13.3258 20.4763 13.5129 20.0233 13.5129 19.5511V18.4914H14.6722C15.1451 18.4895 15.598 18.3008 15.9324 17.9665C16.2668 17.6321 16.4555 17.1791 16.4573 16.7063V4.36682C16.4547 4.17852 16.381 3.99816 16.2511 3.86187ZM12.8017 2.42523L14.0321 3.65562H12.8017V2.42523ZM12.0905 19.5511C12.0915 19.5984 12.083 19.6454 12.0655 19.6894C12.0481 19.7333 12.022 19.7734 11.9889 19.8072C11.9558 19.8409 11.9163 19.8678 11.8727 19.8861C11.8291 19.9044 11.7822 19.9138 11.7349 19.9138H1.77802C1.73071 19.9138 1.68389 19.9044 1.64027 19.8861C1.59666 19.8678 1.55714 19.8409 1.52402 19.8072C1.4909 19.7734 1.46486 19.7333 1.44741 19.6894C1.42997 19.6454 1.42147 19.5984 1.42241 19.5511V4.61575C1.42428 4.52267 1.46256 4.43404 1.52905 4.36888C1.59554 4.30372 1.68493 4.26724 1.77802 4.26725H2.84483V16.7063C2.8467 17.1791 3.03538 17.6321 3.36975 17.9665C3.70412 18.3008 4.15709 18.4895 4.62996 18.4914H12.0905V19.5511ZM14.6722 17.069H4.62996C4.53376 17.069 4.4415 17.0308 4.37348 16.9627C4.30546 16.8947 4.26724 16.8025 4.26724 16.7063V1.77092C4.27092 1.67721 4.31075 1.58856 4.37838 1.52359C4.44601 1.45861 4.53618 1.42235 4.62996 1.42243H11.3793V4.36682C11.3793 4.46022 11.3977 4.5527 11.4335 4.63899C11.4692 4.72528 11.5216 4.80368 11.5876 4.86972C11.6537 4.93576 11.7321 4.98815 11.8184 5.02389C11.9046 5.05964 11.9971 5.07803 12.0905 5.07803H15.0349V16.7063C15.0349 16.8025 14.9967 16.8947 14.9287 16.9627C14.8607 17.0308 14.7684 17.069 14.6722 17.069Z" fill="white"/>
<path d="M10.1067 6.6071C10.0406 6.54044 9.96196 6.48753 9.87529 6.45143C9.78863 6.41532 9.69567 6.39673 9.60178 6.39673C9.50789 6.39673 9.41493 6.41532 9.32827 6.45143C9.2416 6.48753 9.16294 6.54044 9.09682 6.6071L6.6076 9.09633C6.47367 9.23025 6.39844 9.41189 6.39844 9.60128C6.39844 9.79068 6.47367 9.97232 6.6076 10.1062C6.74152 10.2402 6.92316 10.3154 7.11255 10.3154C7.30195 10.3154 7.48359 10.2402 7.61751 10.1062L8.89057 8.82607V13.3351C8.89057 13.5237 8.9655 13.7046 9.09888 13.838C9.23226 13.9714 9.41316 14.0463 9.60178 14.0463C9.7904 14.0463 9.9713 13.9714 10.1047 13.838C10.2381 13.7046 10.313 13.5237 10.313 13.3351V8.82607L11.586 10.1062C11.6522 10.1729 11.7308 10.2258 11.8175 10.2619C11.9042 10.298 11.9971 10.3166 12.091 10.3166C12.1849 10.3166 12.2779 10.298 12.3645 10.2619C12.4512 10.2258 12.5298 10.1729 12.596 10.1062C12.6626 10.0401 12.7155 9.96147 12.7516 9.8748C12.7877 9.78813 12.8063 9.69517 12.8063 9.60128C12.8063 9.5074 12.7877 9.41444 12.7516 9.32777C12.7155 9.2411 12.6626 9.16244 12.596 9.09633L10.1067 6.6071Z" fill="white"/>
</svg>
