<svg width="44" height="32" viewBox="0 0 44 32" fill="none" xmlns="http://www.w3.org/2000/svg">
<path d="M21.6471 0C18.2786 0 14.8918 1.28469 12.3235 3.85294C10.4136 5.7629 9.25567 8.13223 8.76471 10.6029C3.78075 11.5698 0 15.9224 0 21.1765C0 27.1374 4.86259 32 10.8235 32H33.8824C39.072 32 43.2941 27.7779 43.2941 22.5882C43.2941 17.6903 39.5208 13.703 34.7353 13.2647C34.7574 9.85807 33.5474 6.44448 30.9559 3.85294C28.3898 1.28679 25.0155 0 21.6471 0ZM21.6471 2.82353C24.3003 2.82353 26.9278 3.81004 28.9559 5.83824C31.2996 8.1819 32.2913 11.3661 31.9265 14.4118C31.9015 14.6102 31.919 14.8117 31.9777 15.0028C32.0365 15.194 32.1351 15.3705 32.2672 15.5206C32.3993 15.6708 32.5618 15.7912 32.7439 15.8738C32.926 15.9564 33.1236 15.9995 33.3235 16H33.8824C37.5567 16 40.4706 18.9139 40.4706 22.5882C40.4706 26.2625 37.5567 29.1765 33.8824 29.1765H10.8235C6.38861 29.1765 2.82353 25.6114 2.82353 21.1765C2.82353 16.9883 6.00871 13.5762 10.0882 13.2059C10.4082 13.1747 10.7079 13.0353 10.9379 12.8107C11.1678 12.5861 11.3142 12.2897 11.3529 11.9706C11.6127 9.73289 12.6029 7.55888 14.3235 5.83824C16.3497 3.81213 18.9938 2.82353 21.6471 2.82353ZM21.6471 11.2941C21.1764 11.2941 20.9275 11.4455 20.6912 11.6617L15.5147 16.3676C14.917 16.9223 14.9274 17.8226 15.4264 18.3676C15.9255 18.9126 16.8789 18.952 17.4264 18.4559L20.2353 15.897V24.9412C20.2353 25.7208 20.8672 26.3529 21.6471 26.3529C22.4269 26.3529 23.0588 25.7208 23.0588 24.9412V15.897L25.8677 18.4559C26.4152 18.952 27.3399 18.8848 27.8677 18.3676C28.4239 17.8226 28.322 16.8692 27.7794 16.3676L22.6029 11.6617C22.3233 11.4057 22.1177 11.2941 21.6471 11.2941Z" fill="#BEC0CB"/>
</svg>
