<svg id="Layer_1" data-name="Layer 1" xmlns="http://www.w3.org/2000/svg" viewBox="0 0 700 700"><defs><style>.cls-1{fill:#fff;stroke:#000;stroke-miterlimit:10;stroke-width:0.02px;}</style></defs><path class="cls-1" d="M343.16,66.07c47.68,0,88.64,26.76,109.55,66.9l15.06-8.36V220a40.15,40.15,0,0,0,40.14,40.14h3.34V238.35h-.83a20.36,20.36,0,0,1-20.07-20.08V112.06l36-19.23L343.16,0,160,97l72.75,37.63C253.67,93.61,294.65,66,343.16,66Z"/><path class="cls-1" d="M343.16,87c-56.86,0-103.7,46.83-103.7,104.53s46,104.54,103.7,104.54c56.87,0,103.7-46.83,103.7-104.54S400,87,343.16,87Z"/><path class="cls-1" d="M662.21,573.7,510,362.12S489.93,323.65,443.12,322H241.52a79.61,79.61,0,0,0-66.91,40.14L21.6,573.7c-6.69,9.2-10,20.91-10,33.46a59.6,59.6,0,0,0,59.38,59.37h82.81v15.06a14.94,14.94,0,0,0,14.81,15h349a14.94,14.94,0,0,0,15.05-14.81v-15.3h82.79a59.59,59.59,0,0,0,59.38-59.37c-2.51-12.55-5.85-24.26-12.54-33.46Zm-131.3,91.1h-378V437.45a17.66,17.66,0,0,1,17.56-17.57H513.31a17.69,17.69,0,0,1,17.61,17.57Z"/><path class="cls-1" d="M343.16,506A40.15,40.15,0,0,0,303,546.11a39.63,39.63,0,0,0,39.12,40.14h1a40.15,40.15,0,0,0,0-80.29Z"/></svg>