<svg id="Layer_1" data-name="Layer 1" xmlns="http://www.w3.org/2000/svg" viewBox="0 0 700 700"><defs><style>.cls-1{fill:#fff;stroke:#192145;stroke-miterlimit:10;stroke-width:0.02px;}</style></defs><path class="cls-1" d="M689.43,290.43l-67-6.38A284.42,284.42,0,0,0,588.28,203L631,151.37a9.79,9.79,0,0,0-.56-13.11L560,67.81a9.65,9.65,0,0,0-13.11-.56L495.41,109.9a276.78,276.78,0,0,0-81.24-34.14l-6.38-67A9.72,9.72,0,0,0,398,0H301.73A9.81,9.81,0,0,0,292,8.79l-6.38,67a276.42,276.42,0,0,0-81.2,34.18L152.86,67.21a9.82,9.82,0,0,0-13.12.56L69.43,138.08a9.66,9.66,0,0,0-.56,13.11l42.7,51.62a284.79,284.79,0,0,0-34.19,81.07l-67,6.37A9.72,9.72,0,0,0,1.63,300v99.76a9.8,9.8,0,0,0,8.78,9.76l67,6.38a278.12,278.12,0,0,0,34.19,81.2l-42.7,51.48a9.82,9.82,0,0,0,.56,13.11l70.45,70.45a9.66,9.66,0,0,0,13.12.56l51.58-42.61a284.85,284.85,0,0,0,81.1,34.14l6.38,67a9.71,9.71,0,0,0,9.77,8.79h96.25a9.82,9.82,0,0,0,9.77-8.79l6.38-67a284.75,284.75,0,0,0,81.18-34.14L547,632.79a9.81,9.81,0,0,0,13.11-.56l70.48-70.49a9.66,9.66,0,0,0,.56-13.11l-42.7-51.48A276.55,276.55,0,0,0,622.67,416l67-6.38a9.71,9.71,0,0,0,8.78-9.76V300.05a9.82,9.82,0,0,0-8.93-9.62ZM678.69,391l-65.15,6.28a9.92,9.92,0,0,0-8.65,7.65,258.48,258.48,0,0,1-36.78,87.49,9.84,9.84,0,0,0,.56,11.58l41.54,50.22L552.42,612l-50.21-41.58a10.07,10.07,0,0,0-11.59-.69c-27.91,18-57.33,30.41-87.61,37a9.64,9.64,0,0,0-7.66,8.65l-6.29,65.15H310.64l-6.27-65.21a9.93,9.93,0,0,0-7.66-8.65,263.91,263.91,0,0,1-87.61-37,9.68,9.68,0,0,0-11.59.7L147.29,612,89.52,554.19,131.11,504a9.66,9.66,0,0,0,.56-11.58A255.53,255.53,0,0,1,94.88,405a9.65,9.65,0,0,0-8.65-7.65L21.08,391V309l65.15-6.28a9.92,9.92,0,0,0,8.65-7.65,263.67,263.67,0,0,1,37-87.62,9.66,9.66,0,0,0-.7-11.58L89.59,145.63l57.77-57.77,50.22,41.58a9.64,9.64,0,0,0,11.58.57,255.21,255.21,0,0,1,87.48-36.84,9.65,9.65,0,0,0,7.65-8.65l6.16-65.17h78.41l6.28,65.16a9.92,9.92,0,0,0,7.65,8.64A258.33,258.33,0,0,1,490.3,130a9.84,9.84,0,0,0,11.59-.56L552.1,87.85l57.76,57.77-41.57,50.22a10.09,10.09,0,0,0-.7,11.58,264.88,264.88,0,0,1,37,87.62,9.64,9.64,0,0,0,8.65,7.65L678.37,309Z"/><path class="cls-1" d="M351.27,139.33C235.05,139.33,140.6,233.72,140.6,350S235,560.67,351.27,560.67,561.94,466.28,561.94,350,467.34,139.33,351.27,139.33Zm0,401.8c-105.34,0-191.13-85.81-191.13-191.13s85.77-191.13,191.13-191.13S542.37,244.66,542.37,350,456.57,541.13,351.27,541.13Z"/><path class="cls-1" d="M281.9,332.27A32.32,32.32,0,0,0,314.12,300v-8.93a32.23,32.23,0,0,0-64.45,0V300A32.35,32.35,0,0,0,281.9,332.27ZM269.15,291a12.75,12.75,0,0,1,25.39,0v8.93a12.75,12.75,0,1,1-25.39,2.41,12.13,12.13,0,0,1,0-2.41Z"/><path class="cls-1" d="M420.86,332.27A32.32,32.32,0,0,0,453.08,300v-8.93a32.23,32.23,0,0,0-64.45,0V300A32.25,32.25,0,0,0,420.86,332.27ZM408.11,291a12.75,12.75,0,0,1,25.39,0v8.93a12.75,12.75,0,1,1-25.39,2.41,12.13,12.13,0,0,1,0-2.41Z"/><path class="cls-1" d="M441.51,333.67a9.8,9.8,0,0,0-6.69,2.66L421,349.3l-13.25-12.86a9.67,9.67,0,0,0-6.84-2.79,45.48,45.48,0,0,0-45.48,45.47V422a9.7,9.7,0,0,0,9.64,9.77H476.53a9.71,9.71,0,0,0,9.77-9.64V378.46a44.84,44.84,0,0,0-44.79-44.79Zm25.25,78.55H374.92V379.29a26.13,26.13,0,0,1,22.32-25.81L414,369.81a17.21,17.21,0,0,0,1.68,1.39c.42.28.84.42,1.27.7a9.92,9.92,0,0,0,10.6-1.81l17.58-16.47a25.23,25.23,0,0,1,21.68,25Z"/><path class="cls-1" d="M302.56,333.67a9.8,9.8,0,0,0-6.7,2.66L282,349.3l-13.25-12.86a9.67,9.67,0,0,0-6.84-2.79,45.48,45.48,0,0,0-45.48,45.47V422a9.7,9.7,0,0,0,9.64,9.77H337.57a9.71,9.71,0,0,0,9.77-9.64V378.46a44.84,44.84,0,0,0-44.78-44.79Zm25.24,78.55H236V379.29a26.13,26.13,0,0,1,22.32-25.81L275,369.81a15.61,15.61,0,0,0,1.53,1.27c.56.28,1,.57,1.54.85a9.74,9.74,0,0,0,10.46-2l17.58-16.46a25.22,25.22,0,0,1,21.68,25Z"/></svg>