<svg width="19" height="18" viewBox="0 0 19 18" fill="none" xmlns="http://www.w3.org/2000/svg">
<path d="M7.24938 12.4797L8.48009 13.7104L12.5786 9.61192C12.7417 9.44865 12.8332 9.22732 12.8332 8.99657C12.8332 8.76581 12.7417 8.54448 12.5786 8.38121L8.48009 4.28271L7.24938 5.51342L9.86173 8.12578H0.0625V9.86735H9.86173L7.24938 12.4797Z" fill="white"/>
<path d="M9.06016 1.74012C10.2571 1.73949 11.4356 2.03494 12.4906 2.60015C13.5457 3.16535 14.4446 3.98276 15.1072 4.97955C15.7698 5.97634 16.1755 7.12154 16.2883 8.31314C16.401 9.50474 16.2172 10.7057 15.7533 11.8091C15.2894 12.9125 14.5598 13.884 13.6295 14.637C12.6992 15.3901 11.597 15.9013 10.4212 16.1252C9.24539 16.349 8.03247 16.2786 6.8905 15.9201C5.74853 15.5616 4.71297 14.9261 3.87608 14.0704L2.63086 15.2895C3.88115 16.568 5.484 17.4449 7.23486 17.8084C8.98571 18.1719 10.8052 18.0054 12.461 17.3303C14.1169 16.6552 15.534 15.502 16.5316 14.018C17.5292 12.5339 18.062 10.7863 18.062 8.99812C18.062 7.20993 17.5292 5.46229 16.5316 3.97824C15.534 2.49418 14.1169 1.34102 12.461 0.665912C10.8052 -0.00919455 8.98571 -0.175625 7.23486 0.18786C5.484 0.551345 3.88115 1.42826 2.63086 2.70669L3.87608 3.92579C4.54928 3.23222 5.35521 2.68127 6.24585 2.30577C7.13648 1.93026 8.0936 1.73789 9.06016 1.74012Z" fill="white"/>
</svg>
