<svg width="19" height="19" viewBox="0 0 19 19" fill="none" xmlns="http://www.w3.org/2000/svg">
<path d="M9.02372 0C4.04008 0 0 4.04008 0 9.02372C0 14.0075 4.04008 18.0475 9.02372 18.0475C14.0075 18.0475 18.0475 14.0074 18.0475 9.02372C18.0475 4.04003 14.0075 0 9.02372 0ZM12.9453 11.3082C13.3974 11.7602 13.3974 12.4932 12.9453 12.9453C12.7193 13.1714 12.423 13.2844 12.1267 13.2844C11.8305 13.2844 11.5342 13.1714 11.3082 12.9453L9.02372 10.6609L6.73928 12.9453C6.51329 13.1714 6.2169 13.2844 5.9207 13.2844C5.62441 13.2844 5.32816 13.1714 5.10212 12.9453C4.65004 12.4932 4.65004 11.7602 5.10212 11.3082L7.38655 9.02377L5.10212 6.73933C4.65004 6.28725 4.65004 5.55425 5.10212 5.10217C5.5542 4.65008 6.2872 4.65008 6.73928 5.10217L9.02372 7.3866L11.3082 5.10217C11.7602 4.65004 12.4933 4.65008 12.9453 5.10217C13.3974 5.55425 13.3974 6.28725 12.9453 6.73933L10.6609 9.02377L12.9453 11.3082Z" fill="#E00000"/>
</svg>
