<svg width="22" height="21" viewBox="0 0 22 21" fill="none" xmlns="http://www.w3.org/2000/svg">
<path d="M11.1828 19.6682C10.847 19.5206 10.5112 19.3729 10.1754 19.2253C9.37047 18.8704 8.56554 18.5156 7.75823 18.1608C6.78898 17.7321 5.81735 17.3058 4.8481 16.8772C4.00507 16.5056 3.16442 16.1341 2.32138 15.765C1.91416 15.5864 1.50931 15.3911 1.09732 15.2244C1.09017 15.222 1.08541 15.2197 1.08065 15.2173C1.19972 15.4221 1.31641 15.6293 1.43548 15.8341C1.43548 15.465 1.43548 15.0958 1.43548 14.7243C1.43548 13.836 1.43548 12.9501 1.43548 12.0619C1.43548 10.9926 1.43548 9.92333 1.43548 8.85405C1.43548 7.93005 1.43548 7.00367 1.43548 6.07967C1.43548 5.62719 1.44739 5.17472 1.43548 4.72462C1.43548 4.71748 1.43548 4.71272 1.43548 4.70557C1.07827 4.91038 0.718668 5.11756 0.361451 5.32237C0.697235 5.47002 1.03302 5.61767 1.3688 5.76532C2.17373 6.12015 2.97866 6.47499 3.78597 6.82982C4.75522 7.25848 5.72685 7.68476 6.6961 8.11342C7.53914 8.48493 8.37979 8.85644 9.22282 9.22556C9.63005 9.40417 10.0349 9.59945 10.4469 9.76615C10.454 9.76853 10.4588 9.77091 10.4636 9.77329C10.3445 9.56849 10.2278 9.3613 10.1087 9.1565C10.1087 9.52562 10.1087 9.89475 10.1087 10.2663C10.1087 11.1545 10.1087 12.0404 10.1087 12.9287C10.1087 13.998 10.1087 15.0673 10.1087 16.1365C10.1087 17.0605 10.1087 17.9869 10.1087 18.9109C10.1087 19.3634 10.0992 19.8159 10.1087 20.266C10.1087 20.2731 10.1087 20.2779 10.1087 20.285C10.1087 20.6589 10.4374 21.0161 10.8232 20.9994C11.2113 20.9828 11.5376 20.6851 11.5376 20.285C11.5376 19.9159 11.5376 19.5468 11.5376 19.1753C11.5376 18.287 11.5376 17.4011 11.5376 16.5128C11.5376 15.4435 11.5376 14.3743 11.5376 13.305C11.5376 12.381 11.5376 11.4546 11.5376 10.5306C11.5376 10.0781 11.5471 9.62564 11.5376 9.17555C11.5376 9.16841 11.5376 9.16364 11.5376 9.1565C11.5376 8.92788 11.4066 8.63734 11.1828 8.5397C10.847 8.39205 10.5112 8.2444 10.1754 8.09675C9.37047 7.74192 8.56554 7.38708 7.75823 7.03225C6.78898 6.60359 5.81735 6.17731 4.8481 5.74865C4.00507 5.37714 3.16442 5.00563 2.32138 4.63651C1.91416 4.45552 1.50455 4.27691 1.09732 4.09592C1.09256 4.09354 1.08541 4.09116 1.08065 4.08878C0.840122 3.98161 0.599596 3.94827 0.359069 4.08878C0.142358 4.21499 0.00423369 4.45314 0.00423369 4.70557C0.00423369 5.0747 0.00423369 5.44382 0.00423369 5.81533C0.00423369 6.70361 0.00423369 7.58951 0.00423369 8.47779C0.00423369 9.54706 0.00423369 10.6163 0.00423369 11.6856C0.00423369 12.6096 0.00423369 13.536 0.00423369 14.46C0.00423369 14.9125 -0.00529211 15.3649 0.00423369 15.815C0.00423369 15.8222 0.00423369 15.8269 0.00423369 15.8341C0.00423369 16.0627 0.135213 16.3532 0.359069 16.4509C0.694854 16.5985 1.03064 16.7462 1.36642 16.8938C2.17135 17.2487 2.97628 17.6035 3.78359 17.9583C4.75284 18.387 5.72447 18.8133 6.69372 19.2419C7.53676 19.6134 8.37741 19.9849 9.22044 20.3541C9.62767 20.5351 10.0373 20.7137 10.4445 20.8947C10.4493 20.897 10.4564 20.8994 10.4612 20.9018C10.6422 20.9828 10.8112 21.028 11.0113 20.9732C11.178 20.928 11.3566 20.7994 11.4376 20.6446C11.5257 20.4779 11.5685 20.2779 11.509 20.0945C11.459 19.9302 11.3495 19.7397 11.1828 19.6682Z" fill="white"/>
<path d="M20.5661 15.2149C20.2303 15.3626 19.8945 15.5102 19.5587 15.6579C18.7538 16.0127 17.9489 16.3675 17.1416 16.7224C16.1723 17.151 15.2007 17.5773 14.2314 18.006C13.3884 18.3775 12.5478 18.749 11.7047 19.1181C11.2975 19.2967 10.8831 19.4682 10.4807 19.6587C10.4759 19.6611 10.4688 19.6635 10.464 19.6658C10.8212 19.8706 11.1808 20.0778 11.538 20.2826C11.538 19.9135 11.538 19.5444 11.538 19.1729C11.538 18.2846 11.538 17.3987 11.538 16.5104C11.538 15.4411 11.538 14.3719 11.538 13.3026C11.538 12.3786 11.538 11.4522 11.538 10.5282C11.538 10.0757 11.5499 9.62326 11.538 9.17317C11.538 9.16603 11.538 9.16126 11.538 9.15412C11.419 9.35892 11.3023 9.56611 11.1832 9.77091C11.519 9.62326 11.8548 9.47561 12.1905 9.32796C12.9955 8.97313 13.8004 8.61829 14.6077 8.26346C15.577 7.8348 16.5486 7.40852 17.5178 6.97986C18.3609 6.60835 19.2015 6.23684 20.0446 5.86772C20.4518 5.68911 20.8662 5.51765 21.2686 5.32713C21.2734 5.32475 21.2805 5.32237 21.2853 5.31999C20.9281 5.11518 20.5685 4.908 20.2113 4.70319C20.2113 5.07232 20.2113 5.44144 20.2113 5.81295C20.2113 6.70123 20.2113 7.58713 20.2113 8.47541C20.2113 9.54468 20.2113 10.6139 20.2113 11.6832C20.2113 12.6072 20.2113 13.5336 20.2113 14.4576C20.2113 14.9101 20.2017 15.3626 20.2113 15.8126C20.2113 15.8198 20.2113 15.8246 20.2113 15.8317C20.2113 16.2056 20.5399 16.5628 20.9257 16.5461C21.3139 16.5295 21.6401 16.2318 21.6401 15.8317C21.6401 15.4626 21.6401 15.0935 21.6401 14.7219C21.6401 13.8337 21.6401 12.9478 21.6401 12.0595C21.6401 10.9902 21.6401 9.92095 21.6401 8.85167C21.6401 7.92767 21.6401 7.00129 21.6401 6.07729C21.6401 5.62481 21.6497 5.17234 21.6401 4.72224C21.6401 4.7151 21.6401 4.71034 21.6401 4.70319C21.6401 4.45076 21.5044 4.21261 21.2853 4.0864C21.0448 3.94589 20.8042 3.97923 20.5637 4.0864C20.2279 4.23405 19.8921 4.3817 19.5564 4.52935C18.7514 4.88418 17.9465 5.23902 17.1392 5.59385C16.1699 6.02251 15.1983 6.44879 14.2291 6.87745C13.386 7.24896 12.5454 7.62047 11.7023 7.98959C11.2951 8.1682 10.8784 8.3349 10.4783 8.53018C10.4735 8.53256 10.4664 8.53494 10.4616 8.53732C10.2378 8.63496 10.1068 8.9255 10.1068 9.15412C10.1068 9.52324 10.1068 9.89237 10.1068 10.2639C10.1068 11.1522 10.1068 12.0381 10.1068 12.9263C10.1068 13.9956 10.1068 15.0649 10.1068 16.1341C10.1068 17.0581 10.1068 17.9845 10.1068 18.9085C10.1068 19.361 10.0972 19.8135 10.1068 20.2636C10.1068 20.2707 10.1068 20.2755 10.1068 20.2826C10.1068 20.5351 10.2425 20.7732 10.4616 20.8994C10.7021 21.0399 10.9427 21.0066 11.1832 20.8994C11.519 20.7518 11.8548 20.6041 12.1905 20.4565C12.9955 20.1016 13.8004 19.7468 14.6077 19.392C15.577 18.9633 16.5486 18.537 17.5178 18.1084C18.3609 17.7369 19.2015 17.3654 20.0446 16.9962C20.4518 16.8176 20.8685 16.6509 21.2686 16.4556C21.2734 16.4533 21.2805 16.4509 21.2853 16.4485C21.4377 16.3818 21.5711 16.1746 21.6139 16.0222C21.6616 15.8508 21.6401 15.6245 21.5425 15.4721C21.4448 15.3197 21.2972 15.1863 21.1162 15.1435C20.9162 15.0982 20.7518 15.1339 20.5661 15.2149Z" fill="white"/>
<path d="M20.5655 4.08877C20.2297 4.23642 19.894 4.38407 19.5582 4.53172C18.7532 4.88656 17.9483 5.24139 17.141 5.59623C16.1717 6.02489 15.2001 6.45117 14.2309 6.87983C13.3878 7.25134 12.5472 7.62284 11.7042 7.99197C11.2969 8.17058 10.8826 8.34204 10.4801 8.53256C10.4753 8.53494 10.4682 8.53732 10.4634 8.5397C10.7039 8.5397 10.9445 8.5397 11.185 8.5397C10.8492 8.39205 10.5134 8.2444 10.1776 8.09675C9.37271 7.74192 8.56779 7.38708 7.76047 7.03224C6.79122 6.60358 5.81959 6.1773 4.85034 5.74864C4.00731 5.37714 3.16666 5.00563 2.32363 4.63651C1.9164 4.4579 1.51155 4.265 1.09956 4.09592C1.09242 4.09354 1.08766 4.09115 1.08289 4.08877C1.02574 4.52458 0.968583 4.96038 0.911428 5.39381C1.24721 5.26045 1.583 5.12947 1.91878 4.9961C2.72133 4.67937 3.52626 4.36264 4.32881 4.04353C5.30044 3.66011 6.27207 3.2767 7.2437 2.89329C8.08673 2.55988 8.92976 2.22648 9.7728 1.89546C10.18 1.7359 10.5968 1.58825 10.9969 1.41202C11.0016 1.40964 11.0088 1.40726 11.0135 1.40488C10.8873 1.40488 10.7611 1.40488 10.6325 1.40488C10.9683 1.53824 11.3041 1.66922 11.6399 1.80258C12.4424 2.11931 13.2473 2.43605 14.0499 2.75516C15.0215 3.13857 15.9931 3.52199 16.9648 3.9054C17.8078 4.2388 18.6508 4.57221 19.4939 4.90323C19.9011 5.06279 20.3059 5.24139 20.7179 5.38666C20.7227 5.38904 20.7298 5.39143 20.7346 5.39381C20.8965 5.45811 21.1418 5.40571 21.2847 5.32236C21.4324 5.23663 21.5753 5.06517 21.6134 4.89608C21.6538 4.71271 21.6467 4.50791 21.5419 4.34597C21.4347 4.17927 21.2966 4.08877 21.1156 4.01733C20.7799 3.88397 20.4441 3.75299 20.1083 3.61963C19.301 3.30051 18.4937 2.9814 17.6887 2.66467C16.7147 2.27887 15.7383 1.89546 14.7643 1.50966C13.9237 1.17864 13.083 0.84524 12.2424 0.514219C11.8399 0.354662 11.4398 0.178434 11.0302 0.0355475C10.8135 -0.0406588 10.6658 0.0188775 10.4825 0.0903209C10.2729 0.173672 10.0633 0.257022 9.85377 0.337992C9.09408 0.638054 8.33202 0.938116 7.57234 1.23818C6.60309 1.62159 5.63146 2.00501 4.66221 2.38842C3.78584 2.73373 2.91184 3.07904 2.03547 3.42673C1.5568 3.61486 1.07813 3.80538 0.60184 3.99352C0.580407 4.00304 0.558974 4.01018 0.535159 4.01971C0.263674 4.12688 0.0636326 4.30787 0.023148 4.61269C-0.0101923 4.86751 0.106499 5.21044 0.363695 5.32474C0.701861 5.47239 1.04003 5.62243 1.37581 5.77008C2.1855 6.12729 2.9952 6.48451 3.80489 6.84173C4.7789 7.27039 5.75291 7.69905 6.72693 8.13009C7.5652 8.49922 8.40347 8.86834 9.24412 9.23985C9.64658 9.41607 10.049 9.59706 10.4515 9.77091C10.6063 9.83759 10.7444 9.88522 10.9207 9.8614C11.0207 9.84712 11.1088 9.81139 11.2017 9.77091C11.2445 9.75186 11.2898 9.73281 11.3326 9.71375C11.5422 9.62088 11.7494 9.53038 11.959 9.43751C12.7186 9.10172 13.4807 8.76832 14.2404 8.43254C15.2096 8.00626 16.1789 7.57759 17.1481 7.15132C18.0269 6.76314 18.9057 6.37735 19.7844 5.98917C20.2655 5.77722 20.7441 5.56527 21.2252 5.3557C21.2466 5.34618 21.268 5.33665 21.2919 5.32713C21.4443 5.26045 21.5776 5.05326 21.6205 4.90085C21.6681 4.72938 21.6467 4.50314 21.5491 4.35073C21.4514 4.19832 21.3038 4.06496 21.1228 4.02209C20.9156 3.9697 20.7513 4.00542 20.5655 4.08877Z" fill="white"/>
<path d="M15.4004 6.80124C15.4004 7.70857 15.4004 8.6159 15.4004 9.52085C15.4004 9.64945 15.4004 9.77567 15.4004 9.90427C15.4004 10.2782 15.729 10.6354 16.1148 10.6187C16.503 10.602 16.8293 10.3043 16.8293 9.90427C16.8293 8.99693 16.8293 8.0896 16.8293 7.18465C16.8293 7.05605 16.8293 6.92984 16.8293 6.80124C16.8293 6.42735 16.5006 6.07013 16.1148 6.0868C15.729 6.10347 15.4004 6.39877 15.4004 6.80124Z" fill="white"/>
<path d="M5.82235 3.33385C6.15814 3.47198 6.49154 3.6101 6.82732 3.74823C7.63225 4.07925 8.4348 4.41027 9.23973 4.74129C10.2137 5.14137 11.1854 5.54146 12.1594 5.94154C13 6.28685 13.8407 6.63454 14.6837 6.97985C15.091 7.14655 15.4958 7.33231 15.9102 7.48472C15.9149 7.4871 15.9221 7.48948 15.9268 7.49186C16.0864 7.55854 16.3364 7.50377 16.477 7.42042C16.6246 7.33469 16.7675 7.16322 16.8056 6.99414C16.8461 6.81077 16.8389 6.60597 16.7341 6.44403C16.627 6.27733 16.4889 6.19159 16.3079 6.11539C15.9721 5.97726 15.6387 5.83914 15.3029 5.70101C14.498 5.36999 13.6954 5.03897 12.8905 4.70795C11.9165 4.30787 10.9448 3.90778 9.97084 3.5077C9.13019 3.16239 8.28953 2.8147 7.4465 2.46939C7.03927 2.30269 6.63443 2.11693 6.22006 1.96452C6.21529 1.96214 6.20815 1.95976 6.20339 1.95738C6.04383 1.8907 5.79378 1.94547 5.65327 2.02882C5.50562 2.11455 5.36273 2.28602 5.32463 2.4551C5.28415 2.63847 5.29129 2.84328 5.39607 3.00522C5.50324 3.17192 5.64136 3.25765 5.82235 3.33385Z" fill="white"/>
</svg>
