<svg width="10" height="8" viewBox="0 0 10 8" fill="none" xmlns="http://www.w3.org/2000/svg">
<path d="M4.00597 7.18059L1.10059 4.12657C1.05897 4.08308 1.02593 4.03137 1.00339 3.97442C0.980844 3.91746 0.969238 3.85638 0.969238 3.79469C0.969238 3.733 0.980844 3.67192 1.00339 3.61496C1.02593 3.558 1.05897 3.50629 1.10059 3.46281L1.73205 2.79905C1.77371 2.75518 1.82319 2.72038 1.87766 2.69663C1.93214 2.67289 1.99053 2.66067 2.0495 2.66067C2.10847 2.66067 2.16686 2.67289 2.22133 2.69663C2.2758 2.72038 2.32529 2.75518 2.36695 2.79905L4.32342 4.85562L8.51586 0.448685C8.55753 0.404817 8.60701 0.370015 8.66148 0.34627C8.71595 0.322525 8.77434 0.310303 8.83331 0.310303C8.89228 0.310303 8.95068 0.322525 9.00515 0.34627C9.05962 0.370015 9.1091 0.404817 9.15077 0.448685L9.78222 1.11244C9.82385 1.15593 9.85688 1.20764 9.87943 1.2646C9.90197 1.32155 9.91357 1.38263 9.91357 1.44432C9.91357 1.50601 9.90197 1.5671 9.87943 1.62405C9.85688 1.68101 9.82385 1.73272 9.78222 1.7762L4.64087 7.18059C4.59921 7.22446 4.54973 7.25926 4.49526 7.283C4.44078 7.30675 4.38239 7.31897 4.32342 7.31897C4.26445 7.31897 4.20606 7.30675 4.15159 7.283C4.09712 7.25926 4.04763 7.22446 4.00597 7.18059V7.18059Z" fill="white"/>
</svg>
