<svg width="17" height="17" viewBox="0 0 17 17" fill="none" xmlns="http://www.w3.org/2000/svg">
<path d="M16.3502 7.98217C15.9503 7.98217 15.6504 8.27428 15.6504 8.66376C15.6504 12.3151 12.6012 15.2362 8.85223 15.2362C5.10323 15.2362 2.10403 12.2664 2.10403 8.66376C2.10403 5.01239 5.15322 2.04261 8.85223 2.04261C9.15215 2.04261 9.40208 1.84787 9.50206 1.60445C9.60203 1.31234 9.55204 0.971545 9.25212 0.874175C8.90222 0.72812 8.75226 0.72812 7.8525 0.82549C7.65255 0.82549 7.05271 0.971545 7.05271 0.971545C3.45367 1.79919 0.754395 4.91502 0.754395 8.71245C0.754395 13.0941 4.40342 16.6481 8.90222 16.6481C13.401 16.6481 17.0001 13.0454 17.0001 8.66376C17.0001 8.32297 16.7001 7.98217 16.3502 7.98217Z" fill="#E9D100"/>
<path d="M15.2 6.08349C15.3 6.32692 15.4 6.57034 15.4999 6.86245C15.5999 7.15456 15.8499 7.3493 16.1998 7.3493C16.2497 7.3493 16.3497 7.3493 16.3997 7.30061C16.7996 7.20324 16.9995 6.81377 16.8996 6.42429C16.7996 6.08349 16.6996 5.79138 16.5497 5.49927C16.3997 5.15848 15.9498 4.96374 15.5999 5.10979C15.2 5.30453 15.0001 5.7427 15.2 6.08349Z" fill="white"/>
<path d="M14.0511 4.3308C14.2011 4.47685 14.401 4.57422 14.601 4.57422C14.7509 4.57422 14.9509 4.52554 15.0509 4.37948C15.3508 4.13606 15.3508 3.6979 15.1008 3.40579C14.8509 3.16236 14.601 2.87025 14.351 2.67551C14.0511 2.43209 13.6012 2.48077 13.3513 2.7242C13.2014 2.87025 13.1514 3.06499 13.1514 3.21105C13.1514 3.40579 13.2513 3.55184 13.4013 3.6979C13.6512 3.89263 13.8512 4.08737 14.0511 4.3308Z" fill="white"/>
<path d="M10.8017 2.33474C11.0517 2.43211 11.3516 2.4808 11.6015 2.57817C11.7015 2.62685 11.8015 2.62685 11.9014 2.62685C12.2014 2.62685 12.4513 2.4808 12.5513 2.18869C12.7012 1.84789 12.5513 1.40973 12.1514 1.26367C11.8515 1.11762 11.5016 1.02025 11.2016 0.92288C10.8517 0.825511 10.4018 1.06894 10.3019 1.40973C10.2519 1.60447 10.2519 1.79921 10.3519 1.94526C10.4518 2.18869 10.6018 2.28606 10.8017 2.33474Z" fill="white"/>
<path d="M8.90245 3.89267C8.50256 3.89267 8.20264 4.18478 8.20264 4.57426V8.85853V8.90722C8.20264 8.9559 8.20264 9.05327 8.25262 9.10196C8.30261 9.15064 8.30261 9.24801 8.3526 9.29669C8.3526 9.29669 8.3526 9.2967 8.3526 9.34538L10.1021 11.0494C10.2521 11.1954 10.4021 11.2441 10.602 11.2441C10.752 11.2441 10.9519 11.1954 11.1019 11.0494C11.3518 10.8059 11.3518 10.3678 11.1019 10.1243L9.55228 8.61511V4.57426C9.55228 4.18478 9.25236 3.89267 8.90245 3.89267Z" fill="white"/>
</svg>
