<svg width="13" height="10" viewBox="0 0 13 10" fill="none" xmlns="http://www.w3.org/2000/svg">
<path d="M9.39368 4.48817V8.95432L5.771 6.71023V2.24408L9.39368 4.48817Z" fill="#68440B"/>
<path d="M12.9998 2.24408V6.71023L9.39355 8.95432V4.48817L12.9998 2.24408Z" fill="white"/>
<path d="M10.7089 0.818054L7.09717 3.06508L7.54384 3.34119L11.1542 1.09563L10.7089 0.818054Z" fill="white"/>
<path d="M9.39368 0L5.771 2.24409L7.0973 3.06506L10.709 0.818035L9.39368 0Z" fill="#FFC15F"/>
<path d="M11.1543 1.09564L7.54395 3.3412L7.95362 3.59528L11.5626 1.34972L11.1543 1.09564Z" fill="white"/>
<path d="M12.9999 2.24408L11.5626 1.34967L7.95361 3.59523L9.39364 4.48816L12.9999 2.24408Z" fill="#FFC15F"/>
<path d="M7.09863 3.0636V4.71876L7.95772 5.24747V3.59378L7.09863 3.0636Z" fill="white"/>
<g style="mix-blend-mode:overlay">
<g style="mix-blend-mode:overlay">
<path d="M9.04159 2.91967H7.33301L7.90162 2.57013H9.60198L9.04159 2.91967Z" fill="#FF9C1A"/>
</g>
</g>
<path d="M3.31151 7.40195V6.91583C3.56361 6.30781 4.01851 6.08017 4.48573 5.64251C4.70906 5.43249 5.1708 4.83622 5.23246 4.51606C5.36948 3.76411 5.78052 3.85517 5.84218 4.34129C5.94083 5.09471 5.47087 6.13891 5.47087 6.13891L6.8095 6.31368L8.88666 6.1066C8.93099 6.10211 8.97572 6.10758 9.01797 6.12264C9.06023 6.1377 9.0991 6.16204 9.1321 6.19409C9.1651 6.22615 9.19151 6.26522 9.20964 6.30882C9.22777 6.35242 9.23723 6.39959 9.23741 6.44733V6.45467C9.23692 6.53678 9.20901 6.61599 9.15874 6.67795C9.10848 6.73991 9.03918 6.78053 8.96338 6.79246L6.80265 7.18899L8.72909 7.51356C8.77263 7.52138 8.81429 7.53836 8.85167 7.56352C8.88905 7.58869 8.92142 7.62154 8.94689 7.66018C8.97237 7.69882 8.99046 7.74248 9.00011 7.78866C9.00976 7.83483 9.01078 7.88259 9.00312 7.92919C8.98748 8.01748 8.94182 8.0964 8.87499 8.15067C8.80817 8.20494 8.72492 8.23068 8.6414 8.22292L6.72044 8.04815L8.41943 8.59302C8.45487 8.60417 8.48771 8.62323 8.51579 8.64895C8.54387 8.67467 8.56655 8.70648 8.58234 8.74227C8.59812 8.77806 8.60667 8.81703 8.6074 8.85661C8.60813 8.89619 8.60104 8.93549 8.58659 8.97193L8.55097 9.04242C8.52643 9.1041 8.4822 9.15438 8.42621 9.18425C8.37021 9.21413 8.30612 9.22164 8.24542 9.20544L6.26144 8.80304L7.76861 9.47568C7.80215 9.49866 7.83035 9.52955 7.85107 9.56599C7.87179 9.60242 7.88449 9.64344 7.88819 9.68593C7.89189 9.72841 7.88649 9.77124 7.87242 9.81116C7.85835 9.85108 7.83597 9.88702 7.80698 9.91627C7.77395 9.94933 7.73344 9.97255 7.68945 9.98363C7.64547 9.99471 7.59954 9.99326 7.55624 9.97942L5.73942 9.43749C5.73942 9.43749 3.32795 8.98662 3.31151 8.92934C3.29506 8.87206 3.31151 7.40195 3.31151 7.40195Z" fill="#FFDEBE"/>
<path d="M4 7H0V9H4V7Z" fill="#FFDEBE"/>
</svg>
