<svg width="58" height="58" viewBox="0 0 58 58" fill="none" xmlns="http://www.w3.org/2000/svg">
<g filter="url(#filter0_d_47_12)">
<ellipse cx="28.9443" cy="29" rx="8.94434" ry="9" fill="#18DA9F"/>
</g>
<path d="M33.2719 25.5918V35.1646H24V23.0254L30.5885 23C30.6724 23.0011 30.7551 23.0184 30.8311 23.0508C30.9071 23.0831 30.9746 23.1299 31.0292 23.1879C31.1401 23.299 31.2008 23.444 31.1994 23.594V24.4063C31.1949 24.5579 31.2562 24.705 31.37 24.8157C31.4838 24.9264 31.641 24.9919 31.8075 24.9978H32.6443C32.7257 24.9988 32.8059 25.0148 32.8803 25.0449C32.9546 25.075 33.0214 25.1186 33.0767 25.173C33.199 25.2843 33.269 25.4344 33.2719 25.5918Z" fill="white"/>
<path d="M31.0591 23.1726L33.0982 25.1577V25.173C33.0429 25.1186 32.9761 25.075 32.9018 25.0449C32.8275 25.0148 32.7472 24.9988 32.6658 24.9978H31.829C31.6625 24.9918 31.5053 24.9264 31.3915 24.8157C31.2777 24.705 31.2164 24.5579 31.2209 24.4063V23.594C31.2224 23.444 31.1616 23.2989 31.0508 23.1878L31.0591 23.1726Z" fill="#86C43D"/>
<path d="M25.9803 26.9119C25.9363 26.9117 25.8938 26.8973 25.8603 26.8713L25.0821 26.2595C25.0638 26.245 25.0488 26.2274 25.0379 26.2076C25.0271 26.1878 25.0207 26.1663 25.019 26.1443C25.0156 26.0998 25.0318 26.0558 25.064 26.0222C25.0961 25.9885 25.1417 25.9679 25.1906 25.9648C25.2395 25.9617 25.2878 25.9764 25.3248 26.0057L25.9384 26.488L26.4963 25.6681C26.5088 25.6488 26.5256 25.632 26.5455 25.6188C26.5654 25.6056 26.588 25.5962 26.612 25.5912C26.636 25.5862 26.6609 25.5857 26.6851 25.5898C26.7094 25.5938 26.7324 25.6023 26.7529 25.6147C26.7734 25.6264 26.7912 25.6416 26.8053 25.6596C26.8194 25.6775 26.8294 25.6977 26.8348 25.7192C26.8403 25.7407 26.841 25.7629 26.837 25.7846C26.833 25.8063 26.8243 25.8271 26.8115 25.8457L26.1253 26.8332C26.1116 26.8542 26.093 26.8721 26.0708 26.8857C26.0487 26.8993 26.0234 26.9082 25.997 26.9119H25.9803Z" fill="#86C43D"/>
<path d="M25.9799 29.0239C25.9359 29.0237 25.8934 29.0093 25.86 28.9833L25.0817 28.3715C25.0631 28.3574 25.0478 28.34 25.0367 28.3204C25.0256 28.3007 25.0189 28.2793 25.0171 28.2573C25.0153 28.2352 25.0183 28.2131 25.0261 28.1922C25.0338 28.1713 25.0461 28.152 25.0622 28.1355C25.0945 28.1017 25.1402 28.0808 25.1893 28.0775C25.2384 28.0742 25.2869 28.0886 25.3244 28.1177L25.9381 28.6L26.4959 27.7801C26.5218 27.742 26.5633 27.7149 26.6111 27.7047C26.659 27.6944 26.7094 27.7019 26.7512 27.7255C26.793 27.7491 26.8228 27.7868 26.834 27.8303C26.8453 27.8739 26.837 27.9197 26.8111 27.9578L26.125 28.9452C26.1107 28.9655 26.0919 28.9827 26.0698 28.9958C26.0476 29.009 26.0227 29.0177 25.9966 29.0214L25.9799 29.0239Z" fill="#86C43D"/>
<path d="M25.9799 31.1487C25.9359 31.1484 25.8934 31.134 25.86 31.1081L25.0817 30.4963C25.0631 30.4821 25.0478 30.4647 25.0367 30.4451C25.0256 30.4255 25.0189 30.404 25.0171 30.382C25.0153 30.36 25.0183 30.3379 25.0261 30.3169C25.0338 30.296 25.0461 30.2767 25.0622 30.2602C25.0945 30.2264 25.1402 30.2056 25.1893 30.2023C25.2384 30.1989 25.2869 30.2134 25.3244 30.2424L25.9381 30.7248L26.4959 29.9048C26.5223 29.8669 26.5641 29.8401 26.6122 29.8301C26.6603 29.8201 26.7107 29.8278 26.7526 29.8515C26.7731 29.8632 26.7909 29.8784 26.8049 29.8963C26.819 29.9142 26.829 29.9345 26.8345 29.956C26.8399 29.9774 26.8406 29.9996 26.8366 30.0213C26.8326 30.0431 26.824 30.0638 26.8111 30.0825L26.125 31.0573C26.1107 31.0775 26.0919 31.0948 26.0698 31.1079C26.0476 31.121 26.0227 31.1297 25.9966 31.1335L25.9799 31.1487Z" fill="#86C43D"/>
<path d="M25.98 33.248C25.936 33.2477 25.8935 33.2333 25.86 33.2074L25.0818 32.5981C25.0446 32.5687 25.0218 32.5272 25.0181 32.4825C25.0144 32.4378 25.0303 32.3936 25.0622 32.3595C25.0946 32.3257 25.1402 32.3049 25.1893 32.3016C25.2384 32.2982 25.287 32.3127 25.3244 32.3417L25.9381 32.8241L26.496 32.0041C26.5243 31.9703 26.5654 31.9474 26.6113 31.9399C26.6572 31.9323 26.7045 31.9406 26.744 31.9632C26.7835 31.9858 26.8123 32.021 26.8248 32.0619C26.8372 32.1028 26.8323 32.1465 26.8112 32.1843L26.125 33.1794C26.1107 33.1997 26.0919 33.2169 26.0698 33.23C26.0477 33.2432 26.0228 33.2519 25.9967 33.2556L25.98 33.248Z" fill="#86C43D"/>
<path d="M32.1983 26.4169H27.9668C27.918 26.4169 27.8712 26.3992 27.8366 26.3678C27.8021 26.3364 27.7827 26.2938 27.7827 26.2493C27.7827 26.2049 27.8021 26.1623 27.8366 26.1309C27.8712 26.0994 27.918 26.0818 27.9668 26.0818H32.1983C32.2471 26.0818 32.294 26.0994 32.3285 26.1309C32.363 26.1623 32.3824 26.2049 32.3824 26.2493C32.3824 26.2938 32.363 26.3364 32.3285 26.3678C32.294 26.3992 32.2471 26.4169 32.1983 26.4169Z" fill="#19DA9F" stroke="#18D79D" stroke-width="0.2"/>
<path d="M32.1978 28.5315H27.9664C27.9211 28.5264 27.8794 28.5065 27.8492 28.4754C27.8189 28.4443 27.8022 28.4042 27.8022 28.3627C27.8022 28.3211 27.8189 28.2811 27.8492 28.25C27.8794 28.2189 27.9211 28.1989 27.9664 28.1938H32.1978C32.2431 28.1989 32.2848 28.2189 32.315 28.25C32.3453 28.2811 32.3619 28.3211 32.3619 28.3627C32.3619 28.4042 32.3453 28.4443 32.315 28.4754C32.2848 28.5065 32.2431 28.5264 32.1978 28.5315Z" fill="#19DA9F" stroke="#18D79D" stroke-width="0.2"/>
<path d="M32.1978 30.641H27.9664C27.9211 30.6359 27.8794 30.6159 27.8492 30.5848C27.8189 30.5537 27.8022 30.5137 27.8022 30.4722C27.8022 30.4306 27.8189 30.3906 27.8492 30.3595C27.8794 30.3284 27.9211 30.3084 27.9664 30.3033H32.1978C32.2431 30.3084 32.2848 30.3284 32.315 30.3595C32.3453 30.3906 32.3619 30.4306 32.3619 30.4722C32.3619 30.5137 32.3453 30.5537 32.315 30.5848C32.2848 30.6159 32.2431 30.6359 32.1978 30.641Z" fill="#19DA9F" stroke="#18D79D" stroke-width="0.2"/>
<path d="M32.1978 32.7555H27.9664C27.9211 32.7505 27.8794 32.7305 27.8492 32.6994C27.8189 32.6683 27.8022 32.6282 27.8022 32.5867C27.8022 32.5452 27.8189 32.5051 27.8492 32.474C27.8794 32.4429 27.9211 32.423 27.9664 32.4179H32.1978C32.2431 32.423 32.2848 32.4429 32.315 32.474C32.3453 32.5051 32.3619 32.5452 32.3619 32.5867C32.3619 32.6282 32.3453 32.6683 32.315 32.6994C32.2848 32.7305 32.2431 32.7505 32.1978 32.7555Z" fill="#19DA9F" stroke="#18D79D" stroke-width="0.2"/>
<defs>
<filter id="filter0_d_47_12" x="0" y="0" width="57.8887" height="58" filterUnits="userSpaceOnUse" color-interpolation-filters="sRGB">
<feFlood flood-opacity="0" result="BackgroundImageFix"/>
<feColorMatrix in="SourceAlpha" type="matrix" values="0 0 0 0 0 0 0 0 0 0 0 0 0 0 0 0 0 0 127 0" result="hardAlpha"/>
<feOffset/>
<feGaussianBlur stdDeviation="10"/>
<feColorMatrix type="matrix" values="0 0 0 0 0 0 0 0 0 0 0 0 0 0 0 0 0 0 0.12 0"/>
<feBlend mode="normal" in2="BackgroundImageFix" result="effect1_dropShadow_47_12"/>
<feBlend mode="normal" in="SourceGraphic" in2="effect1_dropShadow_47_12" result="shape"/>
</filter>
</defs>
</svg>
