<svg width="14" height="9" viewBox="0 0 14 9" fill="none" xmlns="http://www.w3.org/2000/svg">
<path d="M8.10368 5.10152V0.5495H11.6647L13.0034 3.55709V6.8443H11.5208C11.3809 6.58283 11.1699 6.36367 10.9107 6.21072C10.6515 6.05776 10.354 5.97688 10.0507 5.97688C9.7474 5.97688 9.44993 6.05776 9.1907 6.21072C8.93147 6.36367 8.72044 6.58283 8.58061 6.8443H4.89911C4.76119 6.57779 4.54975 6.35377 4.28838 6.19723C4.02702 6.04069 3.72602 5.9578 3.41898 5.9578C3.11194 5.9578 2.81094 6.04069 2.54958 6.19723C2.28822 6.35377 2.07677 6.57779 1.93885 6.8443H0.990031V5.10152H8.10368Z" fill="white"/>
<path d="M1.56732 0H7.4209V5.09176H1.56732V0Z" fill="#FFB03E"/>
<path d="M9.98291 3.692C9.87209 3.69157 9.76593 3.64862 9.68757 3.57249C9.60921 3.49636 9.56499 3.39323 9.56455 3.28557V1.65985C9.56499 1.55219 9.60921 1.44906 9.68757 1.37294C9.76593 1.29681 9.87209 1.25385 9.98291 1.25342H10.5803C10.702 1.25971 10.8196 1.29817 10.9205 1.36464C11.0213 1.43111 11.1016 1.52306 11.1526 1.63059L11.8354 3.31321C11.8584 3.35465 11.8693 3.40145 11.8668 3.4485C11.8644 3.49555 11.8486 3.54103 11.8213 3.57997C11.794 3.61891 11.7562 3.6498 11.7121 3.66927C11.6679 3.68875 11.6191 3.69605 11.571 3.69038L9.98291 3.692Z" fill="#F8B609"/>
<path d="M9.9829 3.80579H11.571C11.6382 3.8111 11.7057 3.79899 11.7665 3.7707C11.8274 3.74241 11.8795 3.69895 11.9174 3.64475C11.9553 3.59055 11.9778 3.52755 11.9825 3.46216C11.9872 3.39678 11.9739 3.33135 11.9441 3.27256L11.2614 1.59156C11.2023 1.46232 11.1072 1.35169 10.9869 1.27212C10.8665 1.19256 10.7257 1.14723 10.5803 1.14124H9.9829C9.84117 1.14167 9.70539 1.19666 9.60533 1.29418C9.50527 1.39169 9.44908 1.52377 9.44908 1.66146V3.28719C9.44908 3.42473 9.50532 3.55664 9.60543 3.6539C9.70554 3.75115 9.84132 3.80579 9.9829 3.80579ZM10.5803 1.36721C10.6791 1.37247 10.7745 1.40389 10.8562 1.45805C10.9379 1.51221 11.0028 1.58705 11.0438 1.67447L11.7283 3.35547C11.7417 3.38056 11.7488 3.40845 11.7488 3.43675C11.7488 3.46506 11.7417 3.49295 11.7283 3.51804C11.7104 3.5405 11.6868 3.55802 11.6598 3.56886C11.6327 3.5797 11.6033 3.58348 11.5743 3.57982H9.98624C9.90605 3.57939 9.82926 3.54825 9.77255 3.49316C9.71585 3.43807 9.6838 3.36347 9.68336 3.28556V1.65984C9.6838 1.58193 9.71585 1.50733 9.77255 1.45224C9.82926 1.39715 9.90605 1.36601 9.98624 1.36558L10.5803 1.36721Z" fill="white"/>
<path d="M2.04286 7.58238C2.04287 7.84675 2.12358 8.10518 2.2748 8.32498C2.42602 8.54477 2.64095 8.71606 2.8924 8.81715C3.14384 8.91825 3.4205 8.94462 3.68738 8.89292C3.95425 8.84123 4.19935 8.71379 4.39165 8.52674C4.58396 8.33968 4.71483 8.10142 4.76772 7.84209C4.8206 7.58276 4.79312 7.31401 4.68876 7.06985C4.58439 6.8257 4.40782 6.6171 4.1814 6.47046C3.95497 6.32381 3.68886 6.24571 3.41673 6.24603C3.23617 6.24603 3.05738 6.28061 2.89059 6.34779C2.72379 6.41496 2.57227 6.51342 2.44467 6.63754C2.31707 6.76165 2.21591 6.90898 2.14697 7.0711C2.07802 7.23323 2.04264 7.40696 2.04286 7.58238Z" fill="white"/>
<path d="M3.41648 8.99839C3.70476 8.99839 3.98656 8.91535 4.22625 8.75975C4.46594 8.60416 4.65276 8.38301 4.76307 8.12427C4.87339 7.86553 4.90226 7.58082 4.84602 7.30614C4.78978 7.03146 4.65096 6.77915 4.44712 6.58112C4.24328 6.38309 3.98357 6.24823 3.70084 6.19359C3.4181 6.13895 3.12504 6.167 2.85871 6.27417C2.59238 6.38135 2.36474 6.56284 2.20459 6.7957C2.04443 7.02856 1.95894 7.30233 1.95894 7.58239C1.95983 7.95767 2.11368 8.31734 2.38683 8.5827C2.65998 8.84807 3.03019 8.99753 3.41648 8.99839ZM3.41648 6.32733C3.67199 6.32733 3.92176 6.40094 4.13421 6.53885C4.34666 6.67675 4.51224 6.87277 4.61002 7.1021C4.7078 7.33143 4.73338 7.58378 4.68353 7.82724C4.63369 8.0707 4.51065 8.29433 4.32998 8.46985C4.1493 8.64537 3.91911 8.7649 3.66851 8.81333C3.41792 8.86176 3.15817 8.8369 2.92211 8.74191C2.68605 8.64692 2.48429 8.48606 2.34233 8.27966C2.20038 8.07327 2.12461 7.83062 2.12461 7.58239C2.12461 7.24953 2.26072 6.9303 2.50299 6.69493C2.74527 6.45956 3.07386 6.32733 3.41648 6.32733Z" fill="white"/>
<path d="M3.41652 8.26029C3.55501 8.26061 3.69047 8.22099 3.80576 8.14644C3.92105 8.07189 4.01096 7.96578 4.06411 7.84154C4.11726 7.7173 4.13125 7.58053 4.10432 7.44856C4.07738 7.31659 4.01073 7.19536 3.9128 7.10022C3.81488 7.00509 3.69009 6.94033 3.55424 6.91416C3.4184 6.88799 3.27762 6.90159 3.14974 6.95322C3.02186 7.00486 2.91263 7.09221 2.83589 7.20421C2.75916 7.31621 2.71838 7.44782 2.71871 7.58236C2.71915 7.76203 2.79281 7.93421 2.92358 8.06125C3.05435 8.1883 3.23158 8.25986 3.41652 8.26029Z" fill="#F8B609"/>
<path d="M3.41627 8.3416C3.57083 8.3416 3.72193 8.29708 3.85044 8.21365C3.97895 8.13023 4.07912 8.01165 4.13827 7.87293C4.19742 7.7342 4.21289 7.58155 4.18274 7.43428C4.15258 7.287 4.07816 7.15173 3.96886 7.04555C3.85957 6.93937 3.72032 6.86706 3.56873 6.83777C3.41714 6.80848 3.26001 6.82351 3.11721 6.88097C2.97441 6.93844 2.85236 7.03575 2.76649 7.1606C2.68062 7.28545 2.63479 7.43223 2.63479 7.58239C2.63479 7.78375 2.71713 7.97686 2.86368 8.11924C3.01024 8.26162 3.20901 8.3416 3.41627 8.3416ZM3.41627 6.98412C3.53807 6.98412 3.65713 7.01921 3.7584 7.08495C3.85967 7.15069 3.9386 7.24412 3.98521 7.35344C4.03182 7.46276 4.04401 7.58305 4.02025 7.69911C3.99649 7.81516 3.93784 7.92176 3.85172 8.00543C3.7656 8.0891 3.65587 8.14608 3.53641 8.16916C3.41695 8.19225 3.29313 8.1804 3.18061 8.13512C3.06808 8.08984 2.97191 8.01315 2.90424 7.91477C2.83657 7.81639 2.80046 7.70072 2.80046 7.58239C2.80046 7.42372 2.86534 7.27155 2.98082 7.15935C3.09631 7.04716 3.25295 6.98412 3.41627 6.98412Z" fill="#C2C2C2"/>
<path d="M8.67275 7.58238C8.67275 7.84668 8.75342 8.10505 8.90457 8.32481C9.05571 8.54457 9.27055 8.71585 9.52189 8.817C9.77324 8.91814 10.0498 8.94461 10.3166 8.89304C10.5835 8.84148 10.8286 8.71421 11.0209 8.52731C11.2133 8.34042 11.3443 8.10231 11.3974 7.84308C11.4505 7.58386 11.4232 7.31517 11.3191 7.07098C11.215 6.8268 11.0387 6.61809 10.8125 6.47125C10.5863 6.32441 10.3203 6.24603 10.0483 6.24603C9.68347 6.24603 9.3336 6.38682 9.07563 6.63744C8.81767 6.88805 8.67275 7.22796 8.67275 7.58238Z" fill="white"/>
<path d="M10.048 8.99839C10.3362 8.99807 10.6179 8.91475 10.8573 8.75896C11.0968 8.60317 11.2834 8.38191 11.3934 8.12314C11.5035 7.86437 11.5321 7.57971 11.4757 7.30514C11.4193 7.03057 11.2803 6.77841 11.0764 6.58054C10.8725 6.38268 10.6128 6.24798 10.3301 6.19347C10.0474 6.13897 9.75444 6.1671 9.48821 6.27432C9.22197 6.38154 8.99444 6.56304 8.83435 6.79587C8.67427 7.02869 8.58883 7.3024 8.58883 7.58239C8.58927 7.95808 8.74321 8.31824 9.01681 8.58375C9.29042 8.84925 9.66133 8.99839 10.048 8.99839ZM10.048 6.32733C10.3035 6.32733 10.5533 6.40094 10.7658 6.53884C10.9782 6.67675 11.1438 6.87277 11.2416 7.1021C11.3394 7.33143 11.3649 7.58378 11.3151 7.82724C11.2652 8.0707 11.1422 8.29432 10.9615 8.46985C10.7809 8.64537 10.5507 8.7649 10.3001 8.81333C10.0495 8.86175 9.78972 8.8369 9.55366 8.74191C9.31761 8.64692 9.11584 8.48605 8.97389 8.27966C8.83194 8.07327 8.75617 7.83061 8.75617 7.58239C8.75617 7.24952 8.89228 6.9303 9.13455 6.69493C9.37682 6.45956 9.70542 6.32733 10.048 6.32733Z" fill="white"/>
<path d="M10.0481 8.26029C10.1865 8.26029 10.3218 8.22039 10.4369 8.14565C10.5519 8.07091 10.6416 7.96468 10.6945 7.84041C10.7474 7.71614 10.7611 7.57943 10.734 7.44756C10.7069 7.3157 10.6401 7.19462 10.5421 7.09965C10.4441 7.00468 10.3193 6.94008 10.1835 6.91404C10.0477 6.88801 9.90702 6.9017 9.77923 6.95338C9.65145 7.00506 9.54232 7.09242 9.46566 7.20438C9.389 7.31635 9.34826 7.44789 9.34859 7.58236C9.34859 7.67153 9.3667 7.75981 9.40187 7.84217C9.43704 7.92452 9.48859 7.99933 9.55357 8.06231C9.61854 8.12528 9.69567 8.17518 9.78052 8.20915C9.86538 8.24312 9.9563 8.2605 10.0481 8.26029Z" fill="#F8B609"/>
<path d="M10.0483 8.3416C10.2028 8.34128 10.3537 8.29648 10.482 8.21287C10.6103 8.12925 10.7102 8.01056 10.7691 7.87181C10.828 7.73305 10.8432 7.58045 10.8129 7.43328C10.7826 7.28612 10.708 7.15099 10.5986 7.04497C10.4893 6.93896 10.35 6.86681 10.1985 6.83765C10.0469 6.80849 9.8899 6.82362 9.7472 6.88113C9.6045 6.93864 9.48255 7.03595 9.39675 7.16077C9.31096 7.28558 9.26516 7.4323 9.26516 7.58239C9.26561 7.7839 9.34831 7.977 9.49513 8.11934C9.64196 8.26167 9.8409 8.3416 10.0483 8.3416ZM10.0483 6.98412C10.1701 6.98412 10.2892 7.01921 10.3904 7.08495C10.4917 7.15069 10.5706 7.24413 10.6173 7.35344C10.6639 7.46276 10.6761 7.58306 10.6523 7.69911C10.6285 7.81516 10.5699 7.92176 10.4838 8.00543C10.3976 8.0891 10.2879 8.14608 10.1685 8.16916C10.049 8.19225 9.92518 8.1804 9.81266 8.13512C9.70013 8.08984 9.60395 8.01316 9.53629 7.91477C9.46862 7.81639 9.4325 7.70072 9.4325 7.58239C9.4325 7.42372 9.49739 7.27155 9.61287 7.15935C9.72836 7.04716 9.885 6.98412 10.0483 6.98412Z" fill="#C2C2C2"/>
<path d="M1.15395 5.23969H12.667V5.81357H1.15395V5.23969Z" fill="white"/>
<path d="M7.42251 0H7.77393V5.09176H7.42251V0Z" fill="white"/>
<path d="M6.73138 0H7.08447V5.09176H6.73138V0Z" fill="white"/>
<path d="M6.04409 0H6.39551V5.09176H6.04409V0Z" fill="white"/>
<path d="M5.35415 0H5.70557V5.09176H5.35415V0Z" fill="white"/>
<path d="M4.6647 0H5.01611V5.09176H4.6647V0Z" fill="white"/>
<path d="M3.97524 0H4.32666V5.09176H3.97524V0Z" fill="white"/>
<path d="M3.2858 0H3.63721V5.09176H3.2858V0Z" fill="white"/>
<path d="M2.59634 0H2.94775V5.09176H2.59634V0Z" fill="white"/>
<path d="M1.90689 0H2.2583V5.09176H1.90689V0Z" fill="white"/>
<path d="M1.21743 0H1.56885V5.09176H1.21743V0Z" fill="white"/>
</svg>
