<svg width="18" height="18" viewBox="0 0 18 18" fill="none" xmlns="http://www.w3.org/2000/svg">
<path d="M9 0C4.03579 0 0 4.03579 0 9C0 13.9642 4.03579 18 9 18C13.9642 18 18 13.9642 18 9C18 4.03579 13.9642 0 9 0ZM12.8084 10.0042H9C8.45053 10.0042 7.99579 9.54947 7.99579 9V4.32C7.99579 3.77053 8.45053 3.31579 9 3.31579C9.54947 3.31579 10.0042 3.77053 10.0042 4.32V8.01474H12.8084C13.3579 8.01474 13.8126 8.46947 13.8126 9.01895C13.8126 9.54947 13.3579 10.0042 12.8084 10.0042Z" fill="#F7B507"/>
</svg>
