<svg width="20" height="20" viewBox="0 0 20 20" fill="none" xmlns="http://www.w3.org/2000/svg">
<path d="M18.125 5.625H1.875C1.37772 5.625 0.900805 5.82254 0.549175 6.17417C0.197544 6.52581 0 7.00272 0 7.5V14.375C0 14.8723 0.197544 15.3492 0.549175 15.7008C0.900805 16.0525 1.37772 16.25 1.875 16.25H3.125V18.125C3.125 18.6223 3.32254 19.0992 3.67417 19.4508C4.02581 19.8025 4.50272 20 5 20H15C15.4973 20 15.9742 19.8025 16.3258 19.4508C16.6775 19.0992 16.875 18.6223 16.875 18.125V16.25H18.125C18.6223 16.25 19.0992 16.0525 19.4508 15.7008C19.8025 15.3492 20 14.8723 20 14.375V7.5C20 7.00272 19.8025 6.52581 19.4508 6.17417C19.0992 5.82254 18.6223 5.625 18.125 5.625ZM14.375 17.5H5.625V13.125H14.375V17.5ZM15.625 3.75H4.375V1.875C4.375 1.37772 4.57254 0.900805 4.92417 0.549175C5.27581 0.197544 5.75272 0 6.25 0H13.75C14.2473 0 14.7242 0.197544 15.0758 0.549175C15.4275 0.900805 15.625 1.37772 15.625 1.875V3.75Z" fill="white"/>
</svg>
