<svg width="21" height="19" viewBox="0 0 21 19" fill="none" xmlns="http://www.w3.org/2000/svg">
<path d="M2.8696 7.64266C2.9787 7.13892 3.13191 6.64446 3.33155 6.16858C3.30137 6.24286 3.26887 6.31715 3.2387 6.39143C3.51494 5.74145 3.87011 5.13092 4.30189 4.57147C4.25314 4.63414 4.20439 4.69682 4.15564 4.7595C4.58278 4.20701 5.07724 3.71255 5.62973 3.2831C5.56705 3.33184 5.50437 3.38059 5.44169 3.42934C5.99651 3.00221 6.60471 2.64703 7.25005 2.37311C7.17577 2.40329 7.10149 2.43579 7.0272 2.46597C7.70272 2.18276 8.41075 1.9924 9.13502 1.8949C9.05377 1.90651 8.9702 1.91812 8.88895 1.9274C9.60626 1.83455 10.3305 1.83455 11.0455 1.92973C10.9643 1.91812 10.8807 1.90651 10.7995 1.89723C11.5168 1.99472 12.2178 2.18972 12.8864 2.47061C12.8121 2.44043 12.7378 2.40793 12.6635 2.37775C13.3135 2.65632 13.9264 3.01381 14.4858 3.44791C14.4231 3.39916 14.3605 3.35042 14.2978 3.30167C14.841 3.72648 15.3308 4.21397 15.7533 4.7595C15.7045 4.69682 15.6558 4.63414 15.6071 4.57147C16.0365 5.1286 16.3917 5.73912 16.6656 6.38679C16.6354 6.31251 16.6029 6.23822 16.5727 6.16394C16.7585 6.61197 16.907 7.07392 17.0138 7.54516C17.1206 8.01873 17.694 8.34372 18.1559 8.19283C18.6527 8.03266 18.9197 7.55909 18.8036 7.05071C18.4484 5.48609 17.6638 4.02826 16.5658 2.85596C15.5026 1.7208 14.1353 0.878136 12.6566 0.409216C11.1198 -0.0782758 9.45305 -0.122382 7.88379 0.235112C6.29132 0.59957 4.80099 1.42134 3.62869 2.5565C2.48657 3.66148 1.64158 5.08217 1.20748 6.61197C1.15641 6.78839 1.11463 6.96714 1.07516 7.14588C1.02177 7.38963 1.04034 7.64266 1.16802 7.86087C1.28177 8.05355 1.5023 8.23694 1.72283 8.28801C1.95961 8.3414 2.22657 8.32979 2.43782 8.19515C2.63978 8.0698 2.81852 7.87944 2.8696 7.64266Z" fill="white"/>
<path d="M18.2046 3.66845C17.8587 4.65736 17.5129 5.64859 17.167 6.6375C17.1182 6.77679 17.0695 6.91607 17.0207 7.05767C17.4014 6.84179 17.7821 6.6259 18.1628 6.41001C17.1739 6.06412 16.1827 5.71823 15.1938 5.37235C15.0545 5.3236 14.9152 5.27485 14.7736 5.2261C14.5554 5.14949 14.2536 5.20521 14.0586 5.31896C13.866 5.4327 13.6826 5.65323 13.6315 5.87377C13.5781 6.11055 13.5897 6.37751 13.7244 6.58875C13.8613 6.8 14.0401 6.93232 14.2792 7.01589C15.2681 7.36178 16.2593 7.70766 17.2482 8.05355C17.3875 8.1023 17.5268 8.15105 17.6684 8.1998C17.8773 8.27408 18.2 8.22533 18.3834 8.10694C18.5946 7.96998 18.7269 7.79123 18.8105 7.55213C19.1564 6.56322 19.5023 5.57199 19.8482 4.58308C19.8969 4.44379 19.9457 4.30451 19.9944 4.1629C20.071 3.94469 20.0153 3.64291 19.9016 3.44792C19.7878 3.25524 19.5673 3.07185 19.3468 3.02078C19.11 2.96739 18.843 2.979 18.6318 3.11364C18.4205 3.24828 18.2882 3.42934 18.2046 3.66845Z" fill="white"/>
<path d="M17.1602 10.4539C17.0511 10.9576 16.8978 11.4521 16.6982 11.928C16.7284 11.8537 16.7609 11.7794 16.7911 11.7051C16.5148 12.3551 16.1596 12.9656 15.7279 13.5251C15.7766 13.4624 15.8254 13.3997 15.8741 13.337C15.447 13.8895 14.9525 14.384 14.4 14.8134C14.4627 14.7647 14.5254 14.7159 14.5881 14.6672C14.0333 15.0943 13.4251 15.4495 12.7797 15.7234C12.854 15.6932 12.9283 15.6607 13.0026 15.6306C12.327 15.9138 11.619 16.1041 10.8947 16.2016C10.976 16.19 11.0596 16.1784 11.1408 16.1691C10.4235 16.262 9.69922 16.262 8.98424 16.1668C9.06548 16.1784 9.14905 16.19 9.2303 16.1993C8.51299 16.1018 7.81193 15.9068 7.14337 15.6259C7.21766 15.6561 7.29194 15.6886 7.36623 15.7188C6.71624 15.4402 6.10339 15.0827 5.54394 14.6486C5.60662 14.6974 5.66929 14.7461 5.73197 14.7949C5.18877 14.3701 4.69895 13.8826 4.27646 13.337C4.32521 13.3997 4.37396 13.4624 4.42271 13.5251C3.99325 12.9679 3.63808 12.3574 3.36416 11.7097C3.39433 11.784 3.42683 11.8583 3.45701 11.9326C3.2713 11.4846 3.12273 11.0226 3.01595 10.5514C2.90916 10.0778 2.33578 9.75282 1.87382 9.90371C1.37705 10.0639 1.11009 10.5374 1.22616 11.0458C1.58133 12.6104 2.36596 14.0683 3.46397 15.2406C4.52717 16.3757 5.89447 17.2184 7.37319 17.6873C8.90995 18.1748 10.5767 18.2189 12.146 17.8614C13.7384 17.497 15.2288 16.6752 16.4011 15.54C17.5432 14.4351 18.3882 13.0144 18.8223 11.4846C18.8733 11.3081 18.9151 11.1294 18.9546 10.9507C19.008 10.7069 18.9894 10.4539 18.8617 10.2357C18.748 10.043 18.5275 9.8596 18.3069 9.80853C18.0701 9.75514 17.8032 9.76675 17.5919 9.90139C17.39 10.0244 17.2112 10.2171 17.1602 10.4539Z" fill="white"/>
<path d="M1.82512 14.4281C2.17101 13.4392 2.51689 12.448 2.86278 11.459C2.91153 11.3198 2.96028 11.1805 3.00903 11.0389C2.62832 11.2548 2.24761 11.4707 1.8669 11.6865C2.85581 12.0324 3.84705 12.3783 4.83596 12.7242C4.97524 12.773 5.11453 12.8217 5.25613 12.8705C5.47434 12.9471 5.77612 12.8913 5.97112 12.7776C6.16379 12.6639 6.34718 12.4433 6.39825 12.2228C6.45164 11.986 6.44004 11.719 6.3054 11.5078C6.16844 11.2966 5.98969 11.1642 5.75059 11.0807C4.76167 10.7348 3.77044 10.3889 2.78153 10.043C2.64225 9.99425 2.50296 9.9455 2.36136 9.89675C2.15243 9.82247 1.82976 9.87122 1.64637 9.98961C1.43513 10.1266 1.30281 10.3053 1.21924 10.5444C0.87335 11.5333 0.527463 12.5246 0.181576 13.5135C0.132827 13.6528 0.084078 13.792 0.0353288 13.9336C-0.041277 14.1519 0.0144363 14.4536 0.128184 14.6486C0.241932 14.8413 0.462464 15.0247 0.682996 15.0758C0.919777 15.1292 1.18674 15.1176 1.39798 14.9829C1.60923 14.846 1.74155 14.6649 1.82512 14.4281Z" fill="white"/>
</svg>
