<svg width="18" height="18" viewBox="0 0 18 18" fill="none" xmlns="http://www.w3.org/2000/svg">
<path fill-rule="evenodd" clip-rule="evenodd" d="M16.5 16.5C16.5 16.1205 16.808 15.8125 17.1875 15.8125C17.567 15.8125 17.875 16.1205 17.875 16.5V17.1875C17.875 17.5673 17.5673 17.875 17.1875 17.875H0.6875C0.307656 17.875 0 17.5673 0 17.1875V0.6875C0 0.307656 0.307656 0 0.6875 0H13.0625C13.2447 0 13.4197 0.0725307 13.5486 0.201437L17.6736 4.32644C17.8025 4.45534 17.875 4.63031 17.875 4.8125V13.75C17.875 14.1295 17.567 14.4375 17.1875 14.4375C16.808 14.4375 16.5 14.1295 16.5 13.75V5.09713L12.7779 1.375H1.375V16.5H16.5Z" fill="white"/>
<path fill-rule="evenodd" clip-rule="evenodd" d="M14.4378 13.0625C14.4378 12.5156 14.2204 11.991 13.8338 11.604C13.4468 11.2172 12.9223 11 12.3752 11C10.5461 11 7.3297 11 5.50054 11C4.95352 11 4.42896 11.2172 4.04195 11.604C3.65535 11.991 3.43799 12.5156 3.43799 13.0625C3.43799 14.6915 3.43799 17.1875 3.43799 17.1875C3.43799 17.5673 3.74558 17.875 4.12537 17.875H13.7504C14.1302 17.875 14.4378 17.5673 14.4378 17.1875V13.0625ZM13.063 13.0625C13.063 12.8803 12.9904 12.7053 12.8617 12.5764C12.7326 12.4475 12.5577 12.375 12.3752 12.375C10.5461 12.375 7.3297 12.375 5.50054 12.375C5.31807 12.375 5.14322 12.4475 5.01408 12.5764C4.88535 12.7053 4.81275 12.8803 4.81275 13.0625V16.5H13.063V13.0625Z" fill="white"/>
</svg>
