<svg width="26" height="26" viewBox="0 0 26 26" fill="none" xmlns="http://www.w3.org/2000/svg">
<path d="M6.49947 19.6999H3.62983H3.62849L3.62849 19.6999C3.54594 19.6988 3.46358 19.6929 3.38177 19.6821L1.88045 24.9373L1.85297 25.0334L1.75681 25.0059L0.987165 24.7859L0.891015 24.7585L0.918499 24.6623L2.44314 19.3286C1.94048 18.9847 1.61137 18.4379 1.54401 17.8302L1.00207 12.9502L1.00195 12.9492L1.00196 12.9492C0.956171 12.4928 1.15298 12.0458 1.52041 11.7716C1.88802 11.4972 2.3726 11.4357 2.79705 11.6095L2.79706 11.6095C3.22152 11.7834 3.52356 12.167 3.59317 12.6203L3.59333 12.6213L3.59332 12.6213L4.23304 17.0999H6.99934L6.49947 19.6999ZM6.49947 19.6999V24.7999V24.8999H6.59947H7.39947H7.49947V24.7999V19.595L6.49947 19.6999ZM1.99696 12.8418L1.9969 12.8413C1.98681 12.7547 2.01423 12.6678 2.07232 12.6025L2.07233 12.6025C2.13001 12.5375 2.21281 12.5002 2.29992 12.5C2.45157 12.5014 2.57945 12.6131 2.60128 12.763C2.60128 12.7631 2.60129 12.7631 2.60129 12.7631L3.30448 17.6708L3.30449 17.6709C3.33998 17.917 3.55086 18.0998 3.79954 18.0998H6.99955C7.16521 18.0998 7.29955 18.2341 7.29955 18.3998C7.29955 18.5655 7.16515 18.6999 6.99952 18.6999H3.63153C3.36098 18.6998 3.10005 18.6 2.89839 18.4196C2.69686 18.239 2.56885 17.9905 2.5389 17.7217L1.99696 12.8418Z" fill="#F1F1F4" stroke="#F1F1F4" stroke-width="0.2"/>
<path d="M19.5002 19.6999V24.7999V24.8999H19.4002H18.6002H18.5002V24.7999V19.595C18.1444 19.4472 17.8712 19.148 17.7576 18.777L19.5002 19.6999ZM19.5002 19.6999L22.3683 19.6999L22.3696 19.6999C22.4521 19.6988 22.5345 19.6929 22.6163 19.6821L24.1176 24.9373L24.1451 25.0335L24.2413 25.006L25.0109 24.786L25.1071 24.7585L25.0796 24.6624L23.5565 19.3286C24.0585 18.9849 24.3873 18.4388 24.4548 17.8317L24.4548 17.8316L24.9968 12.9516L24.9968 12.9516L24.9969 12.9507C25.0433 12.4941 24.8466 12.0469 24.479 11.7723C24.1114 11.4975 23.6266 11.436 23.202 11.61M19.5002 19.6999L23.202 11.61M19.0004 17.0999C18.5887 17.0991 18.2009 17.294 17.9558 17.6248L21.8534 17.1999M19.0004 17.0999L19.0002 17.1999V17.0999H19.0004ZM19.0004 17.0999H21.7667M21.7667 17.0999L21.7544 17.1858L21.8534 17.1999M21.7667 17.0999L22.4057 12.6226L22.4058 12.6216C22.475 12.1679 22.7773 11.7839 23.202 11.61M21.7667 17.0999H21.8534V17.1999M21.8534 17.1999L23.202 11.61M22.6953 17.6708L22.6953 17.671C22.6598 17.9171 22.4489 18.0999 22.2002 18.0999H19.0002C18.8346 18.0999 18.7002 18.2342 18.7002 18.3999C18.7002 18.5656 18.8346 18.6999 19.0002 18.6999H22.3682C22.6388 18.6997 22.8999 18.5999 23.1014 18.4193L23.1014 18.4193C23.3031 18.2388 23.4311 17.9903 23.4608 17.7212L23.4608 17.7212L24.0016 12.8403L24.0016 12.84C24.0114 12.7536 23.9837 12.667 23.9257 12.6021L22.6953 17.6708ZM22.6953 17.6708L23.3965 12.7633M22.6953 17.6708L23.3965 12.7633M23.3965 12.7633C23.3965 12.7632 23.3965 12.7632 23.3965 12.7631M23.3965 12.7633L23.3965 12.7631M23.3965 12.7631C23.4186 12.6131 23.5464 12.5015 23.6978 12.5C23.7849 12.5002 23.8676 12.5372 23.9257 12.6021L23.3965 12.7631Z" fill="#F1F1F4" stroke="#F1F1F4" stroke-width="0.2"/>
<path d="M15.3996 22.3H14.2996V14.1H16.5996H18.9996C19.1322 14.1 19.2594 14.0473 19.3532 13.9535C19.4469 13.8598 19.4996 13.7326 19.4996 13.6V12C19.4996 11.8674 19.4469 11.7402 19.3532 11.6464C19.2594 11.5526 19.1322 11.5 18.9996 11.5H6.99961C6.72349 11.5 6.49961 11.7239 6.49961 12V13.6C6.49961 13.7326 6.55228 13.8598 6.64604 13.9535C6.7398 14.0473 6.86703 14.1 6.99961 14.1H11.6996V22.3H10.5996C10.3235 22.3 10.0996 22.5239 10.0996 22.8V24.4C10.0996 24.5326 10.1523 24.6598 10.246 24.7535C10.3398 24.8473 10.467 24.9 10.5996 24.9H15.3996C15.5322 24.9 15.6594 24.8473 15.7532 24.7535C15.8469 24.6598 15.8996 24.5326 15.8996 24.4V22.8C15.8996 22.6674 15.8469 22.5402 15.7532 22.4464C15.6594 22.3526 15.5322 22.3 15.3996 22.3ZM7.49961 13.1V12.5H18.4996V13.1H7.49961ZM13.2996 14.1V22.3H12.6996V14.1H13.2996ZM14.8996 23.9H11.0996V23.3H14.8996V23.9Z" fill="#F1F1F4" stroke="#F1F1F4" stroke-width="0.2"/>
<path d="M10.9996 6.39995H14.9996C15.1614 6.39995 15.3071 6.30245 15.3691 6.15299C15.431 6.00353 15.3967 5.83156 15.2825 5.71709L13.3996 3.8344V0.799927H12.5996V3.8344L10.7167 5.71728V5.7171C10.6024 5.83156 10.5681 6.00353 10.6301 6.15299C10.6921 6.30246 10.8378 6.39996 10.9996 6.39996L10.9996 6.39995ZM12.9996 4.56548L14.0341 5.59995H11.9651L12.9996 4.56548Z" fill="#F1F1F4"/>
</svg>
