<svg width="46" height="46" viewBox="0 0 46 46" fill="none" xmlns="http://www.w3.org/2000/svg">
<path d="M6.52469 16.9569C6.00882 17.3419 5.73249 17.9695 5.79678 18.6103L5.79677 18.6103L5.79689 18.6113L6.57593 25.6263C6.57593 25.6263 6.57593 25.6263 6.57593 25.6263C6.67252 26.4977 7.14897 27.2806 7.87572 27.7665L5.67534 35.4643L5.64785 35.5604L5.744 35.5879L6.85037 35.9041L6.94653 35.9316L6.974 35.8355L9.14259 28.2447C9.27074 28.2632 9.39994 28.2733 9.52947 28.275V28.275H9.5308H13.6997V35.65V35.75H13.7997H14.9497H15.0497V35.65V28.1386C15.5624 27.9351 15.9568 27.5093 16.1191 26.9793C16.2883 26.4266 16.1851 25.8263 15.8409 25.3619C15.4968 24.8974 14.9525 24.6239 14.3745 24.625L14.3069 24.6251H10.36L9.43502 18.1495L9.43503 18.1495L9.43487 18.1485C9.33713 17.5121 8.91306 16.9735 8.31711 16.7294L8.31711 16.7294C7.72117 16.4853 7.04082 16.5716 6.52469 16.9569ZM6.52469 16.9569L6.5845 17.037L6.52469 16.9569ZM7.14007 18.4651L7.14001 18.4645C7.12407 18.3276 7.16742 18.1904 7.25918 18.0871L7.25919 18.0871C7.35047 17.9844 7.48147 17.9255 7.61922 17.9251C7.85891 17.9273 8.06108 18.1038 8.09557 18.3408C8.09557 18.3408 8.09557 18.3408 8.09558 18.3408L9.10643 25.3957L9.10644 25.3958C9.15434 25.7281 9.43905 25.9749 9.77477 25.9749H14.3748C14.6371 25.9749 14.8498 26.1876 14.8498 26.4499C14.8498 26.7122 14.6371 26.9249 14.3748 26.9249H14.2923L14.2923 26.9251H9.53323C9.13351 26.9249 8.74801 26.7773 8.4501 26.5108C8.15245 26.2441 7.96337 25.8771 7.91912 25.4801C7.91911 25.48 7.91911 25.48 7.91911 25.48L7.14007 18.4651Z" fill="#0C0D0D" stroke="#0C0D0D" stroke-width="0.2"/>
<path d="M32.2996 28.275V35.65V35.75H32.1996H31.0496H30.9496V35.65V28.1386C30.4369 27.9352 30.0424 27.5093 29.8802 26.9793C29.711 26.4265 29.8142 25.8263 30.1583 25.3619C30.5024 24.8974 31.0468 24.6239 31.6248 24.625M32.2996 28.275L35.7261 24.725M32.2996 28.275L36.4662 28.275L36.4675 28.275C36.597 28.2733 36.7262 28.2632 36.8544 28.2447L39.023 35.8355L39.0504 35.9316L39.1466 35.9041L40.253 35.5879L40.3491 35.5604L40.3216 35.4643L38.1235 27.7665C38.8492 27.2808 39.3252 26.4989 39.4221 25.6283L39.4221 25.6283L40.2011 18.6133L40.2012 18.6124C40.2664 17.9713 39.9902 17.3433 39.4741 16.9578C38.958 16.572 38.2774 16.4857 37.6812 16.73M32.2996 28.275L37.6812 16.73M31.6248 24.625L31.6246 24.725V24.625H31.6248ZM31.6248 24.625H35.6393M35.6393 24.625L35.6271 24.7108L35.7261 24.725M35.6393 24.625L36.5632 18.1512L36.5634 18.1503C36.6606 17.5133 37.0849 16.9741 37.6812 16.73M35.6393 24.625H35.7261V24.725M35.7261 24.725L37.6812 16.73M37.901 18.3407L37.903 18.3269C37.9435 18.0969 38.1425 17.9273 38.3771 17.9252C38.5149 17.9253 38.6458 17.9838 38.7376 18.0864C38.8292 18.189 38.873 18.326 38.8575 18.4626L38.8575 18.4629L38.0802 25.4792L38.0802 25.4792C38.0362 25.8767 37.8471 26.2438 37.5492 26.5105L37.5492 26.5105C37.2515 26.7772 36.8658 26.9247 36.4661 26.925L36.4336 26.925H31.6246C31.3623 26.925 31.1496 26.7123 31.1496 26.45C31.1496 26.1877 31.3623 25.975 31.6246 25.975H36.2246C36.5603 25.975 36.845 25.7282 36.8929 25.3959L36.8929 25.3958L37.901 18.3407Z" fill="#0C0D0D" stroke="#0C0D0D" stroke-width="0.2"/>
<path d="M26.4498 32.1H24.8248V20.225H31.6248C31.8038 20.225 31.9756 20.1539 32.1021 20.0274C32.2287 19.9008 32.2998 19.729 32.2998 19.55V17.25C32.2998 17.0711 32.2287 16.8993 32.1021 16.7727C31.9756 16.6462 31.8038 16.575 31.6248 16.575H14.3748C14.002 16.575 13.6998 16.8773 13.6998 17.25V19.55C13.6998 19.729 13.7709 19.9008 13.8975 20.0274C14.0241 20.1539 14.1958 20.225 14.3748 20.225H21.1748V32.1H19.5498C19.177 32.1 18.8748 32.4023 18.8748 32.775V35.075C18.8748 35.254 18.9459 35.4258 19.0725 35.5524C19.1991 35.6789 19.3708 35.75 19.5498 35.75H26.4498C26.6288 35.75 26.8006 35.6789 26.9271 35.5524C27.0537 35.4258 27.1248 35.254 27.1248 35.075V32.775C27.1248 32.5961 27.0537 32.4243 26.9271 32.2977C26.8006 32.1712 26.6288 32.1 26.4498 32.1ZM15.0498 18.875V17.925H30.9498V18.875H15.0498ZM23.4748 20.225V32.1H22.5248V20.225H23.4748ZM25.7748 34.4H20.2248V33.45H25.7748V34.4Z" fill="#0C0D0D" stroke="#0C0D0D" stroke-width="0.2"/>
<path d="M20.1248 9.20006H25.8748C26.1074 9.20006 26.3168 9.0599 26.4059 8.84505C26.495 8.6302 26.4457 8.383 26.2814 8.21845L23.5748 5.51207V1.15002H22.4248V5.51207L19.7181 8.21871V8.21846C19.5538 8.383 19.5046 8.6302 19.5936 8.84506C19.6827 9.05991 19.8922 9.20007 20.1247 9.20007L20.1248 9.20006ZM22.9998 6.56301L24.4868 8.05006H21.5127L22.9998 6.56301Z" fill="#0C0D0D"/>
</svg>
