<svg width="37" height="37" viewBox="0 0 37 37" fill="none" xmlns="http://www.w3.org/2000/svg">
<path d="M18.6999 36.7C28.5858 36.7 36.5999 28.6859 36.5999 18.8C36.5999 8.91414 28.5858 0.900024 18.6999 0.900024C8.81402 0.900024 0.799927 8.91414 0.799927 18.8C0.799927 28.6859 8.81402 36.7 18.6999 36.7Z" fill="#95712E"/>
<path d="M18.6999 33.5001C26.8185 33.5001 33.3999 26.9187 33.3999 18.8001C33.3999 10.6815 26.8185 4.1001 18.6999 4.1001C10.5813 4.1001 3.99988 10.6815 3.99988 18.8001C3.99988 26.9187 10.5813 33.5001 18.6999 33.5001Z" fill="#F9F3D3"/>
<path d="M16.8342 8.85017H20.6695L20.0217 20.978H17.4562L16.8342 8.85017ZM18.7519 27.1715C18.1472 27.1715 17.6462 26.9815 17.2489 26.6014C16.8515 26.204 16.6528 25.7203 16.6528 25.1502C16.6528 24.5801 16.8515 24.105 17.2489 23.7249C17.6462 23.3448 18.1472 23.1548 18.7519 23.1548C19.3393 23.1548 19.823 23.3448 20.2031 23.7249C20.6004 24.105 20.7991 24.5801 20.7991 25.1502C20.7991 25.7203 20.6004 26.204 20.2031 26.6014C19.823 26.9815 19.3393 27.1715 18.7519 27.1715Z" fill="#95712E"/>
</svg>
