<svg width="37" height="37" viewBox="0 0 37 37" fill="none" xmlns="http://www.w3.org/2000/svg">
<path d="M18.6999 36.6001C28.5858 36.6001 36.5999 28.586 36.5999 18.7001C36.5999 8.81418 28.5858 0.800049 18.6999 0.800049C8.81402 0.800049 0.799927 8.81418 0.799927 18.7001C0.799927 28.586 8.81402 36.6001 18.6999 36.6001Z" fill="#B81E27"/>
<path d="M18.6999 33.4C26.8185 33.4 33.3999 26.8186 33.3999 18.7C33.3999 10.5814 26.8185 4 18.6999 4C10.5813 4 3.99988 10.5814 3.99988 18.7C3.99988 26.8186 10.5813 33.4 18.6999 33.4Z" fill="#F2C6C3"/>
<path d="M25.8 23.6001C26.4 24.2001 26.4 25.2001 25.8 25.7001C25.5 26.0001 25.0999 26.1001 24.6999 26.1001C24.2999 26.1001 23.8999 25.9001 23.5999 25.7001L23.1999 25.3L18.5999 20.7001L13.5999 25.7001C13.2999 26.0001 12.8999 26.1001 12.4999 26.1001C12.0999 26.1001 11.7 25.9001 11.4 25.7001C10.8 25.1001 10.8 24.1001 11.4 23.6001L16.4 18.6001L11.4 13.6001C10.8 13.0001 10.8 12 11.4 11.5C12 10.9 12.9999 10.9 13.4999 11.5L18.4999 16.5L23.4999 11.5C24.0999 10.9 25.0999 10.9 25.5999 11.5C26.1999 12.1 26.1999 13.1001 25.5999 13.6001L20.5999 18.6001L25.8 23.6001Z" fill="#B81E27"/>
</svg>
