<svg width="37" height="36" viewBox="0 0 37 36" fill="none" xmlns="http://www.w3.org/2000/svg">
<path d="M20.9999 11.1C20.9999 12.4 19.9999 13.4 18.6999 13.4C17.3999 13.4 16.3999 12.4 16.3999 11.1C16.3999 9.8 17.3999 8.8 18.6999 8.8C19.9999 8.8 20.9999 9.8 20.9999 11.1ZM18.6999 14.5C17.7999 14.5 17.0999 15.2 17.0999 16.1V25.5C17.0999 26.4 17.7999 27.1 18.6999 27.1C19.5999 27.1 20.2999 26.4 20.2999 25.5V16.1C20.3999 15.2 19.5999 14.5 18.6999 14.5ZM36.6999 17.9C36.6999 27.8 28.6999 35.8 18.7999 35.8C8.8999 35.8 0.899902 27.8 0.899902 17.9C0.899902 8 8.8999 0 18.7999 0C28.6999 0 36.6999 8 36.6999 17.9ZM33.3999 17.9C33.3999 9.8 26.7999 3.2 18.6999 3.2C10.5999 3.2 3.9999 9.8 3.9999 17.9C3.9999 26 10.5999 32.6 18.6999 32.6C26.7999 32.6 33.3999 26 33.3999 17.9Z" fill="#0057A3"/>
</svg>
