<svg width="37" height="37" viewBox="0 0 37 37" fill="none" xmlns="http://www.w3.org/2000/svg">
<path d="M18.6999 36.4001C28.5858 36.4001 36.5999 28.386 36.5999 18.5001C36.5999 8.61419 28.5858 0.600098 18.6999 0.600098C8.81402 0.600098 0.799927 8.61419 0.799927 18.5001C0.799927 28.386 8.81402 36.4001 18.6999 36.4001Z" fill="#526C4C"/>
<path d="M18.6999 33.2001C26.8185 33.2001 33.3999 26.6186 33.3999 18.5001C33.3999 10.3815 26.8185 3.80005 18.6999 3.80005C10.5813 3.80005 3.99988 10.3815 3.99988 18.5001C3.99988 26.6186 10.5813 33.2001 18.6999 33.2001Z" fill="#D9F3D3"/>
<path d="M24.8 11.7001L16.6 19.9001L12.7 16.0001L10 18.7001L16.6 25.3L27.6 14.3L24.8 11.7001Z" fill="#526C4C"/>
</svg>
