<svg width="8" height="12" viewBox="0 0 8 12" fill="none" xmlns="http://www.w3.org/2000/svg">
<path d="M5.84224 1.42086H2.15776V0.904182C2.15776 0.848022 2.18007 0.794162 2.21978 0.754451C2.25949 0.714739 2.31335 0.69243 2.36951 0.69243H2.61514C2.68002 0.690641 2.74288 0.669535 2.79569 0.631813C2.84851 0.59409 2.88886 0.541467 2.91159 0.480678C2.91159 0.46162 3.12335 0 4 0C4.87665 0 5.07994 0.459502 5.08629 0.474325C5.10759 0.536456 5.14787 0.590325 5.20145 0.628321C5.25502 0.666317 5.31918 0.686521 5.38486 0.686077H5.63049C5.68665 0.686077 5.74051 0.708387 5.78022 0.748098C5.81994 0.787809 5.84224 0.841669 5.84224 0.89783V1.42086ZM8 1.80625V11.225C8 11.3373 7.95538 11.445 7.87596 11.5244C7.79654 11.6039 7.68882 11.6485 7.5765 11.6485H0.423505C0.311184 11.6485 0.203464 11.6039 0.124042 11.5244C0.0446192 11.445 0 11.3373 0 11.225V1.80625C0 1.69393 0.0446192 1.58621 0.124042 1.50678C0.203464 1.42736 0.311184 1.38274 0.423505 1.38274H1.5225V1.74696C1.5225 1.8312 1.55596 1.91199 1.61553 1.97155C1.6751 2.03112 1.75589 2.06458 1.84013 2.06458H6.15987C6.24411 2.06458 6.3249 2.03112 6.38447 1.97155C6.44404 1.91199 6.4775 1.8312 6.4775 1.74696V1.38274H7.5765C7.68882 1.38274 7.79654 1.42736 7.87596 1.50678C7.95538 1.58621 8 1.69393 8 1.80625ZM2.04553 8.55691C2.04585 8.51463 2.03719 8.47277 2.02012 8.43409C2.01265 8.41493 2.00344 8.3965 1.99259 8.37904C1.98033 8.36255 1.96688 8.34698 1.95236 8.33245C1.89152 8.27543 1.81127 8.2437 1.7279 8.2437C1.64452 8.2437 1.56427 8.27543 1.50344 8.33245C1.48776 8.34411 1.4729 8.35685 1.45897 8.37057C1.44839 8.38962 1.4378 8.40656 1.42933 8.42562C1.42086 8.44468 1.41662 8.46585 1.41239 8.48491C1.40194 8.53635 1.4044 8.58958 1.41955 8.63983C1.4347 8.69009 1.46207 8.7358 1.49921 8.7729C1.55872 8.83248 1.63945 8.86599 1.72366 8.86607C1.8079 8.86607 1.88869 8.8326 1.94826 8.77304C2.00783 8.71347 2.04129 8.63268 2.04129 8.54844L2.04553 8.55691ZM2.04553 6.51138C2.045 6.42726 2.01155 6.34669 1.95236 6.28692C1.89152 6.22991 1.81127 6.19818 1.7279 6.19818C1.64452 6.19818 1.56427 6.22991 1.50344 6.28692C1.44396 6.34648 1.41055 6.42721 1.41055 6.51138C1.41055 6.59555 1.44396 6.67628 1.50344 6.73584C1.56295 6.79542 1.64369 6.82894 1.7279 6.82901C1.81214 6.82901 1.89293 6.79555 1.9525 6.73598C2.01206 6.67641 2.04553 6.59562 2.04553 6.51138ZM2.04553 4.46586C2.045 4.38174 2.01155 4.30117 1.95236 4.2414C1.89152 4.18438 1.81127 4.15265 1.7279 4.15265C1.64452 4.15265 1.56427 4.18438 1.50344 4.2414C1.44425 4.30117 1.4108 4.38174 1.41027 4.46586C1.40808 4.48627 1.40808 4.50685 1.41027 4.52726C1.41465 4.54737 1.42031 4.56717 1.42721 4.58655C1.43582 4.60556 1.44572 4.62396 1.45686 4.64161C1.46856 4.65918 1.48204 4.6755 1.49709 4.69031C1.5566 4.7499 1.63733 4.78341 1.72155 4.78348C1.80567 4.78295 1.88623 4.74951 1.946 4.69031C1.96105 4.6755 1.97454 4.65918 1.98624 4.64161C1.99751 4.62438 2.00674 4.60591 2.01376 4.58655C2.02232 4.56757 2.02871 4.54768 2.03282 4.52726C2.03928 4.50732 2.04354 4.48673 2.04553 4.46586ZM6.58973 8.55691C6.58973 8.47267 6.55627 8.39188 6.4967 8.33231C6.43713 8.27274 6.35634 8.23928 6.2721 8.23928H2.86289C2.77865 8.23928 2.69786 8.27274 2.63829 8.33231C2.57873 8.39188 2.54526 8.47267 2.54526 8.55691C2.54526 8.64115 2.57873 8.72194 2.63829 8.7815C2.69786 8.84107 2.77865 8.87454 2.86289 8.87454H6.2721C6.35634 8.87454 6.43713 8.84107 6.4967 8.7815C6.55627 8.72194 6.58973 8.64115 6.58973 8.55691ZM6.58973 6.51138C6.58973 6.42714 6.55627 6.34635 6.4967 6.28678C6.43713 6.22722 6.35634 6.19375 6.2721 6.19375H2.86289C2.77865 6.19375 2.69786 6.22722 2.63829 6.28678C2.57873 6.34635 2.54526 6.42714 2.54526 6.51138C2.54526 6.59562 2.57873 6.67641 2.63829 6.73598C2.69786 6.79555 2.77865 6.82901 2.86289 6.82901H6.2721C6.35634 6.82901 6.43713 6.79555 6.4967 6.73598C6.55627 6.67641 6.58973 6.59562 6.58973 6.51138ZM6.58973 4.46586C6.58973 4.38161 6.55627 4.30082 6.4967 4.24126C6.43713 4.18169 6.35634 4.14823 6.2721 4.14823H2.86289C2.77865 4.14823 2.69786 4.18169 2.63829 4.24126C2.57873 4.30082 2.54526 4.38161 2.54526 4.46586C2.54526 4.5501 2.57873 4.63089 2.63829 4.69045C2.69786 4.75002 2.77865 4.78348 2.86289 4.78348H6.2721C6.35634 4.78348 6.43713 4.75002 6.4967 4.69045C6.55627 4.63089 6.58973 4.5501 6.58973 4.46586Z" fill="white"/>
</svg>
