<svg width="95" height="73" viewBox="0 0 95 73" fill="none" xmlns="http://www.w3.org/2000/svg">
<path opacity="0.51" d="M93.8 69.6001L49.5 4.00005C49.2 3.50005 48.6 3.30005 48.1 3.30005C47.5 3.30005 47 3.60004 46.7 4.10004L3.59999 69.7C3.29999 70.2 3.19998 70.9 3.49998 71.4C3.79998 71.9 4.39998 72.3 4.99998 72.3H92.4C93 72.3 93.6 72 93.9 71.4C94.2 70.8 94.1 70.1001 93.8 69.6001Z" fill="#CE2731"/>
<path d="M91.3999 66.3L47.1 0.699997C46.8 0.199997 46.2 0 45.7 0C45.1 0 44.5999 0.300003 44.2999 0.800003L1.19997 66.4C0.899966 66.9 0.79996 67.6 1.09996 68.1C1.39996 68.6 1.99996 69 2.59996 69H90C90.6 69 91.2 68.7 91.5 68.1C91.8 67.5 91.7999 66.8 91.3999 66.3Z" fill="url(#paint0_linear_101_3)"/>
<path d="M43.4001 20.3223H51.0975L49.7973 44.6626H44.6484L43.4001 20.3223ZM47.2488 57.0928C46.0353 57.0928 45.0298 56.7114 44.2323 55.9486C43.4348 55.1511 43.0361 54.1803 43.0361 53.0361C43.0361 51.8919 43.4348 50.9384 44.2323 50.1756C45.0298 49.4128 46.0353 49.0314 47.2488 49.0314C48.4277 49.0314 49.3985 49.4128 50.1613 50.1756C50.9588 50.9384 51.3575 51.8919 51.3575 53.0361C51.3575 54.1803 50.9588 55.1511 50.1613 55.9486C49.3985 56.7114 48.4277 57.0928 47.2488 57.0928Z" fill="#00A0B1"/>
<defs>
<linearGradient id="paint0_linear_101_3" x1="46.3308" y1="68.9469" x2="46.3308" y2="-0.00189867" gradientUnits="userSpaceOnUse">
<stop stop-color="#C4E0F1"/>
<stop offset="0.1085" stop-color="#D6E8F5"/>
<stop offset="0.126" stop-color="#DAEAF6"/>
<stop offset="0.2249" stop-color="#EBF4FA"/>
<stop offset="0.3476" stop-color="#F6FAFD"/>
<stop offset="0.5204" stop-color="#FDFEFF"/>
<stop offset="1" stop-color="white"/>
</linearGradient>
</defs>
</svg>
