<svg width="18" height="18" viewBox="0 0 18 18" fill="none" xmlns="http://www.w3.org/2000/svg">
<path d="M8.99998 0C4.02945 0 0 4.02945 0 8.99998C0 13.9706 4.02945 18 8.99998 18C13.9706 18 18 13.9706 18 8.99998C18 4.0294 13.9706 0 8.99998 0ZM12.9113 11.2784C13.3622 11.7293 13.3622 12.4604 12.9113 12.9113C12.6858 13.1367 12.3903 13.2495 12.0948 13.2495C11.7994 13.2495 11.5038 13.1367 11.2784 12.9113L8.99998 10.6329L6.72155 12.9113C6.49615 13.1367 6.20054 13.2495 5.90512 13.2495C5.60961 13.2495 5.31414 13.1368 5.0887 12.9113C4.6378 12.4604 4.6378 11.7293 5.0887 11.2784L7.36712 9.00002L5.0887 6.7216C4.6378 6.27071 4.6378 5.53964 5.0887 5.08874C5.53959 4.63785 6.27066 4.63785 6.72155 5.08874L8.99998 7.36717L11.2784 5.08874C11.7293 4.6378 12.4605 4.63785 12.9113 5.08874C13.3622 5.53964 13.3622 6.27071 12.9113 6.7216L10.6328 9.00002L12.9113 11.2784Z" fill="white"/>
</svg>
