<svg width="18" height="17" viewBox="0 0 18 17" fill="none" xmlns="http://www.w3.org/2000/svg">
    <path d="M8.38733 0C3.76243 0 0 3.81271 0 8.5C0 13.1873 3.76207 17 8.38733 17C11.3719 17 13.9979 15.4131 15.4829 13.0283C15.5273 12.9607 15.5578 12.8848 15.5728 12.8051C15.5878 12.7254 15.5869 12.6435 15.5701 12.5642C15.5534 12.4848 15.5211 12.4097 15.4753 12.3431C15.4294 12.2766 15.3709 12.22 15.3031 12.1766C15.2353 12.1333 15.1597 12.1041 15.0806 12.0907C15.0015 12.0774 14.9206 12.0802 14.8426 12.0989C14.7646 12.1176 14.6911 12.152 14.6264 12.1998C14.5617 12.2477 14.5071 12.3082 14.4658 12.3778C13.1922 14.4233 10.9541 15.7868 8.38733 15.7868C4.40991 15.7868 1.19819 12.5321 1.19819 8.50108C1.19819 4.47009 4.40991 1.21429 8.38733 1.21429C12.0576 1.21429 15.0758 3.98763 15.5204 7.58314L15.4018 7.4628C15.347 7.40411 15.281 7.35713 15.208 7.32461C15.1349 7.2921 15.0561 7.27471 14.9763 7.27346C14.8964 7.27222 14.8172 7.28715 14.7431 7.31737C14.6691 7.34759 14.6018 7.3925 14.5452 7.44944C14.4885 7.50639 14.4437 7.57422 14.4134 7.64895C14.383 7.72368 14.3678 7.8038 14.3685 7.88458C14.3692 7.96537 14.3859 8.04519 14.4176 8.11935C14.4493 8.19351 14.4953 8.26051 14.5529 8.31641L15.7497 9.53106C15.8053 9.58763 15.8715 9.63251 15.9443 9.66314C16.0172 9.69377 16.0953 9.70954 16.1741 9.70954C16.253 9.70954 16.3311 9.69377 16.404 9.66314C16.4768 9.63251 16.5429 9.58763 16.5986 9.53106L17.7968 8.31677C17.8582 8.26181 17.9079 8.19467 17.9426 8.11952C17.9774 8.04437 17.9966 7.9628 17.999 7.87985C18.0014 7.79691 17.9869 7.71434 17.9565 7.63727C17.9261 7.5602 17.8804 7.49026 17.8223 7.43176C17.7641 7.37327 17.6947 7.32748 17.6183 7.29721C17.542 7.26694 17.4603 7.25284 17.3784 7.25578C17.2964 7.25872 17.2159 7.27864 17.1419 7.31431C17.0678 7.34998 17.0018 7.40064 16.9479 7.46316L16.7357 7.67819C16.3257 3.37759 12.7358 0.000361472 8.3859 0.000361472L8.38733 0ZM8.38733 2.83333C5.30632 2.83333 2.79566 5.37755 2.79566 8.5C2.79566 11.6224 5.30632 14.1667 8.38733 14.1667C11.4683 14.1667 13.979 11.6224 13.979 8.5C13.979 5.37755 11.4683 2.83333 8.38733 2.83333ZM8.38733 4.04762C9.25786 4.04619 10.1092 4.3061 10.8337 4.79446C11.5582 5.28283 12.1233 5.97769 12.4574 6.79113C12.7915 7.60457 12.8797 8.50002 12.7107 9.36418C12.5417 10.2283 12.1233 11.0223 11.5082 11.6457C10.8932 12.2691 10.1092 12.6939 9.25549 12.8663C8.40179 13.0387 7.51675 12.9509 6.71236 12.6141C5.90796 12.2774 5.22037 11.7067 4.73658 10.9744C4.2528 10.242 3.99456 9.3809 3.99456 8.5C3.99296 7.91546 4.10544 7.33635 4.32555 6.7959C4.54565 6.25546 4.86904 5.76431 5.27717 5.35064C5.68531 4.93697 6.17014 4.60892 6.70386 4.38532C7.23758 4.16171 7.80968 4.04695 8.38733 4.04762ZM8.38091 4.43973C8.30165 4.44067 8.22337 4.45749 8.15058 4.48921C8.07779 4.52094 8.01193 4.56694 7.9568 4.62457C7.90168 4.6822 7.85839 4.75031 7.82943 4.82496C7.80046 4.89962 7.7864 4.97934 7.78806 5.05952V8.5C7.7886 8.59314 7.81027 8.68491 7.85138 8.76824C7.89249 8.85157 7.95196 8.92424 8.0252 8.98065L10.4216 10.8021C10.4842 10.8522 10.556 10.8892 10.633 10.9108C10.7099 10.9324 10.7903 10.9383 10.8694 10.9281C10.9486 10.9179 11.025 10.8918 11.0941 10.8513C11.1632 10.8108 11.2235 10.7568 11.2717 10.6924C11.3199 10.628 11.3549 10.5545 11.3746 10.4762C11.3943 10.3979 11.3984 10.3165 11.3866 10.2366C11.3748 10.1567 11.3474 10.08 11.3059 10.011C11.2645 9.94193 11.2098 9.88199 11.1451 9.83463L8.98625 8.19643V5.05952C8.98808 4.97824 8.97372 4.89741 8.94403 4.82185C8.91435 4.74629 8.86994 4.67756 8.81346 4.61973C8.75698 4.5619 8.68958 4.51616 8.61526 4.48524C8.54095 4.45431 8.46125 4.43884 8.38091 4.43973Z" fill="#18DA9F"/>
</svg>
