<svg width="20" height="19" viewBox="0 0 20 19" fill="none" xmlns="http://www.w3.org/2000/svg">
<path d="M5.91036e-09 6.76844V12.5458C5.91036e-09 13.0587 0.203744 13.5506 0.566409 13.9132C0.929075 14.2759 1.42096 14.4796 1.93384 14.4796H12.0865V17.4046C12.0865 18.4924 13.9237 19 15.6158 19C17.3079 19 19.145 18.4924 19.145 17.4046V12.1832C19.145 11.2646 17.8397 10.7812 16.4135 10.6361V6.76844C16.4135 6.25555 16.2097 5.76367 15.8471 5.401C15.4844 5.03834 14.9925 4.83459 14.4796 4.83459H1.90967C1.40098 4.84095 0.915291 5.0475 0.557836 5.40948C0.200382 5.77146 -3.97398e-05 6.25971 5.91036e-09 6.76844ZM13.0534 13.3193C13.8688 13.6404 14.7397 13.7965 15.6158 13.7786C16.4919 13.7965 17.3628 13.6404 18.1781 13.3193V14.7455C18.1056 14.9389 17.2354 15.374 15.6158 15.374C13.9962 15.374 13.126 14.9147 13.0534 14.7455V13.3193ZM15.6158 18.0331C13.9962 18.0331 13.126 17.5738 13.0534 17.4046V15.8817C13.8688 16.2028 14.7397 16.3589 15.6158 16.341C16.4919 16.3589 17.3628 16.2028 18.1781 15.8817V17.4046C18.1056 17.5738 17.2354 18.0331 15.6158 18.0331ZM18.1781 12.1832C18.0573 12.3766 17.187 12.8117 15.6399 12.8117C14.0929 12.8117 13.2226 12.3766 13.1018 12.1832C12.9809 11.9898 14.0929 11.5547 15.6399 11.5547C17.187 11.5547 18.0573 11.9898 18.1781 12.1832ZM0.966921 6.76844C0.966921 6.51199 1.06879 6.26605 1.25013 6.08472C1.43146 5.90339 1.6774 5.80152 1.93384 5.80152H14.5038C14.7603 5.80152 15.0062 5.90339 15.1875 6.08472C15.3689 6.26605 15.4707 6.51199 15.4707 6.76844V10.6119C13.827 10.6361 12.1107 11.1438 12.1107 12.1832V13.5127H1.93384C1.6774 13.5127 1.43146 13.4108 1.25013 13.2295C1.06879 13.0482 0.966921 12.8022 0.966921 12.5458V6.76844Z" fill="#18DAA0"/>
<path d="M8.31577 12.3041C8.84168 12.3041 9.35578 12.1481 9.79305 11.856C10.2303 11.5638 10.5711 11.1485 10.7724 10.6626C10.9737 10.1767 11.0263 9.64211 10.9237 9.12631C10.8211 8.6105 10.5679 8.13671 10.196 7.76484C9.82412 7.39296 9.35033 7.13972 8.83452 7.03712C8.31872 6.93452 7.78408 6.98717 7.2982 7.18843C6.81233 7.38969 6.39704 7.7305 6.10487 8.16778C5.81269 8.60505 5.65674 9.11915 5.65674 9.64506C5.65674 10.3503 5.93689 11.0266 6.43555 11.5253C6.93422 12.0239 7.61055 12.3041 8.31577 12.3041ZM8.31577 7.97712C8.65044 7.97712 8.97759 8.07636 9.25586 8.26229C9.53413 8.44822 9.75101 8.71249 9.87908 9.02169C10.0072 9.33088 10.0407 9.67111 9.97537 9.99934C9.91008 10.3276 9.74892 10.6291 9.51228 10.8657C9.27563 11.1024 8.97412 11.2635 8.64589 11.3288C8.31765 11.3941 7.97742 11.3606 7.66823 11.2325C7.35904 11.1045 7.09476 10.8876 6.90883 10.6093C6.7229 10.3311 6.62366 10.0039 6.62366 9.66923C6.62366 9.22045 6.80194 8.79006 7.11927 8.47273C7.4366 8.15539 7.867 7.97712 8.31577 7.97712Z" fill="#18DAA0"/>
<path d="M1.4502 2.90082C1.4502 3.02904 1.50113 3.15201 1.5918 3.24268C1.68246 3.33334 1.80543 3.38428 1.93366 3.38428H14.5036C14.6319 3.38428 14.7548 3.33334 14.8455 3.24268C14.9362 3.15201 14.9871 3.02904 14.9871 2.90082C14.9871 2.7726 14.9362 2.64963 14.8455 2.55896C14.7548 2.46829 14.6319 2.41736 14.5036 2.41736H1.93366C1.87017 2.41736 1.8073 2.42986 1.74864 2.45416C1.68999 2.47846 1.63669 2.51407 1.5918 2.55896C1.5469 2.60385 1.51129 2.65715 1.487 2.71581C1.4627 2.77446 1.4502 2.83733 1.4502 2.90082Z" fill="#18DAA0"/>
<path d="M13.0291 0.966921C13.1574 0.966921 13.2803 0.915985 13.371 0.825319C13.4617 0.734653 13.5126 0.611682 13.5126 0.483461C13.5126 0.355239 13.4617 0.232269 13.371 0.141602C13.2803 0.050936 13.1574 0 13.0291 0H3.35993C3.2317 0 3.10873 0.050936 3.01807 0.141602C2.9274 0.232269 2.87646 0.355239 2.87646 0.483461C2.87646 0.611682 2.9274 0.734653 3.01807 0.825319C3.10873 0.915985 3.2317 0.966921 3.35993 0.966921H13.0291Z" fill="#18DAA0"/>
</svg>
