<svg width="19" height="18" viewBox="0 0 19 18" fill="none" xmlns="http://www.w3.org/2000/svg">
<path d="M4.95338 9.99736H8.57894V17.0003C6.50091 15.21 5.21023 12.6979 4.95338 9.99736ZM1.00002 9.99736H4.01325C4.234 12.5181 5.28167 14.8928 6.9889 16.7556C4.92248 16.2273 3.11959 14.9223 2.02248 13.0348C1.47268 12.0841 1.13178 11.051 1.00002 9.99736ZM6.99063 1.24346C5.05696 3.35289 3.9643 6.11619 3.96578 9.00581C3.96578 9.02509 3.96677 9.04437 3.96825 9.06489H0.939207C0.927588 7.65012 1.28777 6.23337 2.02421 4.96518C3.11983 3.07799 4.92396 1.7715 6.99162 1.24346H6.99063ZM8.57894 1.0007V9.06489H4.90419C4.90419 9.04437 4.9032 9.02509 4.9032 9.00581C4.90023 5.93128 6.24406 3.011 8.57746 1.0007H8.57894ZM9.0479 0C9.03381 0 9.02095 0.0012361 9.00785 0.00247214C5.79068 0.0163158 2.82145 1.72799 1.21163 4.50019C-0.403877 7.28425 -0.403877 10.717 1.21163 13.5006C2.82244 16.2745 5.79562 17.9869 9.01452 17.9985C9.02614 18 9.03628 18 9.0479 18C11.6943 18 14.2104 16.8445 15.9282 14.8424C16.1131 14.6483 16.0963 14.3408 15.8921 14.1678C15.6884 13.994 15.3809 14.0264 15.2167 14.2382C14.1189 15.5163 12.6596 16.4065 11.0537 16.8141C11.7721 16.0483 12.3845 15.1875 12.8702 14.2538C13.1347 13.7087 12.3313 13.2964 12.0369 13.8261C11.4092 15.0337 10.5532 16.1089 9.51562 16.9953V9.99736H10.5465C10.8063 9.99736 11.0167 9.78773 11.0167 9.53088C11.0167 9.27329 10.806 9.06366 10.5465 9.06489H9.51562V0.971283C10.7971 2.06444 11.7978 3.44535 12.4361 5.00004C12.5303 5.24527 12.8079 5.36492 13.0522 5.26579C13.2949 5.16592 13.4084 4.88682 13.3038 4.64678C12.781 3.37366 12.0344 2.20831 11.1032 1.20094C13.5975 1.8511 15.6817 3.65473 16.6288 6.12904C16.7104 6.38367 16.9905 6.51716 17.2411 6.42223C17.4933 6.3273 17.6119 6.04203 17.5034 5.79803C16.1673 2.30868 12.8013 0 9.0479 0Z" fill="#18DAA0"/>
<path d="M13.2469 6.73172C13.2995 6.73444 13.3411 6.7473 13.3787 6.76806L17.1024 8.94028L15.6683 9.23718C15.3558 9.30269 15.1996 9.65299 15.3598 9.92764L16.3877 11.7011C16.4354 11.7847 16.4124 11.8697 16.3298 11.9184L15.6451 12.311C15.561 12.3587 15.4737 12.3362 15.4258 12.2526L14.3974 10.4836C14.2384 10.207 13.8553 10.1674 13.6417 10.405L12.6716 11.4865L12.6447 7.19079C12.6432 7.07633 12.7325 6.9327 12.906 6.83357C12.9099 6.83234 12.9109 6.8311 12.9137 6.82838C12.9186 6.82616 12.9238 6.82492 12.9277 6.82097C13.0365 6.75644 13.1591 6.72703 13.2469 6.73172ZM13.2986 5.7995C12.5322 5.7995 11.7241 6.40565 11.707 7.19722L11.734 11.5125C11.7369 11.9273 11.8541 12.3063 12.2019 12.5028C12.548 12.6979 12.9807 12.5424 13.2106 12.2885L13.9092 11.5058L14.6147 12.7186C14.9141 13.2368 15.5934 13.4177 16.113 13.1193L16.7985 12.7248C17.3182 12.4269 17.5001 11.751 17.2003 11.2349L16.494 10.0196L17.5325 9.80626C17.8694 9.73679 18.2195 9.44162 18.222 9.04461C18.2244 8.64883 17.9545 8.35712 17.5943 8.14773L13.8523 5.96389V5.96612C13.6832 5.86847 13.4998 5.80049 13.2986 5.80049V5.7995Z" fill="#18DAA0"/>
</svg>
