<svg fill="none" height="45" viewBox="0 0 35 45" width="35" xmlns="http://www.w3.org/2000/svg"><g fill="#fff"><path d="m6.668 26.7849h-6.668v18.215h6.668z"/><path d="m16.0041 31h-6.66804v14h6.66804z"/><path d="m25.3361 23.5591h-6.664v21.441h6.664z"/><path d="m34.672 10.332h-6.668v34.668h6.668z"/><path d="m31.336 0c-1.289 0-2.332 1.047-2.332 2.336 0 .438.129.848.34 1.199l-6.863 9.727c-.152-.031-.313-.051-.477-.051-1.289 0-2.336 1.043-2.336 2.332 0 .211.039.414.09.609l-6.004 4.793c-.328-.172-.691-.277-1.086-.277-.598 0-1.141.234-1.555.609l-5.44497-2.461c0-.012 0-.02 0-.027 0-1.293-1.043-2.34-2.332-2.34s-2.332 1.047-2.332 2.34c0 1.285 1.043 2.328 2.332 2.328.602 0 1.145-.234 1.559-.602l5.44097 2.458v.031c0 1.285 1.043 2.332 2.332 2.332 1.293 0 2.336-1.047 2.336-2.332 0-.207-.035-.406-.086-.598l6.016-4.801c.324.168.68.27 1.07.27 1.289 0 2.332-1.043 2.332-2.332 0-.449-.133-.867-.352-1.219l6.875-9.703c.157.031.317.047.477.047 1.289 0 2.332-1.047 2.332-2.332 0-1.289-1.043-2.336-2.332-2.336z"/></g></svg>