<svg fill="none" height="8" viewBox="0 0 9 8" width="9" xmlns="http://www.w3.org/2000/svg"><path d="m3.05563 7.18059-2.923459-3.05402c-.0418858-.04349-.0751268-.0952-.09781-.15215-.0226833-.05696-.034361-.11804-.034361-.17973s.0116777-.12277.034361-.17973c.0226832-.05696.0559242-.10867.09781-.15215l.635384-.66376c.041923-.04387.091714-.07867.146525-.10242.054811-.02374.11357-.03596.1729-.03596.05934 0 .11809.01222.17291.03596.05481.02375.1046.05855.14652.10242l1.96865 2.05657 4.21853-4.406935c.04192-.043868.09171-.07867.14652-.102415.05482-.023745.11357-.035967.17291-.035967.05933 0 .11809.012222.1729.035967s.1046.058547.14652.102415l.63539.663755c.04188.04349.07513.0952.09781.15216.02268.05695.03436.11803.03436.17972s-.01168.12278-.03436.17973c-.02268.05696-.05593.10867-.09781.15215l-5.17334 5.40439c-.04193.04386-.09172.07867-.14653.10241-.05481.02375-.11356.03597-.1729.03597s-.11809-.01222-.1729-.03597c-.05482-.02374-.10461-.05855-.14653-.10241z" fill="#fff"/></svg>