<svg fill="none" height="45" viewBox="0 0 45 45" width="45" xmlns="http://www.w3.org/2000/svg"><g fill="#18daa0"><path d="m22.457 0h-.9281c-2.0823 0-3.7865 1.70365-3.7865 3.78649v1.88012c0 2.08284 1.7036 3.78649 3.7865 3.78649h.9281c2.0822 0 3.7865-1.70365 3.7865-3.78649v-1.88012c0-2.08284-1.7043-3.78649-3.7865-3.78649z"/><path d="m24.0801 10.913h-4.1742c-2.7063 0-4.9204 2.2141-4.9204 4.9204v2.9377h14.0145v-2.9377c.0006-2.7063-2.2136-4.9204-4.9199-4.9204z"/><path d="m6.52987 25.6069c-2.07853 0-3.77865 1.7001-3.77865 3.7787v1.8762c0 2.0785 1.70012 3.7786 3.77865 3.7786h.92622c2.07853 0 3.77861-1.7001 3.77861-3.7786v-1.8762c0-2.0786-1.70008-3.7787-3.77861-3.7787z"/><path d="m13.986 41.408c0-2.7007-2.2095-4.9102-4.91018-4.9102h-4.16559c-2.70069 0-4.91023 2.2095-4.91023 4.9102v2.9317h13.9854v-2.9317z"/><path d="m36.5436 35.0405h.9281c2.0829 0 3.7865-1.7036 3.7865-3.7865v-1.8801c0-2.0829-1.7036-3.7865-3.7865-3.7865h-.9281c-2.0829 0-3.7865 1.7036-3.7865 3.7865v1.8801c0 2.0829 1.7042 3.7865 3.7865 3.7865z"/><path d="m39.0947 36.5009h-4.1743c-2.7063 0-4.9204 2.2141-4.9204 4.9204v2.9378h14.0145v-2.9378c.0006-2.7063-2.2135-4.9204-4.9198-4.9204z"/><path d="m29.4816 31.4088-6.5777-2.7807v-6.7969c0-.4591-.3899-.8312-.8708-.8312s-.8708.3721-.8708.8312v6.795l-6.6414 2.7814c-.4405.1844-.6406.6746-.4471 1.095.1433.3117.4626.4972.7973.4972.1168 0 .2356-.0226.3495-.0701l1.8167-.761 4.9937-2.0918 4.948 2.0918 1.7972.7598c.4388.1859.9536-.0031 1.1488-.4232.1951-.4196-.0037-.9106-.4434-1.0965z"/></g></svg>