<svg fill="none" height="36" viewBox="0 0 37 36" width="37" xmlns="http://www.w3.org/2000/svg"><g fill="#40a4d8"><path d="m28.5041 30.2346s-.4008 1.8835 1.1221 3.4064c3.4865 3.4865 7.3738 0 7.3738 0s-1.082.04-1.6831-.5611-.1603-2.4045-1.4027-3.6869c-1.3224-1.2824-3.727-.8817-3.727-.8817z"/><path d="m16.6418 13.2025c-6.2918-5.65062-14.82788-12.98441-15.62938-12.14283-.801511.84158 6.4922 9.33753 12.14278 15.62943z"/><path d="m23.655 19.7347-3.9675 3.9675c2.3244 2.3244 6.6926 6.372 7.9349 5.0896l.5611-.5611.561-.561c1.2824-1.2424-2.7652-5.5705-5.0895-7.935z"/><path d="m30.7544 10.3929-4.5339-4.53395-20.96962 20.96955 4.53396 4.534z"/><path d="m4.97985 33.9213-2.28429-2.2843 1.44271-3.6869 4.52851 4.5285z"/><path d="m1.29297 35.3238.56105-2.2442 1.68317 1.6832z"/><path d="m33.0182 8.12582-4.5339-4.53396-1.1335 1.13349 4.5339 4.53396z"/><path d="m35.878 1.9013-1.1221-1.12211c-.9218-.921733-2.4446-.921733-3.4064 0l-1.7233 1.68316 4.5285 4.52852 1.6832-1.68317c.9618-.96181.9618-2.48467.0401-3.4064z"/></g></svg>