<svg fill="none" height="41" viewBox="0 0 32 41" width="32" xmlns="http://www.w3.org/2000/svg"><path d="m22.08 19.4254c-.5486-.2291-.5943-.962-.0914-1.2826 3.0628-2.1071 4.8914-5.8632 4.1143-10.03152-.6858-3.89352-3.7943-7.09994-7.6343-7.878639-6.4457-1.374181-12.11431 3.527059-12.11431 9.756679 0 3.29808 1.6 6.18378 4.11431 8.01608.4571.3664.3657 1.0535-.1372 1.2825-6.03426 2.2903-10.3314 8.1535-10.3314 14.9786 0 1.1452.96 2.0613 2.10286 2.0613h7.86285l3.65719 3.6645c.64.6413 1.4628 1.0077 2.3771 1.0077s1.7371-.3664 2.3771-1.0077l3.6572-3.6645h7.8628c1.1429 0 2.1029-.9161 2.1029-2.0613-.0457-6.6877-4.1143-12.4134-9.92-14.8411zm-.2743 13.7418-5.1657 5.1761c-.3657.3664-1.0057.3664-1.4171 0l-5.0743-5.1761c-1.1886-1.1452-1.64574-3.4813-.82289-4.9929.45715-.8245 3.15429-3.6187 6.67429.4123 3.3371-4.031 6.2171-1.2368 6.6743-.4123.7771 1.5574.2743 3.8935-.8686 4.9929z" fill="#feb942"/></svg>