<svg width="27" height="26" viewBox="0 0 27 26" fill="none" xmlns="http://www.w3.org/2000/svg">
<path d="M26.0057 12.9879C26.0029 10.5054 25.2894 8.07553 23.9496 5.98555C22.6099 3.89558 20.6998 2.23281 18.4452 1.19375C16.1906 0.154685 13.6857 -0.217235 11.2264 0.121932C8.76715 0.461099 6.45638 1.49718 4.56719 3.10773C2.67799 4.71829 1.28933 6.836 0.565297 9.2106C-0.158731 11.5852 -0.18786 14.1174 0.481357 16.5081C1.15057 18.8987 2.49016 21.0478 4.34182 22.7014C6.19347 24.355 8.47979 25.4439 10.9306 25.8396V16.75H7.63095V12.9879H10.9306V10.1418C10.9306 6.88667 12.8784 5.08121 15.8489 5.08121C16.8234 5.0949 17.7955 5.18111 18.7572 5.33913V8.54093H17.1118C16.8324 8.50404 16.5483 8.53026 16.2804 8.61765C16.0124 8.70504 15.7675 8.8514 15.5635 9.04594C15.3596 9.24048 15.2019 9.47826 15.102 9.74179C15.0021 10.0053 14.9625 10.2879 14.9862 10.5687V12.9879H18.5971L18.0012 16.75H14.9951V25.8396C18.0606 25.3606 20.8544 23.8027 22.873 21.4465C24.8917 19.0902 26.0027 16.0906 26.0057 12.9879Z" fill="url(#paint0_linear_0_1498)"/>
<path d="M18.0011 16.7503L18.5792 12.9882H14.995V10.5513C14.9716 10.2713 15.011 9.98956 15.1104 9.72677C15.2098 9.46397 15.3667 9.22671 15.5696 9.03234C15.7725 8.83797 16.0163 8.69141 16.2831 8.60336C16.5499 8.51531 16.833 8.48801 17.1118 8.52344H18.7482V5.32164C17.7865 5.16362 16.8144 5.07741 15.8399 5.06372C12.8694 5.06372 10.9216 6.8425 10.9216 10.1243V12.9882H7.63086V16.7503H10.9305V25.8399C11.6046 25.9428 12.2853 25.9963 12.9672 25.9999C13.6462 25.9967 14.3239 25.9431 14.995 25.8399V16.7503H18.0011Z" fill="white"/>
<defs>
<linearGradient id="paint0_linear_0_1498" x1="3.771" y1="3.80049" x2="22.1636" y2="22.1842" gradientUnits="userSpaceOnUse">
<stop stop-color="#4676ED"/>
<stop offset="0.19" stop-color="#436DE4"/>
<stop offset="0.49" stop-color="#3C55CD"/>
<stop offset="0.87" stop-color="#302EA8"/>
<stop offset="1" stop-color="#2B1E99"/>
</linearGradient>
</defs>
</svg>
