<svg fill="none" height="16" viewBox="0 0 23 16" width="23" xmlns="http://www.w3.org/2000/svg"><g fill="#fff"><path d="m17 0h-16c-.552285 0-1 .447715-1 1 0 .55228.447715 1 1 1h16c.5523 0 1-.44772 1-1 0-.552285-.4477-1-1-1z"/><path d="m22 7h-16c-.55228 0-1 .44772-1 1s.44772 1 1 1h16c.5523 0 1-.44772 1-1s-.4477-1-1-1z"/><path d="m17 14h-16c-.552285 0-1 .4477-1 1s.447715 1 1 1h16c.5523 0 1-.4477 1-1s-.4477-1-1-1z"/><path d="m3 7h-2c-.552285 0-1 .44772-1 1s.447715 1 1 1h2c.55228 0 1-.44772 1-1s-.44772-1-1-1z"/><path d="m22 0h-2c-.5523 0-1 .447715-1 1 0 .55228.4477 1 1 1h2c.5523 0 1-.44772 1-1 0-.552285-.4477-1-1-1z"/><path d="m22 14h-2c-.5523 0-1 .4477-1 1s.4477 1 1 1h2c.5523 0 1-.4477 1-1s-.4477-1-1-1z"/></g></svg>