<svg width="26" height="26" viewBox="0 0 26 26" fill="none" xmlns="http://www.w3.org/2000/svg">
    <path d="M13 26C20.1797 26 26 20.1797 26 13C26 5.8203 20.1797 0 13 0C5.82029 0 0 5.8203 0 13C0 20.1797 5.82029 26 13 26Z" fill="url(#paint0_linear_0_1502)"/>
    <path d="M17.037 8.08252C16.8612 8.08252 16.6892 8.13467 16.543 8.23237C16.3968 8.33008 16.2828 8.46895 16.2155 8.63143C16.1482 8.79391 16.1306 8.9727 16.1649 9.14519C16.1992 9.31767 16.2839 9.47611 16.4083 9.60047C16.5326 9.72482 16.6911 9.80951 16.8635 9.84382C17.036 9.87813 17.2148 9.86052 17.3773 9.79321C17.5398 9.72591 17.6787 9.61194 17.7764 9.46572C17.8741 9.31949 17.9262 9.14758 17.9262 8.97171C17.9262 8.73588 17.8325 8.50971 17.6658 8.34296C17.499 8.1762 17.2728 8.08252 17.037 8.08252Z" fill="white"/>
    <path d="M13.0622 9.24708C12.3168 9.24534 11.5876 9.46512 10.9674 9.87854C10.3471 10.292 9.86365 10.8803 9.5784 11.569C9.29315 12.2577 9.21897 13.0156 9.36527 13.7466C9.51157 14.4775 9.87175 15.1485 10.4001 15.6743C10.9284 16.2001 11.6011 16.5571 12.3327 16.7C13.0643 16.8428 13.8219 16.765 14.5092 16.4765C15.1965 16.188 15.7826 15.7017 16.1931 15.0795C16.6036 14.4573 16.8199 13.7271 16.8146 12.9817C16.8076 11.9903 16.4094 11.0418 15.7067 10.3424C15.004 9.64305 14.0536 9.2494 13.0622 9.24708V9.24708ZM13.0622 15.4092C12.5852 15.4109 12.1185 15.2711 11.721 15.0074C11.3236 14.7437 11.0133 14.368 10.8296 13.9278C10.6458 13.4877 10.5968 13.0029 10.6888 12.5348C10.7808 12.0668 11.0096 11.6366 11.3462 11.2987C11.6829 10.9608 12.1122 10.7304 12.5799 10.6367C13.0476 10.543 13.5326 10.5902 13.9734 10.7724C14.4142 10.9545 14.7911 11.2633 15.0563 11.6598C15.3215 12.0563 15.463 12.5225 15.463 12.9995C15.456 13.6332 15.2006 14.2389 14.7516 14.6862C14.3026 15.1336 13.696 15.3868 13.0622 15.3914V15.4092Z" fill="white"/>
    <path d="M16.0411 20.6112H9.95898C8.74519 20.6089 7.58178 20.1257 6.7235 19.2674C5.86521 18.4091 5.38199 17.2457 5.37964 16.0319V9.94092C5.38199 8.72712 5.86521 7.56371 6.7235 6.70543C7.58178 5.84714 8.74519 5.36392 9.95898 5.36157H16.0411C17.2549 5.36392 18.4183 5.84714 19.2766 6.70543C20.1348 7.56371 20.6181 8.72712 20.6204 9.94092V16.0319C20.6181 17.2457 20.1348 18.4091 19.2766 19.2674C18.4183 20.1257 17.2549 20.6089 16.0411 20.6112V20.6112ZM9.95898 6.79317C9.12487 6.79552 8.32559 7.12791 7.73578 7.71772C7.14598 8.30753 6.81359 9.10681 6.81124 9.94092V16.0319C6.81359 16.8652 7.14627 17.6635 7.73633 18.2519C8.3264 18.8403 9.12569 19.1707 9.95898 19.1707H16.0411C16.8744 19.1707 17.6737 18.8403 18.2637 18.2519C18.8538 17.6635 19.1864 16.8652 19.1888 16.0319V9.94092C19.1865 9.10681 18.8541 8.30753 18.2643 7.71772C17.6745 7.12791 16.8752 6.79552 16.0411 6.79317H9.95898Z" fill="white"/>
    <defs>
        <linearGradient id="paint0_linear_0_1502" x1="22.1943" y1="3.81464" x2="3.80575" y2="22.1943" gradientUnits="userSpaceOnUse">
            <stop stop-color="#FBE18A"/>
            <stop offset="0.21" stop-color="#FCBB45"/>
            <stop offset="0.38" stop-color="#F75274"/>
            <stop offset="0.52" stop-color="#D53692"/>
            <stop offset="0.74" stop-color="#8F39CE"/>
            <stop offset="1" stop-color="#5B4FE9"/>
        </linearGradient>
    </defs>
</svg>
