<svg width="27" height="26" viewBox="0 0 27 26" fill="none" xmlns="http://www.w3.org/2000/svg">
    <path d="M13.5957 26C20.7754 26 26.5957 20.1797 26.5957 13C26.5957 5.82031 20.7754 0 13.5957 0C6.416 0 0.595703 5.82031 0.595703 13C0.595703 20.1797 6.416 26 13.5957 26Z" fill="url(#paint0_linear_0_1512)"/>
    <path d="M8.14486 10.5812H10.6257V18.6729H8.14486V10.5812ZM9.39862 6.58873C9.6889 6.58524 9.97361 6.66846 10.2163 6.82774C10.459 6.98703 10.6486 7.21513 10.7609 7.48283C10.8732 7.75054 10.9031 8.04565 10.8466 8.33041C10.7902 8.61517 10.65 8.8766 10.4441 9.08124C10.2382 9.28587 9.97592 9.4244 9.69081 9.47908C9.40571 9.53376 9.11078 9.50209 8.84378 9.38815C8.57677 9.2742 8.34986 9.08316 8.19208 8.83948C8.0343 8.59581 7.95284 8.31058 7.95813 8.02033C7.96278 7.64055 8.11632 7.27777 8.38571 7.01004C8.65511 6.74231 9.01882 6.59103 9.39862 6.58873Z" fill="white"/>
    <path d="M12.2352 10.5815H14.6538V11.6841C14.8986 11.2743 15.2488 10.9377 15.6679 10.7093C16.0871 10.481 16.5598 10.3693 17.0369 10.3859C19.58 10.3859 20.0512 12.0576 20.0512 14.2361V18.6821H17.5704V14.7429C17.5704 13.8537 17.5704 12.6 16.2633 12.6C14.9562 12.6 14.7516 13.6226 14.7516 14.6807V18.6821H12.2352V10.5815Z" fill="white"/>
    <defs>
        <linearGradient id="paint0_linear_0_1512" x1="22.79" y1="3.80575" x2="4.40145" y2="22.1943" gradientUnits="userSpaceOnUse">
            <stop stop-color="#007AB5"/>
            <stop offset="1" stop-color="#0046E5"/>
        </linearGradient>
    </defs>
</svg>
