<svg fill="none" height="47" viewBox="0 0 47 47" width="47" xmlns="http://www.w3.org/2000/svg"><path clip-rule="evenodd" d="m44.0625 13.219c0-1.1691-.4641-2.2898-1.291-3.1167-.8255-.82543-1.9461-1.28956-3.1153-1.28956-7.1131 0-25.1993 0-32.31245 0-1.16913 0-2.28978.46413-3.11522 1.28956-.82691.8269-1.29103 1.9476-1.29103 3.1167v20.5625c0 1.1677.46412 2.2883 1.29103 3.1152.82544.8269 1.94609 1.291 3.11522 1.291h32.31245c1.1692 0 2.2898-.4641 3.1153-1.291.8269-.8269 1.291-1.9475 1.291-3.1152zm-23.6146 12.6415c-.2746-1.3718-1.4805-2.3603-2.8817-2.3603-1.6831 0-4.7205 0-6.4037 0-1.39972 0-2.60556.9885-2.88022 2.3603-.23794 1.1912-.60953 3.0433-.88125 4.4063-.17331.8636.04994 1.7581.60806 2.4396.55813.68 1.39238 1.0751 2.27211 1.0751h8.1663c.8813 0 1.714-.3951 2.2722-1.0751.5581-.6815.7813-1.576.6095-2.4396zm4.5209.5772h10.2812c.8107 0 1.4688-.658 1.4688-1.4687 0-.8108-.6581-1.4688-1.4688-1.4688h-10.2812c-.8108 0-1.4688.658-1.4688 1.4688 0 .8107.658 1.4687 1.4688 1.4687zm-10.6044-13.2187c-2.4323 0-4.40627 1.974-4.40627 4.4062 0 2.4308 1.97397 4.4063 4.40627 4.4063 2.4322 0 4.4062-1.9755 4.4062-4.4063 0-2.4322-1.974-4.4062-4.4062-4.4062zm10.6044 8.8125h13.2187c.8107 0 1.4687-.658 1.4687-1.4688 0-.8107-.658-1.4687-1.4687-1.4687h-13.2187c-.8108 0-1.4688.658-1.4688 1.4687 0 .8108.658 1.4688 1.4688 1.4688z" fill="#fff" fill-rule="evenodd"/></svg>