<svg fill="none" height="16" viewBox="0 0 9 16" width="9" xmlns="http://www.w3.org/2000/svg"><path d="m.29215 1.74366c-.405047-.40164-.374412-1.034741.003404-1.449998.371009-.405046 1.065376-.377816 1.443186 0 .01362.013615.03063.030633.04425.044248.87817.86115 1.73932 1.73932 2.61067 2.61067 1.04496 1.04495 2.08991 2.08991 3.13486 3.13486.0953.0953.19401.1906.28931.28931.58205.58885.70798 1.43638.34719 2.175-.18381.37781-.57864.69776-.87477.99389-1.10962 1.10966-2.22264 2.22266-3.33226 3.33226-.73862.7386-1.48063 1.4806-2.21925 2.2193-.40164.405-1.034736.3744-1.443186 0-.405045-.3711-.377816-1.0654 0-1.4432.258685-.2587.517369-.5174.776056-.7761 1.11643-1.1164 2.22945-2.2294 3.34588-3.34587.47993-.47993.95645-.95646 1.43638-1.43638.13956-.13956.27911-.27911.41866-.41867.03404-.03403.06808-.06807.10212-.10211.0068-.00681.01361-.01361.02042-.02042.01021-.01021.02042-.02723.03404-.03744-.15317.11913-.11914.17359-.06127.06807.02042-.03403.03404-.06807.05105-.10551-.03403.08169-.06807.16338-.10211.24507.02042-.05787.03744-.11913.04765-.1804-.01361.0919-.02382.1804-.03744.2723.01021-.07829.01021-.15317 0-.23146.01362.09191.02383.1804.03744.2723-.01021-.06126-.02723-.11913-.04765-.1804.03404.08169.06808.16338.10211.24507-.02042-.05105-.04765-.0953-.07488-.14636-.05786-.10551.1838.19742.05106.07489l-.00341-.00341c-.01021-.01021-.01701-.01702-.02723-.02723-.04424-.04425-.08849-.08849-.13274-.13274-.17359-.17359-.34378-.34378-.51737-.51737-1.10281-1.10282-2.20563-2.20563-3.30844-3.30845-.70458-.70457-1.409155-1.40915-2.11373-2.11372z" fill="#fff"/></svg>