<svg fill="none" height="37" viewBox="0 0 39 37" width="39" xmlns="http://www.w3.org/2000/svg"><g fill="#fff"><path d="m18.5536 16.5416v18.9741c0 .4947-.0083.9895-.0083 1.4843-.2556-.1114-.5071-.2227-.7627-.334-1.608-.7092-3.2201-1.4183-4.8281-2.1275-1.9461-.8576-3.89624-1.7151-5.8423-2.5727-1.68219-.7422-3.36026-1.4843-5.04245-2.2265-.69266-.3051-1.368838-.639-2.06975-.9318v-18.96994c0-.49477.00412304-.98953.00824606-1.48429.25974994.11545.51949994.23089.77924894.34221 1.612095.71328 3.228325 1.42242 4.840415 2.13162 1.50078.6597 3.00156 1.3235 4.50229 1.9831.4453.198.8906.3917 1.34.5896 1.6863.7422 3.3768 1.4884 5.0631 2.2306.672.2968 1.3482.5937 2.0203.8906z"/><path d="m20.2151 16.5251c.3752-.1649.7463-.3299 1.1174-.4948 1.5296-.6762 3.0675-1.3482 4.5971-2.0244 1.072-.4741 2.1481-.9441 3.2201-1.4183v4.9023c0 .4329.3793.8452.8246.8246s.8246-.3629.8246-.8246v-5.6279c.2886-.1402.6267-.2804.9442-.4165.2474-.1072.4906-.2185.7339-.3257 1.6822-.7421 3.3643-1.48427 5.0465-2.22229.0124-.00412.0207-.01237.0371-.01649.4-.17729.8246-.35458 1.1957-.52775v18.26083c0 .738-.0082 1.4802-.0041 2.2182-.5319.235-1.0596.47-1.5915.705-1.608.7092-3.2201 1.4183-4.828 2.1275-1.9461.8576-3.8922 1.7152-5.8423 2.5727-1.6822.7422-3.3644 1.4843-5.0466 2.2265-.4123.1814-.8287.3546-1.241.5318v-18.2525c0-.099 0-.1979 0-.301.0041-.6391.0123-1.2781.0082-1.9172z"/><path d="m19.3617 15.0944c-.5278-.2309-1.0514-.4617-1.5791-.6968-1.608-.7091-3.2201-1.4183-4.8281-2.1274-1.946-.8576-3.89622-1.7152-5.84228-2.57279-1.68219-.74214-3.36438-1.48428-5.05069-2.22643-.25563-.11544-.51538-.22676-.771-.34221.00412 0 .00824 0 .00824-.00412.03299-.01237.06185-.02474.09483-.03711 1.6121-.63494 3.22008-1.27401 4.83217-1.90895 1.15032-.45353 2.30065-.90707 3.44684-1.3606.62259.25563 1.24929.51126 1.87189.77101 1.6121.6638 3.22 1.32348 4.8321 1.98729 1.942.79986 3.8839 1.59973 5.8258 2.39547 1.6822.69267 3.3686 1.38534 5.0549 2.07804.2226.0907.4453.1855.6638.2803-.4783.2103-.9566.4206-1.4307.6308-1.6822.7422-3.3644 1.4843-5.0466 2.2265-.6885.3051-1.3894.5896-2.078.907z"/><path d="m37.4576 7.13694c-.099.04123-.1979.08658-.2969.13193-1.608.70916-3.2201 1.41832-4.828 2.12748-.7752.34221-1.5503.68445-2.3254 1.02255-.6143-.2516-1.2246-.50305-1.8389-.75456-1.6121-.6638-3.2201-1.32761-4.8322-1.98729-1.9419-.79986-3.8838-1.59973-5.8258-2.39547-1.6863-.69267-3.3685-1.38533-5.0548-2.078-.1938-.07834-.3876-.1608-.5813-.24326.0577-.02473.1154-.04535.1731-.07009 1.6905-.66793 3.3768-1.33173 5.0672-1.999659.5525-.21852 1.105-.43704 1.6575-.655559.202-.078337.4081-.1525517.6102-.235012.5937.235012 1.1915.470024 1.7852.705035 1.6121.634945 3.2201 1.269885 4.8322 1.908955 1.9419.76688 3.8839 1.53376 5.8258 2.30064 1.6905.66793 3.3768 1.33173 5.0672 1.99966.1897.06597.3793.14431.5649.22265z"/></g></svg>