<svg fill="none" height="16" viewBox="0 0 9 16" width="9" xmlns="http://www.w3.org/2000/svg"><path d="m8.07504 1.74366c.40504-.40164.37441-1.034741-.00341-1.449998-.37101-.405046-1.06537-.377816-1.44318 0-.01362.013615-.03064.030633-.04425.044248-.87817.86115-1.73932 1.73932-2.61068 2.61067-1.04495 1.04495-2.0899 2.08991-3.134848 3.13486-.095305.0953-.194014.1906-.289319.28931-.5820406.58885-.70798 1.43638-.347183 2.175.183803.37781.578638.69776.87476.99389 1.10963 1.10966 2.22265 2.22266 3.33227 3.33226.73862.7386 1.48063 1.4806 2.21925 2.2193.40164.405 1.03473.3744 1.44318 0 .40505-.3711.37782-1.0654 0-1.4432-.25868-.2587-.51737-.5174-.77605-.7761-1.11643-1.1164-2.22945-2.2294-3.34588-3.34587-.47993-.47993-.95646-.95646-1.43639-1.43638-.13955-.13956-.2791-.27911-.41866-.41867-.03403-.03403-.06807-.06807-.10211-.10211-.00681-.00681-.01361-.01361-.02042-.02042-.01021-.01021-.02042-.02723-.03404-.03744.15317.11913.11913.17359.06127.06807-.02042-.03403-.03404-.06807-.05106-.10551.03404.08169.06808.16338.10212.24507-.02043-.05787-.03745-.11913-.04766-.1804.01362.0919.02383.1804.03744.2723-.01021-.07829-.01021-.15317 0-.23146-.01361.09191-.02382.1804-.03744.2723.01021-.06126.02723-.11913.04766-.1804-.03404.08169-.06808.16338-.10212.24507.02043-.05105.04766-.0953.07489-.14636.05786-.10551-.18381.19742-.05106.07489l.0034-.00341c.01021-.01021.01702-.01702.02723-.02723.04425-.04425.0885-.08849.13275-.13274.17359-.17359.34378-.34378.51737-.51737 1.10281-1.10282 2.20563-2.20563 3.30844-3.30845.70458-.70457 1.40915-1.40915 2.11373-2.11372z" fill="#fff"/></svg>