<svg fill="none" height="97" viewBox="0 0 114 97" width="114" xmlns="http://www.w3.org/2000/svg" xmlns:xlink="http://www.w3.org/1999/xlink"><filter id="a" color-interpolation-filters="sRGB" filterUnits="userSpaceOnUse" height="95.95" width="113.5" x=".050049" y=".700195"><feFlood flood-opacity="0" result="BackgroundImageFix"/><feOffset dx="7" dy="7"/><feGaussianBlur stdDeviation="10"/><feColorMatrix type="matrix" values="0 0 0 0 0 0 0 0 0 0 0 0 0 0 0 0 0 0 0.1 0"/><feBlend in="SourceGraphic" in2="effect1_dropShadow" mode="normal" result="shape"/></filter><g filter="url(#a)"><path d="m38.4001 38.1502c2.8 1.3 4.95 3.25 6.45 5.85 1.6 2.5 2.4 5.45 2.4 8.85 0 5-1.6 9.05-4.8 12.15s-7.3001 4.65-12.3001 4.65-9.1-1.55-12.3-4.65-4.8-7.15-4.8-12.15c0-2.3.3-4.6.9-6.9s1.95-5.7 4.05-10.2l9.6-22.05h17.8501zm39.3 0c2.8 1.3 4.95 3.25 6.45 5.85 1.6 2.5 2.3999 5.45 2.3999 8.85 0 5-1.6 9.05-4.8 12.15s-7.2999 4.65-12.2999 4.65-9.1-1.55-12.3-4.65-4.8-7.15-4.8-12.15c0-2.3.3-4.6.9-6.9s1.95-5.7 4.05-10.2l9.6-22.05h17.8499z" fill="#fff"/></g></svg>