<svg fill="none" height="36" viewBox="0 0 36 36" width="36" xmlns="http://www.w3.org/2000/svg"><path d="m32.2088 26.903c-.29-.1668-.3896-.5378-.2219-.8273.1676-.2892.5377-.3888.8273-.2211l1.084.6254c1.2197-2.2779 1.9661-4.8454 2.1018-7.5717h-2.4545c-.5574 0-1.0093-.4519-1.0093-1.0093 0-.5573.4519-1.0097 1.0093-1.0097h2.4403c-.1624-2.6507-.8986-5.1479-2.0876-7.36886l-1.084.62546c-.2896.1676-.6597.068-.8273-.22157-.1669-.28913-.0681-.66011.2219-.82692l1.0809-.62319c-1.4576-2.33084-3.4322-4.30539-5.763-5.76306l-.6232 1.08047c-.1673.29002-.5378.38921-.8274.22196-.29-.1677-.3892-.53734-.222-.8278l.6255-1.08358c-2.2775-1.219691-4.845-1.965651-7.5713-2.10221v2.45406c0 .55736-.4519 1.00974-1.0097 1.00974-.5574 0-1.0093-.45194-1.0093-1.00974v-2.4389362c-2.6507.1619132-5.1479.8980872-7.36842 2.0866362l.62542 1.08403c.1668.28957.0681.66011-.22197.82691-.28958.1677-.65966.06806-.82736-.22152l-.62408-1.08046c-2.32996 1.45767-4.30495 3.43177-5.76217 5.76262l1.08091.62407c.28957.1677.38921.53779.22152.82692-.16726.29007-.53779.38917-.82736.22237l-1.08447-.62537c-1.219246 2.27747-1.965651 4.84497-2.10132 7.57127h2.45495c.55736 0 1.00929.4519 1.00929 1.0093 0 .5573-.45193 1.0093-1.00929 1.0093h-2.440271c.161469 2.6506.897642 5.1474 2.086191 7.3684l1.08447-.6259c.28913-.1664.65967-.0681.82736.2224.16725.2896.06761.6597-.22196.8269l-1.08091.6241c1.45722 2.3309 3.43177 4.305 5.76217 5.7626l.62408-1.0809c.1677-.2891.53734-.3888.82736-.2215.29006.1672.38876.5378.22196.8278l-.62541 1.0836c2.27751 1.2192 4.84491 1.9656 7.57121 2.1013v-2.455c0-.5573.4524-1.0088 1.0098-1.0088.5573 0 1.0093.4515 1.0093 1.0088v2.4408c2.6506-.1624 5.1478-.8986 7.3684-2.0876l-.6254-1.0835c-.1673-.2896-.0681-.6602.2215-.8274.29-.1673.6605-.0676.8273.2215l.6237 1.0809c2.3304-1.4576 4.3054-3.4317 5.763-5.7626zm-6.0811-12.6555-5.9485 3.821c-.037 1.1748-.9955 2.1173-2.1788 2.1173-1.2072 0-2.1862-.9781-2.1862-2.1858 0-.7744.4061-1.4514 1.0141-1.8393l.3586-10.169c0-.53556.3643-.96926.8135-.96926.4489 0 .8132.4337.8132.96926l.3532 10.0177 6.1473-3.1711c.3443-.1984.806-.0445 1.0302.3443.2247.3888.1281.8656-.2166 1.0649z" fill="#fff"/></svg>