<svg fill="none" height="46" viewBox="0 0 29 46" width="29" xmlns="http://www.w3.org/2000/svg"><g fill="#fff"><path d="m25.4412 1.4419c0-.42718-.1899-.854365-.5696-1.139155-.3322-.2847893-.8069-.3797192-1.2341-.2373244l-22.26104 5.9805794h24.06474z"/><path d="m27.3873 8.32434h-27.3873v35.31386c0 .807.664509 1.424 1.42395 1.424h25.96335c.8069 0 1.4239-.6645 1.4239-1.424v-33.84245c.0475-.8069-.617-1.47141-1.4239-1.47141zm-15.0939 28.43146c0 1.0917-.9018 1.9936-1.9935 1.9936-.56959 0-1.13917-.2374-1.51889-.712-.37972-.4272-.56958-1.0442-.47465-1.6138l1.32902-8.4013h-.8069c-.47465 0-.90184-.1899-1.18663-.5221-.33225-.3323-.47465-.7595-.47465-1.2341l.18986-5.6483c.04747-1.2816.47465-2.5157 1.18663-3.6074.71197-1.0442 1.70871-1.8986 2.89531-2.4207.095-.0475.1899-.0475.2374-.0475.1424 0 .2373.0475.3322.095.1899.0949.2848.2848.2848.5221zm9.4455-14.8565c0 .9018-.7594 1.6613-1.6612 1.6613h-.4747l.8069 13.0528c.0475.5696-.1424 1.0917-.5696 1.5189-.4271.4272-.9018.6171-1.4714.6171h-.0474c-.5696 0-1.0917-.2374-1.4715-.6171-.3797-.4272-.5695-.9493-.5695-1.5189l.8069-13.0054v-.0949h-.4747c-.9018 0-1.6612-.7594-1.6612-1.6613v-6.5027c0-.3797.2847-.6645.6645-.6645.3797 0 .6645.2848.6645.6645v5.6484c0 .2373.1898.4746.4746.4746h.4747c.2848 0 .4746-.2373.4746-.4746v-5.6484c0-.3797.2848-.6645.6645-.6645s.6645.2848.6645.6645v5.6484c0 .2373.2374.4746.4747.4746h.4746c.2374 0 .4747-.2373.4747-.4746v-5.6484c0-.3797.2848-.6645.6645-.6645.3322 0 .6645.2848.6645.6645v6.5502z"/></g></svg>