<svg width="26" height="26" viewBox="0 0 26 26" fill="none" xmlns="http://www.w3.org/2000/svg">
    <path d="M13 26C20.1797 26 26 20.1797 26 13C26 5.8203 20.1797 0 13 0C5.82029 0 0 5.8203 0 13C0 20.1797 5.82029 26 13 26Z" fill="url(#paint0_linear_0_1508)"/>
    <path d="M20.1845 8.54522C19.7267 8.74206 19.2456 8.87952 18.7529 8.95425C18.9841 8.95425 19.322 8.50076 19.4554 8.33182C19.6706 8.06872 19.8336 7.76691 19.9355 7.44262C19.9355 7.44262 19.9355 7.38927 19.9355 7.37149C19.9247 7.36524 19.9125 7.36195 19.9 7.36195C19.8875 7.36195 19.8752 7.36524 19.8644 7.37149C19.3252 7.65943 18.7515 7.87756 18.1571 8.0206C18.1396 8.03075 18.1196 8.03608 18.0993 8.03608C18.079 8.03608 18.0591 8.03075 18.0416 8.0206C17.9988 7.96602 17.9512 7.91542 17.8993 7.86943C17.6508 7.66203 17.3719 7.49409 17.0723 7.37149C16.6728 7.20684 16.2407 7.13685 15.8097 7.16698C15.3903 7.19418 14.9813 7.3093 14.6093 7.50487C14.2284 7.70163 13.8935 7.97693 13.6268 8.3126C13.3601 8.64827 13.1676 9.03668 13.0621 9.4522C12.9821 9.85432 12.9821 10.2683 13.0621 10.6704C13.0621 10.7415 13.0621 10.7504 12.9998 10.7415C10.7494 10.5111 8.66602 9.44884 7.15783 7.76273C7.09559 7.6916 7.06002 7.6916 6.99777 7.76273C6.69507 8.32376 6.58092 8.96729 6.67219 9.59821C6.76346 10.2291 7.05532 10.8139 7.50461 11.2661C7.62021 11.3729 7.7358 11.4796 7.86029 11.5774C7.47028 11.5467 7.08987 11.441 6.73991 11.2661C6.66877 11.2661 6.63321 11.2662 6.62431 11.3195C6.61584 11.432 6.61584 11.5449 6.62431 11.6574C6.69177 12.1823 6.89784 12.6798 7.22135 13.0986C7.54485 13.5174 7.97411 13.8425 8.46494 14.0404C8.58339 14.0963 8.70911 14.1352 8.8384 14.156C8.47378 14.2215 8.10042 14.2215 7.7358 14.156C7.65577 14.156 7.62021 14.156 7.65577 14.2627C7.84521 14.7569 8.15789 15.1945 8.5641 15.5337C8.9703 15.873 9.45653 16.1028 9.97657 16.2012C10.0833 16.2012 10.19 16.2012 10.2967 16.2012C10.4034 16.2012 10.2967 16.2012 10.2967 16.2012C9.84324 16.6087 9.29671 16.8988 8.70503 17.0459C7.93356 17.3219 7.11159 17.4281 6.29531 17.3571C6.17082 17.3571 6.14415 17.3571 6.10858 17.3571C6.07301 17.3571 6.10858 17.4105 6.10858 17.4371C6.26931 17.5463 6.43551 17.6472 6.60653 17.7395C7.11858 18.0098 7.65815 18.2244 8.21597 18.3797C9.65362 18.8133 11.18 18.8617 12.6422 18.5199C14.1044 18.1782 15.4512 17.4583 16.5477 16.4324C17.3298 15.5877 17.9367 14.5965 18.3336 13.5159C18.7304 12.4354 18.9092 11.2869 18.8596 10.1369C18.8596 10.048 18.9663 9.99461 19.0374 9.95015C19.4688 9.61226 19.8491 9.21396 20.1667 8.76752C20.22 8.70588 20.2485 8.62667 20.2467 8.54522C20.2467 8.54522 20.2467 8.51854 20.1845 8.54522Z" fill="white"/>
    <defs>
        <linearGradient id="paint0_linear_0_1508" x1="22.1943" y1="3.81464" x2="3.80575" y2="22.1943" gradientUnits="userSpaceOnUse">
            <stop stop-color="#33CCFF"/>
            <stop offset="1" stop-color="#337FFF"/>
        </linearGradient>
    </defs>
</svg>
