<svg fill="none" height="53" viewBox="0 0 45 53" width="45" xmlns="http://www.w3.org/2000/svg"><g fill="#fff"><path d="m29.9648 17.3697c4.7878 0 8.6849-3.897 8.6849-8.68483 0-4.78781-3.8971-8.68487-8.6849-8.68487s-8.6849 3.89706-8.6849 8.68487c0 4.78783 3.8971 8.68483 8.6849 8.68483zm-7.1817-9.18588c.1113-1.55882.7237-3.0063 1.7258-4.11974l1.0021 1.0021.7794-.77941-1.0021-1.00211c1.2805-1.05777 2.895-1.72584 4.6765-1.72584s3.396.66807 4.6765 1.72584l-1.0021 1.00211.7794.77941 1.0021-1.0021c.9464 1.11344 1.5588 2.56092 1.7258 4.11974h-1.4475v1.11345h1.4475c-.1113 1.55883-.7237 3.00633-1.7258 4.11973l-1.0021-1.0021-.8351.7238 1.0021 1.0021c-1.1135.9464-2.5609 1.5588-4.1198 1.7258v-1.4475h-1.1134v1.4475c-1.5588-.1113-3.0063-.7237-4.1198-1.7258l1.0021-1.0021-.7794-.7795-1.0021 1.0021c-.9464-1.1134-1.5588-2.5609-1.7258-4.1197h1.4475v-1.11345h-1.3918z"/><path d="m34.1402 8.18376h-3.6187v-5.2332h-1.1134v6.29097h4.7321z"/><path d="m13.5971 34.4612c-.2227-2.8393-.501-6.0126-.6681-7.9055.2227.167.4454.334.6681.5567 1.6145 1.3918 4.3981 1.6702 6.291 1.6702.8907 0 1.5588-.0557 1.8928-.1114 1.0021-.1113 1.7259-1.0021 1.6702-2.0042-.1113-1.0021-1.0021-1.7258-2.0042-1.6701-1.7258.167-4.5651.0557-5.4002-.6681-2.0599-1.7815-3.6744-2.8949-7.62711-3.0063-3.0063 0-3.56302 1.3361-3.56302 2.9506 0 2.1713.66806 11.5799 1.16912 13.5841.44537 1.7815 3.67436 1.3918 7.07041 1.3918 3.396.0557 4.5094 0 5.7342.2783.167 1.8929-.0557 6.7364-.3897 10.7448-.1113 1.2804.8908 2.4496 2.1712 2.5609h.167c1.2248 0 2.2826-.9464 2.3383-2.1712.6124-7.5714.5567-12.1922-.1114-13.584-.8907-1.8929-3.3403-2.4496-9.4086-2.6166z"/><path d="m8.63733 20.4242c2.54767-.15 4.49127-2.3369 4.34127-4.8846s-2.3369-4.4913-4.88458-4.3413c-2.54766.15-4.49132 2.337-4.34129 4.8846.15003 2.5477 2.33694 4.4913 4.8846 4.3413z"/><path d="m15.6013 40.5851h-10.8004l-1.78151-16.98c-.11135-.8351-.83509-1.4475-1.67017-1.3362-.835085.1114-1.4474794.8351-1.3361349 1.6702l1.9485249 18.3719c.05568.7794.72374 1.3361 1.50316 1.3918l-.94643 7.5714c-.11135.8351.50105 1.6145 1.33613 1.7258h.16702c.77941 0 1.39181-.5567 1.50315-1.3361l1.0021-7.9055h5.23316l1.0021 7.7942c.1114.7794.7794 1.3361 1.5032 1.3361h.167c.8351-.1114 1.4475-.8908 1.3361-1.7258l-.9464-7.5715h.7794c.8351 0 1.5032-.668 1.5032-1.5031s-.6681-1.5032-1.5032-1.5032z"/><path d="m44.1612 30.2856h-28.4485c-.167 0-.334.1671-.334.3341v2.0599c0 .167.167.334.334.334h10.1323v19.3183c0 .167.1671.334.3341.334h7.4601c.167 0 .334-.167.334-.334v-19.2626h10.1324c.167 0 .334-.1671.334-.3341v-2.0598c.0557-.2227-.1114-.3898-.2784-.3898z"/></g></svg>