<svg width="31" height="31" viewBox="0 0 31 31" fill="none" xmlns="http://www.w3.org/2000/svg">
<path d="M30.2237 9.69138H12.5435C12.8066 8.37589 12.7539 7.0604 12.4908 5.74491L12.3856 5.48181H30.2237C30.5394 5.48181 30.7499 5.27133 30.7499 4.95562C30.7499 4.6399 30.5394 4.42942 30.2237 4.42942H12.2804C12.2277 3.95584 12.2277 3.42965 12.333 2.95607V2.90345L30.2763 1.27224C30.592 1.27224 30.8025 1.00914 30.7499 0.693425C30.6972 0.377708 30.4868 0.219849 30.171 0.219849L12.9644 1.79844C12.6487 1.64058 12.2277 1.64058 11.912 1.79844C11.8594 1.85106 11.8068 1.85106 11.7542 1.90368L11.1227 1.9563C11.0701 1.90368 11.0175 1.90368 11.0175 1.85106C10.6492 1.64058 10.2282 1.58796 9.85986 1.79844C9.702 1.85106 9.59677 1.9563 9.49153 2.11416L9.17581 2.16678C9.12319 2.06154 9.01795 1.9563 8.91271 1.90368C8.54437 1.6932 8.12342 1.64058 7.70246 1.85106C7.49198 1.9563 7.33412 2.16678 7.22888 2.37725H7.0184C6.70268 2.37725 6.49221 2.64035 6.54483 2.95607C6.54483 3.16655 6.7553 3.37703 6.96578 3.42965C6.91316 3.79798 6.91316 4.16632 6.96578 4.53466C6.70268 4.58728 6.54483 4.79776 6.54483 5.06086C6.54483 5.37657 6.7553 5.58705 7.07102 5.58705H7.12364L7.17626 6.06063C7.38674 7.3235 7.59722 8.58637 7.17626 9.79662H0.756665C0.440947 9.79662 0.230469 10.0071 0.230469 10.3228V13.48C0.230469 19.3208 4.0717 24.4775 9.64938 26.1087C8.0708 26.898 7.07102 28.5292 7.07102 30.3183C7.07102 30.634 7.2815 30.8445 7.59722 30.8445H23.3831C23.6988 30.8445 23.9093 30.634 23.9093 30.3183C23.9093 28.5292 22.9095 26.898 21.3309 26.1087C26.9086 24.3723 30.7499 19.2155 30.7499 13.3748V10.2176C30.7499 9.90186 30.5394 9.69138 30.2237 9.69138ZM11.3858 5.95539C11.5963 7.21826 11.8068 8.48113 11.3858 9.69138H10.3861C10.6492 8.37589 10.5965 7.0604 10.3334 5.74491L10.2808 5.48181H11.3332L11.3858 5.95539ZM11.1754 4.42942H10.123C10.0703 4.00846 10.0703 3.53489 10.1756 3.11393L11.228 3.00869C11.1754 3.48227 11.1754 3.95584 11.1754 4.42942ZM8.01818 3.27179L9.07057 3.16655C9.01795 3.58751 9.01795 4.00846 9.07057 4.42942H8.01818C8.01818 4.06108 8.01818 3.69274 8.01818 3.27179ZM8.22865 5.74491L8.17603 5.48181H9.22843L9.28105 5.95539C9.49153 7.21826 9.702 8.48113 9.28105 9.69138H8.28127C8.54437 8.37589 8.54437 7.0604 8.22865 5.74491ZM19.1735 26.5297C21.0152 26.5297 22.5412 27.8978 22.8043 29.6868H8.17603C8.43913 27.8978 9.9651 26.5297 11.8068 26.5297H19.1735ZM29.6975 13.3748C29.6975 20.0575 24.2776 25.4773 17.595 25.4773H13.3854C6.70268 25.4773 1.28286 20.0575 1.28286 13.3748V10.7438H29.6975V13.3748Z" fill="#7556FF"/>
<path d="M19.8584 24.2144H19.9636C21.0686 24.0039 22.121 23.583 23.1208 23.0568C26.5411 21.0046 28.6458 17.3212 28.6458 13.3748C28.6458 13.0591 28.4354 12.8486 28.1196 12.8486C27.8039 12.8486 27.5934 13.0591 27.5934 13.3748C27.5934 16.9529 25.6991 20.2679 22.5946 22.1096C21.7 22.5832 20.7529 22.9515 19.7531 23.162C19.4374 23.2146 19.2269 23.4251 19.2795 23.7408C19.2795 24.0039 19.5426 24.2144 19.8584 24.2144Z" fill="#7556FF"/>
</svg>
