<svg width="34" height="33" viewBox="0 0 34 33" fill="none" xmlns="http://www.w3.org/2000/svg">
<path fill-rule="evenodd" clip-rule="evenodd" d="M21.5074 24.1843C21.344 24.8126 20.859 25.3182 20.221 25.4984C17.6231 26.2305 14.2776 27.1734 14.2776 27.1734C13.9168 27.275 13.5414 27.0638 13.4397 26.7019C13.3384 26.3401 13.549 25.9636 13.9098 25.8617C13.9098 25.8617 17.2557 24.9188 19.8532 24.1867C20.0489 24.1314 20.1901 23.9602 20.2071 23.7574C20.2244 23.5542 20.1141 23.3614 19.9306 23.2741C19.9299 23.2737 19.9296 23.2734 19.9289 23.273C19.1861 22.9192 18.3551 22.795 17.5419 22.9167C17.0989 22.9832 16.5989 23.058 16.1077 23.1314C14.357 23.3938 12.5679 23.1422 10.9563 22.4077H10.956C9.94292 21.9457 8.77686 21.9634 7.77767 22.4554C5.23773 23.7062 1.00473 25.7914 1.00473 25.7914C0.668204 25.957 0.260898 25.8175 0.0957551 25.48C-0.0697347 25.1425 0.0693878 24.734 0.405918 24.5684C0.405918 24.5684 4.63892 22.4832 7.17886 21.2324C8.54267 20.5605 10.1351 20.5369 11.5184 21.1673C12.8916 21.7933 14.4157 22.0072 15.9071 21.7842C16.3981 21.7105 16.8983 21.6356 17.3414 21.5692C18.4218 21.4077 19.5257 21.5723 20.5121 22.0427C20.5128 22.0431 20.5131 22.0431 20.5138 22.0434C20.8715 22.2139 21.1556 22.4895 21.3381 22.8218L29.122 20.8469C29.8402 20.6646 30.5879 21.0094 30.9174 21.675C31.2467 22.3402 31.0691 23.146 30.49 23.6098C28.2582 25.3979 25.313 27.7572 23.1478 29.492C21.1286 31.1096 18.5376 31.8284 15.9765 31.4819C14.3241 31.2585 12.4072 30.9989 10.8595 30.7895C9.15641 30.5591 7.43004 30.9954 6.03916 32.0079C5.38657 32.4832 4.85506 32.8701 4.85506 32.8701C4.55184 33.0911 4.12649 33.0232 3.90653 32.7191C3.68622 32.4147 3.75353 31.9885 4.0571 31.7675C4.0571 31.7675 4.58827 31.3806 5.24086 30.9057C6.91449 29.6872 8.99196 29.1618 11.0413 29.4395C12.5887 29.6486 14.5055 29.9081 16.1583 30.1319C18.3517 30.4287 20.5707 29.8128 22.2998 28.4273C24.4651 26.6929 27.4102 24.3332 29.6421 22.5451C29.7212 22.4818 29.7455 22.3719 29.7007 22.2811C29.6556 22.1899 29.5533 22.1429 29.4551 22.1676L21.5074 24.1843V24.1843ZM14.7727 2.7205V2.21635C14.7727 1.62834 15.0054 1.06468 15.4197 0.649247C15.8343 0.233464 16.3963 0 16.9823 0H17.0177C17.6037 0 18.1661 0.233464 18.5803 0.649247C18.9949 1.06468 19.2277 1.62834 19.2277 2.21635V2.7205C26.298 3.76466 31.7803 9.7046 32.1397 16.9966H33.3207C33.6957 16.9966 34 17.3018 34 17.6779C34 18.0537 33.6957 18.3591 33.3207 18.3591H0.679306C0.304265 18.3591 0 18.0537 0 17.6779C0 17.3018 0.304265 16.9966 0.679306 16.9966H1.86029C2.21971 9.7046 7.70239 3.76431 14.7727 2.7205V2.7205ZM30.7794 16.9966C30.3849 9.70878 24.3666 3.92018 17 3.92018C9.63345 3.92018 3.6151 9.70878 3.22063 16.9966H30.7794ZM17.8691 2.58237V2.21635C17.8691 1.98984 17.7792 1.77273 17.6196 1.61233C17.46 1.45228 17.2436 1.36251 17.0177 1.36251H16.9823C16.7568 1.36251 16.54 1.45228 16.3804 1.61233C16.2208 1.77273 16.1309 1.98984 16.1309 2.21635V2.58237C16.4189 2.56602 16.7086 2.55767 17 2.55767C17.2918 2.55767 17.5815 2.56602 17.8691 2.58237V2.58237Z" fill="#7556FF"/>
</svg>
