<svg width="593" height="419" viewBox="0 0 593 419" fill="none" xmlns="http://www.w3.org/2000/svg">
<path d="M73.9015 416.693H537.053C551.796 394.148 622.167 282.11 579.381 258.244C531.757 231.683 541.096 224.851 542.188 102.544C543.373 -30.3817 464.701 -12.1893 334.659 35.4344C204.617 83.058 210.749 25.1523 110.96 54.0984C11.5353 82.9233 102.282 195.056 26.2644 278.391C-37.4495 348.182 45.2923 401.263 73.9015 416.693Z" fill="#EBEDFF"/>
<path d="M190.131 29.1143C190.131 29.1143 234.817 62.2245 314.324 29.815C393.832 -2.59439 158.773 0.451143 190.131 29.1143Z" fill="#EBEDFF"/>
<path d="M264.275 330.785H168.704V416.68H264.275V330.785Z" fill="#D2D5FB"/>
<path d="M257.119 358.397V337.954H175.873V358.397H257.119Z" fill="#BABFE8"/>
<path d="M257.119 384.149V363.706H175.873V384.149H257.119Z" fill="#BABFE8"/>
<path d="M257.119 410.953V390.51H175.873V410.953H257.119Z" fill="#BABFE8"/>
<path d="M216.503 352.818C218.743 352.818 220.559 351.002 220.559 348.762C220.559 346.521 218.743 344.705 216.503 344.705C214.263 344.705 212.447 346.521 212.447 348.762C212.447 351.002 214.263 352.818 216.503 352.818Z" fill="#EBEDFF"/>
<path d="M220.559 374.406C220.559 375.206 220.322 375.987 219.878 376.652C219.434 377.317 218.802 377.835 218.064 378.141C217.325 378.447 216.512 378.527 215.728 378.371C214.944 378.215 214.223 377.83 213.658 377.265C213.093 376.699 212.708 375.979 212.552 375.195C212.396 374.411 212.476 373.598 212.782 372.859C213.088 372.12 213.606 371.489 214.271 371.045C214.935 370.6 215.717 370.363 216.517 370.363C217.589 370.363 218.617 370.789 219.375 371.547C220.133 372.306 220.559 373.334 220.559 374.406V374.406Z" fill="#EBEDFF"/>
<path d="M220.559 402.746C220.559 403.545 220.322 404.327 219.878 404.992C219.434 405.657 218.802 406.175 218.064 406.481C217.325 406.787 216.512 406.867 215.728 406.711C214.944 406.555 214.223 406.17 213.658 405.605C213.093 405.039 212.708 404.319 212.552 403.535C212.396 402.75 212.476 401.937 212.782 401.199C213.088 400.46 213.606 399.829 214.271 399.384C214.935 398.94 215.717 398.703 216.517 398.703C217.589 398.703 218.617 399.129 219.375 399.887C220.133 400.645 220.559 401.674 220.559 402.746V402.746Z" fill="#EBEDFF"/>
<path d="M265.272 80.7268H107.308C102.203 80.7268 98.0638 84.8657 98.0638 89.9713V191.768C98.0638 196.873 102.203 201.012 107.308 201.012H265.272C270.378 201.012 274.517 196.873 274.517 191.768V89.9713C274.517 84.8657 270.378 80.7268 265.272 80.7268Z" fill="white"/>
<path d="M267.617 191.754V89.9711C267.617 88.6761 266.567 87.6263 265.272 87.6263L107.308 87.6263C106.013 87.6263 104.963 88.6761 104.963 89.9711V191.754C104.963 193.049 106.013 194.099 107.308 194.099H265.272C266.567 194.099 267.617 193.049 267.617 191.754Z" fill="#EBEDFF"/>
<path d="M265.272 87.6263H219.347C221.826 99.5659 231.192 138.74 250.705 158.267H267.617V89.9711C267.617 89.6632 267.556 89.3583 267.439 89.0738C267.321 88.7893 267.148 88.5308 266.93 88.3131C266.713 88.0954 266.454 87.9226 266.17 87.8048C265.885 87.6869 265.58 87.6263 265.272 87.6263Z" fill="#BABFE8"/>
<path d="M250.705 158.267V168.643H267.348L267.617 158.267H250.705Z" fill="#D2D5FB"/>
<path d="M267.617 191.768V168.859L267.348 168.697H250.651C250.651 168.697 242.714 189.234 242.255 194.032L242.538 194.153H265.218C265.534 194.16 265.848 194.104 266.142 193.987C266.435 193.87 266.702 193.694 266.926 193.472C267.15 193.249 267.327 192.983 267.445 192.69C267.564 192.398 267.623 192.084 267.617 191.768V191.768Z" fill="#BABFE8"/>
<path d="M107.672 87.6263H153.625C151.145 99.5659 141.779 138.74 122.266 158.267H105.327V89.9711C105.327 89.6632 105.388 89.3583 105.506 89.0738C105.624 88.7893 105.796 88.5308 106.014 88.3131C106.232 88.0954 106.49 87.9226 106.775 87.8048C107.059 87.6869 107.364 87.6263 107.672 87.6263Z" fill="#BABFE8"/>
<path d="M122.239 158.267V168.643H105.597L105.327 158.267H122.239Z" fill="#D2D5FB"/>
<path d="M105.327 191.768V168.859L105.597 168.697H122.239C122.239 168.697 130.177 189.234 130.635 194.032L130.352 194.153H107.672C107.361 194.153 107.052 194.091 106.765 193.971C106.478 193.851 106.218 193.674 106 193.452C105.781 193.23 105.609 192.967 105.494 192.678C105.379 192.389 105.322 192.079 105.327 191.768Z" fill="#BABFE8"/>
<path d="M414.086 86.1843H335.94C333.417 86.1843 331.371 88.2296 331.371 90.7526V141.112C331.371 143.635 333.417 145.68 335.94 145.68H414.086C416.609 145.68 418.654 143.635 418.654 141.112V90.7526C418.654 88.2296 416.609 86.1843 414.086 86.1843Z" fill="#D2D5FB"/>
<path d="M418.654 94.8493V90.8065C418.654 89.5914 418.172 88.426 417.312 87.5667C416.453 86.7075 415.288 86.2248 414.073 86.2248H335.913C334.7 86.2283 333.538 86.7126 332.682 87.5715C331.825 88.4303 331.344 89.5937 331.344 90.8065V94.8493H418.654Z" fill="#BABFE8"/>
<path d="M349.591 103.177H337.597C336.994 103.177 336.506 103.666 336.506 104.269V116.222C336.506 116.825 336.994 117.314 337.597 117.314H349.591C350.194 117.314 350.682 116.825 350.682 116.222V104.269C350.682 103.666 350.194 103.177 349.591 103.177Z" fill="#EBEDFF"/>
<path d="M370.613 103.177H358.619C358.017 103.177 357.528 103.666 357.528 104.269V116.222C357.528 116.825 358.017 117.314 358.619 117.314H370.613C371.216 117.314 371.705 116.825 371.705 116.222V104.269C371.705 103.666 371.216 103.177 370.613 103.177Z" fill="white"/>
<path d="M391.514 103.177H379.52C378.918 103.177 378.429 103.666 378.429 104.269V116.222C378.429 116.825 378.918 117.314 379.52 117.314H391.514C392.117 117.314 392.606 116.825 392.606 116.222V104.269C392.606 103.666 392.117 103.177 391.514 103.177Z" fill="#BABFE8"/>
<path d="M411.714 103.177H399.721C399.118 103.177 398.629 103.666 398.629 104.269V116.222C398.629 116.825 399.118 117.314 399.721 117.314H411.714C412.317 117.314 412.806 116.825 412.806 116.222V104.269C412.806 103.666 412.317 103.177 411.714 103.177Z" fill="#EBEDFF"/>
<path d="M349.591 122.893H337.597C336.994 122.893 336.506 123.382 336.506 123.984V135.937C336.506 136.54 336.994 137.029 337.597 137.029H349.591C350.194 137.029 350.682 136.54 350.682 135.937V123.984C350.682 123.382 350.194 122.893 349.591 122.893Z" fill="#BABFE8"/>
<path d="M370.613 122.893H358.619C358.017 122.893 357.528 123.382 357.528 123.984V135.937C357.528 136.54 358.017 137.029 358.619 137.029H370.613C371.216 137.029 371.705 136.54 371.705 135.937V123.984C371.705 123.382 371.216 122.893 370.613 122.893Z" fill="#EBEDFF"/>
<path d="M391.514 122.893H379.52C378.918 122.893 378.429 123.382 378.429 123.984V135.937C378.429 136.54 378.918 137.029 379.52 137.029H391.514C392.117 137.029 392.606 136.54 392.606 135.937V123.984C392.606 123.382 392.117 122.893 391.514 122.893Z" fill="white"/>
<path d="M411.714 122.893H399.721C399.118 122.893 398.629 123.382 398.629 123.984V135.937C398.629 136.54 399.118 137.029 399.721 137.029H411.714C412.317 137.029 412.806 136.54 412.806 135.937V123.984C412.806 123.382 412.317 122.893 411.714 122.893Z" fill="#EBEDFF"/>
<path d="M546.756 267.475H269.086V277.609H546.756V267.475Z" fill="#D2D5FB"/>
<path d="M524.305 277.609H285.971V417.192H524.305V277.609Z" fill="#D2D5FB"/>
<path d="M524.305 277.609H285.971V292.5H524.305V277.609Z" fill="#BABFE8"/>
<path d="M503.944 105.154C516.159 92.9389 516.159 73.1352 503.944 60.9205C491.729 48.7059 471.926 48.7059 459.711 60.9205C447.496 73.1352 447.496 92.939 459.711 105.154C471.926 117.368 491.729 117.368 503.944 105.154Z" fill="#D2D5FB"/>
<path d="M481.816 106.075C494.543 106.075 504.86 95.7577 504.86 83.031C504.86 70.3043 494.543 59.9873 481.816 59.9873C469.089 59.9873 458.772 70.3043 458.772 83.031C458.772 95.7577 469.089 106.075 481.816 106.075Z" fill="#EBEDFF"/>
<path d="M474.579 93.0977C474.368 93.1001 474.162 93.0375 473.988 92.9183C473.814 92.7991 473.681 92.6291 473.608 92.4316C473.534 92.2341 473.523 92.0186 473.576 91.8147C473.63 91.6107 473.745 91.4281 473.905 91.2919L481.048 85.12V68.9489C481.048 68.6773 481.155 68.4168 481.348 68.2247C481.54 68.0327 481.8 67.9248 482.072 67.9248C482.345 67.9247 482.607 68.0322 482.801 68.2239C482.995 68.4156 483.106 68.6761 483.109 68.9489V85.659C483.107 85.8076 483.074 85.9541 483.011 86.0888C482.949 86.2235 482.858 86.3434 482.746 86.4406L475.253 92.909C475.058 93.0501 474.819 93.117 474.579 93.0977V93.0977Z" fill="#D2D5FB"/>
<path d="M391.999 176.378H301.495C296.955 176.378 293.275 180.059 293.275 184.599V234.486C293.275 239.026 296.955 242.707 301.495 242.707H391.999C396.539 242.707 400.22 239.026 400.22 234.486V184.599C400.22 180.059 396.539 176.378 391.999 176.378Z" fill="#D2D5FB"/>
<path d="M394.843 176.877C393.26 177.455 391.894 178.506 390.93 179.888C389.965 181.269 389.45 182.914 389.452 184.599V234.459C389.45 236.144 389.965 237.789 390.93 239.17C391.894 240.552 393.26 241.603 394.843 242.181C396.425 241.603 397.791 240.552 398.756 239.17C399.72 237.789 400.236 236.144 400.233 234.459V184.599C400.236 182.914 399.72 181.269 398.756 179.888C397.791 178.506 396.425 177.455 394.843 176.877V176.877Z" fill="#BABFE8"/>
<path d="M365.101 259.982H353.175V214.973H329.458V266.936H365.101C366.023 266.936 366.908 266.57 367.56 265.918C368.212 265.266 368.578 264.381 368.578 263.459C368.578 262.537 368.212 261.653 367.56 261.001C366.908 260.349 366.023 259.982 365.101 259.982V259.982Z" fill="#BABFE8"/>
<path d="M364.899 259.982H353.175V214.973H329.458V259.982C329.458 261.827 330.19 263.595 331.494 264.899C332.798 266.203 334.567 266.936 336.411 266.936H365.101C365.574 266.937 366.041 266.841 366.475 266.655C366.909 266.468 367.3 266.195 367.625 265.851C367.949 265.508 368.2 265.102 368.361 264.658C368.523 264.214 368.592 263.742 368.565 263.271C368.486 262.359 368.063 261.512 367.383 260.901C366.702 260.291 365.814 259.962 364.899 259.982Z" fill="#BABFE8"/>
<path d="M368.578 263.459C368.575 262.538 368.207 261.656 367.556 261.005C366.905 260.353 366.022 259.986 365.101 259.982H353.175V214.973H345.09V259.982C345.09 261.824 345.82 263.591 347.122 264.895C348.423 266.198 350.188 266.932 352.03 266.936H365.048C365.509 266.943 365.966 266.859 366.395 266.687C366.823 266.516 367.212 266.261 367.541 265.937C367.869 265.613 368.13 265.228 368.308 264.802C368.487 264.377 368.578 263.92 368.578 263.459V263.459Z" fill="#9BA3D3"/>
<path d="M369.036 181.364H316.278C315.667 181.364 315.081 181.607 314.649 182.039C314.217 182.472 313.974 183.058 313.974 183.669V183.669C313.978 184.279 314.221 184.863 314.653 185.294C315.084 185.726 315.668 185.97 316.278 185.973H369.036C369.646 185.97 370.23 185.726 370.662 185.294C371.093 184.863 371.337 184.279 371.341 183.669C371.341 183.058 371.098 182.472 370.666 182.039C370.234 181.607 369.648 181.364 369.036 181.364V181.364Z" fill="#BABFE8"/>
<path d="M513.215 246.318H424.382V267.623H513.215V246.318Z" fill="#BABFE8"/>
<path d="M507.42 231.441H415.838V246.331H507.42V231.441Z" fill="#D2D5FB"/>
<path d="M512.554 212.777H424.759V231.414H512.554V212.777Z" fill="#D2D5FB"/>
<path d="M512.554 224.892H424.759V231.427H512.554V224.892Z" fill="#BABFE8"/>
<path d="M78.7799 348.438L80.3161 348.762C82.8852 342.313 83.1658 335.178 81.1112 328.548C76.5564 315.072 74.3733 298.146 65.6679 285.425C53.7822 268.055 50.9253 230.255 50.9253 230.255C50.9253 230.255 36.4522 260.239 46.3165 288.498C56.1809 316.756 67.8779 324.155 73.7534 329.68C80.0601 335.515 79.9388 343.21 78.7799 348.438Z" fill="#FEB942"/>
<path d="M79.1033 348.506L80.3161 348.762C82.8851 342.313 83.1657 335.178 81.1112 328.548C76.5563 315.072 74.3732 298.146 65.6678 285.425C53.7821 268.055 50.9252 230.255 50.9252 230.255C50.9252 230.255 42.9206 270.682 52.192 284.886C61.4634 299.09 61.8811 295.667 68.5517 309.143C75.2222 322.618 77.311 326.499 79.3323 334.369C80.2963 339.041 80.2181 343.868 79.1033 348.506V348.506Z" fill="#ED5A24"/>
<path d="M86.4476 359.475C86.4476 359.475 89.4122 355.068 87.6739 338.587C85.9355 322.106 81.2055 306.34 83.8602 288.376C86.5149 270.413 106.109 224.824 106.217 221.819C106.324 218.814 111.405 274.267 101.284 296.354C91.1641 318.441 89.8839 326.001 90.1804 337.577C90.4768 349.152 89.803 358.356 88.698 361.065L86.4476 359.475Z" fill="#ED5A24"/>
<path d="M88.6845 326.216C89.7222 333.561 90.1804 352.023 88.2937 356.483C88.1186 356.901 87.876 356.672 87.5795 355.917C88.1725 352.845 88.6172 347.481 87.6739 338.587C85.9355 322.106 81.2055 306.34 83.8602 288.376C86.5149 270.413 106.109 224.824 106.217 221.819C106.217 221.819 102.861 259.551 92.8755 285.641C87.8517 298.542 86.4038 312.561 88.6845 326.216V326.216Z" fill="#FEB942"/>
<path d="M97.0262 355.984C97.0262 355.984 88.442 332.334 102.78 311.945C117.119 291.556 140.082 265.373 140.513 254.983C140.513 254.983 146.617 304.385 127.899 318.319C109.181 332.253 96.0424 334.41 99.371 355.931L97.0262 355.984Z" fill="#ED5A24"/>
<path d="M117.146 308.321C96.285 325.179 94.6409 344.705 97.929 353.748C98.0344 354.061 98.211 354.346 98.4448 354.58C98.6785 354.813 98.9632 354.99 99.2766 355.095C96.3928 334.329 109.437 332.011 127.913 318.279C146.631 304.372 140.526 254.943 140.526 254.943C140.526 254.943 138.006 291.476 117.146 308.321Z" fill="#F99746"/>
<path d="M71.422 361.739L66.7055 344.678C49.1195 282.352 0 280.277 0 280.277C5.1343 281.301 31.8165 301.65 35.9536 319.748C37.8941 328.251 46.586 334.288 54.2538 338.291C56.992 339.729 59.4087 341.71 61.3571 344.113C63.3054 346.515 64.7446 349.289 65.587 352.265C67.0559 357.399 67.824 361.954 67.824 361.954L71.422 361.739Z" fill="#FEB942"/>
<path d="M44.6725 320.61C50.4267 331.647 57.8249 336.121 64.4685 337.644C45.3193 282.218 0 280.277 0 280.277C1.87271 280.907 3.63988 281.816 5.24211 282.972C14.6483 288.282 34.5117 301.138 44.6725 320.61Z" fill="#ED5A24"/>
<path d="M108.508 346.781H57.0972C55.6558 346.78 54.2318 347.095 52.9256 347.704C51.6194 348.314 50.4629 349.203 49.5376 350.308C48.6124 351.413 47.9409 352.708 47.5706 354.101C47.2003 355.494 47.1402 356.951 47.3946 358.37L56.5986 410.414C56.912 412.188 57.8401 413.795 59.22 414.953C60.5999 416.111 62.3436 416.746 64.1451 416.747H101.406C103.209 416.747 104.954 416.112 106.337 414.954C107.719 413.796 108.649 412.189 108.966 410.414L118.183 358.37C118.437 356.953 118.378 355.498 118.009 354.107C117.64 352.716 116.971 351.423 116.049 350.318C115.127 349.213 113.973 348.324 112.671 347.713C111.368 347.102 109.947 346.784 108.508 346.781V346.781Z" fill="#5896FA"/>
<path d="M117.995 353.99C117.415 351.931 116.181 350.117 114.48 348.821C112.778 347.525 110.7 346.818 108.561 346.808H57.0972C54.9582 346.818 52.8808 347.525 51.179 348.821C49.4772 350.117 48.2434 351.931 47.6641 353.99H117.995Z" fill="#357AEA"/>
<path d="M108.508 346.781H95.3956C96.837 346.78 98.261 347.095 99.5672 347.704C100.873 348.314 102.03 349.203 102.955 350.308C103.88 351.413 104.552 352.708 104.922 354.101C105.293 355.494 105.353 356.951 105.098 358.37L95.8673 410.414C95.5538 412.188 94.6258 413.795 93.2459 414.953C91.8659 416.111 90.1223 416.746 88.3208 416.747H101.433C103.236 416.747 104.981 416.112 106.364 414.954C107.746 413.796 108.676 412.189 108.993 410.414L118.21 358.37C118.465 356.951 118.405 355.494 118.034 354.101C117.664 352.708 116.992 351.413 116.067 350.308C115.142 349.203 113.985 348.314 112.679 347.704C111.373 347.095 109.949 346.78 108.508 346.781V346.781Z" fill="#357AEA"/>
<path d="M454.931 174.478C459.365 175.233 480.414 178.831 484.578 181.701C488.109 184.154 505.237 234.257 501.625 236.871C498.014 239.486 476.547 241.898 476.547 241.898L478.959 259.982L454.379 265.575C448.484 266.917 442.377 267.05 436.429 265.966L415.744 262.193L419.962 209.987L392.444 225.794C391.48 226.299 390.358 226.405 389.317 226.09C388.276 225.775 387.4 225.064 386.878 224.11L357.528 173.414L365.816 169.506L391.029 199.759L415.285 180.488C415.285 180.488 420.743 176.688 440.89 174.977L454.931 174.478Z" fill="#18DAA0"/>
<path d="M365.196 170.045C365.196 170.045 360.937 161.312 359.415 160.868C357.892 160.423 359.28 164.398 359.28 164.398C359.28 164.398 353.97 160.355 349.779 160.908C345.588 161.46 357.514 168.993 358.7 173.104C358.7 173.104 365.452 170.072 365.196 170.045Z" fill="#FFA683"/>
<path d="M388.307 235.376H431.996C434.355 235.376 436.267 233.463 436.267 231.104V205.149C436.267 202.79 434.355 200.878 431.996 200.878H388.307C385.947 200.878 384.035 202.79 384.035 205.149V231.104C384.035 233.463 385.947 235.376 388.307 235.376Z" fill="white"/>
<path d="M411.822 235.403H448.746C449.704 235.403 450.623 235.022 451.3 234.345C451.977 233.668 452.358 232.749 452.358 231.791V232.195C452.358 231.238 451.977 230.319 451.3 229.642C450.623 228.964 449.704 228.584 448.746 228.584H411.822C411.349 228.584 410.88 228.677 410.442 228.859C410.005 229.041 409.607 229.307 409.273 229.642C408.939 229.978 408.674 230.376 408.494 230.814C408.314 231.252 408.222 231.722 408.224 232.195V231.791C408.222 232.265 408.314 232.734 408.494 233.172C408.674 233.61 408.939 234.009 409.273 234.344C409.607 234.68 410.005 234.946 410.442 235.128C410.88 235.309 411.349 235.403 411.822 235.403V235.403Z" fill="white"/>
<path d="M440.499 228.557V231.117C440.499 232.244 440.052 233.325 439.256 234.124C438.461 234.922 437.381 235.372 436.254 235.376H432.036C433.161 235.369 434.237 234.917 435.03 234.119C435.822 233.321 436.267 232.242 436.267 231.117V228.557H440.499Z" fill="#E6E1EF"/>
<path d="M402.133 220.242C402.13 219.061 402.478 217.905 403.133 216.922C403.787 215.938 404.718 215.171 405.809 214.717C406.9 214.263 408.1 214.143 409.259 214.372C410.418 214.601 411.483 215.168 412.319 216.003C413.156 216.837 413.726 217.901 413.957 219.059C414.188 220.217 414.071 221.419 413.62 222.51C413.168 223.602 412.403 224.535 411.421 225.191C410.439 225.848 409.284 226.199 408.103 226.199C406.522 226.199 405.006 225.571 403.886 224.455C402.767 223.338 402.137 221.823 402.133 220.242Z" fill="#E6E1EF"/>
<g style="mix-blend-mode:multiply" opacity="0.42">
<path d="M475.55 218.854L470.564 197.36L480.145 222.412C480.35 222.915 480.441 223.458 480.412 224.001C480.383 224.544 480.235 225.074 479.977 225.553C479.72 226.032 479.36 226.448 478.923 226.771C478.486 227.095 477.983 227.318 477.45 227.425L452.371 233.112L471.992 225.444C473.308 224.998 474.406 224.071 475.066 222.848C475.726 221.626 475.899 220.199 475.55 218.854V218.854Z" fill="#7327CC"/>
</g>
<path d="M476.156 242.006L446.846 244.553L446.442 234.486L477.396 227.425L476.156 242.006Z" fill="#18DAA0"/>
<g style="mix-blend-mode:multiply" opacity="0.42">
<path d="M464.809 246.345C465.497 246.655 466.319 255.091 466.925 262.745L478.568 260.05L476.156 241.952L446.846 244.499C446.846 244.499 463.57 245.766 464.809 246.345Z" fill="#7327CC"/>
</g>
<path d="M446.779 242.141C446.779 242.141 441.631 243.812 435.203 237.357C435.053 237.202 434.952 237.008 434.912 236.797C434.871 236.586 434.893 236.368 434.974 236.169C435.056 235.97 435.194 235.8 435.371 235.678C435.548 235.556 435.756 235.489 435.971 235.484L446.374 235.403L446.779 242.141Z" fill="#FFA683"/>
<path d="M476.533 403.5L462.02 403.285C459.257 393.272 445.418 287.756 445.418 287.756L427.36 326.27L436.214 403.244L422.657 403.325C422.657 403.325 401.378 336.795 401.378 322.996C401.378 312.444 412.011 278.31 417.078 262.664L417.482 262.557L436.348 265.993C442.294 267.094 448.403 266.966 454.298 265.616L476.425 260.589C478.703 289.454 476.533 403.5 476.533 403.5Z" fill="#005CEA"/>
<g style="mix-blend-mode:multiply" opacity="0.35">
<path d="M476.533 403.5C476.533 403.5 477.584 351.416 477.517 309.169V306.313C477.517 305.922 477.517 305.544 477.517 305.167V303.483C477.517 285.182 477.167 269.133 476.506 260.522L466.938 262.705L471.453 403.244L476.372 403.447L476.533 403.5Z" fill="#441982"/>
</g>
<path d="M432.508 403.366L436.213 403.244L427.36 326.27L445.417 287.756L418.991 325.367L432.508 403.366Z" fill="#003FC2"/>
<path d="M423.775 403.258C420.528 409.767 405.34 412.933 405.34 412.933C405.019 413.643 404.905 414.43 405.01 415.202C405.114 415.974 405.435 416.701 405.933 417.3C407.645 419.752 423.614 418.405 425.608 417.973C426.913 417.637 428.092 416.93 429.004 415.939C429.617 416.633 430.314 417.248 431.079 417.771C431.834 418.149 435.904 417.367 435.904 417.367C436.887 414.766 436.025 404.848 435.755 403.258H423.775Z" fill="#441982"/>
<path d="M462.923 403.258C459.675 409.767 444.488 412.933 444.488 412.933C444.17 413.645 444.058 414.432 444.166 415.203C444.273 415.975 444.595 416.702 445.094 417.3C446.805 419.752 462.761 418.405 464.769 417.973C466.073 417.637 467.253 416.93 468.165 415.939C468.778 416.633 469.475 417.248 470.24 417.771C470.981 418.149 475.064 417.367 475.064 417.367C476.048 414.766 475.172 404.848 474.916 403.258H462.923Z" fill="#441982"/>
<path d="M453.166 162.188V174.317L446.01 179.437L441.173 174.761L441.294 169.775C441.906 169.899 442.529 169.963 443.154 169.964C445.416 169.927 447.6 169.135 449.361 167.714C451.121 166.293 452.356 164.324 452.87 162.121L453.166 162.188Z" fill="#FFA683"/>
<path d="M456.063 154.345C455.679 153.928 455.153 153.667 454.588 153.615C454.023 153.563 453.459 153.722 453.004 154.062C452.977 154.08 452.954 154.103 452.937 154.13C448.746 153.133 442.884 148.672 442.884 148.672C439.749 150.431 436.482 151.944 433.114 153.2V159.493C433.052 162.218 434.075 164.856 435.958 166.827C437.841 168.798 440.429 169.941 443.153 170.004C445.417 169.966 447.604 169.173 449.364 167.749C451.125 166.325 452.359 164.354 452.87 162.148C456.319 162.633 457.451 155.895 456.063 154.345Z" fill="#FFA683"/>
<path d="M453.193 166.932V162.188C456.414 162.256 457.438 155.801 456.09 154.345C455.706 153.928 455.182 153.667 454.617 153.613C454.053 153.558 453.488 153.713 453.031 154.049L452.964 154.13C449.564 153.214 446.217 152.112 442.938 150.828C439.984 152.607 436.554 153.435 433.114 153.2C430.983 152.701 429.105 151.448 427.827 149.672C426.548 147.896 425.956 145.717 426.16 143.538C426.39 136.059 446.482 127.367 457.6 139.495C461.952 144.306 464.513 164.964 453.193 166.932Z" fill="#441982"/>
<path d="M443.154 170.018C442.529 170.012 441.906 169.944 441.294 169.816L441.173 174.815L444.286 177.82V171.958C452.371 171.958 452.87 162.175 452.87 162.175C452.356 164.378 451.121 166.347 449.361 167.768C447.6 169.189 445.416 169.981 443.154 170.018V170.018Z" fill="#F48260"/>
<path d="M453.004 154.049L452.937 154.13C452.322 153.973 451.719 153.775 451.131 153.537C451.32 156.07 451.414 162.418 447.991 165.84C447.169 164.789 445.296 162.552 443.45 162.202C441.612 161.95 439.749 161.95 437.911 162.202C437.371 162.268 436.866 162.504 436.47 162.876L434.731 164.52C434.251 163.892 433.848 163.209 433.532 162.485C434.084 164.657 435.355 166.577 437.138 167.935C438.92 169.293 441.11 170.009 443.35 169.965C445.591 169.921 447.751 169.121 449.479 167.695C451.207 166.268 452.402 164.299 452.87 162.108C453.142 162.155 453.42 162.155 453.692 162.108V162.108L453.004 154.049ZM444.919 166.083C440.755 168.023 437.871 166.46 437.089 165.49C437.002 165.384 436.954 165.25 436.954 165.113C436.954 164.975 437.002 164.842 437.089 164.735L437.79 163.967C438.599 163.078 441.186 163.401 442.264 163.401C442.801 163.48 443.316 163.667 443.779 163.949C444.242 164.232 444.643 164.604 444.959 165.045C445.175 165.328 445.215 165.935 444.892 166.083H444.919Z" fill="#441982"/>
<path d="M330.334 403.244C328.541 350.055 321.52 252.638 321.52 252.638H268.479C268.479 252.638 261.459 350.055 259.666 403.244H274.759C274.759 403.244 291.887 288.834 295.216 278.364C298.544 288.834 315.241 403.244 315.241 403.244H330.334Z" fill="#5725A5"/>
<path d="M330.334 403.244H325.617L310.201 252.638H321.52C321.52 252.638 328.541 350.055 330.334 403.244Z" fill="#5725A5"/>
<g style="mix-blend-mode:multiply" opacity="0.35">
<path d="M330.334 403.244H325.617L310.201 252.638H321.52C321.52 252.638 328.541 350.055 330.334 403.244Z" fill="#441982"/>
</g>
<path d="M261.351 403.258C258.103 409.767 242.916 412.933 242.916 412.933C242.598 413.645 242.487 414.432 242.594 415.203C242.701 415.975 243.023 416.702 243.522 417.3C245.234 419.752 261.189 418.405 263.197 417.973C264.5 417.633 265.678 416.927 266.593 415.939C267.203 416.636 267.901 417.252 268.668 417.771C269.409 418.149 273.493 417.367 273.493 417.367C274.476 414.766 273.6 404.848 273.344 403.258H261.351Z" fill="#441982"/>
<path d="M328.42 403.258C331.668 409.767 346.855 412.933 346.855 412.933C347.173 413.645 347.284 414.432 347.177 415.203C347.07 415.975 346.748 416.702 346.249 417.3C344.537 419.752 328.582 418.405 326.574 417.973C325.269 417.637 324.09 416.93 323.178 415.939C322.568 416.636 321.87 417.252 321.103 417.771C320.362 418.149 316.278 417.367 316.278 417.367C315.295 414.766 316.171 404.848 316.427 403.258H328.42Z" fill="#441982"/>
<path d="M306.145 168.374L302.546 167.323H296.967H295.431H289.852L286.254 168.374L277.293 252.342H295.431H296.967H315.106L306.145 168.374Z" fill="white"/>
<path d="M286.254 168.374C286.254 168.374 263.992 174.573 260.407 179.734C257.065 184.545 244.236 210.904 245.072 226.59C245.098 226.989 245.206 227.378 245.389 227.734C245.572 228.089 245.826 228.403 246.136 228.656C246.446 228.909 246.804 229.095 247.189 229.203C247.574 229.312 247.977 229.339 248.374 229.285L265.34 225.538L259.222 259.39C259.222 259.39 276.74 262.894 286.564 262.301L286.254 168.374Z" fill="#F99746"/>
<path d="M306.144 168.374C306.144 168.374 328.407 174.573 331.991 179.734C335.347 184.545 348.526 209.853 347.677 225.552C347.651 225.951 347.543 226.34 347.36 226.696C347.177 227.051 346.923 227.365 346.613 227.618C346.303 227.871 345.945 228.058 345.56 228.166C345.175 228.274 344.772 228.302 344.375 228.247L327.059 225.552L333.191 259.403C333.191 259.403 315.847 263.352 305.983 262.759L306.144 168.374Z" fill="#F99746"/>
<path d="M302.493 176.028L296.267 172.551L290.486 176.028L294.178 181.122C294.178 181.122 290.647 233.179 290.513 238.745C290.513 239.58 292.696 242.302 294.704 244.607L296.267 246.372L297.843 244.607C299.838 242.302 302.048 239.58 302.021 238.745C301.886 233.179 298.76 181.324 298.76 181.324L302.493 176.028Z" fill="#BA95F4"/>
<path d="M265.34 225.592L317.788 216.779L314.944 204.61L255.111 210.432L265.34 225.592Z" fill="#F99746"/>
<path d="M316.993 215.485C316.993 215.485 324.66 212.992 327.248 213.397C329.835 213.801 328.595 204.88 314.944 204.61L316.993 215.485Z" fill="#FFA683"/>
<path d="M283.101 207.548C281.596 206.145 279.817 205.068 277.876 204.387C275.935 203.705 273.873 203.432 271.822 203.586C268.035 203.923 265.178 209.259 265.178 209.259L283.101 207.548Z" fill="#FFA683"/>
<g style="mix-blend-mode:multiply" opacity="0.35">
<path d="M263.022 238.381L286.348 222.088L265.34 225.592L263.022 238.381Z" fill="#441982"/>
</g>
<g style="mix-blend-mode:multiply" opacity="0.35">
<path d="M265.178 209.259L260.973 209.152L269.49 196.147L265.178 209.259Z" fill="#441982"/>
</g>
<g style="mix-blend-mode:multiply" opacity="0.35">
<path d="M327.463 213.437C327.463 213.437 331.816 213.518 332.288 212.831C332.759 212.143 326.816 197.589 326.816 197.589C326.816 197.589 331.129 212.197 327.463 213.437Z" fill="#441982"/>
</g>
<g style="mix-blend-mode:multiply" opacity="0.35">
<path d="M333.191 259.444L329.714 240.268L327.019 225.592L306.05 221.927V223.113L321.48 234.284L326.035 260.859C330.159 260.117 333.191 259.444 333.191 259.444Z" fill="#441982"/>
</g>
<path d="M295.121 278.337C292.185 280.789 290.213 284.203 289.556 287.972L269.517 403.244H274.813C274.813 403.244 288.882 307 295.121 278.337Z" fill="#441982"/>
<path d="M301.792 166.851L296.482 170.071L290.836 166.851V156.259H301.792V166.851Z" fill="#FFA683"/>
<path d="M282.373 147.809C282.373 147.809 280.177 139.603 282.44 135.479C284.704 131.355 288.532 126.76 292.278 129.348C292.278 129.348 294.528 126.383 302.466 128.323C310.403 130.264 314.324 130.318 317.168 128.835C320.011 127.353 317.828 141.934 311.953 142.77C311.953 142.77 311.481 146.583 310.322 147.931C309.163 149.278 294.96 150.006 294.96 150.006L282.373 147.809Z" fill="#441982"/>
<path d="M293.774 137.096C293.356 136.638 292.547 138.619 290.647 140.277C289.053 141.588 287.284 142.672 285.392 143.497V151.394C285.392 151.394 287.036 162.175 296.698 162.175C304.676 162.175 307.479 151.475 307.479 151.475V142.231C307.479 142.231 298.059 141.84 293.774 137.096Z" fill="#FFA683"/>
<path d="M301.859 160.463V162.633C300.395 163.722 298.617 164.308 296.792 164.304C294.701 164.345 292.647 163.748 290.903 162.593V160.423C292.647 161.578 294.701 162.175 296.792 162.134C298.616 162.133 300.392 161.547 301.859 160.463V160.463Z" fill="#F48260"/>
<path d="M290 148.699C290 147.677 289.594 146.696 288.872 145.974C288.149 145.251 287.169 144.845 286.146 144.845C285.124 144.845 284.144 145.251 283.421 145.974C282.698 146.696 282.292 147.677 282.292 148.699C282.404 149.848 282.908 150.923 283.721 151.743C284.534 152.564 285.605 153.078 286.753 153.2C288.895 153.2 290 150.828 290 148.699Z" fill="#FFA683"/>
<path d="M303.881 148.699C303.849 148.173 303.926 147.646 304.106 147.15C304.286 146.655 304.565 146.202 304.927 145.818C305.289 145.434 305.725 145.129 306.209 144.92C306.693 144.711 307.214 144.603 307.741 144.603C308.268 144.603 308.79 144.711 309.274 144.92C309.758 145.129 310.194 145.434 310.556 145.818C310.917 146.202 311.197 146.655 311.377 147.15C311.557 147.646 311.633 148.173 311.602 148.699C311.488 149.849 310.98 150.925 310.165 151.745C309.35 152.565 308.278 153.079 307.128 153.2C304.999 153.2 303.881 150.828 303.881 148.699Z" fill="#FFA683"/>
<path d="M144.192 405.98V414.699C144.243 415.717 143.889 416.714 143.207 417.471C142.525 418.229 141.571 418.686 140.553 418.742H114.208C113.884 418.71 113.576 418.58 113.328 418.37C113.079 418.159 112.9 417.878 112.815 417.563C112.73 417.249 112.743 416.915 112.853 416.608C112.962 416.301 113.162 416.035 113.426 415.844C116.903 413.338 128.438 409.753 132.09 407.26L144.192 405.98Z" fill="#7327CC"/>
<path d="M151.455 319.088C149.717 342.374 145.081 403.258 143.882 406.681C142.399 410.912 130.743 408.648 131.484 407.435C131.74 407.004 133.95 406.748 135.527 403.393C136.012 402.355 135.85 395.94 135.756 394.809C135.028 384.486 131.255 331.391 130.19 315.395C137.124 317.392 144.254 318.63 151.455 319.088Z" fill="#FFA683"/>
<path d="M162.249 405.98V414.699C162.198 415.717 162.552 416.714 163.234 417.471C163.916 418.229 164.87 418.686 165.888 418.742H192.247C192.567 418.703 192.869 418.57 193.113 418.359C193.357 418.148 193.532 417.869 193.616 417.557C193.7 417.245 193.689 416.916 193.585 416.611C193.48 416.305 193.286 416.038 193.028 415.844C189.538 413.338 178.016 409.753 174.364 407.26L162.249 405.98Z" fill="#7327CC"/>
<path d="M174.971 407.422C175.698 408.635 164.055 410.899 162.573 406.667C161.387 403.258 156.751 342.59 155.013 319.209C162.199 319.357 169.364 318.361 176.237 316.258C175.092 333.251 171.44 384.621 170.726 394.755C170.645 395.887 170.483 402.301 170.955 403.339C172.491 406.735 174.715 406.991 174.971 407.422Z" fill="#FFA683"/>
<path d="M125.326 245.375L125.528 245.671L124.315 248.218C124.598 247.181 124.935 246.183 125.326 245.375Z" fill="#BA95F4"/>
<path d="M186.25 312.026C157.061 328.197 120.312 312.026 120.312 312.026C116.115 290.787 117.465 268.824 124.234 248.259V248.259C124.584 247.221 124.921 246.278 125.245 245.415C126.059 243.172 126.999 240.976 128.061 238.839V238.839C129.638 239.877 149.205 252.126 175.86 238.839H176.359C176.359 238.839 176.359 238.758 176.359 238.677C176.359 238.597 176.359 238.677 176.359 238.677H176.534C190.117 273.203 186.25 312.026 186.25 312.026Z" fill="#FEB942"/>
<g style="mix-blend-mode:multiply" opacity="0.35">
<path d="M186.25 312.026C181.153 314.809 175.658 316.791 169.957 317.902C177.073 298.766 170.577 255.913 168.192 242.019C170.833 241.125 173.408 240.049 175.9 238.799H176.399C176.399 238.799 176.399 238.718 176.399 238.637C176.399 238.556 176.399 238.637 176.399 238.637H176.574C190.117 273.202 186.25 312.026 186.25 312.026Z" fill="#441982"/>
</g>
<path d="M151.455 319.088C149.717 342.361 145.081 403.258 143.882 406.681C143.614 407.254 143.205 407.749 142.694 408.122C142.182 408.494 141.585 408.731 140.957 408.81C145.593 393.353 145.175 321.055 145.175 321.055C140.338 321.217 134.314 318.778 130.217 317.012C130.109 315.274 130.217 316.743 130.136 315.449C137.09 317.43 144.238 318.65 151.455 319.088V319.088Z" fill="#F48260"/>
<path d="M170.955 403.393C170.483 402.355 170.645 395.94 170.726 394.808C171.453 384.675 175.092 333.291 176.237 316.312C175.375 316.568 174.526 316.81 173.663 317.039L172.316 317.376L170.82 317.726C165.635 318.802 160.347 319.299 155.053 319.209C155.053 319.761 155.134 320.341 155.175 320.934C160.086 320.964 164.996 320.703 169.877 320.152C169.176 333.399 165.834 400.563 168.125 405.05C168.799 406.398 170.82 407.476 173.515 408.406C174.593 408.082 175.227 407.705 175.038 407.395C174.849 407.085 172.491 406.735 170.955 403.393Z" fill="#F48260"/>
<path d="M219.656 174.101C219.656 174.101 224.238 166.905 225.613 166.676C226.987 166.447 225.384 169.762 225.384 169.762C225.384 169.762 230.41 166.73 234.022 167.646C237.633 168.562 226.394 173.98 225.047 177.456C225.047 177.456 219.414 174.101 219.656 174.101Z" fill="#FFA683"/>
<path d="M131.187 251.924C131.187 251.331 125.649 246.736 125.272 246.534L125.123 246.305L121.593 253.676C121.593 253.676 130.109 260.831 131.026 260.117C131.605 259.646 129.57 256.438 128.088 252.099C129.49 251.897 131.187 252.342 131.187 251.924Z" fill="#FFA683"/>
<path d="M178.272 205.378C179.41 207.571 179.949 210.026 179.835 212.494C179.656 214.823 178.619 217.003 176.924 218.612C176.584 218.956 176.265 219.321 175.968 219.703L175.766 219.959C170.645 226.94 175.51 237.047 176.291 238.596C176.323 238.643 176.35 238.693 176.372 238.745V238.745H175.873C149.218 252.032 129.651 239.782 128.075 238.745H128.021C128.452 237.923 133.963 227.25 128.627 219.959C128.275 219.482 127.888 219.031 127.468 218.612C123.183 214.326 124.382 207.467 126.121 203.788L111.297 224.635L125.393 245.698L121.35 254.296C121.35 254.296 93.1721 227.6 93.5898 225.633C94.0076 223.665 116.135 184.491 123.466 179.276C130.797 174.06 145.431 173.36 145.431 173.36H156.145C156.145 173.36 167.06 172.794 176.049 179.127L194.672 197.67L218.929 173.724L225.37 177.645C225.37 177.645 203.432 207.292 195.629 216.253C195.322 216.606 194.947 216.894 194.528 217.1C194.108 217.306 193.651 217.426 193.185 217.454C192.718 217.482 192.25 217.416 191.809 217.261C191.368 217.105 190.963 216.864 190.616 216.55L178.272 205.378Z" fill="#B0D0FF"/>
<path d="M194.618 214.165C190.023 217.695 170.618 193.034 173.731 198.452C176.844 203.869 171.305 210.89 166.36 222.964C162.088 233.408 166.562 240.483 167.869 242.127C170.637 241.203 173.338 240.091 175.954 238.798H176.453C176.431 238.747 176.404 238.697 176.372 238.65C175.59 237.101 170.726 226.994 175.847 220.013L176.049 219.757C176.346 219.374 176.665 219.01 177.005 218.666C178.7 217.057 179.737 214.877 179.916 212.547C180.03 210.08 179.491 207.625 178.353 205.432L190.737 216.577C191.084 216.891 191.49 217.132 191.931 217.288C192.372 217.443 192.839 217.509 193.306 217.481C193.773 217.453 194.229 217.333 194.649 217.127C195.069 216.921 195.443 216.633 195.75 216.28C203.553 207.386 225.492 177.672 225.492 177.672C225.343 177.241 199.753 210.203 194.618 214.165Z" fill="#7AB5FC"/>
<path d="M126.161 203.748C126.161 203.748 128.856 195.231 130.675 193.21C130.675 193.21 108.575 221.509 107.537 224.703C106.5 227.897 125.46 245.658 125.46 245.658L111.365 224.622L126.161 203.748Z" fill="#7AB5FC"/>
<path d="M126.161 203.748C125.616 204.92 125.204 206.149 124.935 207.413L126.161 203.748Z" fill="#976CEA"/>
<g style="mix-blend-mode:overlay" opacity="0.25">
<g style="mix-blend-mode:overlay" opacity="0.25">
<path d="M161.522 173.643H141.82C139.058 173.959 136.317 174.44 133.613 175.085H167.909C165.826 174.418 163.689 173.935 161.522 173.643Z" fill="white"/>
</g>
<g style="mix-blend-mode:overlay" opacity="0.25">
<path d="M218.969 173.697L217.568 175.085H221.247L218.969 173.697Z" fill="white"/>
</g>
<g style="mix-blend-mode:overlay" opacity="0.25">
<path d="M222.837 181.095H211.477L210.008 182.537H221.759L222.837 181.095Z" fill="white"/>
</g>
<g style="mix-blend-mode:overlay" opacity="0.25">
<path d="M178.07 181.095H121.471C121.067 181.526 120.649 181.998 120.124 182.537H179.418L178.07 181.095Z" fill="white"/>
</g>
<g style="mix-blend-mode:overlay" opacity="0.25">
<path d="M217.271 188.534H203.917L202.448 189.975H216.193L217.271 188.534Z" fill="white"/>
</g>
<g style="mix-blend-mode:overlay" opacity="0.25">
<path d="M185.536 188.534H115.69L114.693 189.975H186.991L185.536 188.534Z" fill="white"/>
</g>
<g style="mix-blend-mode:overlay" opacity="0.25">
<path d="M193.015 195.986H110.731L109.801 197.428H194.457L193.015 195.986Z" fill="white"/>
</g>
<g style="mix-blend-mode:overlay" opacity="0.25">
<path d="M211.652 195.986H196.357L194.901 197.428H210.547L211.652 195.986Z" fill="white"/>
</g>
<g style="mix-blend-mode:overlay" opacity="0.25">
<path d="M126.161 203.748C125.999 204.098 125.837 204.476 125.689 204.88H204.833C205.197 204.395 205.574 203.923 205.951 203.438H106.082C105.785 203.91 105.502 204.395 105.206 204.88H125.42L126.161 203.748Z" fill="white"/>
</g>
<g style="mix-blend-mode:overlay" opacity="0.25">
<path d="M121.107 210.877H101.648L100.799 212.319H120.083L121.107 210.877Z" fill="white"/>
</g>
<g style="mix-blend-mode:overlay" opacity="0.25">
<path d="M185.967 212.319H198.917L200.09 210.877H184.39L185.967 212.319Z" fill="white"/>
</g>
<g style="mix-blend-mode:overlay" opacity="0.25">
<path d="M124.625 212.319H179.876C179.909 211.839 179.909 211.357 179.876 210.877H124.625C124.597 211.357 124.597 211.838 124.625 212.319V212.319Z" fill="white"/>
</g>
<g style="mix-blend-mode:overlay" opacity="0.25">
<path d="M115.811 218.329H97.39L96.5814 219.77H114.801L115.811 218.329Z" fill="white"/>
</g>
<g style="mix-blend-mode:overlay" opacity="0.25">
<path d="M127.468 218.612C127.826 218.975 128.159 219.362 128.465 219.77H175.914V219.703C176.211 219.32 176.53 218.956 176.871 218.612L177.14 218.329H127.212L127.468 218.612Z" fill="white"/>
</g>
<g style="mix-blend-mode:overlay" opacity="0.25">
<path d="M112.16 225.781H93.6437C93.8805 226.302 94.1889 226.787 94.56 227.223H113.116L112.16 225.781Z" fill="white"/>
</g>
<g style="mix-blend-mode:overlay" opacity="0.25">
<path d="M130.931 227.223H173.461C173.461 226.737 173.461 226.252 173.569 225.781H130.837C130.891 226.252 130.918 226.737 130.931 227.223Z" fill="white"/>
</g>
<g style="mix-blend-mode:overlay" opacity="0.25">
<path d="M129.705 234.661H174.687C174.539 234.217 174.391 233.731 174.256 233.219H130.136C130.002 233.731 129.853 234.217 129.705 234.661Z" fill="white"/>
</g>
<g style="mix-blend-mode:overlay" opacity="0.25">
<path d="M117.132 233.219H99.9773C100.435 233.691 100.894 234.176 101.325 234.661H118.048L117.132 233.219Z" fill="white"/>
</g>
<g style="mix-blend-mode:overlay" opacity="0.25">
<path d="M135.015 242.141H167.909C169.162 241.723 170.443 241.238 171.75 240.699H131.538C132.508 241.13 133.681 241.628 135.015 242.141Z" fill="white"/>
</g>
<g style="mix-blend-mode:overlay" opacity="0.25">
<path d="M122.118 240.672H107.295L108.75 242.114H123.034L122.118 240.672Z" fill="white"/>
</g>
<g style="mix-blend-mode:overlay" opacity="0.25">
<path d="M124.288 248.124H114.976L116.472 249.566H123.601L124.288 248.124Z" fill="white"/>
</g>
</g>
<path d="M155.377 173.845L150.445 176.85L145.202 173.845V163.994H155.377V173.845Z" fill="#FFA683"/>
<path d="M155.377 167.902V173.845L154.164 174.586L154.285 173.845C154.77 171.136 155.188 169.021 155.377 167.902Z" fill="#FFA683"/>
<path d="M160.754 152.068V159.52C160.754 159.52 159.258 165.113 155.363 167.902C155.943 164.749 160.093 155.45 160.754 152.068Z" fill="#FFA683"/>
<path d="M155.377 167.902V169.923C154.02 170.941 152.369 171.49 150.674 171.487C148.73 171.529 146.82 170.974 145.202 169.896V167.875C146.82 168.952 148.73 169.507 150.674 169.465C152.369 169.468 154.02 168.92 155.377 167.902V167.902Z" fill="#F48260"/>
<path d="M160.915 153.375H160.754V150.909C160.754 150.909 146.523 151.812 143.949 146.098C143.707 145.572 140.162 152.122 140.162 152.122V153.469C139.343 153.626 138.603 154.062 138.069 154.703C137.536 155.345 137.242 156.152 137.238 156.986C137.333 157.907 137.695 158.78 138.279 159.498C138.863 160.216 139.644 160.748 140.526 161.029C141.362 163.832 143.909 169.492 150.674 169.492C156.199 169.492 159.083 163.967 160.188 161.151H160.349C161.419 161.04 162.417 160.562 163.174 159.798C163.931 159.033 164.4 158.03 164.5 156.96C164.5 156.489 164.407 156.023 164.227 155.588C164.047 155.153 163.783 154.758 163.45 154.425C163.117 154.092 162.722 153.828 162.287 153.648C161.852 153.468 161.386 153.375 160.915 153.375Z" fill="#FFA683"/>
<path d="M160.161 161.205C160.161 161.205 160.295 161.205 160.336 161.205C161.405 161.095 162.404 160.619 163.162 159.858C163.921 159.097 164.394 158.097 164.5 157.027C164.502 156.555 164.41 156.088 164.231 155.651C164.051 155.215 163.788 154.818 163.455 154.484C163.122 154.149 162.726 153.884 162.29 153.703C161.854 153.522 161.387 153.429 160.915 153.429H160.74V150.963C160.74 150.963 146.523 151.852 143.949 146.139C143.72 145.613 140.162 152.162 140.162 152.162V153.51C139.341 153.666 138.599 154.105 138.065 154.749C137.531 155.394 137.239 156.204 137.238 157.04C137.335 157.961 137.698 158.833 138.281 159.551C138.865 160.268 139.645 160.801 140.526 161.083C141.27 163.834 142.917 166.254 145.202 167.956V172.066C128.088 161.771 130.056 139.36 138.613 135.129C142.453 133.242 144.313 134.778 144.313 134.778C157.721 122.974 168.57 136.854 171.885 142.15C176.372 149.4 194.497 196.875 175.685 203.263C141.24 214.96 152.075 171.352 155.377 167.956C158.207 165.005 159.864 162.431 160.161 161.205Z" fill="#441982"/>
</svg>
