<svg width="767" height="577" viewBox="0 0 767 577" fill="none" xmlns="http://www.w3.org/2000/svg">
<circle cx="112.5" cy="89.5" r="63.5" fill="#2D53B8"/>
<path d="M27 239C-7.27162 339.426 75.5014 458.305 144 509.5C192.194 537.786 326.423 578.948 468.329 537.431C645.711 485.534 756.826 339.664 732.729 171.352C708.631 3.03937 608.896 18.468 519.87 101.221C430.844 183.975 359.222 190.287 290.947 200.105C222.671 209.923 69.8394 113.467 27 239Z" fill="#FEB942"/>
<g filter="url(#filter0_d_0_114)">
<path d="M692 60H105C93.9543 60 85 68.9543 85 80V477C85 488.046 93.9543 497 105 497H692C703.046 497 712 488.046 712 477V80C712 68.9543 703.046 60 692 60Z" fill="white"/>
</g>
<path d="M676.971 76.8823H125.697L100.443 208.06L135.11 406.365L149.5 488.533H653.459L681.009 424.086L703.059 340.457L676.971 76.8823Z" fill="#32354B"/>
<path d="M681.23 426.185H137.882L149.692 496.437H658.966L681.23 426.185Z" fill="#6B5B58"/>
<path opacity="0.6" d="M681.24 426.185L566.45 425.325V445.635L642.768 445.463L681.24 426.185Z" fill="#262230"/>
<path d="M472.489 480.753C505.457 480.753 532.182 471.493 532.182 460.07C532.182 448.647 505.457 439.387 472.489 439.387C439.522 439.387 412.797 448.647 412.797 460.07C412.797 471.493 439.522 480.753 472.489 480.753Z" fill="#5B4C4A"/>
<path d="M681.24 426.185L138.667 426.695L136.141 409.772L684.94 411.068L681.24 426.185Z" fill="#32354B"/>
<path d="M684.712 411.068H135.913L135.686 408.477H685.394L684.712 411.068Z" fill="#807F99"/>
<path opacity="0.6" d="M649.626 282.969L681.24 426.185L567.032 426.292L567.985 394.897L644.618 282.969H649.626Z" fill="#262230"/>
<g opacity="0.7">
<g opacity="0.7">
<path opacity="0.7" d="M135.824 87.7573H130.1V290.847H135.824V87.7573Z" fill="#807F99"/>
<path opacity="0.7" d="M232.242 289.943H226.519V93.1812L232.242 87.7573V289.943Z" fill="#807F99"/>
<path opacity="0.7" d="M226.519 93.1813H130.1V87.7573H232.242L226.519 93.1813Z" fill="#807F99"/>
<path opacity="0.7" d="M232.241 285.423H130.1V290.847H232.241V285.423Z" fill="#807F99"/>
<path opacity="0.7" d="M137.933 285.856L135.844 285.938L135.824 93.1812H137.933V285.856Z" fill="#262230"/>
<path opacity="0.7" d="M226.529 285.454L224.854 285.399L224.84 94.4868H226.519L226.529 285.454Z" fill="#5A5A75"/>
<path opacity="0.7" d="M226.519 94.4868H137.933L135.824 93.1812H226.519V94.4868Z" fill="#262230"/>
<path opacity="0.7" d="M226.519 93.1812L232.242 87.7573L226.519 94.4869V93.1812Z" fill="#262230"/>
<path opacity="0.7" d="M135.824 93.1812L130.1 87.7573L135.824 94.4869V93.1812Z" fill="#262230"/>
<path opacity="0.7" d="M135.844 285.428L130.1 290.838L136.924 285.423L135.844 285.428Z" fill="#262230"/>
<path opacity="0.7" d="M226.519 285.899H135.898L137.933 285.348H226.519V285.899Z" fill="#262230"/>
<path opacity="0.7" d="M226.529 285.454L232.24 290.838L224.854 285.399L226.529 285.454Z" fill="#262230"/>
<path opacity="0.7" d="M231.988 290.847L233.225 290.231V88.1197L231.988 87.7573V290.847Z" fill="#262230"/>
<g opacity="0.7">
<path opacity="0.7" d="M216.623 102.826H144.344V103.987H216.623V102.826Z" fill="#807F99"/>
<path opacity="0.7" d="M145.796 103.987H144.344V278.195H145.796V103.987Z" fill="#807F99"/>
<path opacity="0.7" d="M146.479 103.987H145.676V277.323H146.479V103.987Z" fill="#262230"/>
<path opacity="0.7" d="M218.487 102.826H217.081V278.993H218.487V102.826Z" fill="#262230"/>
<g opacity="0.7">
<path opacity="0.7" d="M217.348 277.323H144.344V278.485H217.348V277.323Z" fill="#807F99"/>
<path opacity="0.7" d="M218.488 278.607H144.344V279.306H218.488V278.607Z" fill="#262230"/>
</g>
<path opacity="0.7" d="M217.334 102.826H215.882V277.904H217.334V102.826Z" fill="#807F99"/>
</g>
</g>
<g opacity="0.7">
<g opacity="0.7">
<path opacity="0.7" d="M135.588 315.312H129.865V390.539H135.588V315.312Z" fill="#807F99"/>
<path opacity="0.7" d="M232.05 393.804H226.282V317.417L232.05 315.312V393.804Z" fill="#807F99"/>
<path opacity="0.7" d="M226.282 320.735H129.865V315.312H232.006L226.282 320.735Z" fill="#807F99"/>
<path opacity="0.7" d="M232.553 388.698H129.865V394.122H232.553V388.698Z" fill="#807F99"/>
<path opacity="0.7" d="M137.697 389.159L135.607 389.19L135.588 320.735H137.697V389.159Z" fill="#262230"/>
<path opacity="0.7" d="M226.282 388.902L224.617 388.929L224.604 321.389H226.282V388.902Z" fill="#262230"/>
<path opacity="0.7" d="M226.282 322.04H137.697L135.588 320.735H226.282V322.04Z" fill="#5A5A75"/>
<path opacity="0.7" d="M226.282 320.735L232.006 315.312L226.282 322.04V320.735Z" fill="#5A5A75"/>
<path opacity="0.7" d="M135.588 320.735L129.865 315.312L135.588 322.04V320.735Z" fill="#262230"/>
<path opacity="0.7" d="M135.607 388.708L129.865 394.117L136.687 388.702L135.607 388.708Z" fill="#262230"/>
<path opacity="0.7" d="M226.282 389.175H135.956L137.691 388.622H226.282V389.175Z" fill="#262230"/>
<path opacity="0.7" d="M232.094 393.743L232.554 394.156L232.516 315.452L232.006 315.312L232.094 393.743Z" fill="#262230"/>
<path opacity="0.7" d="M226.282 388.622L232.551 394.155L224.604 388.622H226.282Z" fill="#262230"/>
</g>
<g opacity="0.7">
<g opacity="0.7">
<path opacity="0.7" d="M219.659 328.497H140.864V329.659H219.659V328.497Z" fill="#807F99"/>
<path opacity="0.7" d="M219.659 329.659H140.864V330.166H219.659V329.659Z" fill="#262230"/>
</g>
<g opacity="0.7">
<path opacity="0.7" d="M219.659 381.921H140.864V383.083H219.659V381.921Z" fill="#807F99"/>
<path opacity="0.7" d="M220.377 383.083H140.864V383.59H220.377V383.083Z" fill="#262230"/>
</g>
<g opacity="0.7">
<path opacity="0.7" d="M219.87 328.497H218.709V383.083H219.87V328.497Z" fill="#807F99"/>
<path opacity="0.7" d="M220.377 328.497H219.87V383.59H220.377V328.497Z" fill="#262230"/>
</g>
<path opacity="0.7" d="M142.026 328.497H140.864V383.083H142.026V328.497Z" fill="#807F99"/>
<path opacity="0.7" d="M142.533 329.659H142.026V381.921H142.533V329.659Z" fill="#262230"/>
</g>
</g>
</g>
<g opacity="0.7">
<g opacity="0.7">
<path opacity="0.7" d="M283.025 87.7573H277.302V290.847H283.025V87.7573Z" fill="#807F99"/>
<path opacity="0.7" d="M379.444 289.943H373.72V93.1812L379.444 87.7573V289.943Z" fill="#807F99"/>
<path opacity="0.7" d="M373.72 93.1813H277.302V87.7573H379.444L373.72 93.1813Z" fill="#807F99"/>
<path opacity="0.7" d="M379.443 285.423H277.302V290.847H379.443V285.423Z" fill="#807F99"/>
<path opacity="0.7" d="M285.134 285.856L283.045 285.938L283.025 93.1812H285.134V285.856Z" fill="#262230"/>
<path opacity="0.7" d="M373.731 285.454L372.055 285.399L372.042 94.4868H373.72L373.731 285.454Z" fill="#5A5A75"/>
<path opacity="0.7" d="M373.72 94.4868H285.134L283.025 93.1812H373.72V94.4868Z" fill="#262230"/>
<path opacity="0.7" d="M373.72 93.1812L379.444 87.7573L373.72 94.4869V93.1812Z" fill="#262230"/>
<path opacity="0.7" d="M283.025 93.1812L277.302 87.7573L283.025 94.4869V93.1812Z" fill="#262230"/>
<path opacity="0.7" d="M283.045 285.428L277.302 290.838L284.126 285.423L283.045 285.428Z" fill="#262230"/>
<path opacity="0.7" d="M373.72 285.899H283.1L285.134 285.348H373.72V285.899Z" fill="#262230"/>
<path opacity="0.7" d="M373.731 285.454L379.441 290.838L372.055 285.399L373.731 285.454Z" fill="#122328"/>
<path opacity="0.7" d="M379.189 290.847L380.426 290.231V88.1197L379.189 87.7573V290.847Z" fill="#262230"/>
<g opacity="0.7">
<path opacity="0.7" d="M363.824 102.826H291.545V103.987H363.824V102.826Z" fill="#807F99"/>
<path opacity="0.7" d="M292.997 103.987H291.545V278.195H292.997V103.987Z" fill="#807F99"/>
<path opacity="0.7" d="M293.68 103.987H292.878V277.323H293.68V103.987Z" fill="#262230"/>
<path opacity="0.7" d="M365.688 102.826H364.282V278.993H365.688V102.826Z" fill="#262230"/>
<g opacity="0.7">
<path opacity="0.7" d="M364.55 277.323H291.545V278.485H364.55V277.323Z" fill="#807F99"/>
<path opacity="0.7" d="M365.689 278.607H291.545V279.306H365.689V278.607Z" fill="#262230"/>
</g>
<path opacity="0.7" d="M364.535 102.826H363.083V277.904H364.535V102.826Z" fill="#807F99"/>
</g>
</g>
<g opacity="0.7">
<g opacity="0.7">
<path opacity="0.7" d="M282.789 315.312H277.066V390.539H282.789V315.312Z" fill="#807F99"/>
<path opacity="0.7" d="M379.251 393.804H373.484V317.417L379.251 315.312V393.804Z" fill="#807F99"/>
<path opacity="0.7" d="M373.484 320.735H277.066V315.312H379.208L373.484 320.735Z" fill="#807F99"/>
<path opacity="0.7" d="M379.754 388.698H277.066V394.122H379.754V388.698Z" fill="#807F99"/>
<path opacity="0.7" d="M284.898 389.159L282.808 389.19L282.789 320.735H284.898V389.159Z" fill="#262230"/>
<path opacity="0.7" d="M373.484 388.902L371.819 388.929L371.806 321.389H373.484V388.902Z" fill="#262230"/>
<path opacity="0.7" d="M373.484 322.04H284.898L282.789 320.735H373.484V322.04Z" fill="#5A5A75"/>
<path opacity="0.7" d="M373.484 320.735L379.208 315.312L373.484 322.04V320.735Z" fill="#5A5A75"/>
<path opacity="0.7" d="M282.789 320.735L277.066 315.312L282.789 322.04V320.735Z" fill="#262230"/>
<path opacity="0.7" d="M282.808 388.708L277.066 394.117L283.89 388.702L282.808 388.708Z" fill="#262230"/>
<path opacity="0.7" d="M373.484 389.175H283.157L284.892 388.622H373.484V389.175Z" fill="#262230"/>
<path opacity="0.7" d="M379.295 393.743L379.756 394.156L379.718 315.452L379.208 315.312L379.295 393.743Z" fill="#262230"/>
<path opacity="0.7" d="M373.484 388.622L379.753 394.155L371.806 388.622H373.484Z" fill="#262230"/>
</g>
<g opacity="0.7">
<g opacity="0.7">
<path opacity="0.7" d="M366.861 328.497H288.066V329.659H366.861V328.497Z" fill="#807F99"/>
<path opacity="0.7" d="M366.861 329.659H288.066V330.166H366.861V329.659Z" fill="#262230"/>
</g>
<g opacity="0.7">
<path opacity="0.7" d="M366.861 381.921H288.066V383.083H366.861V381.921Z" fill="#807F99"/>
<path opacity="0.7" d="M367.579 383.083H288.066V383.59H367.579V383.083Z" fill="#262230"/>
</g>
<g opacity="0.7">
<path opacity="0.7" d="M367.072 328.497H365.91V383.083H367.072V328.497Z" fill="#807F99"/>
<path opacity="0.7" d="M367.578 328.497H367.072V383.59H367.578V328.497Z" fill="#262230"/>
</g>
<path opacity="0.7" d="M289.228 328.497H288.066V383.083H289.228V328.497Z" fill="#807F99"/>
<path opacity="0.7" d="M289.735 329.659H289.228V381.921H289.735V329.659Z" fill="#262230"/>
</g>
</g>
</g>
<g opacity="0.7">
<g opacity="0.7">
<path opacity="0.7" d="M430.226 87.7573H424.503V290.847H430.226V87.7573Z" fill="#807F99"/>
<path opacity="0.7" d="M526.646 289.943H520.923V93.1812L526.646 87.7573V289.943Z" fill="#807F99"/>
<path opacity="0.7" d="M520.923 93.1813H424.503V87.7573H526.646L520.923 93.1813Z" fill="#807F99"/>
<path opacity="0.7" d="M526.644 285.423H424.503V290.847H526.644V285.423Z" fill="#807F99"/>
<path opacity="0.7" d="M432.335 285.856L430.247 285.938L430.227 93.1812H432.335V285.856Z" fill="#262230"/>
<path opacity="0.7" d="M520.933 285.454L519.258 285.399L519.244 94.4868H520.923L520.933 285.454Z" fill="#5A5A75"/>
<path opacity="0.7" d="M520.923 94.4868H432.335L430.227 93.1812H520.923V94.4868Z" fill="#262230"/>
<path opacity="0.7" d="M520.923 93.1812L526.646 87.7573L520.923 94.4869V93.1812Z" fill="#262230"/>
<path opacity="0.7" d="M430.227 93.1812L424.503 87.7573L430.227 94.4869V93.1812Z" fill="#262230"/>
<path opacity="0.7" d="M430.247 285.428L424.503 290.838L431.327 285.423L430.247 285.428Z" fill="#262230"/>
<path opacity="0.7" d="M520.923 285.899H430.302L432.335 285.348H520.923V285.899Z" fill="#262230"/>
<path opacity="0.7" d="M520.933 285.454L526.642 290.838L519.258 285.399L520.933 285.454Z" fill="#122328"/>
<path opacity="0.7" d="M526.391 290.847L527.627 290.231V88.1197L526.391 87.7573V290.847Z" fill="#262230"/>
<g opacity="0.7">
<path opacity="0.7" d="M511.026 102.826H438.746V103.987H511.026V102.826Z" fill="#807F99"/>
<path opacity="0.7" d="M440.198 103.987H438.746V278.195H440.198V103.987Z" fill="#807F99"/>
<path opacity="0.7" d="M440.883 103.987H440.08V277.323H440.883V103.987Z" fill="#262230"/>
<path opacity="0.7" d="M512.889 102.826H511.484V278.993H512.889V102.826Z" fill="#262230"/>
<g opacity="0.7">
<path opacity="0.7" d="M511.752 277.323H438.746V278.485H511.752V277.323Z" fill="#807F99"/>
<path opacity="0.7" d="M512.89 278.607H438.746V279.306H512.89V278.607Z" fill="#262230"/>
</g>
<path opacity="0.7" d="M511.736 102.826H510.285V277.904H511.736V102.826Z" fill="#807F99"/>
</g>
</g>
<g opacity="0.7">
<g opacity="0.7">
<path opacity="0.7" d="M429.99 315.312H424.267V390.539H429.99V315.312Z" fill="#807F99"/>
<path opacity="0.7" d="M526.454 393.804H520.687V317.417L526.454 315.312V393.804Z" fill="#807F99"/>
<path opacity="0.7" d="M520.687 320.735H424.267V315.312H526.41L520.687 320.735Z" fill="#807F99"/>
<path opacity="0.7" d="M526.956 388.698H424.267V394.122H526.956V388.698Z" fill="#807F99"/>
<path opacity="0.7" d="M432.099 389.159L430.011 389.19L429.99 320.735H432.099V389.159Z" fill="#262230"/>
<path opacity="0.7" d="M520.687 388.902L519.021 388.929L519.008 321.389H520.687V388.902Z" fill="#262230"/>
<path opacity="0.7" d="M520.687 322.04H432.099L429.99 320.735H520.687V322.04Z" fill="#5A5A75"/>
<path opacity="0.7" d="M520.687 320.735L526.41 315.312L520.687 322.04V320.735Z" fill="#5A5A75"/>
<path opacity="0.7" d="M429.99 320.735L424.267 315.312L429.99 322.04V320.735Z" fill="#262230"/>
<path opacity="0.7" d="M430.011 388.708L424.267 394.117L431.091 388.702L430.011 388.708Z" fill="#262230"/>
<path opacity="0.7" d="M520.687 389.175H430.359L432.094 388.622H520.687V389.175Z" fill="#262230"/>
<path opacity="0.7" d="M526.498 393.743L526.958 394.156L526.92 315.452L526.41 315.312L526.498 393.743Z" fill="#262230"/>
<path opacity="0.7" d="M520.687 388.622L526.954 394.155L519.008 388.622H520.687Z" fill="#262230"/>
</g>
<g opacity="0.7">
<g opacity="0.7">
<path opacity="0.7" d="M514.063 328.497H435.268V329.659H514.063V328.497Z" fill="#807F99"/>
<path opacity="0.7" d="M514.063 329.659H435.268V330.166H514.063V329.659Z" fill="#262230"/>
</g>
<g opacity="0.7">
<path opacity="0.7" d="M514.063 381.921H435.268V383.083H514.063V381.921Z" fill="#807F99"/>
<path opacity="0.7" d="M514.781 383.083H435.268V383.59H514.781V383.083Z" fill="#262230"/>
</g>
<g opacity="0.7">
<path opacity="0.7" d="M514.274 328.497H513.112V383.083H514.274V328.497Z" fill="#807F99"/>
<path opacity="0.7" d="M514.781 328.497H514.274V383.59H514.781V328.497Z" fill="#262230"/>
</g>
<path opacity="0.7" d="M436.43 328.497H435.268V383.083H436.43V328.497Z" fill="#807F99"/>
<path opacity="0.7" d="M436.937 329.659H436.43V381.921H436.937V329.659Z" fill="#262230"/>
</g>
</g>
</g>
<g opacity="0.7">
<g opacity="0.7">
<path opacity="0.7" d="M577.428 87.7573H571.705V290.847H577.428V87.7573Z" fill="#807F99"/>
<path opacity="0.7" d="M673.847 289.943H668.124V93.1812L673.847 87.7573V289.943Z" fill="#807F99"/>
<path opacity="0.7" d="M668.124 93.1813H571.705V87.7573H673.847L668.124 93.1813Z" fill="#807F99"/>
<path opacity="0.7" d="M673.846 285.423H571.705V290.847H673.846V285.423Z" fill="#807F99"/>
<path opacity="0.7" d="M579.538 285.856L577.449 285.938L577.428 93.1812H579.538V285.856Z" fill="#262230"/>
<path opacity="0.7" d="M668.134 285.454L666.459 285.399L666.445 94.4868H668.124L668.134 285.454Z" fill="#5A5A75"/>
<path opacity="0.7" d="M668.124 94.4868H579.538L577.428 93.1812H668.124V94.4868Z" fill="#262230"/>
<path opacity="0.7" d="M668.124 93.1812L673.847 87.7573L668.124 94.4869V93.1812Z" fill="#262230"/>
<path opacity="0.7" d="M577.428 93.1812L571.705 87.7573L577.428 94.4869V93.1812Z" fill="#262230"/>
<path opacity="0.7" d="M577.448 285.428L571.705 290.838L578.528 285.423L577.448 285.428Z" fill="#262230"/>
<path opacity="0.7" d="M668.124 285.899H577.503L579.538 285.348H668.124V285.899Z" fill="#262230"/>
<path opacity="0.7" d="M668.134 285.454L673.844 290.838L666.459 285.399L668.134 285.454Z" fill="#122328"/>
<path opacity="0.7" d="M673.593 290.847L674.828 290.231V88.1197L673.593 87.7573V290.847Z" fill="#262230"/>
<g opacity="0.7">
<path opacity="0.7" d="M658.227 102.826H585.948V103.987H658.227V102.826Z" fill="#807F99"/>
<path opacity="0.7" d="M587.399 103.987H585.948V278.195H587.399V103.987Z" fill="#807F99"/>
<path opacity="0.7" d="M588.084 103.987H587.281V277.324H588.084V103.987Z" fill="#262230"/>
<path opacity="0.7" d="M660.091 102.826H658.686V278.993H660.091V102.826Z" fill="#262230"/>
<g opacity="0.7">
<path opacity="0.7" d="M658.953 277.324H585.948V278.485H658.953V277.324Z" fill="#807F99"/>
<path opacity="0.7" d="M660.091 278.607H585.948V279.305H660.091V278.607Z" fill="#262230"/>
</g>
<path opacity="0.7" d="M658.938 102.826H657.487V277.904H658.938V102.826Z" fill="#807F99"/>
</g>
</g>
<g opacity="0.7">
<g opacity="0.7">
<path opacity="0.7" d="M577.192 315.312H571.468V390.539H577.192V315.312Z" fill="#807F99"/>
<path opacity="0.7" d="M673.656 393.804H667.888V317.417L673.656 315.312V393.804Z" fill="#807F99"/>
<path opacity="0.7" d="M667.888 320.735H571.468V315.312H673.611L667.888 320.735Z" fill="#807F99"/>
<path opacity="0.7" d="M674.157 388.698H571.468V394.122H674.157V388.698Z" fill="#807F99"/>
<path opacity="0.7" d="M579.301 389.159L577.212 389.19L577.192 320.735H579.301V389.159Z" fill="#262230"/>
<path opacity="0.7" d="M667.888 388.902L666.223 388.929L666.209 321.389H667.888V388.902Z" fill="#262230"/>
<path opacity="0.7" d="M667.888 322.04H579.301L577.192 320.735H667.888V322.04Z" fill="#5A5A75"/>
<path opacity="0.7" d="M667.888 320.735L673.611 315.312L667.888 322.04V320.735Z" fill="#5A5A75"/>
<path opacity="0.7" d="M577.192 320.735L571.468 315.312L577.192 322.04V320.735Z" fill="#262230"/>
<path opacity="0.7" d="M577.212 388.708L571.468 394.117L578.292 388.702L577.212 388.708Z" fill="#262230"/>
<path opacity="0.7" d="M667.888 389.175H577.561L579.295 388.622H667.888V389.175Z" fill="#262230"/>
<path opacity="0.7" d="M673.7 393.743L674.159 394.156L674.121 315.452L673.611 315.312L673.7 393.743Z" fill="#262230"/>
<path opacity="0.7" d="M667.888 388.622L674.155 394.155L666.209 388.622H667.888Z" fill="#262230"/>
</g>
<g opacity="0.7">
<g opacity="0.7">
<path opacity="0.7" d="M661.264 328.497H582.47V329.659H661.264V328.497Z" fill="#807F99"/>
<path opacity="0.7" d="M661.264 329.659H582.47V330.166H661.264V329.659Z" fill="#262230"/>
</g>
<g opacity="0.7">
<path opacity="0.7" d="M661.264 381.921H582.47V383.083H661.264V381.921Z" fill="#807F99"/>
<path opacity="0.7" d="M661.983 383.083H582.47V383.59H661.983V383.083Z" fill="#262230"/>
</g>
<g opacity="0.7">
<path opacity="0.7" d="M661.475 328.497H660.313V383.083H661.475V328.497Z" fill="#807F99"/>
<path opacity="0.7" d="M661.982 328.497H661.475V383.59H661.982V328.497Z" fill="#262230"/>
</g>
<path opacity="0.7" d="M583.631 328.497H582.47V383.083H583.631V328.497Z" fill="#807F99"/>
<path opacity="0.7" d="M584.138 329.659H583.631V381.921H584.138V329.659Z" fill="#262230"/>
</g>
</g>
</g>
<path d="M388.612 456.448C388.612 456.448 373.216 464.797 351.499 473.798C329.783 482.798 297.193 487.501 297.193 487.501L176.092 470.082L204.213 461.972L201.037 450.903L265.628 438.125L388.612 456.448Z" fill="#5B4C4A"/>
<path d="M207.813 283.01C207.813 283.01 203.369 283.881 203.949 287.365C204.53 290.849 246.112 434.195 246.112 434.195L249.523 435.64L207.813 283.01Z" fill="#A8711B"/>
<path d="M234.404 380.638L245.598 377.529L210.026 282.275L207.813 283.01L234.404 380.638Z" fill="#996117"/>
<path d="M209.122 283.01C209.122 283.01 209.497 281.2 213.443 282.371C217.893 283.693 232.614 296.365 265.923 293.97C299.233 291.575 332.107 281.301 334.719 281.539C337.332 281.777 345.822 278.945 345.605 286.349C345.387 293.752 341.033 323.15 341.686 331.425C342.339 339.699 341.033 359.515 344.516 362.782C347.999 366.048 337.13 360.761 336.461 371.099C336.1 376.697 337.766 379.668 337.766 379.668L301.581 385.23L262.673 382.825L241.521 376.451L209.122 283.01Z" fill="#D0A53D"/>
<path d="M348.029 363.037C358.341 363.762 377.964 359.818 384.574 358.753C394.668 357.13 394.277 356.634 417.012 354.942C417.012 354.942 406.894 355.745 403.734 364.959C399.622 376.944 391.107 396.97 390.671 400.236C390.671 400.236 391.568 388.182 386.861 384.666C376.398 376.851 356.491 380.638 350.177 380.638C345.123 380.638 337.333 379.783 337.333 379.783C337.333 379.783 331.671 363.009 344.517 362.782" fill="#A8711B"/>
<path d="M336.09 375.258C336.725 375.117 371.94 376.211 387.349 373.565C395.84 372.107 403.024 366.438 403.024 366.438L390.714 399.374C390.714 399.374 387.894 383.278 376.138 381.536C364.382 379.794 337.332 379.782 337.332 379.782L336.09 375.258Z" fill="#996117"/>
<path d="M385.881 425.061C386.316 424.843 393.791 422.276 393.791 422.276C393.791 422.276 401.883 400.672 404.713 395.663C407.544 390.655 418.645 362.346 419.08 361.257C419.516 360.169 420.768 354.923 416.577 354.942C411.894 354.964 408.239 357.103 405.693 360.822C398.344 371.556 390.714 399.374 390.714 399.374L385.881 425.061Z" fill="#DBB45B"/>
<path d="M385.881 425.061L384.411 457.255L381.073 454.848L378.212 428.379L385.881 425.061Z" fill="#785448"/>
<path d="M306.645 402.868L388.483 386.523C388.483 386.523 391.964 392.726 390.5 400.51C389.035 408.293 385.881 425.061 385.881 425.061C385.881 425.061 369.625 432.844 349.669 438.489C333.167 443.157 302.91 446.863 302.91 446.863L306.645 402.868Z" fill="#A8711B"/>
<path d="M249.523 435.64L291.613 450.684L281.956 373.065C281.956 373.065 278.691 371.776 273.471 373.065C263.969 375.413 248.436 380.802 237.476 379.114L232.814 378.777L249.523 435.64Z" fill="#A8711B"/>
<path d="M384.411 457.255L386.951 456.228L390.287 423.487L385.881 425.061L384.411 457.255Z" fill="#A4836D"/>
<path d="M291.613 450.684L295.532 487.281L299.015 486.064V448.18L291.613 450.684Z" fill="#785448"/>
<path d="M330.635 398.222L307.038 402.952L303.561 446.863L308.917 446.071C308.917 446.071 311.043 426.604 319.316 417.317C327.589 408.03 330.635 398.222 330.635 398.222Z" fill="#996117"/>
<path d="M388.483 386.524L306.362 403.131L300.648 385.229C300.648 385.229 333.184 379.233 337.985 379.223C342.991 379.21 371.947 379.21 376.753 380.157C381.357 381.064 386.66 382.575 388.483 386.524Z" fill="#E8C886"/>
<path d="M293.287 485.779L295.532 487.281L291.613 450.684L287.384 449.173L293.287 485.779Z" fill="#A4836D"/>
<path d="M255.359 437.726L248.18 461.753L249.757 461.181L260.545 439.58L255.359 437.726Z" fill="#785448"/>
<path d="M250.69 436.057L246.322 460.58L248.18 461.753L255.359 437.726L250.69 436.057Z" fill="#A4836D"/>
<path d="M291.613 450.684L303.561 446.863C308.597 420.672 307.918 419.904 308.067 412.124C308.213 404.575 302.279 375.556 292.918 372.254C283.556 368.952 281.27 373.325 281.27 373.325C281.27 373.325 288.256 384.094 291.568 405.78C293.261 416.864 291.613 450.684 291.613 450.684Z" fill="#DBB45B"/>
<path d="M282.141 373.779C281.769 373.325 281.27 373.325 281.27 373.325C281.456 376.796 283.811 404.405 285.112 412.124C286.505 420.383 291.613 450.684 291.613 450.684L291.99 450.557L293.194 450.179C293.802 442.502 293.314 419.464 292.407 408.139C291.092 391.72 282.725 374.13 282.141 373.779C282.372 374.06 282.141 373.779 282.141 373.779Z" fill="#996117"/>
<path d="M275.914 300.035C251.67 303.659 232.847 298.73 228.172 298.363C223.496 297.996 221.449 302.262 225.878 312.905C227.943 317.865 241.085 362.919 242.387 367.105C243.556 370.866 245.47 375.556 247.118 376.974C250.828 380.166 281.956 373.065 281.956 373.065C281.956 373.065 273.842 358.893 272.069 334.645C270.622 314.826 279.447 299.506 275.914 300.035Z" fill="#C49837"/>
<path d="M304.413 391.176C303.628 389.177 303.215 387.11 302.552 385.603C298.053 375.368 297.074 375.25 293.099 372.255C292.902 372.107 285.571 368.072 264.879 374.486C252.41 378.351 250.315 377.262 248.084 377.11C245.503 376.935 239.195 374.379 234.356 376.805C230.709 378.634 234.617 382.119 239.417 382.119C245.339 382.119 258.553 378.682 268.971 375.522C276.11 373.358 280.31 373.127 281.27 373.326C281.405 373.354 286.331 371.764 289.32 372.852C293.841 374.497 297.942 378.916 303.09 393.732C304.615 398.124 306.556 405.531 306.689 415.001C306.867 427.742 304.675 442.923 302.343 447.254L303.741 446.864C303.741 446.864 307.673 428.718 308.25 421.46C308.828 414.201 307.632 399.374 304.413 391.176Z" fill="#EDCD89"/>
<path d="M412.601 355.533C412.601 355.533 417.061 354.246 418.58 355.563C419.633 356.476 420.223 358.366 419.08 361.257C417.938 364.148 410.451 382.579 409.376 385.291C408.085 388.541 393.791 422.276 393.791 422.276L393.151 422.496C393.151 422.496 401.984 399.154 403.894 395.364C405.556 392.068 414.305 369.74 414.961 367.892C415.616 366.045 417.011 361.626 417.011 360.271C417.012 358.508 418.184 356.065 412.601 355.533Z" fill="#EDCD89"/>
<path d="M209.593 284.37C209.593 284.37 211.674 283.962 213.945 284.924C215.306 285.5 221.115 288.276 225.919 290.035C230.201 291.603 233.913 292.647 235.208 292.836C239.283 293.43 247.119 293.708 247.119 293.708C247.119 293.708 243.348 293.286 239.717 292.577C237.944 292.231 236.204 291.789 234.954 291.448C233.009 290.917 229.546 289.963 226.282 288.576C222.747 287.072 219.716 285.538 218.28 284.804C216.471 283.879 214.401 282.56 212.641 282.161C210.33 281.64 208.394 282.275 209.593 284.37Z" fill="#EDCD89"/>
<path d="M649.626 278.832H555.14V282.969H649.626V278.832Z" fill="#C6C0BD"/>
<path d="M644.618 282.969H560.365V387.929H644.618V282.969Z" fill="#3A2610"/>
<path d="M638.305 285.8H567.985V303.656H638.305V285.8Z" fill="#613717"/>
<path d="M638.305 306.705H567.985V383.356H638.305V306.705Z" fill="#613717"/>
<path d="M625.896 371.597H579.088V317.375H625.896V371.597ZM579.959 370.726H625.025V318.246H579.959V370.726Z" fill="#211608"/>
<g opacity="0.3">
<g opacity="0.3">
<path opacity="0.3" d="M630.986 347.934C628.992 347.934 627.431 345.001 627.431 341.257C627.431 337.511 628.992 334.578 630.986 334.578C632.981 334.578 634.542 337.511 634.542 341.257C634.542 345.001 632.981 347.934 630.986 347.934ZM630.986 335.449C629.69 335.449 628.302 337.783 628.302 341.257C628.302 344.73 629.69 347.063 630.986 347.063C632.283 347.063 633.671 344.73 633.671 341.257C633.671 337.783 632.283 335.449 630.986 335.449Z" fill="#211608"/>
</g>
</g>
<path d="M637.509 387.928H567.985V394.897H637.509V387.928Z" fill="#512F1C"/>
<path d="M560.365 387.928H568.402L566.45 445.634H561.743L560.365 387.928Z" fill="#613717"/>
<path d="M636.999 387.928H644.618L642.768 445.199H638.305L636.999 387.928Z" fill="#613717"/>
<path d="M570.053 394.897L567.985 431.045H566.606L567.985 394.897H570.053Z" fill="#28190B"/>
<g opacity="0.4">
<path opacity="0.4" d="M603.228 297.953C599.484 297.953 596.551 296.39 596.551 294.396C596.551 292.402 599.484 290.839 603.228 290.839C606.971 290.839 609.904 292.402 609.904 294.396C609.904 296.39 606.971 297.953 603.228 297.953ZM603.228 291.71C599.755 291.71 597.422 293.099 597.422 294.396C597.422 295.692 599.755 297.082 603.228 297.082C606.701 297.082 609.033 295.692 609.033 294.396C609.033 293.099 606.701 291.71 603.228 291.71Z" fill="#2D1C0C"/>
</g>
<g opacity="0.4">
<g opacity="0.4">
<path opacity="0.4" d="M602.891 295.014C605.726 295.014 608.025 294.136 608.025 293.054C608.025 291.971 605.726 291.094 602.891 291.094C600.055 291.094 597.756 291.971 597.756 293.054C597.756 294.136 600.055 295.014 602.891 295.014Z" fill="#2D1C0C"/>
</g>
</g>
<path d="M558.406 275.347L555.14 278.831H649.626L647.33 275.345L558.406 275.347Z" fill="#B7AEA9"/>
<path d="M602.383 297.589C598.639 297.589 595.706 296.027 595.706 294.033C595.706 292.038 598.639 290.476 602.383 290.476C606.127 290.476 609.059 292.038 609.059 294.033C609.059 296.027 606.127 297.589 602.383 297.589ZM602.383 291.347C598.91 291.347 596.577 292.736 596.577 294.033C596.577 295.329 598.91 296.718 602.383 296.718C605.856 296.718 608.188 295.329 608.188 294.033C608.188 292.736 605.856 291.347 602.383 291.347Z" fill="#3B2714"/>
<path d="M602.329 294.395C605.165 294.395 607.463 293.518 607.463 292.435C607.463 291.353 605.165 290.476 602.329 290.476C599.493 290.476 597.195 291.353 597.195 292.435C597.195 293.518 599.493 294.395 602.329 294.395Z" fill="#211608"/>
<path d="M631.844 347.384C629.85 347.384 628.289 344.451 628.289 340.706C628.289 336.961 629.85 334.027 631.844 334.027C633.838 334.027 635.4 336.961 635.4 340.706C635.4 344.451 633.838 347.384 631.844 347.384ZM631.844 334.898C630.548 334.898 629.159 337.233 629.159 340.706C629.159 344.179 630.548 346.513 631.844 346.513C633.141 346.513 634.529 344.179 634.529 340.706C634.529 337.233 633.141 334.898 631.844 334.898Z" fill="#3B2714"/>
<path d="M567.985 285.8H567.332V383.356H567.985V285.8Z" fill="#211608"/>
<path d="M638.305 306.705H567.985V307.461H638.305V306.705Z" fill="#211608"/>
<path opacity="0.4" d="M630.627 341.003C630.718 343.947 631.668 346.307 632.75 346.273C633.832 346.24 634.636 343.826 634.546 340.882C634.455 337.938 633.505 335.579 632.423 335.612C631.341 335.645 630.537 338.059 630.627 341.003Z" fill="#2D1C0C"/>
<path d="M638.448 306.705H637.509V383.356H638.448V306.705Z" fill="#2D1D0D"/>
<path d="M638.305 382.66H567.985V383.355H638.305V382.66Z" fill="#2D1D0D"/>
<path d="M567.985 387.928V394.897H568.402L568.584 387.928H567.985Z" fill="#211608"/>
<path d="M636.999 387.928V394.897H636.582L636.4 387.928H636.999Z" fill="#211608"/>
<path d="M579.916 317.296H579.131V371.627H579.916V317.296Z" fill="#3A2610"/>
<path d="M638.448 285.8H567.332V286.484H638.448V285.8Z" fill="#2D1C0C"/>
<path d="M638.448 285.8H637.978V303.656H638.448V285.8Z" fill="#211608"/>
<path d="M633.44 345.818C634.522 345.818 635.4 343.39 635.4 340.394C635.4 337.399 634.522 334.971 633.44 334.971C632.358 334.971 631.481 337.399 631.481 340.394C631.481 343.39 632.358 345.818 633.44 345.818Z" fill="#211608"/>
<g opacity="0.5">
<path opacity="0.5" d="M644.618 284.197H560.365L555.14 282.969H644.618V284.197Z" fill="#2D1C0C"/>
</g>
<path d="M638.469 303.416H567.985V303.897H638.469V303.416Z" fill="#2D1D0D"/>
<path opacity="0.8" d="M636.7 387.928H568.402V389.265H636.7V387.928Z" fill="#211608"/>
<path d="M568.584 367.081C568.584 367.427 568.304 367.707 567.958 367.707C567.613 367.707 567.332 367.428 567.332 367.081V359.623C567.332 359.278 567.612 358.997 567.958 358.997C568.303 358.997 568.584 359.277 568.584 359.623V367.081Z" fill="#211608"/>
<path d="M568.285 328.102C568.285 328.448 568.004 328.729 567.659 328.729C567.314 328.729 567.032 328.449 567.032 328.102V320.645C567.032 320.299 567.313 320.018 567.659 320.018C568.003 320.018 568.285 320.298 568.285 320.645V328.102Z" fill="#211608"/>
<path opacity="0.1" d="M356.305 225.116L241.895 497.047H579.251L476.142 226.482L356.305 225.116Z" fill="#EDB824"/>
<path d="M357.584 228.604L376.35 232.437L387.026 235.709L396.251 233.679L410.642 236.632L425.957 234.601L436.75 236.632L452.215 234.904L464.794 232.291L475.298 229.737L476.142 226.482L415.857 227.555L356.306 225.116" fill="#E2B887"/>
<path d="M418.022 60.2544H416.177V160.968H418.022V60.2544Z" fill="#FBF7F4"/>
<path d="M409.904 165.397H423.373L418.022 160.968H416.177L409.904 165.397Z" fill="#FBF7F4"/>
<path d="M409.996 165.397L356.306 208.766L366.453 206.735L409.996 165.397Z" fill="#FBF7F4"/>
<path d="M376.97 227.22L390.623 205.259L414.609 165.397H409.996L366.453 206.735L376.97 227.22Z" fill="#E6DEDB"/>
<path d="M406.951 227.22L391.245 204.073L414.517 165.397H416.177L406.951 227.22Z" fill="#BDAFAA"/>
<path d="M419.129 165.397L423.373 206.366L406.951 227.22L416.177 165.397H419.129Z" fill="#E6DEDB"/>
<path d="M439.424 228.05L419.868 165.397H419.129L423.373 206.366L439.424 228.05Z" fill="#AEA095"/>
<path d="M453.723 206.735L439.332 228.05L419.774 165.397H422.635L453.723 206.735Z" fill="#E3DAD5"/>
<path d="M453.723 206.735L464.794 228.604L476.142 210.426L423.465 165.397H422.635L453.723 206.735Z" fill="#C7BAB2"/>
<path d="M406.714 227.22L406.951 227.359L422.635 229.735L423.373 206.366L406.714 227.22Z" fill="#C6BAB2"/>
<path d="M439.424 228.05L438.421 228.181L422.635 229.738L423.373 206.366L439.424 228.05Z" fill="#DED4CF"/>
<path d="M391.245 204.073L376.877 227.22L393.668 229.735L391.245 204.073Z" fill="#EDE8E6"/>
<path d="M406.951 227.22L393.668 229.735L391.245 204.073L406.951 227.22Z" fill="#DED4CF"/>
<path d="M439.424 228.05L449.226 230.772L453.723 206.735L439.424 228.05Z" fill="#756258"/>
<path d="M465.06 228.604L449.158 230.772L453.655 206.735L465.06 228.604Z" fill="#9F8D85"/>
<path d="M376.97 227.146L356.306 225.116V208.692L366.453 206.661L376.97 227.146Z" fill="#FBF7F4"/>
<path d="M476.184 210.325L464.794 228.604L476.142 226.481L476.184 210.325Z" fill="#756258"/>
<path d="M515.222 399.632C514.98 398.716 512.496 398.443 510.724 398.916C508.952 399.388 506.866 400.597 507.112 401.512L512.812 420.286C515.405 421.731 518.254 422.664 520.84 424.124L515.222 399.632Z" fill="#724E44"/>
<path d="M507.046 399.67C506.645 398.16 504.012 397.317 502.239 397.79C500.467 398.262 498.485 399.869 498.89 401.38L504.157 419.616L513.399 425.724L507.046 399.67Z" fill="#785448"/>
<path d="M436.202 399.761C436.606 398.251 434.625 396.644 432.853 396.172C431.08 395.699 428.445 396.541 428.045 398.052L423.272 417.625C426.022 416.742 428.869 415.927 431.771 415.1L436.202 399.761Z" fill="#785448"/>
<path d="M449.678 397.516C449.924 396.6 447.838 395.391 446.066 394.919C444.294 394.446 441.81 394.72 441.568 395.635L435.693 421.254C438.516 419.944 441.168 418.304 443.83 416.78L449.678 397.516Z" fill="#785448"/>
<path d="M470.489 403.289C512.664 403.289 546.853 399.354 546.853 394.5C546.853 389.647 512.664 385.712 470.489 385.712C428.314 385.712 394.125 389.647 394.125 394.5C394.125 399.354 428.314 403.289 470.489 403.289Z" fill="#6D4B41"/>
<path d="M470.289 401.929C512.353 401.929 546.453 397.994 546.453 393.14C546.453 388.286 512.353 384.351 470.289 384.351C428.225 384.351 394.125 388.286 394.125 393.14C394.125 397.994 428.225 401.929 470.289 401.929Z" fill="#A4836D"/>
<path d="M423.272 417.625L409.181 475.413C408.778 476.923 409.017 478.531 410.789 479.003C412.561 479.476 413.453 478.633 413.855 477.123L431.77 415.1C428.869 415.927 426.022 416.742 423.272 417.625Z" fill="#A4836D"/>
<path d="M435.692 421.254L430.776 442.685C430.532 443.6 430.923 444.639 432.695 445.111C434.466 445.584 435.253 445.138 435.496 444.223L443.828 416.779C441.167 418.304 438.515 419.944 435.692 421.254Z" fill="#A4836D"/>
<path d="M526.013 446.681L520.84 424.124C518.254 422.664 515.405 421.731 512.812 420.286L521.294 448.221C521.537 449.135 522.323 449.581 524.094 449.108C525.866 448.635 526.257 447.596 526.013 446.681Z" fill="#A4836D"/>
<path d="M525.912 477.032L513.4 425.724L504.159 419.616L521.237 478.741C521.639 480.251 522.531 481.094 524.303 480.621C526.074 480.149 526.313 478.541 525.912 477.032Z" fill="#A4836D"/>
<path opacity="0.4" d="M470.717 394.156C476.46 394.156 481.116 393.528 481.116 392.754C481.116 391.98 476.46 391.353 470.717 391.353C464.974 391.353 460.319 391.98 460.319 392.754C460.319 393.528 464.974 394.156 470.717 394.156Z" fill="#262230"/>
<path opacity="0.6" d="M461.956 366.542C461.81 369.209 461.956 375.731 461.956 375.731H462.637C462.637 375.731 462.505 368.168 462.734 366.393C462.82 365.731 463.057 365.137 463.366 364.613H462.572C462.238 365.187 461.994 365.833 461.956 366.542Z" fill="#F2FFFF"/>
<path opacity="0.6" d="M462.735 376.754H461.891V390.624H462.735V376.754Z" fill="#F2FFFF"/>
<path d="M469.584 368.404C466.946 366.986 469.546 365.44 469.572 365.424L470.288 365.696C470.199 365.748 468.151 366.979 470.275 368.119L469.584 368.404Z" fill="#DDD43A"/>
<path d="M474.698 368.667C474.698 368.041 472.445 367.533 469.668 367.533C466.891 367.533 464.638 368.041 464.638 368.667V381.565C468.163 380.164 471.573 378.733 474.699 377.258V368.667H474.698Z" fill="#F4F2EA"/>
<path d="M464.637 381.564V391.467C464.637 392.094 466.89 392.602 469.667 392.602C472.444 392.602 474.697 392.094 474.697 391.467V377.257C471.573 378.732 468.162 380.163 464.637 381.564Z" fill="#E8E6DF"/>
<path opacity="0.4" d="M478.608 364.206H460.261C459.828 365.16 459.531 366.246 459.504 367.528C459.414 371.97 459.493 390.574 459.493 390.574C459.493 390.574 459.461 393.673 463.569 393.586C466.551 393.523 472.328 393.785 475.302 393.586C479.409 393.313 479.376 390.574 479.376 390.574C479.376 390.574 479.456 371.97 479.366 367.528C479.339 366.245 479.042 365.159 478.608 364.206Z" fill="#F2FFFF"/>
<path d="M640.102 141.597C638.482 143.666 636.961 145.866 635.484 148.114C631.679 153.911 628.157 160.037 624.877 166.328C621.294 173.205 617.951 180.329 615.187 187.74C612.222 195.696 609.862 204.186 608.792 212.633C608.583 214.287 605.329 250.615 605.224 252.261L606.011 252.58C606.145 250.63 608.987 213.474 609.273 211.52C611.664 195.153 618.251 179.629 625.716 165.506C628.988 159.318 632.475 153.276 636.271 147.585C637.666 145.494 639.099 143.428 640.633 141.509C641.593 140.314 642.612 139.053 643.761 138.208C643.701 138.253 643.524 137.954 643.46 138.001C642.223 138.911 641.125 140.294 640.102 141.597Z" fill="#090C14"/>
<path d="M589.387 176.779C590.365 178.977 591.826 187.572 592.314 188.667C592.742 189.625 602.342 219.087 607.519 227.164L608.208 219.954C606.091 214.043 598.976 194.258 596.795 190.073C594.182 185.065 588.316 172.329 586.738 168.44" fill="#090C14"/>
<path d="M611.655 198.606C611.655 198.606 610.336 173.787 610.82 168.472C611.305 163.16 612.987 149.31 615.162 142.749C617.334 136.186 622.064 126.765 623.268 124.858C624.475 122.954 614.787 136.728 614.674 153.806C614.584 167.322 612.523 181.157 612.895 186.065C613.267 190.972 612.561 195.393 612.561 195.393L611.655 198.606Z" fill="#090C14"/>
<path d="M614.867 189.644C614.867 189.644 613.881 174.343 615.66 164.516C617.441 154.685 619.567 143.679 621.757 138.672C623.949 133.664 629.213 125.028 629.213 125.028C629.213 125.028 622.119 137.613 621.016 145.42C619.915 153.224 616.14 184.502 615.684 186.288C615.228 188.084 614.867 189.644 614.867 189.644Z" fill="#090C14"/>
<path d="M617.518 182.343C617.518 182.343 618.357 169.23 620.452 161.749C622.547 154.265 632.302 131.57 636.545 128.619C636.545 128.619 627.922 141.591 624.986 153.124C622.052 164.656 618.516 178.538 618.672 178.978C618.827 179.42 617.518 182.343 617.518 182.343Z" fill="#090C14"/>
<path d="M608.467 216.176C608.467 216.176 599.087 190.964 600.705 177.532C602.323 164.097 604.489 144.709 605.906 137.598C607.324 130.482 602.958 162.934 603.371 166.32C603.783 169.708 605.185 192.255 605.418 196.151C605.886 203.99 608.427 211.716 608.874 213.21L608.467 216.176Z" fill="#090C14"/>
<path d="M609.08 210.552C609.08 210.552 603.858 182.466 607.213 160.289C608.12 154.312 609.27 150.216 609.915 146.002C611.456 135.921 611.332 132.968 611.316 131.588C611.3 130.033 613.27 136.58 608.977 156.532C606.443 168.305 609.42 180.481 609.454 186.572C609.49 192.665 609.625 207.167 609.625 207.167L609.08 210.552Z" fill="#090C14"/>
<path d="M620.472 175.455C620.472 175.455 623.429 160.175 628.593 150.059C633.761 139.944 638.877 131.235 640.518 130.354C642.159 129.474 636.756 132.747 631.329 145.953C625.905 159.161 622.698 171.116 622.098 172.359C621.5 173.601 620.472 175.455 620.472 175.455Z" fill="#090C14"/>
<path d="M624.137 168.268C624.137 168.268 631.349 148.171 634.613 142.414C637.88 136.664 641.054 130.979 641.45 128.389C641.843 125.799 642.829 128.662 635.467 143.23C627.156 159.681 627.695 161.571 627.67 161.616C627.646 161.662 624.137 168.268 624.137 168.268Z" fill="#090C14"/>
<path d="M629.505 158.356C629.563 158.253 634.038 149.458 645.275 147.006C656.51 144.553 656.18 147.352 656.76 146.577C657.341 145.798 648.412 145.32 641.581 149.515C633.864 154.251 626.784 163.775 626.562 163.7C626.346 163.623 629.505 158.356 629.505 158.356Z" fill="#090C14"/>
<path d="M625.517 166.209C625.517 166.209 633.725 154.624 643.046 151.778C650.979 149.352 649.8 150.308 649.8 150.308C649.8 150.308 641.697 151.625 637.053 155.645C632.872 159.265 623.468 169.585 623.468 169.585L625.517 166.209Z" fill="#090C14"/>
<path d="M609.364 213.434C609.364 213.434 614.115 199.219 622.46 192.062C629.562 185.971 628.675 187.394 628.675 187.394C628.675 187.394 621.088 192.608 617.677 198.439C614.606 203.692 608.317 217.405 608.317 217.405L609.364 213.434Z" fill="#090C14"/>
<path d="M621.452 174.743C621.452 174.743 628.816 161.623 639.889 156.884C650.965 152.147 648.771 153.394 648.771 153.394C648.771 153.394 638.636 158.429 635.298 160.765C631.535 163.392 619.494 178.308 619.494 178.308L621.452 174.743Z" fill="#090C14"/>
<path d="M616.383 185.64C616.383 185.64 627.197 167.478 634.86 162.043C634.86 162.043 630.678 166.733 628.047 169.978C621.358 178.237 614.507 190.268 614.507 190.268L616.383 185.64Z" fill="#090C14"/>
<path d="M613.759 193.292C613.759 193.292 624.568 175.133 632.232 169.699C632.232 169.699 628.051 174.387 625.422 177.632C618.733 185.889 611.88 197.922 611.88 197.922L613.759 193.292Z" fill="#090C14"/>
<path d="M610.98 203.462C610.98 203.462 620.131 183.941 627.345 177.341C627.345 177.341 623.576 182.622 621.236 186.229C615.283 195.408 609.532 208.288 609.532 208.288L610.98 203.462Z" fill="#090C14"/>
<path d="M599.504 136.335C599.041 138.655 598.687 141.078 598.376 143.537C597.577 149.879 597.067 156.471 596.772 163.17C596.451 170.493 596.365 177.998 596.758 185.652C597.181 193.869 598.174 202.464 600.024 210.742C600.386 212.362 609.245 247.668 609.674 249.26L610.302 249.393C609.801 247.506 600.412 211.5 600.01 209.578C596.642 193.472 596.357 177.267 597.087 162.207C597.409 155.609 597.921 149.104 598.746 142.864C599.05 140.572 599.386 138.296 599.837 136.138C600.119 134.794 600.422 133.372 600.939 132.321C600.912 132.376 600.701 132.129 600.673 132.188C600.116 133.319 599.797 134.874 599.504 136.335Z" fill="#1D2C3A"/>
<path d="M576.049 180.761C577.375 182.644 580.973 190.518 581.636 191.456C582.215 192.275 597.643 218.276 603.587 224.856L601.859 217.84C598.635 212.664 587.824 195.349 585.082 191.832C581.798 187.623 573.973 176.753 571.728 173.389" fill="#1D2C3A"/>
<path d="M597.685 196.762C597.685 196.762 589.247 173.403 587.958 168.237C586.669 163.071 583.587 149.516 583.056 142.798C582.524 136.078 582.844 126.087 583.074 124.011C583.308 121.938 580.972 137.143 586.091 153.437C590.142 166.33 592.962 179.954 594.706 184.549C596.448 189.143 597.319 193.507 597.319 193.507L597.685 196.762Z" fill="#1D2C3A"/>
<path d="M597.123 187.533C597.123 187.533 591.805 173.17 590.014 163.426C588.222 153.679 586.307 142.738 586.259 137.497C586.212 132.254 587.131 122.896 587.131 122.896C587.131 122.896 586.181 136.411 587.813 144.083C589.445 151.756 596.416 182.363 596.652 184.162C596.891 185.97 597.123 187.533 597.123 187.533Z" fill="#1D2C3A"/>
<path d="M596.688 180.008C596.688 180.008 593.263 167.337 592.399 159.759C591.534 152.179 591.2 128.461 593.161 124.736C593.161 124.736 591.298 138.949 592.83 150.566C594.362 162.183 596.202 176.168 596.44 176.552C596.679 176.941 596.688 180.008 596.688 180.008Z" fill="#1D2C3A"/>
<path d="M600.882 214.185C600.882 214.185 586.895 192.186 583.9 179.043C580.903 165.898 576.463 146.961 575.255 139.882C574.045 132.8 580.976 164.653 582.284 167.789C583.593 170.928 591.396 192.104 592.736 195.765C595.437 203.133 599.499 209.945 600.254 211.273L600.882 214.185Z" fill="#1D2C3A"/>
<path d="M599.586 208.695C599.586 208.695 587.525 183.064 583.039 161.217C581.83 155.329 581.36 151.179 580.512 147.026C578.484 137.091 577.503 134.305 577.072 132.994C576.588 131.515 579.907 137.33 583.084 157.259C584.958 169.018 590.668 179.976 592.542 185.77C594.421 191.567 598.922 205.352 598.922 205.352L599.586 208.695Z" fill="#1D2C3A"/>
<path d="M596.581 172.812C596.581 172.812 593.925 157.619 594.327 146.872C594.73 136.124 595.527 126.728 596.365 125.535C597.201 124.344 594.559 128.625 594.922 142.371C595.285 156.12 596.761 168.198 596.736 169.513C596.71 170.823 596.581 172.812 596.581 172.812Z" fill="#1D2C3A"/>
<path d="M596.864 165.176C596.864 165.176 595.609 144.481 596.056 138.294C596.508 132.116 596.916 126.017 596.396 123.464C595.871 120.911 597.407 123.427 596.88 138.889C596.285 156.348 597.225 158.032 597.221 158.082C597.218 158.13 596.864 165.176 596.864 165.176Z" fill="#1D2C3A"/>
<path d="M597.465 154.579C597.473 154.468 597.811 145.129 604.633 140.374C611.455 135.619 612.085 138.358 612.239 137.494C612.394 136.626 606.234 138.093 602.908 143.559C599.152 149.731 597.28 160.326 597.109 160.303C596.939 160.277 597.465 154.579 597.465 154.579Z" fill="#1D2C3A"/>
<path d="M597.167 162.918C597.167 162.918 599.172 150.116 604.584 145.399C609.189 141.381 608.686 142.545 608.686 142.545C608.686 142.545 603.629 145.543 601.724 150.372C600.009 154.721 596.816 166.574 596.816 166.574L597.167 162.918Z" fill="#1D2C3A"/>
<path d="M600.653 211.38C600.653 211.38 599.528 196.816 602.972 188.203C605.903 180.873 605.737 182.419 605.737 182.419C605.737 182.419 602.215 189.018 601.691 195.306C601.22 200.971 601.156 215.387 601.156 215.387L600.653 211.38Z" fill="#1D2C3A"/>
<path d="M597.025 171.922C597.025 171.922 597.996 157.839 604.01 150.944C610.03 144.047 608.932 145.707 608.932 145.707C608.932 145.707 603.637 152.685 602.099 155.628C600.363 158.94 596.79 175.739 596.79 175.739L597.025 171.922Z" fill="#1D2C3A"/>
<path d="M596.925 183.393C596.925 183.393 598.685 163.766 602.192 156.939C602.192 156.939 600.802 162.307 600.019 165.965C598.024 175.27 597.069 188.205 597.069 188.205L596.925 183.393Z" fill="#1D2C3A"/>
<path d="M597.485 191.246C597.485 191.246 599.243 171.624 602.751 164.797C602.751 164.797 601.361 170.163 600.578 173.821C598.584 183.125 597.629 196.062 597.629 196.062L597.485 191.246Z" fill="#1D2C3A"/>
<path d="M598.707 201.532C598.707 201.532 598.934 180.968 601.785 173.128C601.785 173.128 600.851 178.97 600.374 182.91C599.156 192.935 599.2 206.441 599.2 206.441L598.707 201.532Z" fill="#1D2C3A"/>
<path d="M553.121 175.358C554.902 176.465 556.646 177.698 558.365 178.98C562.804 182.283 567.117 185.911 571.297 189.729C575.863 193.903 580.314 198.328 584.414 203.127C588.812 208.279 592.901 213.997 596.014 220.035C596.622 221.218 608.996 247.556 609.525 248.76L609.02 249.215C608.387 247.788 596.096 220.72 595.348 219.335C589.08 207.72 579.9 197.886 570.44 189.342C566.297 185.6 562.032 182.025 557.63 178.798C556.014 177.612 554.374 176.456 552.698 175.44C551.653 174.805 550.545 174.139 549.454 173.819C549.509 173.837 549.562 173.565 549.623 173.584C550.797 173.925 552 174.66 553.121 175.358Z" fill="#101421"/>
<path d="M600.754 187.855C600.62 189.766 601.876 196.608 601.811 197.565C601.752 198.399 602.614 223.106 600.94 230.575L598.455 225.362C598.423 220.35 598.347 203.576 598.838 199.843C599.426 195.374 600.34 184.223 600.458 180.878" fill="#101421"/>
<path d="M590.033 210.304C590.033 210.304 584.233 191.34 582.417 187.491C580.6 183.643 575.553 173.721 572.131 169.399C568.71 165.074 562.586 159.306 561.163 158.206C559.737 157.111 570.766 164.785 575.519 177.551C579.281 187.659 584.61 197.465 585.674 201.246C586.738 205.023 588.474 208.146 588.474 208.146L590.033 210.304Z" fill="#101421"/>
<path d="M585.174 204.464C585.174 204.464 581.729 192.728 577.71 185.848C573.684 178.969 569.082 171.302 566.074 168.148C563.06 164.994 556.753 159.961 556.753 159.961C556.753 159.961 565.513 167.455 568.472 173.003C571.432 178.551 582.814 200.962 583.645 202.177C584.477 203.396 585.174 204.464 585.174 204.464Z" fill="#101421"/>
<path d="M581.191 199.717C581.191 199.717 576.976 190.119 573.361 185.086C569.744 180.049 556.227 165.709 552.239 164.657C552.239 164.657 562.249 172.02 567.604 179.863C572.956 187.702 579.403 197.139 579.406 197.513C579.41 197.884 581.191 199.717 581.191 199.717Z" fill="#101421"/>
<path d="M597.227 222.599C597.227 222.599 597.363 201.139 592.475 191.514C587.59 181.886 580.665 167.948 577.658 163.004C574.651 158.061 586.797 181.19 587.412 183.84C588.029 186.492 593.143 203.775 594.034 206.756C595.827 212.763 596.035 219.247 596.109 220.491L597.227 222.599Z" fill="#101421"/>
<path d="M595.228 218.554C595.228 218.554 591.463 196.074 582.881 180.366C580.568 176.137 578.585 173.382 576.951 170.403C573.042 163.266 572.325 161.021 571.959 159.982C571.545 158.81 571.861 164.257 580.534 178.037C585.652 186.168 586.751 196.109 588.39 200.683C590.029 205.26 593.892 216.166 593.892 216.166L595.228 218.554Z" fill="#101421"/>
<path d="M577.095 195.366C577.095 195.366 570.7 184.722 564.06 178.552C557.422 172.383 551.206 167.256 549.736 167.044C548.265 166.835 553.21 167.81 560.889 176.222C568.563 184.64 574.238 192.721 575.027 193.488C575.816 194.256 577.095 195.366 577.095 195.366Z" fill="#101421"/>
<path d="M572.381 190.98C572.381 190.98 561.479 177.89 557.457 174.47C553.436 171.052 549.504 167.659 548.501 165.828C547.497 163.994 547.541 166.41 557.045 175.314C567.772 185.371 567.882 186.937 567.914 186.965C567.944 186.99 572.381 190.98 572.381 190.98Z" fill="#101421"/>
<path d="M565.648 185.019C565.574 184.96 559.817 179.591 550.723 180.827C541.632 182.062 542.644 184.072 541.998 183.648C541.347 183.224 547.91 180.421 554.176 181.696C561.255 183.136 569.166 188.337 569.313 188.22C569.456 188.103 565.648 185.019 565.648 185.019Z" fill="#101421"/>
<path d="M570.786 189.814C570.786 189.814 561.465 183.377 553.7 183.793C547.089 184.145 548.236 184.541 548.236 184.541C548.236 184.541 554.671 183.31 559.249 185.052C563.372 186.62 573.239 191.785 573.239 191.785L570.786 189.814Z" fill="#101421"/>
<path d="M595.803 220.793C595.803 220.793 588.356 211.438 580.144 208.353C573.157 205.732 574.21 206.557 574.21 206.557C574.21 206.557 581.322 208.39 585.473 211.826C589.211 214.923 597.676 223.483 597.676 223.483L595.803 220.793Z" fill="#101421"/>
<path d="M576.166 195.098C576.166 195.098 567.057 187.281 557.462 186.756C547.865 186.237 549.85 186.573 549.85 186.573C549.85 186.573 558.824 187.572 561.963 188.41C565.501 189.348 578.606 197.234 578.606 197.234L576.166 195.098Z" fill="#101421"/>
<path d="M582.942 201.879C582.942 201.879 569.869 191.227 562.642 189.248C562.642 189.248 567.06 191.618 569.918 193.331C577.191 197.69 585.615 204.835 585.615 204.835L582.942 201.879Z" fill="#101421"/>
<path d="M587.001 206.897C587.001 206.897 573.935 196.243 566.705 194.267C566.705 194.267 571.12 196.637 573.98 198.35C581.25 202.709 589.677 209.853 589.677 209.853L587.001 206.897Z" fill="#101421"/>
<path d="M591.865 213.757C591.865 213.757 579.667 201.632 572.455 198.658C572.455 198.658 576.726 201.584 579.466 203.648C586.439 208.898 594.272 216.982 594.272 216.982L591.865 213.757Z" fill="#101421"/>
<path d="M130.957 452.43C130.803 452.221 131.115 452.634 130.957 452.43C128.64 451.836 120.612 450.784 111.64 450.784C103.236 450.784 95.4334 452.008 92.6554 452.545C92.4386 452.822 92.8627 452.26 92.6554 452.545C94.7977 453.16 102.484 453.613 111.64 453.613C121.363 453.614 129.428 453.102 130.957 452.43Z" fill="#493E3A"/>
<path d="M107.015 461.893C107.703 454.456 111.428 430.723 110.454 409.605C109.941 398.445 102.908 361.174 99.1727 352.941C96.9817 348.114 95.0763 344.45 93.8502 342.515C93.6159 341.78 90.3338 339.886 92.3262 343.333C94.3187 346.776 102.373 359.003 107.733 404.822C110.323 426.952 102.826 477.031 102.32 478.081C101.814 479.131 104.669 480.023 104.669 480.023C106.246 467.854 106.398 468.562 107.015 461.893Z" fill="#101421"/>
<path d="M86.0039 383.694C90.9929 396.489 107.017 464.331 107.11 468.699C107.203 473.066 111.797 470.661 111.797 470.661C111.797 470.661 90.6568 386.883 86.6893 381.416C79.4013 371.372 83.9792 378.5 86.0039 383.694Z" fill="#101421"/>
<path d="M135.017 397.077C134.188 397.685 121.613 429.031 119.767 438.804C118.242 446.881 115.568 466.215 115.568 466.215L117.844 466.113C117.844 466.113 122.932 436.157 124.569 428.186C126.912 416.782 136.625 396.358 136.625 396.358L135.017 397.077Z" fill="#101421"/>
<path d="M135.017 397.077C135.017 397.077 128.639 394.653 127.788 391.556C126.938 388.456 136.393 389.604 139.273 387.054C142.153 384.502 144.707 384.248 150.674 383.842C156.64 383.433 161.971 382.769 165.305 384.046C165.84 384.252 163.564 383.721 161.455 385.568C155.54 390.752 147.989 390.459 143.702 392.995C139.655 395.389 136.828 396.142 135.017 397.077Z" fill="#101421"/>
<path d="M74.5385 388.62C74.5385 388.62 82.4126 390.012 85.6364 383.975C88.8594 377.94 88.5755 375.891 87.8701 374.306C87.163 372.724 90.3764 369.612 90.3764 369.612C90.3764 369.612 91.1488 363.646 87.19 359.116C83.232 354.588 82.0503 355.508 79.6634 353.199C77.2773 350.89 73.9899 341.968 65.9173 340.532C64.4368 340.268 63.0548 341.05 63.0548 341.05C63.0548 341.05 60.2124 337.98 53.1125 336.428C46.0118 334.877 45.3073 333.292 42.9116 331.323C40.5159 329.354 37.2163 329.109 36.0651 326.423C34.9121 323.739 34.3409 336.398 36.9586 340.211C39.5763 344.024 43.0074 347.925 43.792 351.621C44.662 355.712 46.6823 360.131 48.9412 361.988C49.5404 362.479 58.1381 367.043 60.8429 372.626C63.4606 378.025 65.8554 385.066 74.5385 388.62Z" fill="#1D2C3A"/>
<path d="M138.938 335.073C138.938 335.073 126.432 359.835 122.616 382.091C118.8 404.35 111.143 469.038 111.325 473.785C111.506 478.533 108.19 473.399 108.19 473.399C108.19 473.399 118.049 388.248 122.768 370.875C127.72 352.644 136.862 334.817 136.862 334.817L138.938 335.073Z" fill="#101421"/>
<path d="M143.124 359.379C143.124 359.379 135.439 374.001 133.416 379.195C128.427 391.99 113.676 456.953 113.584 461.32C113.491 465.688 108.897 463.283 108.897 463.283C108.897 463.283 127.533 391.313 129.039 387.093C133.211 375.405 140.009 361.769 141.94 358.597C143.818 355.518 143.124 359.379 143.124 359.379Z" fill="#101421"/>
<path d="M91.2386 342.515C91.2386 342.515 77.5177 324.446 63.7969 316.668C50.076 308.892 35.8971 305.411 31.7807 296.858C27.6643 288.306 40.9279 294.668 45.9587 296.061C50.9895 297.455 57.2796 298.022 64.7112 298.894C72.257 299.781 94.0392 308.719 96.7274 319.532C99.0395 328.836 97.6409 338.169 91.2386 342.515Z" fill="#1D2C3A"/>
<path d="M97.3492 322.575C97.3492 322.575 104.158 335.279 100.9 341.299C97.6409 347.318 93.0943 344.783 93.0943 344.783L91.2385 342.515C91.2385 342.516 98.6397 337.742 97.3492 322.575Z" fill="#101421"/>
<path d="M99.3329 308.988L104.608 317.694C104.608 317.694 116.104 314.001 116.104 308.988C116.104 303.976 117.531 305.559 119.377 304.505C121.223 303.449 120.959 300.02 119.377 297.382C117.795 294.744 120.63 294.281 121.948 292.963C123.267 291.645 127.487 282.081 110.805 276.806C103.71 274.561 104.08 276.278 101.97 276.806C99.8606 277.332 108.565 293.952 99.3329 308.988Z" fill="#101421"/>
<path d="M98.0145 308.989C98.0145 308.989 105.399 307.406 104.345 302.922C103.29 298.436 103.025 294.743 105.927 291.841C108.828 288.939 104.081 273.111 98.0145 267.043C91.9482 260.976 76.6512 253.354 71.3766 249.119C66.1019 244.884 59.7718 243.741 52.914 240.488C46.0562 237.235 32.3423 226.418 32.0785 220.35C31.8146 214.283 27.5945 230.025 37.8808 240.488C48.1671 250.952 74.2773 271.528 78.2335 278.124C82.1897 284.719 95.6406 301.338 98.0145 308.989Z" fill="#202C3A"/>
<path d="M97.3491 307.24C97.3491 307.24 106.961 324.024 111.369 384.173C112.661 401.803 107.733 453.089 107.733 453.089L110.615 453.071C110.615 453.071 114.808 401.066 113.226 383.254C111.644 365.442 105.844 321.394 104.608 317.694C102.371 311.002 97.3491 307.24 97.3491 307.24Z" fill="#101421"/>
<path d="M138.474 367.934C138.474 367.934 127.597 359.957 133.833 356.294C138.273 353.684 145.276 352.97 147.095 350.075C148.916 347.183 150.052 343.821 154.44 342.994C158.83 342.168 162.91 341.182 168.327 339.433C173.745 337.684 180.009 335.421 180.454 334.531C180.898 333.64 181.174 338.674 178.689 340.857C176.202 343.041 172.795 349.279 172.593 351.806C172.39 354.333 168.443 356.018 166.021 357.741C163.599 359.465 163.573 361.169 163.088 363.732C162.603 366.297 151.395 374.302 144.041 373.485C139.185 372.946 137.329 370.969 138.474 367.934Z" fill="#1D2C3A"/>
<path d="M170.296 286.193C170.296 286.193 150.486 293.337 148.191 296.58C145.896 299.823 139.139 308.471 137.702 312.457C136.264 316.444 131.273 316.115 129.702 317.108C128.131 318.1 127.14 327.097 125.616 330.359C124.093 333.62 122.994 336.429 123.551 338.968C124.107 341.507 128.826 344.779 130.636 343.348C132.446 341.917 151.195 314.901 158.906 311.535C166.615 308.166 173.789 307.723 176.391 301.522C178.034 297.603 172.919 288.525 170.296 286.193Z" fill="#101421"/>
<path d="M135.023 344.424C135.023 344.424 131.28 345.128 130.033 342.472C128.786 339.816 132.984 332.939 135.138 331.069C137.293 329.2 137.253 324.742 137.865 323.916C139.112 322.234 155.346 315.607 155.118 312.412C154.89 309.218 165.552 308.149 171.098 306.875C173.601 306.299 160.715 311.319 152.84 319.486C146.949 325.595 138.795 331.858 135.023 344.424Z" fill="#1D2C3A"/>
<path d="M170.167 287.271C170.167 287.271 154.712 308.411 147.251 317.264C139.789 326.117 132.233 337.942 132.233 337.942C132.233 337.942 153.978 309.443 155.637 307.557C157.296 305.668 168.538 289.402 170.167 287.271Z" fill="#1D2C3A"/>
<path d="M137.6 367.246C137.6 367.246 138.689 364.514 141.202 361.551C143.124 359.283 146.017 356.928 149.061 355.267C151.668 353.846 156.141 351.951 160.066 349.774C165.535 346.741 170.006 343.161 173.488 342.347C174.965 342 167.179 345.44 160.519 350.032C155.747 353.322 150.666 355.178 149.724 355.696C146.521 357.456 143.285 360.677 140.875 363.946C139.898 365.272 139.204 366.785 138.475 367.934C138.327 368.167 137.6 367.246 137.6 367.246Z" fill="#101421"/>
<path d="M38.783 332.738C38.783 332.738 84.0489 370.674 86.7049 381.85L85.6355 383.974C85.6355 383.974 83.482 377.449 78.0924 371.591C65.0447 357.41 46.4167 340.495 38.783 332.738Z" fill="#101421"/>
<path d="M130.449 452.615C127.968 453.19 120.566 453.608 111.798 453.609C102.654 453.608 94.9813 453.155 92.8417 452.541C89.3941 457.298 94.4118 465.012 94.4118 471.616C94.4118 482.337 92.7825 489.973 100.739 494.562C100.733 494.565 100.726 494.568 100.72 494.57C102.011 495.314 103.372 495.926 104.783 496.408C119.687 488.212 126.683 469.62 130.449 452.615Z" fill="#C6BDB3"/>
<path d="M130.754 452.541C130.666 452.566 130.554 452.591 130.448 452.615C126.682 469.619 119.687 488.212 104.78 496.408C104.968 496.472 105.154 496.541 105.343 496.601H111.796H118.249C119.864 496.097 121.411 495.412 122.875 494.57C122.869 494.568 122.862 494.565 122.856 494.562C130.812 489.973 129.183 482.337 129.183 471.616C129.184 465.013 134.201 457.298 130.754 452.541Z" fill="#B2A9A1"/>
<path opacity="0.2" d="M595.899 277.335L605.07 278.607L617.461 278.595L621.141 275.345L610.531 275.346L595.899 277.335Z" fill="#262230"/>
<path d="M605.27 239.343C605.326 240.318 605.404 241.293 605.501 242.265C607.569 242.217 609.845 242.103 612.273 241.89C611.738 241.065 611.041 239.93 610.408 238.797L610.428 239.04C608.559 239.201 606.832 239.295 605.27 239.343Z" fill="#AAAAA8"/>
<path d="M605.844 245.321C608.33 245.255 611.094 245.1 614.09 244.811C613.577 243.863 613.122 243.14 612.852 242.756C612.753 242.613 612.627 242.428 612.489 242.219C609.996 242.443 607.657 242.563 605.536 242.611C605.628 243.515 605.732 244.418 605.844 245.321Z" fill="#AAAAA8"/>
<path d="M609.158 232.325C609.387 231.076 609.643 229.942 609.643 229.942H605.719C605.569 230.779 605.458 231.614 605.373 232.445C606.535 232.426 607.8 232.388 609.158 232.325Z" fill="#AAAAA8"/>
<path d="M606.675 252.013C609.672 251.931 613.022 251.774 616.706 251.501C616.439 250.363 616.081 249.261 615.682 248.24C612.238 248.531 609.095 248.693 606.282 248.766C606.42 249.846 606.554 250.928 606.675 252.013Z" fill="#AAAAA8"/>
<path d="M605.185 235.923C606.338 235.902 607.605 235.862 608.971 235.795C608.869 235.488 608.807 235.227 608.807 235.036C608.807 234.486 608.938 233.575 609.096 232.675C607.749 232.736 606.495 232.773 605.342 232.793C605.245 233.84 605.196 234.884 605.185 235.923Z" fill="#AAAAA8"/>
<path d="M605.25 238.996C606.795 238.949 608.502 238.856 610.353 238.696C609.839 237.772 609.375 236.859 609.094 236.138C607.678 236.207 606.373 236.247 605.183 236.269C605.18 237.18 605.203 238.089 605.25 238.996Z" fill="#AAAAA8"/>
<path d="M606.237 248.42C609.022 248.349 612.136 248.19 615.547 247.903C615.13 246.875 614.686 245.936 614.267 245.14C611.222 245.438 608.41 245.599 605.885 245.666C605.999 246.583 606.119 247.502 606.237 248.42Z" fill="#AAAAA8"/>
<path d="M607.163 259.383C609.99 259.312 613.147 259.181 616.642 258.966C616.937 257.549 617.121 256.368 617.165 255.582C613.417 255.801 610.034 255.935 607.039 256.003C607.113 257.124 607.157 258.251 607.163 259.383Z" fill="#AAAAA8"/>
<path d="M605.55 271.335C607.76 271.299 610.24 271.229 612.985 271.113C613.443 269.971 613.882 268.768 614.289 267.549C611.394 267.658 608.755 267.726 606.389 267.763C606.17 268.978 605.885 270.166 605.55 271.335Z" fill="#AAAAA8"/>
<path d="M606.984 263.526C606.897 264.45 606.781 265.377 606.619 266.312C606.567 266.683 606.506 267.049 606.444 267.417C608.829 267.377 611.481 267.309 614.405 267.199C614.835 265.892 615.23 264.579 615.58 263.317C612.436 263.422 609.568 263.488 606.984 263.526Z" fill="#AAAAA8"/>
<path d="M607.014 263.179C609.618 263.14 612.502 263.074 615.674 262.966C616.025 261.667 616.328 260.428 616.566 259.32C613.102 259.531 609.968 259.661 607.16 259.732C607.158 260.872 607.113 262.021 607.014 263.179Z" fill="#AAAAA8"/>
<path d="M603.297 277.335H609.652C610.178 276.712 610.701 275.894 611.216 274.947C608.616 275.061 606.29 275.124 604.241 275.151C603.945 275.888 603.634 276.617 603.297 277.335Z" fill="#AAAAA8"/>
<path d="M604.383 274.802C606.447 274.773 608.791 274.709 611.408 274.591C611.899 273.651 612.379 272.591 612.842 271.466C610.112 271.58 607.648 271.648 605.452 271.684C605.137 272.74 604.782 273.781 604.383 274.802Z" fill="#AAAAA8"/>
<path d="M607.015 255.658C610.021 255.588 613.407 255.456 617.174 255.234C617.175 254.103 617.023 252.96 616.782 251.845C613.086 252.117 609.722 252.277 606.715 252.359C606.834 253.455 606.937 254.553 607.015 255.658Z" fill="#AAAAA8"/>
<path d="M605.25 238.996C605.203 238.089 605.18 237.18 605.183 236.27C604.42 236.284 603.702 236.29 603.037 236.29C600.067 236.29 598.11 236.171 597.36 236.116C597.068 236.846 596.584 237.773 596.051 238.715C596.802 238.803 600.132 239.152 605.25 238.996Z" fill="#B5B4B5"/>
<path d="M605.501 242.264C605.405 241.293 605.326 240.318 605.27 239.342C604.351 239.371 603.489 239.383 602.688 239.383C598.564 239.383 596.086 239.071 595.865 239.041C595.267 240.078 594.636 241.101 594.154 241.87C595.213 241.989 599.471 242.403 605.501 242.264Z" fill="#B5B4B5"/>
<path d="M605.844 245.321C605.732 244.418 605.628 243.515 605.535 242.611C604.677 242.631 603.849 242.642 603.065 242.642C597.95 242.642 594.538 242.267 593.951 242.198C593.817 242.414 593.696 242.606 593.603 242.756C593.246 243.331 592.812 244.005 592.358 244.777C593.831 244.97 598.689 245.512 605.844 245.321Z" fill="#B5B4B5"/>
<path d="M606.237 248.42C606.119 247.501 606 246.583 605.886 245.666C604.828 245.695 603.817 245.709 602.864 245.709C597.086 245.709 593.271 245.253 592.171 245.102C591.703 245.919 591.225 246.838 590.794 247.868C591.916 248.014 597.424 248.648 606.237 248.42Z" fill="#B5B4B5"/>
<path d="M605.185 235.923C605.196 234.884 605.245 233.839 605.342 232.793C604.622 232.805 603.937 232.811 603.299 232.811C600.2 232.811 598.12 232.689 597.351 232.635C597.513 233.549 597.648 234.478 597.648 235.037C597.648 235.224 597.587 235.479 597.485 235.777C598.483 235.847 601.162 235.998 605.185 235.923Z" fill="#B5B4B5"/>
<path d="M606.675 252.013C606.554 250.928 606.42 249.846 606.282 248.765C604.955 248.801 603.694 248.818 602.521 248.818C595.61 248.818 591.416 248.301 590.659 248.201C590.251 249.22 589.9 250.343 589.653 251.569C591.699 251.781 597.55 252.257 606.675 252.013Z" fill="#B5B4B5"/>
<path d="M605.373 232.446C605.459 231.614 605.57 230.779 605.719 229.942H603.227H596.811C596.811 229.942 597.061 231.05 597.289 232.283C598.11 232.342 601.002 232.52 605.373 232.446Z" fill="#B5B4B5"/>
<path d="M607.163 259.383C607.157 258.25 607.112 257.124 607.038 256.004C605.104 256.049 603.327 256.067 601.705 256.067C594.747 256.067 590.639 255.722 589.287 255.585C589.325 256.376 589.489 257.563 589.756 258.984C591.865 259.193 597.622 259.625 607.163 259.383Z" fill="#B5B4B5"/>
<path d="M605.55 271.335C605.885 270.166 606.17 268.978 606.389 267.763C604.699 267.79 603.141 267.801 601.72 267.801C596.878 267.801 593.62 267.674 591.922 267.581C592.303 268.801 592.717 270.007 593.152 271.151C595.083 271.265 599.21 271.438 605.55 271.335Z" fill="#B5B4B5"/>
<path d="M604.383 274.802C604.782 273.781 605.137 272.74 605.452 271.684C604.135 271.704 602.906 271.714 601.782 271.714C597.681 271.714 594.852 271.597 593.29 271.507C593.732 272.64 594.197 273.703 594.679 274.647C596.526 274.749 599.758 274.865 604.383 274.802Z" fill="#B5B4B5"/>
<path d="M606.444 267.417C606.506 267.049 606.568 266.683 606.619 266.312C606.781 265.377 606.897 264.449 606.984 263.526C605.012 263.555 603.197 263.567 601.551 263.567C596.27 263.567 592.669 263.444 590.729 263.354C591.047 264.615 591.413 265.926 591.813 267.228C593.948 267.347 598.826 267.538 606.444 267.417Z" fill="#B5B4B5"/>
<path d="M607.014 263.179C607.112 262.021 607.158 260.873 607.16 259.732C605.181 259.782 603.362 259.802 601.705 259.802C595.49 259.802 591.559 259.508 589.824 259.341C590.04 260.454 590.315 261.697 590.641 263.002C593.136 263.121 598.591 263.301 607.014 263.179Z" fill="#B5B4B5"/>
<path d="M601.787 275.167C598.665 275.167 596.363 275.084 594.867 275.003C595.357 275.926 595.864 276.724 596.378 277.334H603.296C603.633 276.617 603.944 275.887 604.241 275.15C603.375 275.163 602.555 275.167 601.787 275.167Z" fill="#B5B4B5"/>
<path d="M607.015 255.658C606.937 254.553 606.834 253.455 606.715 252.359C604.918 252.409 603.244 252.429 601.704 252.429C595.346 252.429 591.216 252.08 589.583 251.911C589.394 252.947 589.28 254.053 589.278 255.235C590.868 255.399 596.724 255.894 607.015 255.658Z" fill="#B5B4B5"/>
<path d="M604.241 275.15C606.29 275.123 608.616 275.06 611.216 274.947C611.28 274.829 611.345 274.713 611.409 274.591C608.791 274.709 606.448 274.773 604.384 274.802C604.338 274.919 604.288 275.033 604.241 275.15Z" fill="#656666"/>
<path d="M604.241 275.15C604.288 275.033 604.338 274.919 604.383 274.802C599.758 274.865 596.527 274.749 594.678 274.647C594.74 274.77 594.804 274.887 594.867 275.004C596.364 275.084 598.665 275.168 601.787 275.168C602.555 275.167 603.375 275.163 604.241 275.15Z" fill="#9D9E9E"/>
<path d="M605.451 271.683C607.647 271.647 610.112 271.579 612.841 271.465C612.889 271.348 612.937 271.23 612.984 271.113C610.239 271.229 607.76 271.299 605.549 271.335C605.517 271.45 605.486 271.568 605.451 271.683Z" fill="#656666"/>
<path d="M605.451 271.683C605.485 271.567 605.516 271.45 605.549 271.335C599.21 271.438 595.082 271.265 593.151 271.151C593.197 271.27 593.243 271.387 593.289 271.506C594.851 271.597 597.68 271.714 601.781 271.714C602.906 271.714 604.135 271.704 605.451 271.683Z" fill="#9D9E9E"/>
<path d="M606.389 267.763C608.755 267.726 611.394 267.658 614.289 267.549C614.328 267.432 614.367 267.316 614.405 267.199C611.481 267.31 608.83 267.378 606.444 267.417C606.425 267.531 606.41 267.648 606.389 267.763Z" fill="#656666"/>
<path d="M606.389 267.763C606.41 267.647 606.425 267.53 606.444 267.417C598.826 267.538 593.948 267.347 591.813 267.228C591.849 267.347 591.884 267.464 591.921 267.581C593.619 267.673 596.877 267.801 601.719 267.801C603.14 267.801 604.698 267.791 606.389 267.763Z" fill="#9D9E9E"/>
<path d="M606.984 263.526C609.568 263.488 612.436 263.422 615.579 263.317C615.611 263.199 615.641 263.083 615.674 262.967C612.501 263.074 609.618 263.14 607.014 263.179C607.005 263.295 606.995 263.41 606.984 263.526Z" fill="#656666"/>
<path d="M606.984 263.526C606.995 263.41 607.005 263.294 607.014 263.179C598.591 263.302 593.136 263.122 590.641 263.002C590.669 263.122 590.698 263.237 590.729 263.354C592.669 263.445 596.269 263.567 601.551 263.567C603.198 263.567 605.013 263.554 606.984 263.526Z" fill="#9D9E9E"/>
<path d="M607.16 259.732C609.969 259.661 613.103 259.532 616.567 259.32C616.592 259.201 616.618 259.084 616.642 258.967C613.147 259.181 609.99 259.312 607.163 259.384C607.163 259.499 607.161 259.615 607.16 259.732Z" fill="#656666"/>
<path d="M607.16 259.732C607.161 259.615 607.163 259.499 607.163 259.384C597.622 259.625 591.865 259.193 589.757 258.986C589.778 259.102 589.801 259.221 589.825 259.341C591.559 259.508 595.491 259.802 601.705 259.802C603.362 259.802 605.181 259.781 607.16 259.732Z" fill="#9D9E9E"/>
<path d="M607.039 256.004C610.034 255.936 613.417 255.802 617.165 255.583C617.171 255.467 617.175 255.358 617.176 255.26C617.176 255.251 617.175 255.242 617.175 255.234C613.408 255.456 610.022 255.588 607.016 255.658C607.024 255.774 607.032 255.889 607.039 256.004Z" fill="#656666"/>
<path d="M607.039 256.004C607.032 255.888 607.024 255.773 607.016 255.658C596.725 255.894 590.869 255.399 589.28 255.236C589.28 255.245 589.28 255.252 589.28 255.26C589.28 255.358 589.283 255.469 589.289 255.586C590.641 255.722 594.748 256.068 601.706 256.068C603.328 256.068 605.105 256.049 607.039 256.004Z" fill="#9D9E9E"/>
<path d="M606.715 252.359C609.722 252.277 613.086 252.118 616.783 251.845C616.759 251.729 616.733 251.615 616.706 251.501C613.023 251.773 609.673 251.932 606.675 252.013C606.688 252.127 606.702 252.243 606.715 252.359Z" fill="#656666"/>
<path d="M606.715 252.359C606.702 252.243 606.689 252.127 606.675 252.014C597.55 252.257 591.7 251.781 589.652 251.57C589.63 251.684 589.604 251.796 589.583 251.912C591.217 252.08 595.347 252.43 601.705 252.43C603.244 252.429 604.918 252.409 606.715 252.359Z" fill="#9D9E9E"/>
<path d="M606.282 248.766C609.094 248.693 612.238 248.531 615.682 248.24C615.638 248.126 615.593 248.015 615.547 247.903C612.137 248.19 609.023 248.349 606.238 248.42C606.251 248.536 606.266 248.652 606.282 248.766Z" fill="#656666"/>
<path d="M606.282 248.766C606.266 248.652 606.252 248.536 606.237 248.421C597.424 248.649 591.917 248.014 590.794 247.868C590.749 247.977 590.703 248.089 590.659 248.202C591.416 248.302 595.61 248.819 602.521 248.819C603.694 248.818 604.955 248.802 606.282 248.766Z" fill="#9D9E9E"/>
<path d="M605.885 245.666C608.411 245.6 611.223 245.438 614.268 245.14C614.207 245.024 614.149 244.919 614.09 244.81C611.095 245.099 608.331 245.254 605.844 245.32C605.857 245.437 605.871 245.552 605.885 245.666Z" fill="#656666"/>
<path d="M605.885 245.666C605.871 245.552 605.858 245.436 605.844 245.321C598.689 245.512 593.83 244.971 592.359 244.777C592.297 244.882 592.233 244.993 592.171 245.102C593.272 245.253 597.087 245.709 602.864 245.709C603.817 245.709 604.828 245.696 605.885 245.666Z" fill="#9D9E9E"/>
<path d="M605.535 242.61C607.657 242.561 609.995 242.442 612.488 242.218C612.42 242.116 612.349 242.005 612.273 241.889C609.845 242.102 607.569 242.216 605.501 242.264C605.512 242.38 605.523 242.495 605.535 242.61Z" fill="#656666"/>
<path d="M605.535 242.61C605.523 242.495 605.512 242.379 605.501 242.264C599.471 242.403 595.213 241.988 594.155 241.871C594.084 241.987 594.016 242.096 593.952 242.197C594.539 242.267 597.95 242.642 603.066 242.642C603.849 242.642 604.677 242.631 605.535 242.61Z" fill="#9D9E9E"/>
<path d="M610.399 238.693C610.383 238.694 610.369 238.694 610.353 238.696C610.371 238.73 610.389 238.764 610.408 238.796L610.399 238.693Z" fill="#7B7E7E"/>
<path d="M605.27 239.343C606.832 239.295 608.558 239.202 610.429 239.04L610.409 238.797C610.389 238.765 610.371 238.731 610.354 238.697C608.503 238.857 606.795 238.95 605.251 238.997C605.255 239.112 605.264 239.227 605.27 239.343Z" fill="#656666"/>
<path d="M605.27 239.343C605.263 239.227 605.254 239.112 605.25 238.997C600.132 239.153 596.802 238.804 596.052 238.716C595.991 238.825 595.928 238.932 595.866 239.043C596.087 239.071 598.564 239.385 602.689 239.385C603.49 239.383 604.352 239.372 605.27 239.343Z" fill="#9D9E9E"/>
<path d="M605.183 236.27C606.373 236.248 607.678 236.208 609.094 236.139C609.046 236.017 609.007 235.906 608.97 235.796C607.604 235.862 606.338 235.902 605.184 235.924C605.184 236.039 605.184 236.154 605.183 236.27Z" fill="#656666"/>
<path d="M605.183 236.27C605.184 236.154 605.184 236.038 605.185 235.923C601.162 235.998 598.483 235.848 597.485 235.777C597.449 235.885 597.408 235.997 597.36 236.117C598.109 236.172 600.067 236.291 603.037 236.291C603.702 236.29 604.42 236.283 605.183 236.27Z" fill="#9D9E9E"/>
<path d="M605.341 232.793C606.493 232.774 607.748 232.737 609.095 232.674C609.115 232.558 609.136 232.44 609.158 232.325C607.799 232.387 606.534 232.425 605.373 232.445C605.361 232.561 605.352 232.677 605.341 232.793Z" fill="#656666"/>
<path d="M605.341 232.793C605.352 232.676 605.36 232.56 605.373 232.445C601.001 232.52 598.109 232.342 597.288 232.282C597.309 232.398 597.33 232.516 597.35 232.634C598.119 232.688 600.199 232.81 603.298 232.81C603.937 232.811 604.621 232.805 605.341 232.793Z" fill="#7B7E7E"/>
<defs>
<filter id="filter0_d_0_114" x="0" y="0" width="767" height="577" filterUnits="userSpaceOnUse" color-interpolation-filters="sRGB">
<feFlood flood-opacity="0" result="BackgroundImageFix"/>
<feColorMatrix in="SourceAlpha" type="matrix" values="0 0 0 0 0 0 0 0 0 0 0 0 0 0 0 0 0 0 127 0" result="hardAlpha"/>
<feOffset dx="-15" dy="10"/>
<feGaussianBlur stdDeviation="35"/>
<feColorMatrix type="matrix" values="0 0 0 0 0 0 0 0 0 0 0 0 0 0 0 0 0 0 0.1 0"/>
<feBlend mode="normal" in2="BackgroundImageFix" result="effect1_dropShadow_0_114"/>
<feBlend mode="normal" in="SourceGraphic" in2="effect1_dropShadow_0_114" result="shape"/>
</filter>
</defs>
</svg>
