<svg width="815" height="464" viewBox="0 0 815 464" fill="none" xmlns="http://www.w3.org/2000/svg">
<path d="M493.907 74.2798H496.881V75.5615H493.907V78.9307H492.545V75.5615H489.571V74.2798H492.545V71.167H493.907V74.2798Z" fill="#BFC2CE"/>
<path d="M493.907 99.1914H496.881V100.473H493.907V103.842H492.545V100.473H489.571V99.1914H492.545V96.0786H493.907V99.1914Z" fill="#BFC2CE"/>
<path d="M493.907 124.104H496.881V125.385H493.907V128.754H492.545V125.385H489.571V124.104H492.545V120.991H493.907V124.104Z" fill="#BFC2CE"/>
<path d="M493.907 149.015H496.881V150.297H493.907V153.666H492.545V150.297H489.571V149.015H492.545V145.902H493.907V149.015Z" fill="#BFC2CE"/>
<path d="M493.907 173.927H496.881V175.209H493.907V178.578H492.545V175.209H489.571V173.927H492.545V170.814H493.907V173.927Z" fill="#BFC2CE"/>
<path d="M531.868 74.2798H534.842V75.5615H531.868V78.9307H530.506V75.5615H527.532V74.2798H530.506V71.167H531.868V74.2798Z" fill="#BFC2CE"/>
<path d="M531.868 99.1914H534.842V100.473H531.868V103.842H530.506V100.473H527.532V99.1914H530.506V96.0786H531.868V99.1914Z" fill="#BFC2CE"/>
<path d="M531.868 124.104H534.842V125.385H531.868V128.754H530.506V125.385H527.532V124.104H530.506V120.991H531.868V124.104Z" fill="#BFC2CE"/>
<path d="M531.868 149.015H534.842V150.297H531.868V153.666H530.506V150.297H527.532V149.015H530.506V145.902H531.868V149.015Z" fill="#BFC2CE"/>
<path d="M531.868 173.927H534.842V175.209H531.868V178.578H530.506V175.209H527.532V173.927H530.506V170.814H531.868V173.927Z" fill="#BFC2CE"/>
<path d="M569.829 74.2798H572.803V75.5615H569.829V78.9307H568.467V75.5615H565.493V74.2798H568.467V71.167H569.829V74.2798Z" fill="#BFC2CE"/>
<path d="M569.829 99.1914H572.803V100.473H569.829V103.842H568.467V100.473H565.493V99.1914H568.467V96.0786H569.829V99.1914Z" fill="#BFC2CE"/>
<path d="M569.829 124.104H572.803V125.385H569.829V128.754H568.467V125.385H565.493V124.104H568.467V120.991H569.829V124.104Z" fill="#BFC2CE"/>
<path d="M569.829 149.015H572.803V150.297H569.829V153.666H568.467V150.297H565.493V149.015H568.467V145.902H569.829V149.015Z" fill="#BFC2CE"/>
<path d="M569.829 173.927H572.803V175.209H569.829V178.578H568.467V175.209H565.493V173.927H568.467V170.814H569.829V173.927Z" fill="#BFC2CE"/>
<path d="M607.79 74.2798H610.763V75.5615H607.79V78.9307H606.427V75.5615H603.454V74.2798H606.427V71.167H607.79V74.2798Z" fill="#BFC2CE"/>
<path d="M607.79 99.1914H610.763V100.473H607.79V103.842H606.427V100.473H603.454V99.1914H606.427V96.0786H607.79V99.1914Z" fill="#BFC2CE"/>
<path d="M607.79 124.104H610.763V125.385H607.79V128.754H606.427V125.385H603.454V124.104H606.427V120.991H607.79V124.104Z" fill="#BFC2CE"/>
<path d="M607.79 149.015H610.763V150.297H607.79V153.666H606.427V150.297H603.454V149.015H606.427V145.902H607.79V149.015Z" fill="#BFC2CE"/>
<path d="M607.79 173.927H610.763V175.209H607.79V178.578H606.427V175.209H603.454V173.927H606.427V170.814H607.79V173.927Z" fill="#BFC2CE"/>
<path d="M645.75 74.2798H648.724V75.5615H645.75V78.9307H644.388V75.5615H641.414V74.2798H644.388V71.167H645.75V74.2798Z" fill="#BFC2CE"/>
<path d="M645.75 99.1914H648.724V100.473H645.75V103.842H644.388V100.473H641.414V99.1914H644.388V96.0786H645.75V99.1914Z" fill="#BFC2CE"/>
<path d="M645.75 124.104H648.724V125.385H645.75V128.754H644.388V125.385H641.414V124.104H644.388V120.991H645.75V124.104Z" fill="#BFC2CE"/>
<path d="M645.75 149.015H648.724V150.297H645.75V153.666H644.388V150.297H641.414V149.015H644.388V145.902H645.75V149.015Z" fill="#BFC2CE"/>
<path d="M645.75 173.927H648.724V175.209H645.75V178.578H644.388V175.209H641.414V173.927H644.388V170.814H645.75V173.927Z" fill="#BFC2CE"/>
<circle cx="721.171" cy="196.171" r="68.2059" transform="rotate(-30 721.171 196.171)" fill="#FEB942"/>
<path d="M627.242 189.806C655.816 273.593 557.5 382.5 491.623 422.676C451.44 446.275 341.494 484.814 223.177 450.176C75.2808 406.878 -17.3638 285.178 2.72778 144.753C22.8194 4.32916 105.976 17.2014 180.204 86.2433C254.431 155.285 314.148 160.551 371.074 168.742C428 176.934 591.523 85.0731 627.242 189.806Z" fill="#007880"/>
<path d="M460.138 423.088H460.249C460.408 423.088 460.565 423.056 460.711 422.995C460.857 422.933 460.99 422.843 461.101 422.73C461.211 422.616 461.298 422.482 461.356 422.334C461.414 422.187 461.442 422.029 461.438 421.871L459.637 343.845L454.333 343.227L458.855 421.877C458.874 422.204 459.017 422.512 459.256 422.737C459.494 422.962 459.81 423.088 460.138 423.088Z" fill="#B0D4FF"/>
<path d="M491.053 423.088H491.168C491.326 423.088 491.483 423.056 491.629 422.994C491.775 422.932 491.907 422.842 492.018 422.729C492.129 422.615 492.216 422.481 492.274 422.334C492.332 422.186 492.36 422.029 492.357 421.871L490.556 343.845L485.248 343.227L489.773 421.877C489.792 422.204 489.935 422.511 490.173 422.736C490.411 422.961 490.726 423.087 491.053 423.088Z" fill="#95C0F4"/>
<path d="M405.738 423.088H405.627C405.468 423.088 405.311 423.056 405.165 422.995C405.019 422.933 404.886 422.843 404.775 422.73C404.665 422.616 404.578 422.482 404.52 422.334C404.462 422.187 404.434 422.029 404.438 421.871L406.239 343.845L411.544 343.227L407.018 421.877C406.999 422.204 406.856 422.511 406.618 422.736C406.38 422.961 406.065 423.087 405.738 423.088Z" fill="#B0D4FF"/>
<path d="M494.57 339.005V285.539C494.57 281.025 492.776 276.696 489.583 273.505C486.39 270.313 482.059 268.52 477.543 268.52H439.001C434.487 268.524 430.158 270.319 426.966 273.51C423.773 276.7 421.978 281.027 421.974 285.539V341.05L494.57 339.005Z" fill="#B0D4FF"/>
<path d="M489.452 347.449H415.035V339.008H494.57V342.333C494.57 343.69 494.031 344.991 493.071 345.95C492.111 346.91 490.81 347.449 489.452 347.449Z" fill="#95C0F4"/>
<path d="M406.121 347.449H462.417C464.508 347.449 466.203 345.755 466.203 343.665V342.791C466.203 340.702 464.508 339.008 462.417 339.008H406.121C404.03 339.008 402.336 340.702 402.336 342.791V343.665C402.336 345.755 404.03 347.449 406.121 347.449Z" fill="#CAE5FF"/>
<path d="M535.846 57.5928H313.657V249.298H535.846V57.5928Z" fill="#95C0F4"/>
<path d="M531.527 60.7871H317.888V245.476H531.527V60.7871Z" fill="#DFEDFB"/>
<path d="M392.558 141.143H345.741V82.7157L353.682 75.5645H392.558V141.143Z" fill="white"/>
<path d="M345.741 82.7157H353.427L353.682 75.5645L345.741 82.7157Z" fill="#B0D4FF"/>
<path d="M376.643 81.249H361.656V81.9625H376.643V81.249Z" fill="#B0D4FF"/>
<path d="M380.173 83.3896H358.126V84.1031H380.173V83.3896Z" fill="#B0D4FF"/>
<path d="M387.891 97.1357H351.285V98.0522H387.891V97.1357Z" fill="#B0D4FF"/>
<path d="M387.891 99.9209H351.285V100.837H387.891V99.9209Z" fill="#B0D4FF"/>
<path d="M387.891 102.709H351.285V103.626H387.891V102.709Z" fill="#B0D4FF"/>
<path d="M387.891 105.495H351.285V106.411H387.891V105.495Z" fill="#B0D4FF"/>
<path d="M387.891 135.304H351.285V136.221H387.891V135.304Z" fill="#B0D4FF"/>
<path d="M446.611 222.206H399.798V163.778L407.735 156.627H446.611V222.206Z" fill="white"/>
<path d="M399.798 163.778H407.48L407.736 156.627L399.798 163.778Z" fill="#B0D4FF"/>
<path d="M430.7 162.312H415.709V163.025H430.7V162.312Z" fill="#B0D4FF"/>
<path d="M434.23 164.452H412.183V165.166H434.23V164.452Z" fill="#B0D4FF"/>
<path d="M441.948 178.198H405.342V179.115H441.948V178.198Z" fill="#B0D4FF"/>
<path d="M441.948 180.983H405.342V181.9H441.948V180.983Z" fill="#B0D4FF"/>
<path d="M441.948 183.769H405.342V184.685H441.948V183.769Z" fill="#B0D4FF"/>
<path d="M441.948 186.558H405.342V187.474H441.948V186.558Z" fill="#B0D4FF"/>
<path d="M441.948 195.129H405.342V196.045H441.948V195.129Z" fill="#B0D4FF"/>
<path d="M441.948 197.914H405.342V198.83H441.948V197.914Z" fill="#B0D4FF"/>
<path d="M441.948 201.145H405.342V202.061H441.948V201.145Z" fill="#B0D4FF"/>
<path d="M473.03 75.5645H447.181V98.3437H473.03V75.5645Z" fill="#B0D4FF"/>
<path d="M458.973 78.274C458.973 78.05 459.039 77.8311 459.164 77.6449C459.288 77.4587 459.465 77.3135 459.672 77.2278C459.879 77.1421 460.107 77.1197 460.327 77.1634C460.546 77.2071 460.748 77.3149 460.907 77.4733C461.065 77.6317 461.173 77.8334 461.217 78.0531C461.26 78.2728 461.238 78.5004 461.152 78.7074C461.066 78.9143 460.921 79.0911 460.735 79.2156C460.549 79.34 460.33 79.4064 460.106 79.4064C459.957 79.4068 459.809 79.3779 459.671 79.3211C459.534 79.2643 459.409 79.181 459.303 79.0757C459.198 78.9705 459.115 78.8455 459.058 78.7079C459.001 78.5703 458.972 78.4228 458.973 78.274Z" fill="#FFA412"/>
<path d="M472.193 105.535L446.407 107.333L447.993 130.057L473.779 128.259L472.193 105.535Z" fill="white"/>
<path d="M458.471 110.591C458.456 110.368 458.508 110.146 458.619 109.952C458.73 109.759 458.896 109.602 459.097 109.503C459.297 109.404 459.522 109.366 459.743 109.395C459.965 109.424 460.173 109.517 460.341 109.664C460.509 109.811 460.63 110.004 460.689 110.219C460.747 110.435 460.741 110.663 460.669 110.875C460.598 111.086 460.466 111.272 460.289 111.408C460.112 111.545 459.899 111.626 459.676 111.641C459.377 111.661 459.083 111.562 458.857 111.365C458.631 111.168 458.492 110.89 458.471 110.591Z" fill="#B0D4FF"/>
<path d="M386.287 189.449L360.5 191.247L362.086 213.971L387.873 212.173L386.287 189.449Z" fill="white"/>
<path d="M372.57 194.507C372.555 194.284 372.606 194.062 372.718 193.869C372.829 193.675 372.995 193.519 373.195 193.42C373.395 193.321 373.62 193.283 373.842 193.312C374.063 193.34 374.271 193.434 374.44 193.58C374.608 193.727 374.729 193.921 374.788 194.136C374.846 194.351 374.839 194.579 374.768 194.791C374.697 195.003 374.565 195.188 374.388 195.325C374.211 195.461 373.998 195.542 373.775 195.558C373.476 195.578 373.181 195.478 372.955 195.281C372.73 195.084 372.591 194.806 372.57 194.507Z" fill="#B0D4FF"/>
<path d="M353.87 205.74L328.022 206.006L328.257 228.784L354.105 228.518L353.87 205.74Z" fill="white"/>
<path d="M339.844 210.03C339.841 209.806 339.905 209.586 340.028 209.399C340.15 209.211 340.326 209.064 340.532 208.976C340.738 208.888 340.966 208.863 341.186 208.904C341.406 208.946 341.61 209.052 341.77 209.208C341.93 209.365 342.04 209.566 342.086 209.785C342.132 210.005 342.111 210.233 342.028 210.441C341.944 210.649 341.8 210.827 341.615 210.953C341.429 211.079 341.211 211.148 340.987 211.15C340.838 211.151 340.691 211.124 340.553 211.068C340.415 211.013 340.289 210.931 340.183 210.827C340.077 210.723 339.992 210.599 339.934 210.462C339.876 210.326 339.845 210.179 339.844 210.03Z" fill="#B0D4FF"/>
<path d="M511.357 123.772L485.911 119.228L481.903 141.652L507.349 146.196L511.357 123.772Z" fill="#EEF6FF"/>
<path d="M497.108 124.396C497.142 124.204 497.232 124.028 497.367 123.888C497.501 123.748 497.674 123.651 497.864 123.609C498.054 123.567 498.252 123.583 498.433 123.653C498.614 123.724 498.769 123.846 498.881 124.006C498.992 124.165 499.053 124.353 499.057 124.548C499.061 124.742 499.008 124.933 498.903 125.096C498.799 125.26 498.648 125.389 498.47 125.467C498.292 125.545 498.095 125.568 497.904 125.535C497.777 125.512 497.655 125.465 497.546 125.395C497.438 125.326 497.344 125.236 497.27 125.13C497.196 125.024 497.143 124.905 497.116 124.779C497.088 124.653 497.085 124.523 497.108 124.396Z" fill="#78ACEA"/>
<path d="M431.942 105.017L406.242 107.798L408.696 130.445L434.395 127.663L431.942 105.017Z" fill="#EEF6FF"/>
<path d="M418.436 109.612C418.416 109.419 418.452 109.224 418.542 109.052C418.632 108.88 418.771 108.739 418.941 108.646C419.111 108.552 419.305 108.512 419.498 108.529C419.692 108.546 419.876 108.619 420.027 108.741C420.179 108.862 420.291 109.025 420.349 109.21C420.408 109.395 420.411 109.593 420.357 109.779C420.303 109.966 420.195 110.132 420.047 110.257C419.898 110.382 419.716 110.461 419.523 110.482C419.395 110.497 419.265 110.486 419.14 110.45C419.016 110.414 418.9 110.354 418.799 110.273C418.698 110.192 418.614 110.092 418.552 109.979C418.489 109.865 418.45 109.74 418.436 109.612Z" fill="#78ACEA"/>
<path d="M364.844 158.86L339.563 164.25L344.317 186.528L369.598 181.138L364.844 158.86Z" fill="#BAE8E3"/>
<path d="M352.3 165.418C352.138 165.312 352.01 165.16 351.934 164.981C351.858 164.803 351.837 164.606 351.872 164.415C351.908 164.224 352 164.049 352.135 163.91C352.271 163.771 352.445 163.676 352.635 163.636C352.824 163.595 353.022 163.612 353.202 163.684C353.383 163.756 353.537 163.88 353.647 164.04C353.757 164.2 353.817 164.389 353.82 164.583C353.823 164.777 353.768 164.967 353.662 165.13C353.592 165.238 353.501 165.332 353.394 165.405C353.288 165.478 353.168 165.53 353.041 165.557C352.915 165.584 352.784 165.585 352.657 165.561C352.53 165.537 352.408 165.489 352.3 165.418Z" fill="#FFA412"/>
<path d="M432.612 98.3404H408.007V81.8189L414.822 75.5645H432.612V98.3404Z" fill="white"/>
<path d="M407.876 81.8189H414.596L414.821 75.5645L407.876 81.8189Z" fill="#B0D4FF"/>
<path d="M420.401 77.6717C420.401 77.5118 420.449 77.3555 420.538 77.2226C420.627 77.0896 420.753 76.986 420.901 76.9248C421.048 76.8636 421.211 76.8476 421.368 76.8788C421.525 76.91 421.669 76.987 421.782 77.1C421.895 77.2131 421.972 77.3572 422.004 77.514C422.035 77.6708 422.019 77.8333 421.958 77.981C421.896 78.1287 421.793 78.255 421.66 78.3438C421.527 78.4327 421.37 78.4801 421.21 78.4801C421.104 78.4805 420.999 78.4599 420.9 78.4194C420.802 78.3789 420.713 78.3194 420.637 78.2443C420.562 78.1691 420.503 78.0798 420.462 77.9815C420.422 77.8833 420.401 77.778 420.401 77.6717Z" fill="#B0D4FF"/>
<path d="M504.499 233.595H479.897V217.07L486.708 210.816H504.499V233.595Z" fill="white"/>
<path d="M479.766 217.07H486.485L486.708 210.816L479.766 217.07Z" fill="#B0D4FF"/>
<path d="M492.288 212.924C492.288 212.764 492.336 212.607 492.424 212.475C492.513 212.342 492.64 212.238 492.787 212.177C492.935 212.116 493.098 212.1 493.255 212.131C493.412 212.162 493.556 212.239 493.669 212.352C493.782 212.465 493.859 212.609 493.89 212.766C493.922 212.923 493.906 213.085 493.844 213.233C493.783 213.381 493.679 213.507 493.546 213.596C493.413 213.685 493.257 213.732 493.097 213.732C492.883 213.731 492.677 213.646 492.526 213.494C492.374 213.343 492.289 213.138 492.288 212.924Z" fill="#B0D4FF"/>
<path d="M515.724 200.804H491.119V184.283L497.93 178.025H515.724V200.804Z" fill="white"/>
<path d="M490.988 184.283H497.707L497.93 178.025L490.988 184.283Z" fill="#B0D4FF"/>
<path d="M503.513 180.133C503.513 179.973 503.561 179.816 503.65 179.683C503.738 179.551 503.865 179.447 504.012 179.386C504.16 179.325 504.323 179.309 504.48 179.34C504.637 179.371 504.781 179.448 504.894 179.561C505.007 179.674 505.084 179.818 505.115 179.975C505.147 180.132 505.131 180.294 505.069 180.442C505.008 180.59 504.904 180.716 504.771 180.805C504.638 180.894 504.482 180.941 504.322 180.941C504.108 180.941 503.902 180.856 503.75 180.704C503.598 180.553 503.513 180.347 503.513 180.133Z" fill="#B0D4FF"/>
<path d="M483.254 200.804H458.652V184.283L465.463 178.025H483.254V200.804Z" fill="#BAE8E3"/>
<path d="M458.521 184.283H465.24L465.463 178.025L458.521 184.283Z" fill="#A1D6CE"/>
<path d="M471.042 180.133C471.042 179.973 471.09 179.816 471.179 179.683C471.268 179.551 471.394 179.447 471.542 179.386C471.69 179.325 471.852 179.309 472.009 179.34C472.166 179.371 472.31 179.448 472.423 179.561C472.536 179.674 472.613 179.818 472.645 179.975C472.676 180.132 472.66 180.294 472.599 180.442C472.537 180.59 472.434 180.716 472.301 180.805C472.168 180.894 472.011 180.941 471.851 180.941C471.637 180.94 471.432 180.855 471.28 180.703C471.129 180.552 471.043 180.347 471.042 180.133Z" fill="#F99746"/>
<path d="M522.666 92.6388H498.064V76.1173L504.875 69.8628H522.666V92.6388Z" fill="#BAE8E3"/>
<path d="M497.93 76.1173H504.653L504.875 69.8628L497.93 76.1173Z" fill="#A1D6CE"/>
<path d="M510.455 71.9671C510.455 71.8072 510.503 71.6509 510.591 71.518C510.68 71.385 510.807 71.2814 510.954 71.2202C511.102 71.159 511.265 71.143 511.422 71.1742C511.579 71.2054 511.723 71.2824 511.836 71.3955C511.949 71.5085 512.026 71.6526 512.057 71.8094C512.088 71.9662 512.072 72.1288 512.011 72.2765C511.95 72.4242 511.846 72.5505 511.713 72.6393C511.58 72.7281 511.424 72.7755 511.264 72.7755C511.05 72.7747 510.844 72.6892 510.693 72.5378C510.541 72.3864 510.456 72.1813 510.455 71.9671Z" fill="#F99746"/>
<path d="M279.363 0H232.563C230.405 0 228.656 1.74812 228.656 3.90454V49.0506C228.656 51.207 230.405 52.9552 232.563 52.9552H279.363C281.52 52.9552 283.269 51.207 283.269 49.0506V3.90454C283.269 1.74812 281.52 0 279.363 0Z" fill="#C0D8FB"/>
<path d="M277.332 2.29443H234.59C232.618 2.29443 231.02 3.89163 231.02 5.86187V47.0936C231.02 49.0638 232.618 50.661 234.59 50.661H277.332C279.304 50.661 280.902 49.0638 280.902 47.0936V5.86187C280.902 3.89163 279.304 2.29443 277.332 2.29443Z" fill="#DFEBFD"/>
<path d="M275.653 24.5464C275.877 24.5457 276.096 24.6116 276.283 24.7356C276.47 24.8597 276.615 25.0363 276.702 25.2432C276.788 25.45 276.811 25.6778 276.768 25.8977C276.724 26.1176 276.617 26.3197 276.458 26.4784C276.3 26.6371 276.098 26.7453 275.878 26.7892C275.658 26.8332 275.43 26.811 275.223 26.7253C275.016 26.6397 274.839 26.4946 274.714 26.3083C274.589 26.122 274.523 25.9029 274.523 25.6788C274.523 25.379 274.642 25.0915 274.854 24.8792C275.065 24.6669 275.353 24.5473 275.653 24.5464Z" fill="#B7D3F3"/>
<path d="M273.675 35.7006C273.833 35.8586 273.94 36.0597 273.984 36.2788C274.027 36.4978 274.005 36.7248 273.919 36.9311C273.834 37.1374 273.689 37.3137 273.503 37.4378C273.318 37.5618 273.099 37.628 272.876 37.628C272.652 37.628 272.434 37.5618 272.248 37.4378C272.062 37.3137 271.918 37.1374 271.832 36.9311C271.747 36.7248 271.724 36.4978 271.768 36.2788C271.811 36.0597 271.919 35.8586 272.077 35.7006C272.289 35.4896 272.576 35.3711 272.876 35.3711C273.175 35.3711 273.462 35.4896 273.675 35.7006Z" fill="#B7D3F3"/>
<path d="M266.572 42.8223C266.73 42.9804 266.837 43.1816 266.88 43.4005C266.923 43.6194 266.9 43.8461 266.815 44.0522C266.729 44.2582 266.584 44.4342 266.399 44.5581C266.213 44.6819 265.995 44.748 265.772 44.748C265.548 44.748 265.33 44.6819 265.144 44.5581C264.959 44.4342 264.814 44.2582 264.728 44.0522C264.643 43.8461 264.62 43.6194 264.663 43.4005C264.706 43.1816 264.813 42.9804 264.971 42.8223C265.076 42.7169 265.201 42.6332 265.338 42.5762C265.475 42.5191 265.623 42.4897 265.772 42.4897C265.92 42.4897 266.068 42.5191 266.205 42.5762C266.342 42.6332 266.467 42.7169 266.572 42.8223Z" fill="#B7D3F3"/>
<path d="M254.83 46.4912C254.829 46.267 254.895 46.0478 255.019 45.8611C255.143 45.6745 255.32 45.5288 255.527 45.4426C255.734 45.3564 255.962 45.3335 256.182 45.3768C256.402 45.4202 256.604 45.5277 256.763 45.686C256.922 45.8442 257.03 46.046 257.074 46.2658C257.118 46.4855 257.095 46.7134 257.01 46.9205C256.924 47.1276 256.779 47.3047 256.593 47.4292C256.406 47.5538 256.187 47.6203 255.963 47.6203C255.663 47.6203 255.375 47.5014 255.163 47.2898C254.95 47.0781 254.831 46.7909 254.83 46.4912Z" fill="#B7D3F3"/>
<path d="M236.234 24.5464C236.009 24.5464 235.79 24.6128 235.604 24.7372C235.418 24.8617 235.273 25.0385 235.187 25.2455C235.101 25.4524 235.079 25.6801 235.122 25.8997C235.166 26.1194 235.274 26.3212 235.432 26.4796C235.591 26.6379 235.793 26.7458 236.013 26.7895C236.232 26.8332 236.46 26.8107 236.667 26.725C236.874 26.6393 237.051 26.4942 237.176 26.3079C237.3 26.1217 237.367 25.9028 237.367 25.6788C237.367 25.53 237.338 25.3825 237.281 25.2449C237.224 25.1074 237.141 24.9823 237.036 24.8771C236.93 24.7719 236.805 24.6885 236.668 24.6317C236.53 24.575 236.382 24.546 236.234 24.5464Z" fill="#B7D3F3"/>
<path d="M238.211 35.7003C238.053 35.8586 237.945 36.0604 237.901 36.2801C237.857 36.4998 237.879 36.7276 237.965 36.9346C238.051 37.1416 238.196 37.3185 238.382 37.443C238.569 37.5675 238.788 37.634 239.012 37.634C239.236 37.634 239.455 37.5675 239.641 37.443C239.828 37.3185 239.973 37.1416 240.059 36.9346C240.144 36.7276 240.167 36.4998 240.123 36.2801C240.079 36.0604 239.971 35.8586 239.812 35.7003C239.6 35.4883 239.312 35.3691 239.012 35.3691C238.712 35.3691 238.424 35.4883 238.211 35.7003Z" fill="#B7D3F3"/>
<path d="M245.317 42.8221C245.159 42.98 245.052 43.1812 245.008 43.4002C244.964 43.6193 244.987 43.8463 245.072 44.0526C245.158 44.2588 245.303 44.4352 245.488 44.5592C245.674 44.6833 245.893 44.7495 246.116 44.7495C246.339 44.7495 246.558 44.6833 246.744 44.5592C246.929 44.4352 247.074 44.2588 247.16 44.0526C247.245 43.8463 247.268 43.6193 247.224 43.4002C247.18 43.1812 247.073 42.98 246.915 42.8221C246.81 42.7172 246.685 42.634 246.548 42.5772C246.411 42.5204 246.264 42.4912 246.116 42.4912C245.968 42.4912 245.821 42.5204 245.684 42.5772C245.547 42.634 245.422 42.7172 245.317 42.8221Z" fill="#B7D3F3"/>
<path d="M255.658 25.6923C255.658 25.4681 255.724 25.2487 255.848 25.062C255.972 24.8752 256.149 24.7296 256.356 24.6435C256.563 24.5574 256.791 24.5346 257.012 24.5782C257.232 24.6218 257.434 24.7298 257.592 24.8883C257.751 25.0469 257.859 25.249 257.903 25.4689C257.946 25.6889 257.924 25.9169 257.837 26.1239C257.751 26.331 257.606 26.5078 257.419 26.632C257.232 26.7562 257.012 26.8221 256.788 26.8215C256.488 26.8215 256.201 26.7025 255.989 26.4907C255.777 26.279 255.658 25.9918 255.658 25.6923Z" fill="#B7D3F3"/>
<path d="M256.942 11.5532H256.634V25.679H256.942V11.5532Z" fill="#B7D3F3"/>
<path d="M263.85 19.4126L256.358 25.2925L256.93 26.021L264.423 20.141L263.85 19.4126Z" fill="#B7D3F3"/>
<path d="M567.472 420.296C567.249 423.334 562.96 423.366 558.094 422.8C553.228 422.234 554.521 423.455 547.707 423.563C540.892 423.671 538.538 421.406 538.21 420.434C537.916 419.57 541.197 418.843 544.707 417.989C545.149 417.884 545.591 417.773 546.033 417.662C549.992 416.657 552.615 413.695 556.001 411.116C559.21 408.668 563.346 399.805 563.346 399.805L572.655 399.383C572.655 399.383 568.726 407.329 567.262 410.756C566.398 412.769 566.764 415.246 567.141 417.145C567.391 418.176 567.502 419.236 567.472 420.296Z" fill="#FFB27D"/>
<path d="M558.094 422.8C553.228 422.237 554.521 423.455 547.707 423.563C540.892 423.671 538.538 421.406 538.21 420.434C537.916 419.57 541.197 418.843 544.707 417.989L544.75 418.054C547.859 419.542 551.314 420.161 554.747 419.845C559.331 419.386 563.988 417.478 567.141 417.135C567.391 418.169 567.501 419.233 567.469 420.296C567.249 423.347 562.96 423.366 558.094 422.8Z" fill="#233862"/>
<path d="M631.754 420.925C631.532 423.962 627.245 424.001 622.379 423.442C617.514 422.882 618.807 424.096 611.993 424.214C605.178 424.332 602.824 422.067 602.497 421.095C602.202 420.231 605.48 419.501 608.99 418.644L610.319 418.316C614.275 417.305 616.895 414.343 620.277 411.751C623.483 409.3 620.277 394.781 620.277 394.781L630.517 393.799C630.517 393.799 630.026 406.024 630.032 411.581C630.032 413.774 631.044 415.881 631.42 417.799C631.67 418.822 631.782 419.873 631.754 420.925Z" fill="#FFB27D"/>
<path d="M622.38 423.442C617.51 422.882 618.807 424.096 611.993 424.214C605.178 424.332 602.824 422.067 602.497 421.095C602.202 420.231 605.48 419.501 608.99 418.644L609.033 418.706C612.144 420.191 615.6 420.806 619.033 420.486C623.617 420.025 628.271 418.11 631.424 417.767C631.674 418.8 631.784 419.862 631.751 420.925C631.532 423.962 627.246 424.001 622.38 423.442Z" fill="#233862"/>
<path d="M601.877 169.984C600.116 162.741 602.67 159.366 604.975 157.57C606.065 154.902 607.313 152.988 608.577 152.254C610.905 150.945 613.692 150.788 615.644 150.906C615.215 150.547 614.702 150.304 614.154 150.199C615.362 150.019 618.06 151.217 618.06 151.217C634.882 144.74 637.528 169.496 637.174 175.246C636.82 180.997 636.869 187.772 645.622 192.301C662.322 200.948 640.072 233.54 640.072 233.54C640.497 228.892 619.039 204.362 607.847 197.018C605.122 193.008 604.153 185.926 604.081 185.366C604.549 190.982 605.512 194.134 606.373 195.908C601.281 191.208 600.525 179.94 601.877 169.984Z" fill="#A9453D"/>
<path d="M608.522 197.378C608.466 197.4 613.928 200.235 618.018 199.112C621.882 198.062 624.407 193.054 624.354 193.041C622.717 192.714 622.245 190.469 622.278 180.813L621.541 180.957L609.098 183.419C609.098 183.419 609.383 187.346 609.39 191.018C609.419 194.111 609.232 197.047 608.522 197.378Z" fill="#FFB27D"/>
<path d="M609.118 183.419C609.118 183.419 609.403 187.346 609.409 191.018C616.371 190.822 620.048 184.473 621.558 180.958L609.118 183.419Z" fill="#ED975D"/>
<path d="M558.516 404.721C558.374 405.167 558.336 405.639 558.406 406.102C558.475 406.564 558.651 407.005 558.918 407.389C559.185 407.773 559.537 408.09 559.946 408.317C560.356 408.543 560.812 408.672 561.28 408.695L566.139 408.92L571.28 409.077C571.914 409.098 572.544 408.971 573.121 408.707C573.698 408.444 574.207 408.051 574.607 407.559C578.71 402.528 591.343 385.758 599.006 361.392C599.224 360.706 599.451 360.015 599.687 359.317C604.749 344.569 615.238 326.058 620.769 309.304C621.646 306.633 622.439 304.123 623.146 301.743C623.372 300.981 623.595 300.235 623.801 299.498C627.874 285.349 629.04 276.061 630.14 266.138L590.223 266.465C590.223 266.465 581.824 331.743 558.516 404.721Z" fill="#2A4E96"/>
<path d="M595.817 243.528C595.915 262.511 593.03 270.66 593.03 270.66C593.03 270.66 610.12 279.34 630.435 272.951C630.675 272.876 647.254 269.093 647.254 269.093C646.926 268.323 643.891 255.53 643.56 254.826C639.27 245.62 636.028 241.584 635.505 238.753C634.561 233.471 634.542 228.002 635.01 222.847C635.816 214.377 637.467 206.01 639.938 197.868C634.401 196.608 629.221 194.396 623.457 192.239C622.148 193.875 618.084 195.613 614.567 195.535C610.523 195.443 609.21 193.712 609.419 191.823C605.107 194.222 601.668 196.487 601.668 196.487C598.001 202.85 590.571 209.029 590.03 218.788C589.899 221.188 595.813 243.011 595.817 243.528Z" fill="white"/>
<path d="M630.147 245.646C631.889 248.113 635.235 263.116 643.572 265.005C639.283 254.309 636.041 249.622 635.517 246.349C634.574 240.213 634.554 233.863 635.022 227.874C632.239 222.994 630.16 219.646 630.16 219.646C629.94 218.857 625.729 205.851 624.38 217.476C623.031 229.101 628.195 242.883 630.147 245.646Z" fill="#5F9AA8"/>
<path d="M606.796 186.908C606.796 186.908 623.261 187.179 623.274 176.929C623.287 166.678 625.419 159.808 614.904 159.199C604.389 158.591 602.343 162.502 601.508 165.925C600.673 169.349 602.51 186.574 606.796 186.908Z" fill="#FFB27D"/>
<path d="M607.421 158.947C607.421 158.947 611.93 170.975 618.85 172.756C625.769 174.536 628.768 172.68 628.768 172.68C628.768 172.68 623.46 168.465 622.36 161.111C622.344 161.111 610.804 153.223 607.421 158.947Z" fill="#A9453D"/>
<path d="M608.522 159.926C608.522 159.926 605.156 162.61 604.334 165.222C603.512 167.833 603.145 173.207 601.576 173.024C601.576 173.024 598.181 164.842 601.996 160.224C606.043 155.321 608.522 159.926 608.522 159.926Z" fill="#A9453D"/>
<path d="M580.884 256.708L573.107 280.407L577.544 282.184L590.404 261.244L580.884 256.708Z" fill="#FFB27D"/>
<path d="M601.854 195.09C601.854 195.09 592.686 198.729 590.03 204.398C587.374 210.067 583.356 248.107 581.755 252.015C580.154 255.923 578.952 259.012 578.952 259.012C578.952 259.012 583.576 262.907 588.226 263.192C592.875 263.477 601.854 195.09 601.854 195.09Z" fill="#F99746"/>
<path d="M609.419 191.823C609.419 191.823 599.893 215.345 599.612 220.107C599.33 224.87 598.492 297.96 598.492 297.96C598.492 297.96 599.052 301.321 592.598 299.923C586.144 298.526 584.474 297.125 584.474 297.125C584.474 297.125 590.636 252.038 588.957 236.354C587.277 220.67 601.855 195.09 601.855 195.09L609.419 191.823Z" fill="#F99746"/>
<path d="M566.139 408.92L571.706 409.09C572.198 409.106 572.688 409.009 573.137 408.807C573.586 408.604 573.983 408.301 574.296 407.922C578.049 403.382 591.134 386.38 598.993 361.391C599.211 360.706 599.438 360.014 599.674 359.316C604.736 344.569 615.225 326.057 620.756 309.303C621.633 306.633 622.426 304.122 623.133 301.743C623.359 300.98 623.582 300.234 623.788 299.498L617.894 295.04C617.894 295.04 600.244 323.602 594.782 350.486C590.066 373.835 571.074 401.932 566.139 408.92Z" fill="#1E3D70"/>
<path d="M617.314 352.98C617.216 365.345 617.805 392.909 619.308 406.387C619.376 406.982 619.66 407.531 620.107 407.93C620.554 408.329 621.132 408.55 621.731 408.55H625.896C627.652 408.55 628.965 408.55 629.826 408.524C630.195 408.517 630.55 408.383 630.832 408.145C631.114 407.906 631.304 407.578 631.371 407.215C635.514 386.147 638.477 368.647 640.648 353.54C642.462 340.88 644.077 330.031 645.318 320.687C646.569 311.287 647.436 303.416 647.747 296.762C647.796 295.715 647.83 294.697 647.852 293.708C647.872 292.726 647.875 291.745 647.852 290.809L613.361 287.447C613.823 310.364 617.369 345.39 617.314 352.98Z" fill="#2A4E96"/>
<path d="M625.896 408.56C627.475 408.56 628.696 408.56 629.561 408.537C630.006 408.53 630.435 408.371 630.777 408.085C631.118 407.8 631.352 407.406 631.437 406.969C635.55 386.023 638.5 368.608 640.661 353.549C642.476 340.89 644.09 330.04 645.331 320.696C646.582 311.297 647.45 303.425 647.761 296.771L635.105 304.214C635.105 304.214 643.183 307.061 640.102 328.626C637.02 350.191 630.186 405.506 625.896 408.56Z" fill="#1E3D70"/>
<path d="M624.269 296.562C624.269 296.562 626.699 305.333 635.105 304.214C643.51 303.095 655.462 298.054 655.462 298.054C655.462 298.054 651.86 286.707 647.404 271.806C641.997 253.763 635.288 230.499 632.148 215.84C631.263 211.729 630.658 208.312 630.432 205.835L623.467 192.301C623.467 192.301 613.067 215.627 612.507 221.508C611.947 227.39 624.269 296.562 624.269 296.562Z" fill="#F99746"/>
<path d="M632.662 220.631L623.467 192.301C623.493 192.301 635.092 195.751 640.927 198.7C640.927 198.7 644.575 203.4 646.821 214.239C646.821 214.239 649.205 240.272 643.874 249.793C643.874 249.793 627.063 253.154 600.162 243.901V237.742C600.162 237.742 629.584 239.28 635.606 239.981L632.662 220.631Z" fill="#FFB27D"/>
<path d="M624.642 233.847C625.016 243.368 627.262 261.85 647.237 271.744L647.397 271.822C641.991 253.779 635.281 230.515 632.141 215.856C628.477 221.312 624.449 228.587 624.642 233.847Z" fill="#ED7D2B"/>
<path d="M623.467 192.301C623.467 192.301 640.53 193.502 644.64 202.653C648.75 211.804 650.056 242.232 644.827 251.194C644.827 251.194 637.623 253.242 624.888 250.866L624.419 250.778C624.419 250.778 620.356 240.835 623.997 238.874C623.997 238.874 634.738 239.434 633.618 235.886C632.498 232.338 623.467 192.301 623.467 192.301Z" fill="#F99746"/>
<path d="M580.682 241.558L581.183 243.172L609.18 234.466C609.29 234.33 609.364 234.17 609.397 233.998C609.43 233.827 609.421 233.651 609.37 233.484C609.335 233.32 609.249 233.172 609.124 233.059C608.999 232.947 608.843 232.877 608.676 232.859L580.682 241.558Z" fill="#A9453D"/>
<path d="M578.654 243.083L580.681 241.558L581.182 243.172L578.654 243.083Z" fill="#A9453D"/>
<path d="M574.211 279.759C574.211 279.759 567.108 283.686 566.175 286.671C565.242 289.656 565.884 295.917 567.01 295.835C568.137 295.753 569.82 289.109 570.753 288.635C571.686 288.16 572.996 286.769 572.996 287.797C572.996 288.825 572.063 290.69 572.531 290.972C572.999 291.253 574.496 288.353 575.521 287.797C576.546 287.241 576.981 282.616 577.98 281.376C578.979 280.135 574.211 279.759 574.211 279.759Z" fill="#FFB27D"/>
<path d="M600.172 237.752C600.172 237.752 593.822 233.824 591.157 234.443C588.491 235.062 581.703 239.961 584.968 241.025C588.232 242.089 590.878 240.972 592.136 241.745C593.393 242.517 594.32 243.931 600.172 243.911C606.023 243.892 600.172 237.752 600.172 237.752Z" fill="#FFB27D"/>
<path d="M100.673 195.748C99.6091 193.695 123.903 186.305 124.286 206.548C124.286 206.548 169.803 205.432 148.066 180.08C140.535 171.302 141.317 164.043 141.543 157.291C141.769 150.539 136.857 130.899 120.013 132.876C120.013 132.876 115.602 131.082 110.094 133.936C97.5723 140.439 69.529 203.216 100.673 195.748Z" fill="#163560"/>
<path d="M175.074 218.393C175.074 218.393 178.022 213.886 180.422 213.811C182.822 213.735 187.233 212.501 186.879 213.369C186.526 214.236 183.785 214.351 183.52 214.871C183.254 215.391 187.587 216.18 188.824 216.285C190.062 216.39 192.98 216.285 192.891 216.903C192.803 217.522 187.632 220.085 183.985 219.731C180.337 219.378 175.824 220.792 175.824 220.792L175.074 218.393Z" fill="#FFB27D"/>
<path d="M132.233 219.852C133.528 222.27 135.044 224.562 136.762 226.699C140.282 231.104 145.712 236.19 152.526 237.202C155.781 237.68 158.964 236.982 161.891 235.683C170.166 232.011 176.391 223.573 176.391 223.573C177.848 219.594 175.461 216.9 175.461 216.9C175.461 216.9 158.761 220.657 157.159 219.846C155.558 219.034 146.281 192.314 144.061 188.956C141.841 185.598 134.316 183.851 134.316 183.851L132.233 219.852Z" fill="#B0D0FF"/>
<path d="M136.762 226.699C140.282 231.104 145.711 236.19 152.526 237.202C155.781 237.68 158.963 236.982 161.891 235.683C161.563 235.726 153.298 236.743 150.004 230.852C146.645 224.843 143.01 215.3 138.019 218.481C135.865 219.852 135.96 223.266 136.762 226.699Z" fill="#98BAF4"/>
<path d="M69.8825 400.155C69.8825 400.155 64.784 404.806 65.7795 408.112C66.775 411.417 71.3757 413.62 72.0012 417.659C72.6266 421.698 75.1087 423.903 77.3485 423.903H88.0236C88.0236 423.903 89.6609 421.059 85.6889 420.205C81.7168 419.351 80.2105 414.602 80.4496 410.193C80.6886 405.785 80.0762 399.91 80.0762 399.91L71.6181 397.946L69.8825 400.155Z" fill="#233862"/>
<path d="M113.045 402.132C113.045 402.132 111.211 421.835 113.447 422.938L142.1 422.879C142.1 422.879 142.1 419.573 137.499 418.84C132.898 418.107 124.813 415.413 123.445 409.414C122.076 403.415 113.045 402.132 113.045 402.132Z" fill="#233862"/>
<path d="M92.6277 260.763C98.5219 247.548 102.124 243.744 101.443 239.653C100.929 236.6 103.001 182.731 103.001 182.731C103.702 182.515 105.104 182.319 105.87 182.149C107.058 181.891 108.161 181.338 109.077 180.539C109.993 179.741 110.692 178.724 111.109 177.583C112.111 174.775 112.91 170.628 112.891 165.428L113.647 165.578L126.346 168.092C126.346 168.092 126.058 172.085 126.048 175.849V175.943C126.037 177.533 126.547 179.083 127.498 180.356C128.45 181.63 129.792 182.558 131.32 183C132.921 183.465 134.319 183.861 134.319 183.861C134.319 183.861 138.982 197.165 139.886 210.836C140.79 224.506 131.405 230.444 139.955 257.759C148.688 285.66 89.3858 268.065 92.6277 260.763Z" fill="#FFB27D"/>
<path d="M126.362 168.092C126.362 168.092 126.074 172.085 126.064 175.848C118.958 175.649 115.202 169.168 113.663 165.578L126.362 168.092Z" fill="#E8945B"/>
<path d="M128.736 171.662C128.736 171.662 111.921 171.94 111.912 161.474C111.902 151.007 109.721 143.99 120.455 143.371C131.189 142.753 133.278 146.746 134.133 150.245C134.987 153.743 133.108 171.312 128.736 171.662Z" fill="#FFB27D"/>
<path d="M128.114 143.106C128.114 143.106 123.51 155.386 116.443 157.203C109.377 159.019 106.315 157.127 106.315 157.127C106.315 157.127 111.735 152.824 112.864 145.312C112.858 145.312 124.64 137.261 128.114 143.106Z" fill="#163560"/>
<path d="M126.971 144.102C126.971 144.102 130.387 145.378 131.791 147.865C133.487 150.773 134.278 154.119 134.064 157.478C134.064 157.478 137.532 149.129 133.635 144.409C129.499 139.402 126.971 144.102 126.971 144.102Z" fill="#163560"/>
<path d="M125.079 165.159C125.511 165.648 126.05 166.03 126.655 166.276C127.259 166.521 127.912 166.624 128.563 166.577C129.107 166.546 129.633 166.371 130.088 166.071C130.543 165.771 130.91 165.356 131.153 164.868C131.153 164.868 127.715 164.04 125.079 165.159Z" fill="#EBF3FA"/>
<path d="M91.0034 206.558C90.7479 210.967 90.7479 215.387 91.0034 219.797C91.2883 224.582 96.1314 230.993 96.8191 232.561C98.5415 236.537 100.487 237.185 100.487 237.185L115.53 240.871L120.822 242.18L137.502 237.202C137.502 237.202 145.099 216.007 142.047 204.074C138.995 192.141 134.336 183.857 134.336 183.857C134.336 183.857 120.723 197.178 103.001 182.728L91.0034 206.558Z" fill="#B0D0FF"/>
<path d="M95.4077 221.737C95.6926 226.522 96.1314 230.98 96.8191 232.564C98.5415 236.541 100.487 237.189 100.487 237.189L115.53 240.874L122.079 238.953C122.079 238.953 100.267 235.65 102.684 216.894L95.4077 221.737Z" fill="#F2CCAA"/>
<path d="M136.441 240.419C136.441 240.419 144.7 266.118 145.23 274.866C145.761 283.614 129.44 399.16 128.785 403.192C128.166 406.992 123.445 409.411 123.445 409.411C123.445 409.411 121.274 410.69 118.173 409.817C113.873 408.602 112.514 407.149 112.514 407.149C112.514 407.149 106.086 324.748 110.065 295.312C112.487 277.109 113.831 258.78 114.089 240.419H136.441Z" fill="#ED7D2B"/>
<path d="M101.443 239.653C101.443 239.653 88.8422 256.551 87.6666 267.974C86.491 279.396 85.823 319.518 83.3212 330.656C80.8195 341.793 71.6245 363.221 71.6245 397.953C71.6245 397.953 72.5807 399.943 75.5311 401.003C76.6574 401.383 77.8042 401.7 78.9661 401.952C80.1486 402.223 81.3879 402.088 82.4841 401.568C83.5802 401.049 84.4693 400.175 85.0077 399.088C91.2293 386.576 111.027 346.231 112.042 337.856C112.76 331.929 119.011 292.69 132.649 269.682C135.924 264.157 130.642 242.19 130.642 242.19L101.443 239.653Z" fill="#F99746"/>
<path d="M125.452 165.444C125.452 165.444 125.74 166.678 128.812 166.488C128.812 166.488 131.389 166.328 131.31 164.973C131.3 164.969 128.812 164.004 125.452 165.444Z" fill="white"/>
<path d="M137.761 236.465C137.761 236.465 134.444 239.084 127.855 239.218C119.997 239.378 100.49 237.215 100.49 237.215C99.9528 238.818 99.6721 240.496 99.6582 242.186C99.6582 242.186 123.471 248.192 137.27 243.064C137.27 243.05 139.048 239.706 137.761 236.465Z" fill="#233862"/>
<path d="M126.153 241.921C126.153 239.682 127.764 237.859 129.755 237.859C131.745 237.859 133.357 239.682 133.357 241.921C133.357 244.16 131.745 245.983 129.755 245.983C127.764 245.983 126.153 244.16 126.153 241.921ZM127.341 241.921C127.341 243.505 128.419 244.795 129.745 244.795C131.071 244.795 132.145 243.505 132.145 241.921C132.145 240.337 131.068 239.047 129.745 239.047C128.422 239.047 127.341 240.337 127.341 241.921Z" fill="white"/>
<path d="M77.0976 241.679L101.362 263.021L130.59 229.824L106.326 208.482L77.0976 241.679Z" fill="#B5453C"/>
<path d="M105.991 241.178C105.991 241.178 114.931 242.222 114.901 244.343C114.872 246.464 112.675 250.82 111.571 251.016C110.467 251.213 104.295 245.125 104.295 245.125L105.991 241.178Z" fill="#FFB27D"/>
<path d="M103.002 182.728C103.002 182.728 91.0658 183.566 86.4912 194.681C81.9167 205.795 73.2358 224.464 73.2358 227.599C73.2358 230.735 78.0855 240.419 104.125 245.983C104.125 245.983 106.82 243.152 106.656 240.913C106.656 240.913 90.4011 226.958 90.4436 225.325C90.5288 222.242 93.1091 218.167 107.383 203.9C111.26 200.019 103.002 182.728 103.002 182.728Z" fill="#B0D0FF"/>
<path d="M234.865 423.294H234.75C234.592 423.294 234.435 423.263 234.289 423.201C234.143 423.14 234.011 423.05 233.9 422.937C233.789 422.824 233.702 422.69 233.644 422.543C233.586 422.395 233.558 422.238 233.561 422.08L235.362 344.051L240.67 343.433L236.145 422.086C236.126 422.413 235.983 422.72 235.745 422.944C235.507 423.169 235.192 423.294 234.865 423.294Z" fill="#B0D4FF"/>
<path d="M203.946 423.294H203.832C203.673 423.294 203.517 423.263 203.371 423.201C203.225 423.14 203.093 423.05 202.982 422.937C202.871 422.824 202.784 422.69 202.726 422.543C202.668 422.395 202.64 422.238 202.643 422.08L204.447 344.051L209.752 343.433L205.227 422.086C205.208 422.413 205.064 422.72 204.826 422.944C204.588 423.169 204.274 423.294 203.946 423.294Z" fill="#95C0F4"/>
<path d="M289.262 423.294H289.376C289.535 423.294 289.691 423.263 289.837 423.201C289.983 423.14 290.115 423.05 290.225 422.937C290.336 422.824 290.422 422.69 290.48 422.542C290.538 422.395 290.566 422.238 290.562 422.08L288.761 344.051L283.456 343.433L287.981 422.086C288 422.413 288.143 422.721 288.381 422.945C288.619 423.17 288.934 423.295 289.262 423.294Z" fill="#B0D4FF"/>
<path d="M200.429 339.214V285.745C200.434 281.23 202.231 276.901 205.427 273.71C208.623 270.519 212.956 268.726 217.474 268.726H256.015C260.533 268.726 264.865 270.519 268.061 273.71C271.257 276.901 273.055 281.23 273.059 285.745V341.256L200.429 339.214Z" fill="#B0D4FF"/>
<path d="M200.429 339.214H279.965V347.655H205.548C204.875 347.655 204.21 347.522 203.589 347.265C202.968 347.008 202.404 346.631 201.928 346.156C201.453 345.681 201.076 345.117 200.819 344.497C200.562 343.876 200.429 343.211 200.429 342.539V339.214Z" fill="#95C0F4"/>
<path d="M288.882 339.214H232.586C230.495 339.214 228.8 340.908 228.8 342.997V343.871C228.8 345.961 230.495 347.655 232.586 347.655H288.882C290.973 347.655 292.667 345.961 292.667 343.871V342.997C292.667 340.908 290.973 339.214 288.882 339.214Z" fill="#B0D4FF"/>
<path d="M286.698 325.89C281.177 335.496 274.232 339.204 274.232 339.204H245.34C245.34 339.204 290.909 318.562 286.698 325.89Z" fill="#233862"/>
<path d="M264.506 400.208C264.16 400.587 263.931 401.058 263.847 401.565C263.763 402.071 263.827 402.591 264.031 403.062C264.722 404.967 266.998 407.091 269.64 409.215C269.968 409.486 270.295 409.735 270.541 409.964L270.744 410.144C270.796 410.193 270.849 410.242 270.901 410.285C273.367 412.556 272.437 413.077 276.867 417.688C281.92 422.925 285.381 423.036 286.386 422.558C287.225 422.149 285.522 419.364 283.639 416.232C283.547 416.081 283.459 415.927 283.364 415.777C283.112 415.358 282.863 414.936 282.614 414.517C280.407 410.75 280.977 408.979 281.498 403.389C281.923 398.83 288.59 377.926 288.59 377.926L278.911 376.257C278.911 376.257 275.996 392.906 272.784 395.469C271.065 396.837 269.143 396.853 267.492 397.864C267.374 397.936 267.26 398.008 267.165 398.084C266.187 398.668 265.292 399.383 264.506 400.208Z" fill="#FFB27D"/>
<path d="M264.506 400.207C264.16 400.587 263.931 401.058 263.847 401.564C263.763 402.071 263.827 402.591 264.031 403.061C264.876 404.963 267.096 407.077 269.65 409.195C269.978 409.47 270.279 409.725 270.541 409.964L270.744 410.144C270.796 410.193 270.849 410.242 270.901 410.285C273.367 412.556 272.437 413.076 276.867 417.688C281.92 422.925 285.381 423.036 286.387 422.558C287.225 422.149 285.522 419.364 283.639 416.231C280.106 414.853 276.999 412.565 274.634 409.601C271.592 405.719 269.565 400.738 267.492 397.848C267.374 397.92 267.26 397.992 267.165 398.067C266.186 398.657 265.291 399.377 264.506 400.207Z" fill="#233862"/>
<path d="M342.565 394.162C343.164 397.151 347.421 396.653 352.182 395.488C356.944 394.323 355.807 395.707 362.583 394.961C369.358 394.215 371.424 391.688 371.614 390.68C371.797 389.787 368.451 389.472 364.862 389.044C364.41 388.995 363.958 388.939 363.503 388.883C359.452 388.376 356.482 385.761 352.801 383.614C349.314 381.582 344.111 373.298 344.111 373.298L334.824 374.031C334.824 374.031 339.697 381.431 341.583 384.648C342.689 386.54 342.631 389.044 342.493 390.975C342.373 392.036 342.398 393.108 342.565 394.162Z" fill="#FFB27D"/>
<path d="M352.182 395.488C356.94 394.326 355.807 395.708 362.583 394.961C369.358 394.215 371.424 391.688 371.614 390.68C371.797 389.787 368.451 389.473 364.862 389.044L364.829 389.116C361.927 390.976 358.575 392.016 355.13 392.127C350.545 392.238 345.666 390.923 342.493 390.975C342.375 392.032 342.399 393.099 342.565 394.15C343.164 397.164 347.421 396.653 352.182 395.488Z" fill="#233862"/>
<path d="M306.97 334.802L298.303 358.154L286.953 388.654C284.929 388.803 282.894 388.618 280.931 388.104C278.217 387.319 275.106 385.27 275.106 385.27C275.106 385.27 278.253 352.541 284.124 333.739C285.63 328.914 287.317 325.01 289.176 322.814C298.28 312.069 306.97 334.802 306.97 334.802Z" fill="#233862"/>
<path d="M298.143 297.718C292.455 295.881 276.229 298.238 259.932 301.426L256.52 295.8L221.318 293.054C221.318 293.054 209.703 318.801 216.062 335.205C216.996 337.617 218.852 339.162 222.019 339.214H222.533H250.288C267.794 339.214 287.34 327.187 289.868 326.683C294.004 325.855 295.66 334.125 299.799 342.811C303.939 351.498 338.695 381.277 338.695 381.277C338.695 381.277 344.039 381.33 346.246 380.502C348.62 379.612 349.488 378.456 349.488 378.456C349.488 378.456 310.972 301.854 298.143 297.718Z" fill="#2B478B"/>
<path d="M255.134 193.352C250.625 190.986 243.765 190.665 242.648 190.514C229.311 188.724 221.282 208.096 220.81 213.968C219.939 224.788 214.212 226.437 206.15 233.212C189.987 246.801 194.728 262.59 203.567 268.455C208.868 271.976 218.217 268.455 218.217 268.455C218.348 268.546 243.778 254.247 256.313 247.348C275.106 244.677 266.628 199.384 255.134 193.352Z" fill="#233862"/>
<path d="M245.805 241.476C245.861 241.512 239.639 243.633 235.477 241.804C231.547 240.072 228.6 233.622 228.656 233.622C230.437 233.536 232.392 231.985 233.895 221.771L234.652 222.045L247.403 226.627C247.403 226.627 246.476 230.715 245.88 234.607C245.379 237.883 245.111 241.012 245.805 241.476Z" fill="#FFB27D"/>
<path d="M247.406 226.647C247.406 226.647 246.48 230.735 245.884 234.626C238.562 233.317 235.687 226.018 234.655 222.062L247.406 226.647Z" fill="#ED975D"/>
<path d="M249.302 230.689C249.302 230.689 231.862 228.349 233.486 217.515C235.11 206.682 233.954 199.082 245.16 200.117C256.366 201.151 257.905 205.612 258.258 209.359C258.612 213.107 253.883 231.019 249.302 230.689Z" fill="#FFB27D"/>
<path d="M257.607 203.41C257.607 203.41 246.44 213.025 238.843 213.801C231.246 214.577 228.365 212.138 228.365 212.138C231.396 209.427 233.837 206.122 235.536 202.428C235.922 201.559 236.534 200.809 237.308 200.256C238.082 199.703 238.99 199.367 239.937 199.283C245.37 198.828 255.652 198.615 257.607 203.41Z" fill="#233862"/>
<path d="M250.625 202.558C250.625 202.558 254.361 206.158 255.537 208.846C256.673 211.431 257.014 217.61 256.11 220.065C256.11 220.065 261.929 208.754 258.635 203.259C255.141 197.43 250.625 202.558 250.625 202.558Z" fill="#233862"/>
<path d="M260.494 267.159C259.967 302.45 260.35 295.073 256.486 298.421C255.556 299.23 252.94 299.711 249.498 299.937C238.669 300.657 219.638 298.873 218.914 296.873C216.416 289.954 218.181 287.804 216.095 277.21C215.879 276.084 215.61 274.863 215.296 273.534C213.557 266.259 211.867 263.784 218.03 252.094C223.62 241.506 229.425 232.911 229.946 233.219C244.682 241.971 245.883 234.616 245.883 234.616C245.883 234.616 260.753 249.943 260.494 267.159Z" fill="white"/>
<path d="M298.303 358.154L286.953 388.654C284.929 388.804 282.894 388.618 280.931 388.105C278.217 387.319 275.106 385.27 275.106 385.27C275.106 385.27 278.253 352.541 284.124 333.739L298.303 358.154Z" fill="#2B478B"/>
<path d="M245.884 234.613C245.884 234.613 261.058 237.185 262.839 243.715C264.621 250.244 275.106 288.628 275.106 288.628C275.106 288.628 267.391 290.016 263.828 286.452C260.266 282.888 251.431 253.396 251.431 253.396L245.884 234.613Z" fill="white"/>
<path d="M249.512 299.936C238.683 300.656 219.651 298.872 218.928 296.873C216.429 289.954 218.194 287.804 216.108 277.209L221.347 262.511C221.347 262.511 220.483 278.875 225.313 283.182C230.143 287.489 245.085 291.492 247.433 295.089C248.53 296.814 249.279 298.545 249.512 299.936Z" fill="#EBF3FF"/>
<path d="M237.091 293.054C237.091 293.054 247.773 290.678 249.499 291.623C251.224 292.569 255.432 296.022 255.959 297.223C256.487 298.424 252.122 296.31 250.72 295.914C249.8 295.669 247.38 296.506 246.181 296.896C241.142 298.578 238.051 297.714 238.051 297.714L237.091 293.054Z" fill="#FFB27D"/>
<path d="M229.94 233.212C229.94 233.212 215.597 234.096 210.62 241.018C203.632 250.762 189.767 292.281 197.715 297.819C206.661 304.057 238.441 299.455 238.441 299.455C238.441 299.455 239.498 294.513 238.025 292.124C236.551 289.735 212.644 285.876 211.54 284.773C210.437 283.67 225.336 263.264 225.336 259.955C225.336 256.646 229.94 233.212 229.94 233.212Z" fill="white"/>
<path d="M250.013 294.595C250.013 294.595 252.253 297.481 252.986 297.825C253.356 298.025 253.775 298.114 254.195 298.084L252.685 295.37L250.013 294.595Z" fill="#FFB27D"/>
<path d="M249.512 291.623L256.019 294.781C256.019 294.781 255.74 295.233 254.938 295.197C254.136 295.161 252.119 294.421 252.119 294.421L249.512 291.623Z" fill="#FFB27D"/>
<path d="M252.986 302.244H304.459L319.941 263.761H268.55L252.986 302.244Z" fill="#F99746"/>
<path d="M305.061 300.745H237.091V302.244H304.459L305.061 300.745Z" fill="#ED7D2B"/>
<path d="M291.466 283.002C291.852 281.651 291.069 280.554 289.717 280.554C289.005 280.594 288.322 280.85 287.758 281.287C287.195 281.724 286.778 282.323 286.564 283.002C286.177 284.354 286.956 285.454 288.312 285.454C289.668 285.454 291.076 284.354 291.466 283.002Z" fill="white"/>
<path d="M521.821 424.721H521.972C522.406 424.703 522.814 424.514 523.109 424.195C523.403 423.876 523.558 423.453 523.54 423.019L521.16 313.771L514.142 312.903L520.128 423.019C520.137 423.466 520.318 423.892 520.633 424.209C520.949 424.526 521.374 424.709 521.821 424.721Z" fill="#78ACEA"/>
<path d="M237.347 424.721H237.2C236.985 424.713 236.773 424.662 236.578 424.572C236.382 424.482 236.207 424.354 236.061 424.196C235.915 424.038 235.801 423.853 235.727 423.651C235.653 423.449 235.619 423.234 235.628 423.019L238.008 313.771L245.026 312.903L239.033 423.019C239.023 423.464 238.842 423.889 238.529 424.205C238.215 424.522 237.792 424.706 237.347 424.721Z" fill="#78ACEA"/>
<path d="M530.27 302.597H230.077C227.618 302.597 225.624 304.59 225.624 307.048V311.329C225.624 313.787 227.618 315.78 230.077 315.78H530.27C532.729 315.78 534.723 313.787 534.723 311.329V307.048C534.723 304.59 532.729 302.597 530.27 302.597Z" fill="#78ACEA"/>
<path d="M164.652 115.369C163.519 87.3206 187.043 74.8574 211.095 74.8574C235.146 74.8574 261.323 81.0759 263.593 118.387C265.05 142.383 252.253 157.147 215.398 157.147C202.954 157.147 193.311 155.184 185.926 151.695L167.504 168.059L176.558 145.444C168.522 137.975 165.143 127.479 164.652 115.369Z" fill="#DFEDFB"/>
<path d="M711.34 424.6C711.34 424.6 712.018 419.331 713.586 416.199C715.155 413.067 725.129 415.057 725.129 415.057C725.129 415.057 727.123 416.768 727.549 424.741L711.34 424.6Z" fill="#233862"/>
<path d="M677.357 424.528C679.701 423.098 678.368 412.419 678.368 412.419C678.368 412.419 667.448 403.687 665.945 410.373C664.442 417.06 655.571 420.061 650.518 420.879C647.031 421.445 645.954 423.373 645.606 424.515L677.357 424.528Z" fill="#233862"/>
<path d="M699.977 346.948C699.597 348.895 699.33 350.862 699.178 352.839C698.163 372.634 682.508 417.891 679.708 418.951C675.376 420.588 668.551 417.112 664.972 415.976C663.495 415.505 662.497 414.013 662.824 412.501C670.578 376.879 673.427 325.586 674.462 295.217C674.986 279.923 677.615 269.361 677.615 269.361C677.615 269.361 715.794 259.182 716.019 272.061C716.232 283.448 703.383 328.145 699.977 346.948Z" fill="#213F7A"/>
<path d="M699.977 346.948L674.472 295.213C674.996 279.919 677.625 269.358 677.625 269.358C677.625 269.358 715.803 259.179 716.029 272.058C716.232 283.447 703.383 328.145 699.977 346.948Z" fill="#233862"/>
<path d="M691.482 272.097L711.667 418.307C711.667 418.307 720.531 420.444 727.424 418.735C727.424 418.735 733.335 340.972 732.84 322.186C732.346 303.399 737.081 271.881 731.76 268.409C726.438 264.936 691.482 272.097 691.482 272.097Z" fill="#213F7A"/>
<path d="M735.696 269.659C735.742 270.3 735.566 270.936 735.198 271.463C734.83 271.99 734.293 272.374 733.676 272.552C730.86 273.367 727.611 273.937 721.35 275.233C713.61 276.794 705.735 277.586 697.839 277.596C682.38 277.694 676.525 272.359 676.525 272.359C675.87 272.359 676.878 269.139 677.795 253.763C678.123 248.552 678.404 241.951 678.621 233.605C678.817 226.097 678.948 217.175 678.948 206.594C678.964 193.863 698.677 180.166 699.041 180.166C699.041 181.998 701.929 185.383 706.382 185.674C711.664 186.021 718.148 183.383 718.148 180.349C718.148 180.319 727.7 195.623 731.092 211.929C732.837 220.147 732.133 219.928 735.696 269.659Z" fill="#B0D0FF"/>
<path d="M699.054 180.172C699.054 180.172 680.716 180.015 676.312 186.201C671.907 192.387 662.231 225.655 667.274 236.724C672.317 247.793 681.767 232.142 687.01 225.364C692.252 218.586 699.054 180.172 699.054 180.172Z" fill="#B0D0FF"/>
<path d="M698.867 177.377V179.272C698.867 179.272 698.353 185.196 705.649 186.06C712.944 186.924 718.364 184.954 718.167 180.385C717.512 176.844 716.9 173.211 716.858 170.281C716.842 169.094 716.929 167.907 717.116 166.734L702.977 166.452L698.812 167.133L698.867 177.377Z" fill="#FFB27D"/>
<path d="M698.814 167.133L698.867 177.377C700.462 178.124 702.204 178.508 703.965 178.503C710.465 178.503 714.667 173.738 716.86 170.281C716.845 169.094 716.932 167.907 717.119 166.734L702.98 166.452L698.814 167.133Z" fill="#E2915A"/>
<path d="M718.203 164.462C716.566 173.299 705.17 172.998 700.245 172.445C698.86 172.291 697.989 172.117 697.989 172.117C696.424 171.698 695.553 169.24 695.147 166.017C694.344 159.641 695.36 150.281 696.437 147.888C698.058 144.288 701.113 140.39 712.59 143.201C724.068 146.013 720.309 153.151 718.203 164.462Z" fill="#FFB27D"/>
<path d="M680.31 204.967C680.31 204.967 673.217 220.618 673.434 225.312C675.756 225.278 678.072 225.576 680.31 226.195C685.851 227.845 680.31 204.967 680.31 204.967Z" fill="#98BAF4"/>
<path d="M692.917 139.48C696.715 139.046 700.425 138.042 703.923 136.502C708.759 134.401 714.86 136.714 716.838 137.759C716.767 137.331 716.603 136.924 716.356 136.567C716.356 136.567 717.244 137.199 717.378 138.079C717.466 138.145 717.509 138.191 717.486 138.207C717.463 138.223 718.495 138.024 719.14 138.315C719.14 138.315 718.688 138.249 718.524 138.541C718.507 138.573 718.482 138.601 718.452 138.623C725.984 142.265 726.691 154.179 724.264 156.951C721.343 160.266 716.936 167.771 716.936 167.771C716.936 167.771 716.566 165.971 717.096 163.051C717.627 160.132 715.105 160.135 711.919 158.797C708.733 157.458 711.389 153.756 708.602 151.501C705.816 149.246 695.596 150.572 695.727 148.847C691.935 147.459 692.917 139.866 692.917 139.48Z" fill="#233862"/>
<path d="M720.515 234.286C717.522 246.297 685.15 252.506 677.795 253.769C678.122 248.559 678.404 241.957 678.62 233.611L720.515 234.286Z" fill="#98BAF4"/>
<path d="M713.409 238.19C713.717 238.19 720.613 237.163 721.838 236.554C723.063 235.945 728.715 227.923 725.021 225.868C721.327 223.813 711.405 232.031 711.405 232.031L713.409 238.19Z" fill="#FFB27D"/>
<path d="M671.518 240.569C671.518 240.569 698.156 242.016 716.032 238.19C716.032 238.19 716.484 233.029 710.865 230.734C710.865 230.734 683.005 224.843 676.311 226.48C669.618 228.116 671.518 240.569 671.518 240.569Z" fill="#B0D0FF"/>
<path d="M732.693 219.676C727.162 226.339 719.938 231.785 711.971 233.052C710.401 230.367 709.713 227.256 710.007 224.16C710.285 221.241 711.282 218.437 712.908 215.997C713.531 214.999 714.055 213.942 714.473 212.842C718.825 201.747 718.177 180.362 718.177 180.362C718.177 180.362 736.652 182.296 742.408 190.508C745.935 195.555 741.429 209.144 732.693 219.676Z" fill="#B0D0FF"/>
<path d="M700.245 172.442C698.86 172.288 697.989 172.114 697.989 172.114C696.424 171.695 695.553 169.237 695.147 166.014C698.078 166.737 699.404 168.999 699.98 169.961C700.232 170.393 700.285 171.365 700.245 172.442Z" fill="#E2915A"/>
<path d="M692.802 177.432C692.802 177.432 686.42 166.91 691.385 166.452C696.349 165.994 698.34 169.352 699.054 170.582C699.767 171.813 698.867 177.377 698.867 177.377L692.802 177.432Z" fill="#FFB27D"/>
<path d="M717.119 223.806C716.93 225.068 716.564 226.298 716.032 227.458C715.064 229.574 713.684 231.475 711.972 233.052C695.399 225.573 692.046 199.904 691.486 185.798C691.26 180.129 691.486 176.326 691.486 176.326C698.962 173.852 701.064 178.152 701.064 178.152C701.064 178.152 709.889 199.128 714.467 212.845C716.216 218.085 717.345 222.271 717.119 223.806Z" fill="#B0D0FF"/>
<path d="M732.693 219.675C727.163 226.339 719.939 231.785 711.972 233.052C695.399 225.573 692.046 199.904 691.486 185.798C691.486 185.798 699.329 214.223 710.001 224.159C711.929 225.956 713.953 227.147 716.036 227.458C716.036 227.458 729.494 223.659 732.317 220.078C732.51 219.819 732.638 219.692 732.693 219.675Z" fill="#98BAF4"/>
<path d="M430.87 302.597H379.397L363.915 264.111H415.31L430.87 302.597Z" fill="#2B478B"/>
<path d="M378.795 301.098H446.765V302.597H379.397L378.795 301.098Z" fill="#2B478B"/>
<path d="M392.391 283.356C392.004 282.001 392.787 280.904 394.139 280.904C394.852 280.944 395.536 281.199 396.099 281.637C396.663 282.075 397.079 282.675 397.293 283.356C397.682 284.707 396.9 285.804 395.544 285.804C394.832 285.764 394.149 285.508 393.586 285.071C393.022 284.634 392.606 284.035 392.391 283.356Z" fill="white"/>
<path d="M759 423.863V424.06C758.986 424.222 758.892 424.372 758.737 424.48C758.582 424.587 758.379 424.642 758.172 424.634H29.826C29.6194 424.642 29.417 424.586 29.2625 424.479C29.1079 424.372 29.0137 424.221 29 424.06V423.863C29.0137 423.702 29.1078 423.552 29.2623 423.444C29.4167 423.337 29.6191 423.281 29.826 423.288H758.172C758.379 423.28 758.582 423.336 758.737 423.444C758.892 423.551 758.986 423.702 759 423.863Z" fill="#2E3552"/>
</svg>
