<svg width="703" height="505" viewBox="0 0 703 505" fill="none" xmlns="http://www.w3.org/2000/svg">
<path d="M81.9072 136.28H84.8809V137.562H81.9072V140.931H80.5449V137.562H77.5713V136.28H80.5449V133.167H81.9072V136.28Z" fill="#BFC2CE"/>
<path d="M81.9072 161.191H84.8809V162.473H81.9072V165.842H80.5449V162.473H77.5713V161.191H80.5449V158.079H81.9072V161.191Z" fill="#BFC2CE"/>
<path d="M81.9072 186.103H84.8809V187.385H81.9072V190.754H80.5449V187.385H77.5713V186.103H80.5449V182.991H81.9072V186.103Z" fill="#BFC2CE"/>
<path d="M81.9072 211.015H84.8809V212.297H81.9072V215.666H80.5449V212.297H77.5713V211.015H80.5449V207.902H81.9072V211.015Z" fill="#BFC2CE"/>
<path d="M81.9072 235.927H84.8809V237.209H81.9072V240.578H80.5449V237.209H77.5713V235.927H80.5449V232.814H81.9072V235.927Z" fill="#BFC2CE"/>
<path d="M119.868 136.28H122.842V137.562H119.868V140.931H118.506V137.562H115.532V136.28H118.506V133.167H119.868V136.28Z" fill="#BFC2CE"/>
<path d="M119.868 161.191H122.842V162.473H119.868V165.842H118.506V162.473H115.532V161.191H118.506V158.079H119.868V161.191Z" fill="#BFC2CE"/>
<path d="M119.868 186.103H122.842V187.385H119.868V190.754H118.506V187.385H115.532V186.103H118.506V182.991H119.868V186.103Z" fill="#BFC2CE"/>
<path d="M119.868 211.015H122.842V212.297H119.868V215.666H118.506V212.297H115.532V211.015H118.506V207.902H119.868V211.015Z" fill="#BFC2CE"/>
<path d="M119.868 235.927H122.842V237.209H119.868V240.578H118.506V237.209H115.532V235.927H118.506V232.814H119.868V235.927Z" fill="#BFC2CE"/>
<path d="M157.829 136.28H160.803V137.562H157.829V140.931H156.467V137.562H153.493V136.28H156.467V133.167H157.829V136.28Z" fill="#BFC2CE"/>
<path d="M157.829 161.191H160.803V162.473H157.829V165.842H156.467V162.473H153.493V161.191H156.467V158.079H157.829V161.191Z" fill="#BFC2CE"/>
<path d="M157.829 186.103H160.803V187.385H157.829V190.754H156.467V187.385H153.493V186.103H156.467V182.991H157.829V186.103Z" fill="#BFC2CE"/>
<path d="M157.829 211.015H160.803V212.297H157.829V215.666H156.467V212.297H153.493V211.015H156.467V207.902H157.829V211.015Z" fill="#BFC2CE"/>
<path d="M157.829 235.927H160.803V237.209H157.829V240.578H156.467V237.209H153.493V235.927H156.467V232.814H157.829V235.927Z" fill="#BFC2CE"/>
<path d="M195.79 136.28H198.763V137.562H195.79V140.931H194.427V137.562H191.454V136.28H194.427V133.167H195.79V136.28Z" fill="#BFC2CE"/>
<path d="M195.79 161.191H198.763V162.473H195.79V165.842H194.427V162.473H191.454V161.191H194.427V158.079H195.79V161.191Z" fill="#BFC2CE"/>
<path d="M195.79 186.103H198.763V187.385H195.79V190.754H194.427V187.385H191.454V186.103H194.427V182.991H195.79V186.103Z" fill="#BFC2CE"/>
<path d="M195.79 211.015H198.763V212.297H195.79V215.666H194.427V212.297H191.454V211.015H194.427V207.902H195.79V211.015Z" fill="#BFC2CE"/>
<path d="M195.79 235.927H198.763V237.209H195.79V240.578H194.427V237.209H191.454V235.927H194.427V232.814H195.79V235.927Z" fill="#BFC2CE"/>
<path d="M233.75 136.28H236.724V137.562H233.75V140.931H232.388V137.562H229.414V136.28H232.388V133.167H233.75V136.28Z" fill="#BFC2CE"/>
<path d="M233.75 161.191H236.724V162.473H233.75V165.842H232.388V162.473H229.414V161.191H232.388V158.079H233.75V161.191Z" fill="#BFC2CE"/>
<path d="M233.75 186.103H236.724V187.385H233.75V190.754H232.388V187.385H229.414V186.103H232.388V182.991H233.75V186.103Z" fill="#BFC2CE"/>
<path d="M233.75 211.015H236.724V212.297H233.75V215.666H232.388V212.297H229.414V211.015H232.388V207.902H233.75V211.015Z" fill="#BFC2CE"/>
<path d="M233.75 235.927H236.724V237.209H233.75V240.578H232.388V237.209H229.414V235.927H232.388V232.814H233.75V235.927Z" fill="#BFC2CE"/>
<path d="M111.626 386.742C85.6148 307.983 175.11 205.61 235.076 167.844C271.654 145.661 371.735 109.435 479.437 141.995C614.064 182.694 671.999 270.773 653.71 402.772C635.421 534.771 559.725 522.671 492.157 457.771C424.59 392.872 396.629 414.242 344.81 406.542C292.991 398.842 144.14 485.191 111.626 386.742Z" fill="#F99746"/>
<path d="M559 439.428V439.574C558.99 439.694 558.917 439.805 558.798 439.885C558.68 439.965 558.524 440.006 558.366 439.999H0.632496C0.474295 440.005 0.319307 439.964 0.200976 439.885C0.082646 439.805 0.0104614 439.693 0 439.574V439.428C0.0104638 439.308 0.0825812 439.196 0.200852 439.116C0.319123 439.037 0.474108 438.995 0.632496 439.001H558.366C558.524 438.995 558.68 439.036 558.798 439.116C558.917 439.196 558.99 439.308 559 439.428Z" fill="#2E3552"/>
<path d="M51.326 326.641H123.63V375.924C123.63 385.512 119.821 394.708 113.041 401.488C106.261 408.268 97.065 412.077 87.4766 412.077C77.8881 412.077 68.6923 408.268 61.9122 401.488C55.1321 394.708 51.3231 385.512 51.3231 375.924V326.641H51.326Z" fill="#5896FA"/>
<path d="M51.326 363.885H47.319V440.383H51.326V363.885Z" fill="#0E0E0E"/>
<path d="M127.637 363.885H123.63V440.383H127.637V363.885Z" fill="#0E0E0E"/>
<path d="M96.9732 363.885H92.9662V440.383H96.9732V363.885Z" fill="#0E0E0E"/>
<path d="M123.817 412.078H47.319V416.085H123.817V412.078Z" fill="#0E0E0E"/>
<path d="M143.782 245.217C148.159 251.503 139.363 256.92 137.994 265.646C136.626 274.372 146.607 279.257 136.025 290.662C129.505 297.687 124.004 288.357 118.707 299.126C113.41 309.895 117.583 311.707 111.627 315.58C101.246 322.333 85.3607 307.408 90.7043 296.654C96.048 285.9 106.852 286.863 101.853 278.014C96.8535 269.165 94.9944 265.354 103.604 260.795C114.274 255.169 123.674 260.337 124.532 252.104C125.39 243.871 138.012 236.905 143.782 245.217Z" fill="#025EA3"/>
<path d="M98.1726 326.139L96.3778 325.783C104.789 283.264 132.677 253.49 132.957 253.196L134.285 254.456C134.008 254.757 106.478 284.166 98.1726 326.139Z" fill="#0E0E0E"/>
<path d="M3.95693 229.51C-0.554955 238.703 12.1577 244.102 15.7182 255.358C19.2787 266.614 6.16617 270.583 22.4627 283.55C32.502 291.538 34.6033 286.544 38.2922 304.408C41.5404 320.135 53.4913 305.17 62.4276 314.401C73.9583 326.311 91.9766 300.17 82.7456 287.014C73.5147 273.858 62.7427 277.258 67.5698 264.542C72.3969 251.827 66.6389 242.248 54.3143 237.964C39.0656 232.664 33.5935 245.465 30.7889 234.754C27.9843 224.043 9.92219 217.349 3.95693 229.51Z" fill="#ED5A24"/>
<path d="M80.5861 327.431C61.1407 273.519 18.806 240.171 18.3828 239.838L19.8858 237.9C20.3177 238.236 63.2069 272.025 82.8917 326.6L80.5861 327.431Z" fill="#0E0E0E"/>
<path d="M533.458 259.461C597.231 259.461 648.93 207.762 648.93 143.989C648.93 80.2152 597.231 28.5166 533.458 28.5166C469.684 28.5166 417.986 80.2152 417.986 143.989C417.986 207.762 469.684 259.461 533.458 259.461Z" stroke="#2E77E6" stroke-width="8.73" stroke-miterlimit="10" stroke-dasharray="13.1 13.1"/>
<path d="M562.694 136.408C563.36 131.522 562.229 126.56 559.511 122.445C556.792 118.33 552.672 115.343 547.916 114.039C543.16 112.735 538.092 113.203 533.655 115.356C529.218 117.509 525.715 121.201 523.796 125.744C521.751 123.915 519.219 122.718 516.508 122.297C513.797 121.875 511.022 122.249 508.518 123.371C506.014 124.494 503.889 126.317 502.4 128.621C500.91 130.926 500.12 133.612 500.125 136.356H497.479C493.84 136.366 490.354 137.816 487.781 140.389C485.208 142.962 483.758 146.448 483.748 150.087C483.758 153.725 485.208 157.212 487.781 159.785C490.354 162.357 493.84 163.807 497.479 163.818H561.68C565.318 163.807 568.805 162.357 571.377 159.784C573.95 157.211 575.4 153.725 575.411 150.087C575.399 146.626 574.083 143.296 571.726 140.761C569.37 138.226 566.145 136.672 562.694 136.408Z" fill="#B0D4FF"/>
<path d="M575.322 203.184H489.362C486.47 203.184 484.125 205.529 484.125 208.421V280.536C484.125 283.429 486.47 285.774 489.362 285.774H575.322C578.214 285.774 580.559 283.429 580.559 280.536V208.421C580.559 205.529 578.214 203.184 575.322 203.184Z" fill="#3A5B9D"/>
<path d="M561.539 253.053H503.394C502.478 253.05 501.6 252.684 500.952 252.036C500.304 251.388 499.938 250.51 499.935 249.594C499.938 248.678 500.303 247.8 500.951 247.151C501.599 246.503 502.477 246.138 503.394 246.135H561.53C562.446 246.138 563.324 246.503 563.972 247.151C564.621 247.8 564.986 248.678 564.989 249.594C564.985 250.509 564.621 251.385 563.975 252.033C563.329 252.681 562.453 253.047 561.539 253.053Z" fill="white"/>
<path d="M561.539 264.192H503.394C502.477 264.19 501.599 263.824 500.951 263.176C500.303 262.528 499.938 261.65 499.935 260.734C499.938 259.817 500.303 258.939 500.951 258.291C501.599 257.643 502.477 257.278 503.394 257.275H561.53C562.446 257.278 563.324 257.643 563.972 258.291C564.621 258.939 564.986 259.817 564.989 260.734C564.986 261.648 564.622 262.525 563.976 263.173C563.329 263.821 562.454 264.187 561.539 264.192Z" fill="white"/>
<path d="M514.259 261.041C514.259 261.282 514.187 261.517 514.053 261.718C513.919 261.918 513.729 262.074 513.507 262.166C513.284 262.259 513.039 262.283 512.803 262.236C512.566 262.189 512.349 262.073 512.179 261.902C512.008 261.732 511.892 261.515 511.845 261.279C511.798 261.042 511.822 260.797 511.915 260.575C512.007 260.352 512.163 260.162 512.363 260.028C512.564 259.894 512.799 259.823 513.04 259.823C513.2 259.822 513.359 259.854 513.507 259.915C513.655 259.976 513.789 260.066 513.902 260.179C514.016 260.292 514.105 260.426 514.166 260.574C514.228 260.722 514.259 260.881 514.259 261.041Z" fill="#80B2FF"/>
<path d="M518.432 261.041C518.432 261.282 518.361 261.517 518.227 261.718C518.093 261.918 517.903 262.074 517.68 262.166C517.458 262.259 517.213 262.283 516.976 262.236C516.74 262.189 516.523 262.073 516.353 261.902C516.182 261.732 516.066 261.515 516.019 261.279C515.972 261.042 515.996 260.797 516.088 260.575C516.181 260.352 516.337 260.162 516.537 260.028C516.738 259.894 516.973 259.823 517.214 259.823C517.374 259.822 517.533 259.854 517.681 259.915C517.829 259.976 517.963 260.066 518.076 260.179C518.189 260.292 518.279 260.426 518.34 260.574C518.401 260.722 518.433 260.881 518.432 261.041Z" fill="#80B2FF"/>
<path d="M522.608 261.041C522.608 261.282 522.537 261.518 522.403 261.718C522.269 261.918 522.078 262.075 521.856 262.167C521.633 262.259 521.388 262.283 521.151 262.236C520.915 262.188 520.698 262.072 520.528 261.902C520.357 261.731 520.242 261.514 520.195 261.277C520.148 261.041 520.172 260.796 520.265 260.573C520.358 260.351 520.514 260.16 520.715 260.027C520.915 259.893 521.151 259.822 521.392 259.823C521.552 259.823 521.71 259.854 521.858 259.915C522.006 259.977 522.14 260.066 522.253 260.18C522.366 260.293 522.455 260.427 522.516 260.575C522.577 260.723 522.609 260.881 522.608 261.041Z" fill="#80B2FF"/>
<path d="M526.784 261.041C526.784 261.282 526.713 261.517 526.579 261.718C526.445 261.918 526.255 262.074 526.032 262.166C525.809 262.259 525.565 262.283 525.328 262.236C525.092 262.189 524.875 262.073 524.704 261.902C524.534 261.732 524.418 261.515 524.371 261.279C524.324 261.042 524.348 260.797 524.44 260.575C524.532 260.352 524.689 260.162 524.889 260.028C525.089 259.894 525.325 259.823 525.566 259.823C525.726 259.822 525.885 259.854 526.032 259.915C526.18 259.976 526.315 260.066 526.428 260.179C526.541 260.292 526.631 260.426 526.692 260.574C526.753 260.722 526.785 260.881 526.784 261.041Z" fill="#80B2FF"/>
<path d="M530.96 261.041C530.96 261.282 530.889 261.517 530.755 261.718C530.621 261.918 530.431 262.074 530.208 262.166C529.985 262.259 529.74 262.283 529.504 262.236C529.268 262.189 529.051 262.073 528.88 261.902C528.71 261.732 528.594 261.515 528.547 261.279C528.5 261.042 528.524 260.797 528.616 260.575C528.708 260.352 528.865 260.162 529.065 260.028C529.265 259.894 529.501 259.823 529.742 259.823C530.065 259.823 530.375 259.951 530.603 260.179C530.832 260.408 530.96 260.718 530.96 261.041Z" fill="#80B2FF"/>
<path d="M535.134 261.041C535.134 261.282 535.062 261.517 534.929 261.718C534.795 261.918 534.604 262.074 534.382 262.166C534.159 262.259 533.914 262.283 533.678 262.236C533.442 262.189 533.224 262.073 533.054 261.902C532.884 261.732 532.768 261.515 532.721 261.279C532.674 261.042 532.698 260.797 532.79 260.575C532.882 260.352 533.038 260.162 533.239 260.028C533.439 259.894 533.675 259.823 533.916 259.823C534.076 259.822 534.234 259.854 534.382 259.915C534.53 259.976 534.664 260.066 534.778 260.179C534.891 260.292 534.981 260.426 535.042 260.574C535.103 260.722 535.134 260.881 535.134 261.041Z" fill="#80B2FF"/>
<path d="M539.31 261.041C539.31 261.282 539.238 261.517 539.104 261.718C538.971 261.918 538.78 262.074 538.558 262.166C538.335 262.259 538.09 262.283 537.854 262.236C537.617 262.189 537.4 262.073 537.23 261.902C537.06 261.732 536.944 261.515 536.897 261.279C536.85 261.042 536.874 260.797 536.966 260.575C537.058 260.352 537.214 260.162 537.415 260.028C537.615 259.894 537.85 259.823 538.091 259.823C538.252 259.822 538.41 259.854 538.558 259.915C538.706 259.976 538.84 260.066 538.954 260.179C539.067 260.292 539.157 260.426 539.218 260.574C539.279 260.722 539.31 260.881 539.31 261.041Z" fill="#80B2FF"/>
<path d="M543.484 261.041C543.484 261.282 543.412 261.518 543.278 261.718C543.144 261.918 542.954 262.075 542.731 262.167C542.508 262.259 542.263 262.283 542.027 262.236C541.79 262.188 541.573 262.072 541.403 261.902C541.233 261.731 541.117 261.514 541.07 261.277C541.023 261.041 541.048 260.796 541.14 260.573C541.233 260.351 541.389 260.16 541.59 260.027C541.791 259.893 542.026 259.822 542.267 259.823C542.427 259.823 542.586 259.854 542.733 259.915C542.881 259.977 543.015 260.066 543.128 260.18C543.241 260.293 543.331 260.427 543.392 260.575C543.453 260.723 543.484 260.881 543.484 261.041Z" fill="#80B2FF"/>
<path d="M547.66 261.041C547.66 261.282 547.588 261.517 547.454 261.718C547.32 261.918 547.13 262.074 546.907 262.166C546.685 262.259 546.44 262.283 546.203 262.236C545.967 262.189 545.75 262.073 545.58 261.902C545.409 261.732 545.293 261.515 545.246 261.279C545.199 261.042 545.223 260.797 545.316 260.575C545.408 260.352 545.564 260.162 545.764 260.028C545.965 259.894 546.2 259.823 546.441 259.823C546.601 259.822 546.76 259.854 546.908 259.915C547.056 259.976 547.19 260.066 547.303 260.179C547.417 260.292 547.506 260.426 547.567 260.574C547.628 260.722 547.66 260.881 547.66 261.041Z" fill="#80B2FF"/>
<path d="M532.49 236.454C539.87 236.454 545.853 230.471 545.853 223.091C545.853 215.711 539.87 209.729 532.49 209.729C525.11 209.729 519.128 215.711 519.128 223.091C519.128 230.471 525.11 236.454 532.49 236.454Z" fill="white"/>
<path d="M532.51 222.555C533.14 222.548 533.761 222.401 534.326 222.123C534.892 221.845 535.389 221.444 535.779 220.949C536.373 220.208 536.693 219.284 536.684 218.334C536.696 217.774 536.597 217.218 536.392 216.697C536.187 216.177 535.879 215.702 535.488 215.302C535.097 214.902 534.63 214.584 534.114 214.367C533.598 214.15 533.044 214.038 532.485 214.038C531.925 214.038 531.371 214.15 530.855 214.367C530.34 214.584 529.872 214.902 529.481 215.302C529.09 215.702 528.783 216.177 528.578 216.697C528.372 217.218 528.273 217.774 528.286 218.334C528.276 219.283 528.595 220.207 529.188 220.949C529.585 221.45 530.09 221.854 530.665 222.133C531.24 222.411 531.871 222.555 532.51 222.555Z" fill="#005CEA"/>
<path d="M539.916 230.066C539.916 232.727 525.06 232.727 525.06 230.066V226.967C525.647 222.727 538.702 222.549 539.914 226.967L539.916 230.066Z" fill="#005CEA"/>
<path d="M506.286 260.095V259.91C506.286 259.549 506.143 259.203 505.888 258.948C505.633 258.693 505.287 258.55 504.926 258.55C504.565 258.55 504.219 258.693 503.964 258.948C503.709 259.203 503.566 259.549 503.566 259.91V260.095H503.359V262.549C503.359 262.972 506.502 262.972 506.502 262.549V260.095H506.286ZM504.05 259.91C504.05 259.676 504.143 259.452 504.308 259.287C504.473 259.122 504.697 259.029 504.93 259.029C505.164 259.029 505.388 259.122 505.553 259.287C505.718 259.452 505.811 259.676 505.811 259.91V260.095H504.048L504.05 259.91ZM505.157 261.331V262.039C505.157 262.069 505.151 262.099 505.139 262.127C505.127 262.154 505.109 262.179 505.087 262.2C505.065 262.22 505.039 262.236 505.01 262.246C504.982 262.256 504.952 262.26 504.922 262.257C504.864 262.257 504.808 262.234 504.768 262.193C504.727 262.152 504.704 262.097 504.704 262.039V261.331C504.638 261.296 504.582 261.243 504.544 261.179C504.506 261.115 504.485 261.042 504.486 260.967C504.485 260.891 504.504 260.817 504.542 260.75C504.579 260.684 504.632 260.629 504.697 260.59C504.762 260.551 504.836 260.53 504.912 260.528C504.988 260.527 505.063 260.545 505.129 260.581C505.196 260.617 505.252 260.67 505.292 260.734C505.332 260.799 505.354 260.872 505.357 260.948C505.36 261.024 505.343 261.099 505.308 261.166C505.273 261.233 505.221 261.29 505.157 261.331Z" fill="#5896FA"/>
<path d="M504.919 249.341C505.053 249.34 505.184 249.31 505.304 249.251C505.424 249.193 505.53 249.108 505.613 249.003C505.737 248.847 505.804 248.652 505.802 248.452C505.808 248.332 505.79 248.212 505.748 248.099C505.706 247.987 505.642 247.884 505.559 247.797C505.476 247.709 505.376 247.64 505.266 247.593C505.155 247.545 505.036 247.521 504.916 247.521C504.796 247.521 504.677 247.545 504.567 247.593C504.456 247.64 504.356 247.709 504.274 247.797C504.191 247.884 504.126 247.987 504.085 248.099C504.043 248.212 504.024 248.332 504.03 248.452C504.029 248.652 504.097 248.847 504.222 249.003C504.305 249.109 504.411 249.194 504.532 249.252C504.653 249.311 504.785 249.341 504.919 249.341Z" fill="#5896FA"/>
<path d="M506.493 250.928C506.493 251.488 503.341 251.488 503.341 250.928L503.359 250.274C503.483 249.379 506.238 249.341 506.493 250.274V250.928Z" fill="#5896FA"/>
<path d="M525.291 250.608H512.548C512.279 250.607 512.021 250.5 511.831 250.31C511.641 250.121 511.533 249.863 511.532 249.594C511.533 249.325 511.64 249.067 511.83 248.877C512.021 248.686 512.279 248.579 512.548 248.579H525.287C525.556 248.579 525.815 248.686 526.005 248.876C526.196 249.067 526.303 249.325 526.303 249.594C526.302 249.863 526.195 250.12 526.006 250.309C525.816 250.499 525.56 250.607 525.291 250.608Z" fill="#80B2FF"/>
<path d="M542.095 250.608H529.354C529.085 250.607 528.828 250.5 528.638 250.31C528.448 250.12 528.341 249.863 528.34 249.594C528.34 249.325 528.447 249.067 528.637 248.877C528.827 248.686 529.085 248.579 529.354 248.579H542.095C542.364 248.579 542.622 248.686 542.812 248.877C543.002 249.067 543.109 249.325 543.109 249.594C543.108 249.863 543.001 250.12 542.811 250.31C542.621 250.5 542.364 250.607 542.095 250.608Z" fill="#80B2FF"/>
<path d="M536.729 269.059H525.187C523.55 269.059 522.223 270.386 522.223 272.022C522.223 273.659 523.55 274.985 525.187 274.985H536.729C538.366 274.985 539.693 273.659 539.693 272.022C539.693 270.386 538.366 269.059 536.729 269.059Z" fill="#1251B3"/>
<path d="M414.154 138.985C407.533 146.079 396.964 151.892 385.657 154.368C385.657 155.124 385.635 159.308 385.55 178.593C385.435 204.311 409.917 216.891 413.718 218.82C417.402 217.124 442.193 204.572 442.309 178.845C442.396 159.561 442.414 155.377 442.418 154.623C431.133 152.044 420.712 146.138 414.154 138.985Z" fill="white"/>
<path d="M414.087 143.634C407.603 149.584 398.612 154.259 388.739 156.806L388.641 178.601C388.597 188.575 392.564 197.598 400.41 205.409C404.355 209.302 408.852 212.591 413.758 215.169L414.135 214.975V143.686L414.087 143.634Z" fill="#296ACC"/>
<path d="M414.143 143.686V214.992C418.926 212.486 423.325 209.304 427.203 205.547C435.13 197.794 439.173 188.808 439.218 178.835L439.314 157.04C429.487 154.402 420.573 149.666 414.143 143.686Z" fill="#2E77E6"/>
<path d="M402.664 175.108V191.994C402.664 193.875 425.623 193.875 425.623 191.994V175.108H402.664ZM415.305 184.076V188.871C415.305 189.179 415.183 189.475 414.965 189.693C414.747 189.91 414.451 190.033 414.143 190.033C413.835 190.033 413.54 189.91 413.322 189.693C413.104 189.475 412.982 189.179 412.982 188.871V184.076C412.39 183.81 411.908 183.35 411.615 182.771C411.323 182.193 411.237 181.532 411.373 180.898C411.509 180.264 411.858 179.696 412.362 179.288C412.866 178.881 413.495 178.659 414.143 178.659C414.792 178.659 415.42 178.881 415.924 179.288C416.429 179.696 416.778 180.264 416.914 180.898C417.05 181.532 416.964 182.193 416.671 182.771C416.378 183.35 415.896 183.81 415.305 184.076Z" fill="white"/>
<path d="M423.624 173.898H421.288V172.76C421.288 170.866 420.535 169.048 419.195 167.708C417.855 166.369 416.038 165.616 414.143 165.616C412.248 165.616 410.431 166.369 409.091 167.708C407.752 169.048 406.999 170.866 406.999 172.76V173.898H404.676V172.76C404.713 170.274 405.727 167.902 407.499 166.157C409.271 164.412 411.658 163.434 414.144 163.434C416.631 163.434 419.018 164.412 420.79 166.157C422.561 167.902 423.575 170.274 423.613 172.76L423.624 173.898Z" fill="white"/>
<path d="M584.083 0H542.612V51.7653H584.083V0Z" fill="#296ACC"/>
<path d="M589.462 5.34644H547.991V57.1117H589.462V5.34644Z" fill="white" stroke="#5896FA" stroke-width="6.34" stroke-miterlimit="10"/>
<path d="M596.293 10.5947H554.821V62.36H596.293V10.5947Z" fill="white" stroke="#5896FA" stroke-width="6.34" stroke-miterlimit="10"/>
<path d="M601.262 15.9409H559.791V67.7062H601.262V15.9409Z" fill="#5896FA"/>
<path d="M594.809 24.4387H573.358V27.806H594.809V24.4387Z" fill="#005CEA"/>
<path d="M594.809 32.3481H567.013V35.7155H594.809V32.3481Z" fill="#005CEA"/>
<path d="M594.809 40.2576H567.013V43.6249H594.809V40.2576Z" fill="#005CEA"/>
<path d="M594.809 48.1692H567.013V51.5365H594.809V48.1692Z" fill="#005CEA"/>
<path d="M594.809 56.0786H567.013V59.4459H594.809V56.0786Z" fill="#005CEA"/>
<path d="M465.903 59.6079C467.709 51.7232 462.781 43.8674 454.896 42.0616C447.011 40.2557 439.155 45.1836 437.349 53.0684C435.544 60.9531 440.472 68.8089 448.356 70.6147C456.241 72.4206 464.097 67.4927 465.903 59.6079Z" fill="white"/>
<path d="M474.742 70.2736C476.59 67.2157 477.81 63.8199 478.33 60.2849L479.419 60.4462L481.573 60.7622H481.599C482.179 56.8622 481.987 52.8862 481.032 49.0605L477.828 49.8538C476.969 46.3876 475.427 43.1275 473.293 40.264L475.95 38.2872C473.605 35.1148 470.658 32.4359 467.277 30.404L465.564 33.2373C462.507 31.3883 459.112 30.1679 455.578 29.6477L456.055 26.3784C452.155 25.8033 448.18 25.9958 444.353 26.9451L445.147 30.1512C441.681 31.0098 438.42 32.551 435.557 34.6845L433.582 32.0277C430.409 34.3721 427.729 37.3199 425.697 40.7021L428.53 42.413C426.682 45.4704 425.465 48.8666 424.949 52.4017L422.632 52.0595L421.687 51.9287H421.676C421.101 55.8289 421.292 59.8038 422.24 63.6304L425.446 62.8371C426.309 66.3071 427.854 69.5706 429.99 72.4378L427.329 74.4146C429.671 77.5848 432.615 80.2616 435.993 82.2913L437.704 79.458C440.765 81.3091 444.164 82.5317 447.703 83.0542L447.326 85.5976L447.224 86.3278C451.127 86.8995 455.104 86.7025 458.932 85.748L458.139 82.542C461.61 81.6774 464.877 80.1353 467.75 78.0043L469.725 80.6611C472.889 78.3135 475.561 75.3678 477.591 71.991L474.742 70.2736ZM444.074 68.8874C441.594 67.3927 439.612 65.1959 438.38 62.5749C437.147 59.9538 436.72 57.0262 437.151 54.1623C437.583 51.2984 438.854 48.6267 440.804 46.4852C442.754 44.3436 445.295 42.8284 448.106 42.131C450.917 41.4337 453.872 41.5855 456.597 42.5674C459.321 43.5493 461.694 45.3171 463.414 47.6473C465.134 49.9774 466.124 52.7653 466.26 55.6584C466.396 58.5515 465.67 61.4198 464.176 63.9007C463.184 65.5481 461.876 66.9839 460.329 68.1261C458.782 69.2682 457.025 70.0944 455.158 70.5575C453.291 71.0206 451.352 71.1114 449.45 70.8249C447.548 70.5383 445.722 69.88 444.074 68.8874Z" fill="#005CEA"/>
<path d="M419.919 68.3294C418.887 66.7618 417.553 65.415 415.996 64.3671L416.319 63.8833L416.957 62.9308V62.9178C415.233 61.7611 413.299 60.9539 411.264 60.5421L410.918 62.2465C409.074 61.8701 407.174 61.8664 405.329 62.2356L404.992 60.5247C402.952 60.9203 401.011 61.715 399.279 62.8633L400.24 64.3192C398.67 65.3549 397.323 66.6939 396.278 68.2575L394.829 67.2898C393.675 69.0165 392.87 70.9518 392.457 72.987L394.157 73.3249C393.781 75.1682 393.777 77.068 394.144 78.9131L392.436 79.2509C392.833 81.29 393.629 83.2306 394.779 84.9612L396.234 83.9979C397.269 85.5716 398.608 86.9225 400.173 87.9711L399.486 88.9955L399.214 89.4161C400.939 90.5701 402.873 91.3764 404.907 91.7896L405.253 90.0874C407.099 90.4579 409 90.4579 410.846 90.0874L411.186 91.7983C413.223 91.4021 415.161 90.6066 416.89 89.4575L415.926 88.0038C417.498 86.9664 418.847 85.6261 419.895 84.0611L421.02 84.8152L421.344 85.0331C422.498 83.3088 423.302 81.3757 423.714 79.3425L422.011 78.9959C422.383 77.1492 422.387 75.2474 422.024 73.399L423.733 73.0611C423.332 71.0262 422.535 69.0897 421.388 67.3618L419.919 68.3294ZM412.33 82.6008C411.058 83.4426 409.565 83.8882 408.039 83.8812C406.514 83.8742 405.025 83.4149 403.76 82.5614C402.496 81.708 401.513 80.4987 400.936 79.0866C400.359 77.6744 400.214 76.1229 400.519 74.6283C400.824 73.1337 401.566 71.7631 402.65 70.69C403.734 69.6168 405.112 68.8893 406.61 68.5996C408.107 68.3098 409.657 68.4707 411.064 69.062C412.47 69.6532 413.669 70.6483 414.51 71.9213C415.637 73.6258 416.041 75.7083 415.634 77.7109C415.226 79.7135 414.04 81.4723 412.337 82.6008H412.33Z" fill="#1251B3"/>
<path d="M659.477 75.1775H623.87C623.12 75.1775 622.512 75.7854 622.512 76.5353V96.7393C622.512 97.4892 623.12 98.0971 623.87 98.0971H659.477C660.226 98.0971 660.834 97.4892 660.834 96.7393V76.5353C660.834 75.7854 660.226 75.1775 659.477 75.1775Z" fill="#005CEA"/>
<path d="M660.834 79.5059H622.512V83.4617H660.834V79.5059Z" fill="#5896FA"/>
<path d="M631.291 93.699H625.664C625.49 93.699 625.324 93.7679 625.201 93.8905C625.079 94.0131 625.01 94.1794 625.01 94.3529C625.01 94.5263 625.079 94.6926 625.201 94.8152C625.324 94.9378 625.49 95.0067 625.664 95.0067H631.298C631.471 95.0067 631.637 94.9378 631.76 94.8152C631.883 94.6926 631.952 94.5263 631.952 94.3529C631.952 94.2664 631.934 94.1809 631.901 94.1011C631.868 94.0214 631.819 93.949 631.758 93.8882C631.696 93.8274 631.624 93.7794 631.543 93.7469C631.463 93.7144 631.378 93.6981 631.291 93.699Z" fill="#D1F5FF"/>
<path d="M639.957 93.699H634.321C634.147 93.699 633.981 93.7679 633.858 93.8905C633.736 94.0131 633.667 94.1794 633.667 94.3528C633.667 94.5262 633.736 94.6925 633.858 94.8152C633.981 94.9378 634.147 95.0067 634.321 95.0067H639.957C640.13 95.0067 640.297 94.9378 640.419 94.8152C640.542 94.6925 640.611 94.5262 640.611 94.3528C640.611 94.1794 640.542 94.0131 640.419 93.8905C640.297 93.7679 640.13 93.699 639.957 93.699Z" fill="#D1F5FF"/>
<path d="M648.623 93.699H642.986C642.813 93.699 642.647 93.7679 642.524 93.8905C642.401 94.0131 642.333 94.1794 642.333 94.3528C642.333 94.5262 642.401 94.6925 642.524 94.8152C642.647 94.9378 642.813 95.0067 642.986 95.0067H648.623C648.796 95.0067 648.962 94.9378 649.085 94.8152C649.208 94.6925 649.276 94.5262 649.276 94.3528C649.276 94.1794 649.208 94.0131 649.085 93.8905C648.962 93.7679 648.796 93.699 648.623 93.699Z" fill="#D1F5FF"/>
<path d="M657.286 93.699H651.652C651.479 93.699 651.312 93.7679 651.19 93.8905C651.067 94.0131 650.998 94.1794 650.998 94.3528C650.998 94.5262 651.067 94.6925 651.19 94.8152C651.312 94.9378 651.479 95.0067 651.652 95.0067H657.286C657.46 95.0067 657.626 94.9378 657.748 94.8152C657.871 94.6925 657.94 94.5262 657.94 94.3528C657.94 94.1794 657.871 94.0131 657.748 93.8905C657.626 93.7679 657.46 93.699 657.286 93.699Z" fill="#D1F5FF"/>
<path d="M625.398 76.3391C625.208 76.3391 625.025 76.4147 624.891 76.5491C624.756 76.6836 624.681 76.866 624.681 77.0562V77.3068C624.681 77.497 624.756 77.6794 624.891 77.8138C625.025 77.9483 625.208 78.0239 625.398 78.0239C625.588 78.0233 625.769 77.9475 625.903 77.8131C626.037 77.6787 626.113 77.4966 626.113 77.3068V77.0562C626.113 76.9621 626.095 76.8689 626.059 76.7819C626.023 76.6949 625.971 76.6159 625.904 76.5493C625.838 76.4827 625.759 76.4298 625.672 76.3937C625.585 76.3577 625.492 76.3391 625.398 76.3391Z" fill="#D1F5FF"/>
<path d="M626.939 77.1804C626.938 77.2911 626.96 77.4007 627.002 77.503C627.044 77.6053 627.106 77.6983 627.184 77.7767C627.263 77.855 627.355 77.9172 627.458 77.9596C627.56 78.002 627.669 78.0239 627.78 78.0239H630.764C630.874 78.0239 630.984 78.002 631.086 77.9596C631.188 77.9172 631.281 77.855 631.359 77.7767C631.438 77.6983 631.5 77.6053 631.542 77.503C631.584 77.4007 631.605 77.2911 631.605 77.1804C631.605 76.9573 631.516 76.7433 631.359 76.5855C631.201 76.4278 630.987 76.3391 630.764 76.3391H627.78C627.557 76.3391 627.343 76.4278 627.185 76.5855C627.027 76.7433 626.939 76.9573 626.939 77.1804Z" fill="#D1F5FF"/>
<path d="M630.4 85.5867H626.549C625.931 85.5867 625.431 86.0873 625.431 86.7048V90.0263C625.431 90.6438 625.931 91.1444 626.549 91.1444H630.4C631.017 91.1444 631.518 90.6438 631.518 90.0263V86.7048C631.518 86.0873 631.017 85.5867 630.4 85.5867Z" fill="#5896FA"/>
<path d="M645.375 156.475V153.86C645.375 153.577 645.32 153.297 645.212 153.036C645.104 152.775 644.946 152.537 644.746 152.337C644.546 152.137 644.309 151.978 644.048 151.87C643.787 151.762 643.507 151.706 643.224 151.706H620.309C619.738 151.706 619.19 151.933 618.786 152.337C618.382 152.741 618.155 153.289 618.155 153.86V200.137H677.438V156.475H645.375Z" fill="#1251B3"/>
<path d="M679.894 158.066H621.771L618.158 200.135H677.139L679.894 158.066Z" fill="white"/>
<path d="M677.429 200.135H618.147L624.435 158.589C624.524 158.001 624.821 157.464 625.272 157.076C625.723 156.688 626.298 156.475 626.893 156.475H681.136C681.494 156.475 681.848 156.552 682.173 156.702C682.498 156.851 682.788 157.069 683.021 157.34C683.254 157.611 683.426 157.93 683.525 158.274C683.624 158.617 683.648 158.979 683.595 159.332L677.429 200.135Z" fill="#3383FF"/>
<path d="M693.238 167.669C698.542 162.366 698.542 153.767 693.238 148.464C687.935 143.16 679.336 143.16 674.033 148.464C668.729 153.767 668.729 162.366 674.033 167.669C679.336 172.973 687.935 172.973 693.238 167.669Z" fill="#005CEA"/>
<path d="M683.639 172.143C680.855 172.143 678.133 171.317 675.818 169.77C673.504 168.223 671.7 166.024 670.635 163.452C669.569 160.88 669.291 158.05 669.834 155.319C670.377 152.588 671.718 150.08 673.687 148.112C675.655 146.143 678.163 144.802 680.894 144.259C683.624 143.716 686.455 143.994 689.027 145.06C691.599 146.125 693.798 147.929 695.345 150.244C696.892 152.558 697.718 155.28 697.718 158.064C697.714 161.797 696.229 165.375 693.59 168.015C690.95 170.655 687.371 172.139 683.639 172.143ZM683.639 144.98C681.052 144.98 678.524 145.747 676.373 147.184C674.223 148.621 672.547 150.663 671.557 153.053C670.567 155.442 670.308 158.072 670.813 160.608C671.317 163.145 672.563 165.475 674.392 167.304C676.221 169.133 678.551 170.378 681.087 170.883C683.624 171.388 686.253 171.129 688.643 170.139C691.032 169.149 693.075 167.473 694.512 165.322C695.949 163.172 696.716 160.644 696.716 158.057C696.71 154.591 695.331 151.267 692.88 148.816C690.428 146.365 687.105 144.985 683.639 144.98Z" fill="white"/>
<path d="M677.1 155.608V165.224C677.1 166.296 690.177 166.296 690.177 165.224V155.608H677.1ZM684.292 160.723V163.45C684.292 163.625 684.223 163.793 684.099 163.917C683.975 164.041 683.806 164.111 683.631 164.111C683.455 164.111 683.287 164.041 683.163 163.917C683.039 163.793 682.969 163.625 682.969 163.45V160.708C682.635 160.556 682.362 160.295 682.197 159.967C682.031 159.639 681.983 159.265 682.061 158.906C682.138 158.547 682.336 158.225 682.622 157.994C682.907 157.763 683.264 157.638 683.631 157.638C683.998 157.638 684.354 157.763 684.64 157.994C684.926 158.225 685.124 158.547 685.201 158.906C685.278 159.265 685.23 159.639 685.065 159.967C684.9 160.295 684.627 160.556 684.292 160.708V160.723Z" fill="white"/>
<path d="M689.026 154.923H687.703V154.269C687.703 153.19 687.274 152.155 686.511 151.392C685.748 150.629 684.713 150.2 683.634 150.2C682.555 150.2 681.52 150.629 680.757 151.392C679.994 152.155 679.565 153.19 679.565 154.269V154.923H678.242V154.269C678.242 152.839 678.81 151.468 679.821 150.456C680.832 149.445 682.204 148.877 683.634 148.877C685.064 148.877 686.436 149.445 687.447 150.456C688.458 151.468 689.026 152.839 689.026 154.269V154.923Z" fill="white"/>
<path d="M636.476 49.6098C639.348 49.6098 641.677 47.2816 641.677 44.4095C641.677 41.5375 639.348 39.2092 636.476 39.2092C633.604 39.2092 631.276 41.5375 631.276 44.4095C631.276 47.2816 633.604 49.6098 636.476 49.6098Z" fill="#AAE0FF"/>
<path d="M505.067 64.6908C505.553 61.8603 503.653 59.1714 500.822 58.685C497.992 58.1986 495.303 60.099 494.816 62.9295C494.33 65.7601 496.23 68.449 499.061 68.9354C501.892 69.4217 504.58 67.5214 505.067 64.6908Z" fill="#AAE0FF"/>
<path d="M672.935 135.757C674.437 135.757 675.655 134.539 675.655 133.037C675.655 131.534 674.437 130.317 672.935 130.317C671.433 130.317 670.215 131.534 670.215 133.037C670.215 134.539 671.433 135.757 672.935 135.757Z" fill="white"/>
<path d="M390.918 138.756C391.261 137.294 390.354 135.83 388.891 135.487C387.429 135.144 385.965 136.051 385.622 137.513C385.278 138.976 386.186 140.44 387.648 140.783C389.111 141.126 390.574 140.219 390.918 138.756Z" fill="#AAE0FF"/>
<path d="M433.062 241.962C435.649 240.715 436.735 237.606 435.488 235.019C434.24 232.432 431.132 231.346 428.545 232.593C425.958 233.841 424.872 236.949 426.119 239.536C427.366 242.123 430.475 243.209 433.062 241.962Z" fill="#AAE0FF"/>
<path d="M514.256 12.1943C514.138 12.1946 514.021 12.1715 513.911 12.1264C513.802 12.0813 513.702 12.015 513.619 11.9314C513.535 11.8478 513.468 11.7485 513.423 11.6391C513.377 11.5298 513.354 11.4125 513.354 11.2942V1.64987C513.354 1.41056 513.449 1.18106 513.618 1.01184C513.788 0.842625 514.017 0.747559 514.256 0.747559C514.375 0.747558 514.492 0.770914 514.601 0.816287C514.711 0.861659 514.81 0.928155 514.894 1.01197C514.977 1.09579 515.044 1.19527 515.089 1.30474C515.134 1.4142 515.157 1.53148 515.157 1.64987V11.2942C515.157 11.4124 515.133 11.5294 515.088 11.6386C515.043 11.7478 514.977 11.8471 514.893 11.9306C514.809 12.0142 514.71 12.0805 514.601 12.1258C514.492 12.171 514.375 12.1943 514.256 12.1943Z" fill="#AAE0FF"/>
<path d="M508.533 6.47093C508.533 6.2322 508.628 6.00325 508.797 5.83444C508.966 5.66564 509.195 5.5708 509.433 5.5708H519.086C519.205 5.57052 519.322 5.59359 519.431 5.63869C519.541 5.6838 519.64 5.75006 519.724 5.83367C519.808 5.91729 519.874 6.01661 519.92 6.12596C519.965 6.23532 519.989 6.35254 519.989 6.47093C519.989 6.58943 519.965 6.70676 519.92 6.81624C519.875 6.92571 519.808 7.02518 519.724 7.10897C519.641 7.19276 519.541 7.25922 519.432 7.30456C519.322 7.34991 519.205 7.37325 519.086 7.37325H509.433C509.315 7.37325 509.198 7.3499 509.088 7.30452C508.979 7.25915 508.88 7.19265 508.796 7.10883C508.712 7.02502 508.646 6.92553 508.601 6.81607C508.556 6.70661 508.533 6.58933 508.533 6.47093Z" fill="#AAE0FF"/>
<path d="M616.789 136.04C616.67 136.04 616.553 136.017 616.444 135.971C616.334 135.926 616.235 135.859 616.152 135.776C616.068 135.692 616.002 135.592 615.957 135.483C615.911 135.373 615.888 135.256 615.889 135.138V125.493C615.889 125.375 615.912 125.258 615.957 125.149C616.002 125.04 616.069 124.94 616.152 124.857C616.236 124.773 616.335 124.707 616.444 124.662C616.554 124.617 616.671 124.593 616.789 124.593C616.907 124.593 617.024 124.616 617.134 124.661C617.243 124.706 617.343 124.773 617.427 124.856C617.511 124.94 617.577 125.039 617.622 125.148C617.668 125.258 617.691 125.375 617.691 125.493V135.138C617.691 135.377 617.596 135.607 617.427 135.776C617.258 135.945 617.028 136.04 616.789 136.04Z" fill="white"/>
<path d="M611.061 130.317C611.061 130.198 611.084 130.081 611.129 129.971C611.174 129.862 611.24 129.763 611.324 129.679C611.408 129.595 611.507 129.528 611.616 129.483C611.726 129.438 611.843 129.414 611.961 129.414H621.606C621.724 129.414 621.841 129.438 621.951 129.483C622.06 129.528 622.159 129.595 622.243 129.679C622.326 129.763 622.393 129.862 622.438 129.971C622.483 130.081 622.506 130.198 622.506 130.317C622.506 130.435 622.482 130.552 622.437 130.661C622.392 130.77 622.326 130.87 622.242 130.953C622.158 131.037 622.059 131.103 621.95 131.148C621.841 131.193 621.724 131.217 621.606 131.217H611.961C611.843 131.217 611.726 131.193 611.617 131.148C611.508 131.103 611.408 131.037 611.325 130.953C611.241 130.87 611.175 130.77 611.13 130.661C611.084 130.552 611.061 130.435 611.061 130.317Z" fill="white"/>
<path d="M606.983 263.072C606.865 263.072 606.748 263.049 606.639 263.004C606.53 262.958 606.43 262.892 606.347 262.809C606.263 262.725 606.197 262.626 606.152 262.517C606.106 262.407 606.083 262.29 606.083 262.172V252.528C606.083 252.289 606.178 252.06 606.347 251.891C606.515 251.721 606.744 251.626 606.983 251.625C607.102 251.625 607.219 251.649 607.329 251.694C607.438 251.74 607.538 251.806 607.621 251.89C607.705 251.974 607.772 252.073 607.817 252.183C607.862 252.292 607.886 252.409 607.886 252.528V262.172C607.886 262.29 607.862 262.408 607.817 262.517C607.772 262.626 607.705 262.726 607.621 262.809C607.537 262.893 607.438 262.959 607.328 263.004C607.219 263.049 607.102 263.073 606.983 263.072Z" fill="white"/>
<path d="M601.253 257.349C601.253 257.23 601.277 257.113 601.322 257.004C601.367 256.895 601.434 256.795 601.518 256.712C601.602 256.628 601.701 256.562 601.811 256.517C601.92 256.472 602.037 256.448 602.156 256.449H611.8C612.039 256.449 612.268 256.544 612.436 256.712C612.605 256.881 612.7 257.11 612.7 257.349C612.7 257.467 612.677 257.585 612.632 257.694C612.587 257.803 612.521 257.903 612.437 257.987C612.354 258.071 612.254 258.137 612.145 258.182C612.036 258.228 611.918 258.251 611.8 258.251H602.156C601.916 258.251 601.687 258.156 601.518 257.987C601.348 257.818 601.253 257.588 601.253 257.349Z" fill="white"/>
<path d="M526.71 193.965C528.303 193.965 529.594 192.674 529.594 191.081C529.594 189.489 528.303 188.198 526.71 188.198C525.118 188.198 523.827 189.489 523.827 191.081C523.827 192.674 525.118 193.965 526.71 193.965Z" stroke="white" stroke-width="4.23" stroke-miterlimit="10"/>
<path d="M209.732 440.348H196.834L195.499 412.301H211.067L209.732 440.348Z" fill="#0E0E0E"/>
<path d="M433.921 440.348H421.021L419.688 412.301H435.254L433.921 440.348Z" fill="#0E0E0E"/>
<path d="M422.675 363.623C421.252 368.033 419.696 372.559 418.007 377.203H203.865C203.865 377.203 176.229 264.718 203.865 244.144C204.669 243.56 205.52 243.043 206.408 242.597C243.629 223.471 392.859 218.979 423.154 243.594C423.385 243.778 423.6 243.967 423.806 244.154C434.972 254.394 444.679 295.301 422.675 363.623Z" fill="#3A5B9D"/>
<path d="M284.601 377.203H203.912L211.782 298.365C225.851 304.469 263.31 336.704 284.601 377.203Z" fill="#0C2351"/>
<path d="M422.675 363.623C421.252 368.033 419.696 372.559 418.007 377.203H340.237C353.613 352.397 386.045 314.821 417.541 297.526L422.675 363.623Z" fill="#0C2351"/>
<path d="M449.507 297.267H419.818C417.405 297.267 415.075 298.144 413.26 299.734C411.446 301.324 410.271 303.52 409.955 305.912L400.488 377.507H226.972L217.505 305.912C217.188 303.52 216.014 301.324 214.199 299.734C212.385 298.144 210.054 297.267 207.642 297.267H177.953C176.497 297.266 175.059 297.586 173.74 298.202C172.42 298.818 171.253 299.716 170.319 300.832C169.384 301.949 168.707 303.257 168.333 304.664C167.96 306.071 167.899 307.543 168.157 308.976L184.639 428.206H442.82L459.303 308.976C459.56 307.543 459.5 306.071 459.126 304.664C458.753 303.257 458.075 301.949 457.141 300.832C456.207 299.716 455.039 298.818 453.72 298.202C452.401 297.586 450.963 297.266 449.507 297.267Z" fill="#3A5B9D"/>
<path d="M398.756 338.396C412.727 343.072 410.004 372.654 398.756 377.201H229.266C216.608 373.935 215.539 334.806 233.793 337.748C345.516 358.755 350.928 325.244 398.756 338.396Z" fill="#B0D4FF"/>
<path d="M269.573 308.41C269.492 315.471 269.887 322.529 270.754 329.537H350.228L354.936 251.925C350.203 223.581 337.293 216.712 316.836 216.712C298.53 216.712 286.338 231.645 278.928 251.636C272.521 268.918 269.688 289.96 269.573 308.41Z" fill="#007880"/>
<path d="M269.573 309.91L298.333 308.166C282.366 302.934 281.096 278.435 297.337 263.185L278.936 251.633C272.521 268.918 269.688 291.457 269.573 309.91Z" fill="#005459"/>
<path d="M264.1 345.571H373.29V308.413H274.932L264.1 345.571Z" fill="#0E0E0E"/>
<path d="M387.239 333.779L357.911 440.348H335.041C342.28 395.006 340.661 365.519 347.47 327.863C353.441 296.953 394.349 305.134 387.239 333.779Z" fill="#0E0E0E"/>
<path d="M349.704 440.348C349.704 440.279 349.704 440.209 349.704 440.137C349.754 436.376 351.283 432.786 353.96 430.144C356.637 427.502 360.247 426.02 364.008 426.02C367.77 426.02 371.38 427.502 374.057 430.144C376.734 432.786 378.263 436.376 378.312 440.137C378.312 440.209 378.312 440.279 378.312 440.348H349.704Z" fill="#B15626"/>
<path d="M366.753 426.101L361.553 424.511C358.123 417.76 343.484 418.594 345.524 426.813C339.779 427.668 336.76 424.82 336.76 424.82L335.041 440.361H366.053L366.753 426.101Z" fill="#B15626"/>
<path d="M258.457 333.779L287.788 440.348H310.655C303.416 395.006 305.037 365.519 298.226 327.863C292.254 296.953 251.347 305.134 258.457 333.779Z" fill="#0E0E0E"/>
<path d="M296.001 440.348C296.001 440.279 296.001 440.209 296.001 440.137C296.001 436.343 294.494 432.704 291.812 430.021C289.129 427.339 285.49 425.832 281.696 425.832C277.902 425.832 274.264 427.339 271.581 430.021C268.898 432.704 267.391 436.343 267.391 440.137C267.391 440.209 267.391 440.279 267.391 440.348H296.001Z" fill="#B15626"/>
<path d="M278.951 426.101L284.15 424.511C287.583 417.76 302.22 418.594 300.182 426.813C305.912 427.668 308.946 424.82 308.946 424.82L310.663 440.361H279.643L278.951 426.101Z" fill="#B15626"/>
<path d="M304.587 219.216C315.314 225.726 316.841 245.056 311.343 252.757L280.737 275.557L311.899 291.604L306.836 308.179C306.836 308.179 274.309 305.53 258.39 289.2C243.103 273.519 280.371 227.462 304.587 219.216Z" fill="#007880"/>
<path d="M326.346 248.539C317.173 237.017 323.508 219.216 335.203 219.739C373.29 233.147 385.046 270.375 372.981 287.087C362.642 301.405 317.175 306.918 317.175 306.918V291.243L348.768 284.416C348.768 284.416 332.474 259.177 326.346 248.539Z" fill="#007880"/>
<path d="M292.972 302.942C292.382 297.693 295.463 291.128 303.353 289.696C317.153 287.189 322.148 294.76 323.453 300.172C323.792 301.582 322.509 303.074 321.326 302.942C320.142 302.81 319.305 302.142 319.103 301.068C318.854 299.775 318.174 298.176 316.694 297.332C318.122 300.127 317.526 302.932 313.64 302.932L292.972 302.942Z" fill="#FFB27D"/>
<path d="M324.129 302.929L334.988 248.479H337.29L325.539 308.413H292.994L289.439 302.932L324.129 302.929Z" fill="#99C1FF"/>
<path d="M337.29 248.479H418.096L406.143 308.413H325.539L337.29 248.479Z" fill="white"/>
<path d="M313.73 223.12C313.73 229.316 332.303 233.424 338.374 226.912C339.331 225.897 339.956 224.616 340.168 223.237L343.656 207.542L321.483 199.178L320.823 201.229L313.73 223.12Z" fill="#FFB27D"/>
<path d="M340.168 223.237L343.656 207.542L322.669 201.891C317.247 218.06 336.632 230.978 340.168 223.237Z" fill="#F4856D"/>
<path d="M319.843 193.152C318.675 208.576 330.865 222.158 341.092 222.848C351.319 223.539 365.4 212.113 366.568 196.69C367.737 181.266 358.222 167.97 345.32 166.993C332.417 166.016 321.012 177.728 319.843 193.152Z" fill="#FFB27D"/>
<path d="M336.944 168.161C351.085 159.193 358.867 167.628 365.913 176.562C370.853 182.83 374.354 187.335 380.505 188.271C368.673 203.194 345.013 193.351 337.559 178.398C336.812 186.909 326.792 193.959 319.843 193.147C317.594 183.68 324.153 164.531 336.944 168.161Z" fill="#0E0E0E"/>
<path d="M323.538 199.412C326.894 198.868 329.173 195.705 328.628 192.349C328.083 188.993 324.921 186.714 321.565 187.259C318.209 187.804 315.93 190.966 316.475 194.322C317.02 197.678 320.182 199.957 323.538 199.412Z" fill="#FFB27D"/>
</svg>
