<svg width="21" height="21" viewBox="0 0 21 21" fill="none" xmlns="http://www.w3.org/2000/svg">
<path d="M10.5073 0.22168C8.52952 0.22168 6.59612 0.808169 4.95163 1.90698C3.30713 3.0058 2.02541 4.56758 1.26853 6.39485C0.511657 8.22211 0.313624 10.2328 0.699476 12.1726C1.08533 14.1124 2.03774 15.8942 3.43626 17.2927C4.83479 18.6913 6.61662 19.6437 8.55643 20.0295C10.4962 20.4154 12.5069 20.2174 14.3342 19.4605C16.1614 18.7036 17.7232 17.4219 18.822 15.7774C19.9208 14.1329 20.5073 12.1995 20.5073 10.2217C20.5073 8.90846 20.2487 7.6081 19.7461 6.39485C19.2436 5.18159 18.507 4.0792 17.5784 3.15061C16.6498 2.22203 15.5474 1.48543 14.3342 0.982884C13.1209 0.480337 11.8205 0.22168 10.5073 0.22168ZM10.5073 18.2217C8.92508 18.2217 7.37836 17.7525 6.06277 16.8734C4.74717 15.9944 3.72179 14.745 3.11629 13.2831C2.51079 11.8213 2.35237 10.2128 2.66105 8.66096C2.96973 7.10911 3.73165 5.68365 4.85047 4.56483C5.96929 3.44601 7.39476 2.68408 8.94661 2.3754C10.4985 2.06672 12.107 2.22514 13.5688 2.83064C15.0306 3.43614 16.28 4.46152 17.1591 5.77712C18.0381 7.09271 18.5073 8.63943 18.5073 10.2217C18.5073 12.3434 17.6645 14.3782 16.1642 15.8785C14.6639 17.3788 12.6291 18.2217 10.5073 18.2217Z" fill="#1A2145"/>
<path d="M10.5073 15.2217C11.0596 15.2217 11.5073 14.774 11.5073 14.2217C11.5073 13.6694 11.0596 13.2217 10.5073 13.2217C9.95504 13.2217 9.50732 13.6694 9.50732 14.2217C9.50732 14.774 9.95504 15.2217 10.5073 15.2217Z" fill="#1A2145"/>
<path d="M10.5073 5.22168C10.2421 5.22168 9.98775 5.32704 9.80022 5.51457C9.61268 5.70211 9.50732 5.95646 9.50732 6.22168V11.2217C9.50732 11.4869 9.61268 11.7413 9.80022 11.9288C9.98775 12.1163 10.2421 12.2217 10.5073 12.2217C10.7725 12.2217 11.0269 12.1163 11.2144 11.9288C11.402 11.7413 11.5073 11.4869 11.5073 11.2217V6.22168C11.5073 5.95646 11.402 5.70211 11.2144 5.51457C11.0269 5.32704 10.7725 5.22168 10.5073 5.22168Z" fill="#1A2145"/>
</svg>
