<svg width="16" height="10" viewBox="0 0 16 10" fill="none" xmlns="http://www.w3.org/2000/svg">
<path d="M2.83862 9.32605L2.83864 9.32607L2.84043 9.32422L7.07201 4.93256L7.07247 4.93209L7.97933 3.97842L13.1174 9.32413C13.2293 9.44055 13.3556 9.53715 13.4971 9.59847C13.6338 9.65776 13.7842 9.69433 13.9368 9.69433C14.0928 9.69433 14.246 9.67135 14.3903 9.59709C14.5234 9.53903 14.6609 9.45621 14.7668 9.34603L14.7669 9.34613L14.7704 9.34216C14.8692 9.22796 14.9609 9.09797 15.0191 8.9525C15.0779 8.80591 15.1 8.63913 15.1 8.48821C15.1 8.33102 15.0651 8.1767 15.0096 8.02641L15.0096 8.0264L15.0086 8.02391C14.9504 7.87845 14.8582 7.74739 14.7563 7.64134L8.79841 1.44264C8.69343 1.33341 8.56622 1.24958 8.42925 1.1902L8.42926 1.19016L8.42663 1.18911C8.28151 1.13104 8.13184 1.09434 7.97895 1.09434C7.8263 1.09434 7.67594 1.13091 7.53917 1.1902C7.4022 1.24958 7.27499 1.33341 7.17001 1.44264L1.21211 7.64134L1.21209 7.64131L1.21027 7.6433C1.00215 7.87186 0.899999 8.17054 0.899999 8.47726C0.899999 8.78861 1.02633 9.08703 1.23317 9.30222C1.45065 9.52849 1.7282 9.64999 2.02959 9.65053C2.33244 9.66206 2.62108 9.54047 2.83862 9.32605Z" fill="#1A2145" stroke="#1A2145" stroke-width="0.2"/>
</svg>
