<svg width="18" height="19" viewBox="0 0 18 19" fill="none" xmlns="http://www.w3.org/2000/svg">
<path d="M2.56335 7.23494C2.56872 3.65616 5.4498 0.768311 9.00689 0.768311C12.5318 0.768311 15.4182 3.67775 15.4182 7.22414C15.4182 10.8083 12.5264 13.707 8.96397 13.7016C5.43907 13.6962 2.56335 10.7921 2.56335 7.23494ZM6.6194 9.74494C6.60867 10.1498 6.93594 10.3495 7.27395 10.1768C7.79973 9.90687 8.32015 9.63158 8.8352 9.35089C8.94787 9.29152 9.03908 9.29152 9.15175 9.35089C9.65607 9.62618 10.1711 9.89068 10.6754 10.1606C10.8471 10.2523 11.0188 10.2793 11.1851 10.1606C11.3622 10.0364 11.3836 9.85289 11.3515 9.65857C11.2549 9.0864 11.1583 8.51962 11.051 7.94745C11.0295 7.8287 11.051 7.74773 11.1422 7.66137C11.5661 7.25113 11.9845 6.83549 12.4084 6.41986C12.5425 6.28491 12.6069 6.12838 12.5479 5.94485C12.4889 5.76132 12.3494 5.66956 12.1562 5.64257C11.5714 5.5616 10.992 5.46444 10.4072 5.38887C10.2731 5.37268 10.214 5.3079 10.1604 5.19995C9.91896 4.69255 9.66143 4.18515 9.42 3.67775C9.32879 3.49423 9.2054 3.36468 8.99616 3.35928C8.77619 3.35388 8.64206 3.48343 8.55085 3.67775C8.30942 4.18515 8.05189 4.69255 7.81046 5.19995C7.75681 5.3133 7.69243 5.37268 7.56366 5.38887C6.99496 5.46444 6.42625 5.5562 5.85755 5.63717C5.65367 5.66416 5.49272 5.74513 5.42834 5.94485C5.36396 6.14997 5.45516 6.30651 5.60002 6.44685C5.95412 6.78691 6.28676 7.14857 6.65696 7.46704C6.90375 7.67756 6.9574 7.88808 6.88766 8.20115C6.76962 8.73014 6.70524 9.25913 6.6194 9.74494Z" fill="#FEB942"/>
<path d="M8.10001 14.5058C7.95515 14.7001 7.83175 14.8675 7.70835 15.0348C6.82311 16.2277 5.93786 17.4152 5.05261 18.6082C4.94531 18.7539 4.82728 18.8781 4.63413 18.8781C4.41953 18.8781 4.25321 18.7323 4.21029 18.4948C4.03324 17.507 3.86156 16.5192 3.68987 15.5314C3.67914 15.4774 3.66841 15.4288 3.65232 15.3479C3.35187 15.4018 3.05679 15.4504 2.76707 15.5044C2.02132 15.6339 1.28093 15.7635 0.535177 15.8984C0.336667 15.9308 0.175713 15.8822 0.0684107 15.7095C-0.0388918 15.5314 -0.0174313 15.3641 0.105967 15.2021C1.04486 13.939 1.98376 12.6813 2.92266 11.4182C2.93339 11.402 2.94948 11.3912 2.98167 11.3643C3.5772 12.2333 4.31759 12.9458 5.2082 13.491C6.08272 14.0254 7.04308 14.3601 8.10001 14.5058Z" fill="#FEB942"/>
<path d="M14.3285 15.3425C14.2212 15.9633 14.1192 16.5517 14.0119 17.14C13.9314 17.588 13.851 18.0415 13.7759 18.4895C13.7437 18.6838 13.6364 18.808 13.4486 18.8565C13.2608 18.9051 13.1052 18.8296 12.9925 18.6784C11.9785 17.3182 10.9645 15.9525 9.94514 14.5868C9.92905 14.5652 9.92368 14.5437 9.90222 14.5005C12.0483 14.182 13.7437 13.1348 15.0098 11.3535C15.0528 11.4021 15.0903 11.4399 15.1279 11.4885C16.0346 12.7084 16.9413 13.9229 17.848 15.1428C17.9124 15.2238 17.966 15.3263 17.9821 15.4289C18.0251 15.715 17.7783 15.9417 17.4724 15.8877C16.7267 15.7636 15.9863 15.6286 15.2405 15.4937C14.9455 15.4505 14.6504 15.4019 14.3285 15.3425Z" fill="#FEB942"/>
<path d="M8.99049 4.75732C9.189 5.16216 9.37142 5.51842 9.5431 5.88548C9.62894 6.07441 9.76307 6.17696 9.96695 6.20395C10.3693 6.25793 10.7717 6.32271 11.1634 6.38208C10.9058 6.65738 10.6644 6.94346 10.3908 7.19716C10.1708 7.39688 10.1064 7.6128 10.1708 7.89889C10.2513 8.26054 10.2996 8.6276 10.364 9.02704C9.99914 8.83812 9.65577 8.67078 9.33386 8.48186C9.09243 8.34151 8.88319 8.34151 8.64176 8.48725C8.31985 8.67618 7.98185 8.83812 7.61702 9.03244C7.67067 8.71936 7.68676 8.43328 7.76724 8.16338C7.9121 7.68297 7.79943 7.32131 7.40241 7.01903C7.18244 6.8517 7.01075 6.61959 6.80151 6.39828C7.04295 6.36049 7.28974 6.32271 7.53654 6.28492C8.41106 6.15537 8.2501 6.25793 8.63103 5.49683C8.74906 5.25393 8.85636 5.02722 8.99049 4.75732Z" fill="#FEB942"/>
</svg>
