<svg width="20" height="20" viewBox="0 0 20 20" fill="none" xmlns="http://www.w3.org/2000/svg">
<path d="M12.2333 15.5002C12.4839 15.5002 12.7244 15.4036 12.9016 15.2317C13.0789 15.0598 13.1785 14.8267 13.1785 14.5835V12.7502C13.1785 12.5071 13.0789 12.2739 12.9016 12.102C12.7244 11.9301 12.4839 11.8335 12.2333 11.8335C11.9826 11.8335 11.7421 11.9301 11.5649 12.102C11.3876 12.2739 11.288 12.5071 11.288 12.7502V14.5835C11.288 14.8267 11.3876 15.0598 11.5649 15.2317C11.7421 15.4036 11.9826 15.5002 12.2333 15.5002ZM8.45233 15.5002C8.70302 15.5002 8.94344 15.4036 9.1207 15.2317C9.29797 15.0598 9.39756 14.8267 9.39756 14.5835V12.7502C9.39756 12.5071 9.29797 12.2739 9.1207 12.102C8.94344 11.9301 8.70302 11.8335 8.45233 11.8335C8.20163 11.8335 7.96121 11.9301 7.78395 12.102C7.60668 12.2739 7.50709 12.5071 7.50709 12.7502V14.5835C7.50709 14.8267 7.60668 15.0598 7.78395 15.2317C7.96121 15.4036 8.20163 15.5002 8.45233 15.5002ZM16.9594 4.50022H15.655L14.0197 1.33772C13.9698 1.22135 13.8956 1.11623 13.8018 1.02892C13.7081 0.94161 13.5968 0.873992 13.4748 0.83029C13.3529 0.786588 13.223 0.767742 13.0932 0.774929C12.9635 0.782115 12.8366 0.815181 12.7206 0.872059C12.6046 0.928937 12.502 1.00841 12.4191 1.1055C12.3362 1.20259 12.2748 1.31522 12.2388 1.43635C12.2029 1.55747 12.193 1.6845 12.21 1.80948C12.2269 1.93446 12.2702 2.05471 12.3372 2.16272L13.5377 4.50022H7.14791L8.34835 2.16272C8.4401 1.94905 8.4451 1.70963 8.36236 1.49253C8.27962 1.27543 8.11525 1.09672 7.90226 0.992287C7.68927 0.88785 7.44343 0.865416 7.21409 0.929489C6.98475 0.993562 6.78889 1.1394 6.66584 1.33772L5.03059 4.50022H3.72617C3.05807 4.51007 2.41502 4.7484 1.91043 5.17317C1.40584 5.59794 1.07212 6.18187 0.968145 6.82196C0.864166 7.46205 0.996602 8.11719 1.34209 8.67183C1.68758 9.22647 2.22394 9.64498 2.85656 9.85355L3.55603 16.6919C3.62656 17.3726 3.95619 18.0033 4.48053 18.461C5.00488 18.9186 5.68629 19.1703 6.39172 19.1669H14.3128C15.0182 19.1703 15.6996 18.9186 16.2239 18.461C16.7483 18.0033 17.0779 17.3726 17.1485 16.6919L17.8479 9.85355C18.4819 9.64436 19.0191 9.22432 19.3644 8.66783C19.7096 8.11133 19.8406 7.4543 19.7342 6.8131C19.6278 6.1719 19.2908 5.58792 18.7829 5.16459C18.275 4.74127 17.6291 4.50591 16.9594 4.50022ZM15.2485 16.5085C15.225 16.7354 15.1152 16.9457 14.9404 17.0982C14.7656 17.2508 14.5385 17.3347 14.3033 17.3335H6.38227C6.14713 17.3347 5.91999 17.2508 5.74521 17.0982C5.57042 16.9457 5.46055 16.7354 5.43704 16.5085L4.76592 10.0002H15.9197L15.2485 16.5085ZM16.9594 8.16688H3.72617C3.47548 8.16688 3.23505 8.07031 3.05779 7.8984C2.88052 7.72649 2.78094 7.49333 2.78094 7.25022C2.78094 7.0071 2.88052 6.77394 3.05779 6.60204C3.23505 6.43013 3.47548 6.33355 3.72617 6.33355H16.9594C17.2101 6.33355 17.4505 6.43013 17.6278 6.60204C17.8051 6.77394 17.9046 7.0071 17.9046 7.25022C17.9046 7.49333 17.8051 7.72649 17.6278 7.8984C17.4505 8.07031 17.2101 8.16688 16.9594 8.16688Z" fill="white"/>
</svg>
