<svg width="19" height="24" viewBox="0 0 19 24" fill="none" xmlns="http://www.w3.org/2000/svg">
<path fill-rule="evenodd" clip-rule="evenodd" d="M1.10205 10.363C1.11782 5.68116 4.89375 1.89869 9.53581 1.9146C14.1779 1.93051 17.9282 5.73876 17.9125 10.4206V10.5166C17.8553 13.5599 16.1705 16.3728 14.1049 18.5713C12.9236 19.8086 11.6044 20.9039 10.1736 21.8355C9.791 22.1693 9.22351 22.1693 8.84093 21.8355C6.70796 20.4353 4.83592 18.6674 3.31044 16.6129C1.95081 14.8212 1.17886 12.6466 1.10205 10.3918L1.10205 10.363Z" stroke="#1A2145" stroke-width="2" stroke-linecap="round" stroke-linejoin="round"/>
<path fill-rule="evenodd" clip-rule="evenodd" d="M9.50752 12.8877C10.8007 12.8877 11.849 11.8304 11.849 10.5261C11.849 9.22186 10.8007 8.16455 9.50752 8.16455C8.21434 8.16455 7.16602 9.22186 7.16602 10.5261C7.16602 11.8304 8.21434 12.8877 9.50752 12.8877Z" stroke="#1A2145" stroke-width="2" stroke-linecap="round" stroke-linejoin="round"/>
</svg>
