<svg width="14" height="13" viewBox="0 0 14 13" fill="none" xmlns="http://www.w3.org/2000/svg">
<path d="M13.2344 6.5C13.2344 6.7874 13.1242 7.06522 12.9181 7.2664C12.7169 7.47237 12.4389 7.58733 12.1514 7.58733H7.8197V11.9175C7.8197 12.2049 7.7047 12.4827 7.49866 12.6839C7.2974 12.885 7.02428 13 6.73677 13C6.44927 13 6.17135 12.885 5.97009 12.6839C5.76405 12.4827 5.64904 12.2049 5.64904 11.9175V7.58733H1.31731C1.0298 7.58733 0.751883 7.47237 0.55063 7.2664C0.349377 7.06522 0.234375 6.7874 0.234375 6.5C0.234375 6.2126 0.349377 5.93957 0.55063 5.7336C0.751883 5.53242 1.0298 5.41747 1.31731 5.41747H5.64904V1.08732C5.64904 0.799926 5.76405 0.522108 5.97009 0.320929C6.17135 0.114959 6.44927 0 6.73677 0C7.02428 0 7.2974 0.114959 7.49866 0.320929C7.7047 0.522108 7.8197 0.799926 7.8197 1.08732V5.41747H12.1514C12.4389 5.41747 12.7169 5.53242 12.9181 5.7336C13.1242 5.93957 13.2344 6.2126 13.2344 6.5Z" fill="#1A2145"/>
</svg>
