<svg width="22" height="18" viewBox="0 0 22 18" fill="none" xmlns="http://www.w3.org/2000/svg">
<path d="M18.0283 17.8152H3.98976C3.01519 17.8256 2.07563 17.4523 1.37399 16.7759C0.672351 16.0994 0.26494 15.1741 0.239746 14.1998C0.239746 11.996 1.67821 9.99595 4.19745 8.64595L4.40515 8.53441C5.69137 7.88757 7.07304 7.45126 8.49747 7.2421C9.32805 7.10957 10.1679 7.04398 11.009 7.04594H11.2821C12.3901 7.05709 13.4937 7.18602 14.5744 7.43056H14.6244C15.1849 7.56352 15.7371 7.72918 16.2783 7.92671C17.0474 8.209 17.7848 8.57125 18.4783 9.00749C20.6244 10.3767 21.7783 12.1998 21.7783 14.1614V14.196C21.7541 15.1709 21.3471 16.0972 20.6454 16.7745C19.9436 17.4518 19.0035 17.8256 18.0283 17.8152ZM4.91669 9.13826L4.75515 9.22287C2.37437 10.4344 1.00898 12.2344 1.00898 14.1614C1.02415 14.9384 1.34612 15.6778 1.90459 16.2183C2.46306 16.7587 3.21267 17.0563 3.98976 17.046H18.0283C18.8005 17.0574 19.5461 16.7644 20.1039 16.2303C20.6618 15.6963 20.9869 14.9641 21.0091 14.1921L21.3937 14.1614H21.0091C21.0091 12.4729 19.9629 10.8806 18.0667 9.67672C17.4176 9.27144 16.728 8.935 16.009 8.67287C15.5058 8.48568 14.9921 8.32772 14.4706 8.19979H14.436C13.3925 7.9584 12.3261 7.82945 11.2552 7.81518H11.009C10.2078 7.81285 9.40769 7.87588 8.6167 8.00364C7.3327 8.19084 6.08491 8.57348 4.91669 9.13826Z" fill="#F7B507"/>
<path d="M18.0283 17.8152H3.98976C3.01519 17.8256 2.07563 17.4523 1.37399 16.7759C0.672351 16.0994 0.26494 15.1741 0.239746 14.1998C0.239746 11.996 1.67821 9.99595 4.19745 8.64595L4.40515 8.53441C5.69137 7.88757 7.07304 7.45126 8.49747 7.2421C9.32805 7.10957 10.1679 7.04398 11.009 7.04594H11.2821C12.3901 7.05709 13.4937 7.18602 14.5744 7.43056H14.6244C15.1849 7.56352 15.7371 7.72918 16.2783 7.92671C17.0474 8.209 17.7848 8.57125 18.4783 9.00749C20.6244 10.3767 21.7783 12.1998 21.7783 14.1614V14.196C21.7541 15.1709 21.3471 16.0972 20.6454 16.7745C19.9436 17.4518 19.0035 17.8256 18.0283 17.8152ZM4.91669 9.13826L4.75515 9.22287C2.37437 10.4344 1.00898 12.2344 1.00898 14.1614C1.02415 14.9384 1.34612 15.6778 1.90459 16.2183C2.46306 16.7587 3.21267 17.0563 3.98976 17.046H18.0283C18.8005 17.0574 19.5461 16.7644 20.1039 16.2303C20.6618 15.6963 20.9869 14.9641 21.0091 14.1921L21.3937 14.1614H21.0091C21.0091 12.4729 19.9629 10.8806 18.0667 9.67672C17.4176 9.27144 16.728 8.935 16.009 8.67287C15.5058 8.48568 14.9921 8.32772 14.4706 8.19979H14.436C13.3925 7.9584 12.3261 7.82945 11.2552 7.81518H11.009C10.2078 7.81285 9.40769 7.87588 8.6167 8.00364C7.3327 8.19084 6.08491 8.57348 4.91669 9.13826Z" fill="#F7B507"/>
<path d="M9.52808 12.815C9.36157 12.8168 9.19667 12.7824 9.04469 12.7144C8.89271 12.6464 8.75726 12.5462 8.64764 12.4209C8.53801 12.2956 8.45682 12.148 8.40962 11.9883C8.36243 11.8286 8.35035 11.6606 8.37423 11.4958C8.50473 10.6261 8.80774 9.79117 9.26547 9.04019C9.72319 8.28921 10.3264 7.63728 11.0396 7.12271C11.1056 7.07198 11.1873 7.04611 11.2704 7.04963C12.3977 7.05636 13.5209 7.18532 14.6204 7.43425C14.7099 7.45511 14.7889 7.5073 14.8432 7.58137C14.8975 7.65544 14.9236 7.74651 14.9166 7.8381C14.9094 7.93021 14.8693 8.01665 14.8036 8.08162C14.7379 8.1466 14.651 8.18576 14.5589 8.19195C13.5988 8.25915 12.6903 8.65169 11.9834 9.30479C11.2764 9.95788 10.8133 10.8325 10.6704 11.7843C10.6401 12.0665 10.5069 12.3277 10.2961 12.5178C10.0854 12.708 9.81193 12.8138 9.52808 12.815ZM11.3935 7.81502C10.18 8.73381 9.37386 10.0907 9.14731 11.5958C9.13961 11.6507 9.14387 11.7066 9.1598 11.7598C9.17573 11.8129 9.20296 11.8619 9.23962 11.9035C9.27573 11.9457 9.32055 11.9796 9.37101 12.0029C9.42147 12.0261 9.47637 12.0381 9.53192 12.0381C9.62943 12.0384 9.72339 12.0016 9.7948 11.9351C9.8662 11.8687 9.90972 11.7777 9.91654 11.6804C10.0605 10.7293 10.4759 9.83988 11.1127 9.11887C11.5645 8.60878 12.1137 8.19423 12.7281 7.89964C12.2819 7.86118 11.8358 7.81502 11.3935 7.81502Z" fill="#F7B507"/>
<path d="M4.56195 12.4305H4.46965C4.31038 12.4305 4.15297 12.3962 4.0081 12.33C3.86323 12.2638 3.73427 12.1673 3.62996 12.0469C3.52565 11.9266 3.44842 11.7852 3.40351 11.6324C3.3586 11.4796 3.34705 11.3189 3.36964 11.1613C3.48735 10.2921 3.78046 9.45597 4.23118 8.70356C4.26856 8.63218 4.32606 8.57333 4.39657 8.53433C5.68279 7.88749 7.06446 7.45118 8.48889 7.24202C8.58512 7.22851 8.6829 7.25193 8.76256 7.30756C8.84223 7.3632 8.89789 7.44692 8.91835 7.54192C8.93881 7.63691 8.92256 7.73613 8.87285 7.81962C8.82315 7.90312 8.74369 7.96471 8.65043 7.99202C8.19315 8.12246 7.76227 8.33204 7.37735 8.61125C6.91582 8.94567 6.52592 9.36911 6.23065 9.85661C5.93537 10.3441 5.7407 10.8858 5.65811 11.4497C5.62469 11.718 5.49526 11.9652 5.29376 12.1455C5.09226 12.3257 4.83231 12.427 4.56195 12.4305ZM4.85426 9.16895C4.48025 9.81797 4.2372 10.5341 4.13888 11.2766C4.13233 11.3242 4.13596 11.3725 4.14952 11.4185C4.16309 11.4646 4.18628 11.5072 4.21755 11.5435C4.24883 11.5799 4.28748 11.6092 4.33094 11.6295C4.3744 11.6498 4.42168 11.6606 4.46965 11.6613H4.55426C4.64066 11.6597 4.72343 11.6262 4.78663 11.5673C4.84983 11.5083 4.88899 11.4281 4.89657 11.342C5.04835 10.303 5.52337 9.3382 6.25427 8.58433C5.77561 8.74914 5.30798 8.94441 4.85426 9.16895Z" fill="#F7B507"/>
<path d="M14.1583 13.1995C13.9891 13.2019 13.8215 13.167 13.6673 13.0974C13.5132 13.0278 13.3762 12.9251 13.2661 12.7967C13.156 12.6682 13.0755 12.5172 13.0303 12.3541C12.985 12.1911 12.9762 12.0202 13.0044 11.8533C13.158 11.0187 13.5057 10.2318 14.0195 9.55634C14.5333 8.88086 15.1988 8.33569 15.9621 7.96487C16.0101 7.94424 16.0618 7.93359 16.1141 7.93359C16.1663 7.93359 16.218 7.94424 16.266 7.96487C17.0351 8.24716 17.7725 8.6094 18.466 9.04564C18.5286 9.09191 18.5758 9.1561 18.6012 9.22972C18.6265 9.30335 18.6289 9.38295 18.6081 9.45798C18.5873 9.53302 18.5441 9.59996 18.4844 9.64995C18.4247 9.69994 18.3512 9.73063 18.2737 9.73795C17.5586 9.74733 16.8692 10.0055 16.3238 10.468C15.7784 10.9306 15.4112 11.5686 15.2852 12.2726C15.2329 12.5333 15.0922 12.7679 14.8869 12.9368C14.6815 13.1057 14.4242 13.1985 14.1583 13.1995ZM16.166 8.73026C15.5477 9.05718 15.0114 9.51968 14.5971 10.0832C14.1828 10.6466 13.9013 11.2965 13.7737 11.9841C13.7737 11.9841 13.7737 12.0264 13.7737 12.0495C13.7737 12.1515 13.8142 12.2493 13.8863 12.3215C13.9585 12.3936 14.0563 12.4341 14.1583 12.4341C14.2467 12.4365 14.3332 12.4083 14.4032 12.3544C14.4733 12.3004 14.5226 12.224 14.5429 12.138C14.6667 11.4525 14.9743 10.8135 15.4329 10.2892C15.8915 9.76486 16.4839 9.37494 17.1468 9.16103C16.8275 9.00334 16.5006 8.86103 16.166 8.73026Z" fill="#F7B507"/>
<path d="M17.3129 16.2764H4.7052C3.72472 16.278 2.766 15.9874 1.95135 15.4418C1.90419 15.4165 1.86282 15.3817 1.82991 15.3395C1.79699 15.2973 1.77324 15.2487 1.76017 15.1968C1.74711 15.1449 1.74502 15.0908 1.75403 15.0381C1.76305 14.9853 1.78298 14.935 1.81254 14.8904C1.8421 14.8458 1.88064 14.8079 1.92571 14.779C1.97077 14.7501 2.02137 14.731 2.07425 14.7228C2.12714 14.7146 2.18115 14.7175 2.23284 14.7314C2.28452 14.7453 2.33275 14.7698 2.37442 14.8033C3.06462 15.2634 3.87576 15.5083 4.7052 15.5072H17.3129C18.1424 15.5083 18.9535 15.2634 19.6437 14.8033C19.7282 14.758 19.8265 14.7459 19.9194 14.7693C20.0124 14.7927 20.0932 14.8499 20.1461 14.9298C20.1991 15.0097 20.2203 15.1065 20.2056 15.2012C20.1909 15.2959 20.1414 15.3817 20.0668 15.4418C19.2522 15.9874 18.2934 16.278 17.3129 16.2764Z" fill="#F7B507"/>
<path d="M6.778 6.36895C6.72738 6.36925 6.6772 6.35954 6.63034 6.3404C6.58348 6.32126 6.54086 6.29306 6.50492 6.25742C6.36188 6.11453 6.24841 5.94486 6.17098 5.75809C6.09356 5.57132 6.05371 5.37113 6.05371 5.16895C6.05371 4.96677 6.09356 4.76657 6.17098 4.57981C6.24841 4.39304 6.36188 4.22337 6.50492 4.08048C6.64938 3.93689 6.73099 3.74186 6.73185 3.53817C6.73193 3.43667 6.71192 3.33615 6.67297 3.24241C6.63402 3.14868 6.57691 3.06358 6.50492 2.99202C6.43329 2.91995 6.39308 2.82247 6.39308 2.72086C6.39308 2.61925 6.43329 2.52177 6.50492 2.44971C6.54068 2.41366 6.58322 2.38504 6.63009 2.36552C6.67696 2.34599 6.72723 2.33594 6.778 2.33594C6.82878 2.33594 6.87905 2.34599 6.92592 2.36552C6.97278 2.38504 7.01532 2.41366 7.05108 2.44971C7.19412 2.59259 7.3076 2.76226 7.38502 2.94903C7.46244 3.1358 7.50229 3.33599 7.50229 3.53817C7.50229 3.74035 7.46244 3.94055 7.38502 4.12731C7.3076 4.31408 7.19412 4.48376 7.05108 4.62664C6.90662 4.77024 6.82501 4.96526 6.82416 5.16895C6.82407 5.27045 6.84408 5.37097 6.88303 5.46471C6.92198 5.55844 6.97909 5.64354 7.05108 5.71511C7.12271 5.78717 7.16292 5.88465 7.16292 5.98626C7.16292 6.08787 7.12271 6.18535 7.05108 6.25742C7.01514 6.29306 6.97252 6.32126 6.92566 6.3404C6.8788 6.35954 6.82862 6.36925 6.778 6.36895Z" fill="#F7B507"/>
<path d="M11.009 4.83038C10.9583 4.83067 10.9082 4.82097 10.8613 4.80183C10.8144 4.78269 10.7718 4.75449 10.7359 4.71884C10.5928 4.57596 10.4794 4.40628 10.4019 4.21952C10.3245 4.03275 10.2847 3.83255 10.2847 3.63037C10.2847 3.4282 10.3245 3.228 10.4019 3.04123C10.4794 2.85447 10.5928 2.68479 10.7359 2.54191C10.8803 2.39831 10.9619 2.20328 10.9628 1.9996C10.9629 1.89809 10.9429 1.79758 10.9039 1.70384C10.865 1.6101 10.8079 1.525 10.7359 1.45344C10.6642 1.38138 10.624 1.2839 10.624 1.18229C10.624 1.08068 10.6642 0.983195 10.7359 0.911132C10.7716 0.875083 10.8142 0.84647 10.861 0.826943C10.9079 0.807417 10.9582 0.797363 11.009 0.797363C11.0597 0.797363 11.11 0.807417 11.1569 0.826943C11.2037 0.84647 11.2463 0.875083 11.282 0.911132C11.4251 1.05401 11.5386 1.22369 11.616 1.41046C11.6934 1.59722 11.7332 1.79742 11.7332 1.9996C11.7332 2.20178 11.6934 2.40197 11.616 2.58874C11.5386 2.77551 11.4251 2.94518 11.282 3.08806C11.1376 3.23166 11.056 3.42669 11.0551 3.63037C11.055 3.73188 11.075 3.8324 11.114 3.92613C11.1529 4.01987 11.21 4.10497 11.282 4.17653C11.3537 4.24859 11.3939 4.34608 11.3939 4.44769C11.3939 4.5493 11.3537 4.64678 11.282 4.71884C11.2461 4.75449 11.2035 4.78269 11.1566 4.80183C11.1098 4.82097 11.0596 4.83067 11.009 4.83038Z" fill="#F7B507"/>
<path d="M15.2404 5.98419C15.1898 5.98448 15.1396 5.97478 15.0927 5.95564C15.0459 5.9365 15.0033 5.9083 14.9673 5.87265C14.8243 5.72977 14.7108 5.56009 14.6334 5.37332C14.556 5.18656 14.5161 4.98636 14.5161 4.78418C14.5161 4.582 14.556 4.38181 14.6334 4.19504C14.7108 4.00827 14.8243 3.8386 14.9673 3.69572C15.1118 3.55212 15.1934 3.35709 15.1943 3.15341C15.1943 3.0519 15.1743 2.95138 15.1354 2.85765C15.0964 2.76391 15.0393 2.67881 14.9673 2.60725C14.8957 2.53519 14.8555 2.43771 14.8555 2.3361C14.8555 2.23449 14.8957 2.137 14.9673 2.06494C15.0031 2.02889 15.0456 2.00028 15.0925 1.98075C15.1394 1.96123 15.1896 1.95117 15.2404 1.95117C15.2912 1.95117 15.3414 1.96123 15.3883 1.98075C15.4352 2.00028 15.4777 2.02889 15.5135 2.06494C15.6565 2.20782 15.77 2.3775 15.8474 2.56427C15.9248 2.75103 15.9647 2.95123 15.9647 3.15341C15.9647 3.35559 15.9248 3.55578 15.8474 3.74255C15.77 3.92932 15.6565 4.09899 15.5135 4.24187C15.369 4.38547 15.2874 4.5805 15.2866 4.78418C15.2865 4.88569 15.3065 4.98621 15.3454 5.07994C15.3844 5.17368 15.4415 5.25878 15.5135 5.33034C15.5851 5.4024 15.6253 5.49988 15.6253 5.60149C15.6253 5.7031 15.5851 5.80059 15.5135 5.87265C15.4775 5.9083 15.4349 5.9365 15.3881 5.95564C15.3412 5.97478 15.291 5.98448 15.2404 5.98419Z" fill="#F7B507"/>
</svg>
