<svg width="18" height="18" viewBox="0 0 18 18" fill="none" xmlns="http://www.w3.org/2000/svg">
<circle cx="9" cy="9" r="9" fill="#18DAA0"/>
<path d="M14 7.1155C14 7.41228 13.8798 7.69883 13.6612 7.90351L8.57924 12.6725C8.34973 12.8772 8.04372 13 7.72678 13C7.40984 13 7.10383 12.8772 6.88525 12.6725L4.3388 10.288C4.12022 10.0833 4 9.79678 4 9.5C4 9.20322 4.13115 8.9269 4.34973 8.71199C4.57923 8.50731 4.87432 8.39474 5.19126 8.3845C5.5082 8.3845 5.80328 8.49708 6.03279 8.70175L7.72678 10.288L11.9672 6.31725C12.1967 6.11257 12.4918 6 12.8087 6C13.1257 6.01023 13.4208 6.12281 13.6503 6.33772C13.8689 6.5424 14 6.81871 14 7.1155Z" fill="white"/>
</svg>
