<svg width="21" height="21" viewBox="0 0 21 21" fill="none" xmlns="http://www.w3.org/2000/svg">
<path d="M19.9827 6.68773H8.41036C8.58256 5.82669 8.54812 4.96566 8.37592 4.10463L8.30703 3.93242H19.9827C20.1893 3.93242 20.3271 3.79465 20.3271 3.58801C20.3271 3.38136 20.1893 3.24359 19.9827 3.24359H8.23815C8.20371 2.93362 8.20371 2.58921 8.27259 2.27923V2.24479L20.0171 1.17711C20.2237 1.17711 20.3615 1.0049 20.3271 0.798254C20.2926 0.591605 20.1549 0.488281 19.9482 0.488281L8.68589 1.52152C8.47924 1.4182 8.20371 1.4182 7.99706 1.52152C7.96262 1.55596 7.92818 1.55596 7.89374 1.59041L7.48044 1.62485C7.446 1.59041 7.41156 1.59041 7.41156 1.55596C7.17047 1.4182 6.89494 1.38376 6.65385 1.52152C6.55052 1.55596 6.48164 1.62485 6.41276 1.72817L6.20611 1.76261C6.17167 1.69373 6.10278 1.62485 6.0339 1.59041C5.79281 1.45264 5.51728 1.4182 5.24175 1.55596C5.10398 1.62485 5.00066 1.76261 4.93178 1.90038H4.79401C4.58736 1.90038 4.4496 2.07258 4.48404 2.27923C4.48404 2.417 4.62181 2.55476 4.75957 2.58921C4.72513 2.8303 4.72513 3.07138 4.75957 3.31247C4.58736 3.34692 4.48404 3.48468 4.48404 3.65689C4.48404 3.86354 4.62181 4.0013 4.82845 4.0013H4.8629L4.89734 4.31127C5.0351 5.13787 5.17287 5.96446 4.89734 6.75661H0.695488C0.48884 6.75661 0.351074 6.89438 0.351074 7.10103V9.16751C0.351074 12.9905 2.86529 16.3658 6.51608 17.4334C5.48284 17.9501 4.82845 19.0177 4.82845 20.1887C4.82845 20.3954 4.96622 20.5332 5.17287 20.5332H15.5053C15.7119 20.5332 15.8497 20.3954 15.8497 20.1887C15.8497 19.0177 15.1953 17.9501 14.1621 17.4334C17.8129 16.2969 20.3271 12.9216 20.3271 9.09863V7.03214C20.3271 6.82549 20.1893 6.68773 19.9827 6.68773ZM7.65265 4.24239C7.79041 5.06898 7.92818 5.89558 7.65265 6.68773H6.99826C7.17047 5.82669 7.13603 4.96566 6.96382 4.10463L6.92938 3.93242H7.61821L7.65265 4.24239ZM7.51488 3.24359H6.82605C6.79161 2.96806 6.79161 2.65809 6.86049 2.38256L7.54932 2.31367C7.51488 2.62365 7.51488 2.93362 7.51488 3.24359ZM5.4484 2.48588L6.13723 2.417C6.10278 2.69253 6.10278 2.96806 6.13723 3.24359H5.4484C5.4484 3.0025 5.4484 2.76141 5.4484 2.48588ZM5.58616 4.10463L5.55172 3.93242H6.24055L6.27499 4.24239C6.41276 5.06898 6.55052 5.89558 6.27499 6.68773H5.6206C5.79281 5.82669 5.79281 4.96566 5.58616 4.10463ZM12.75 17.709C13.9554 17.709 14.9542 18.6044 15.1264 19.7755H5.55172C5.72393 18.6044 6.72273 17.709 7.92818 17.709H12.75ZM19.6382 9.09863C19.6382 13.4727 16.0908 17.0201 11.7167 17.0201H8.96142C4.58736 17.0201 1.0399 13.4727 1.0399 9.09863V7.37656H19.6382V9.09863Z" fill="#7556FF"/>
<path d="M13.1976 16.1937H13.2665C13.9898 16.056 14.6786 15.7804 15.333 15.436C17.5717 14.0928 18.9493 11.6819 18.9493 9.09881C18.9493 8.89216 18.8116 8.75439 18.6049 8.75439C18.3983 8.75439 18.2605 8.89216 18.2605 9.09881C18.2605 11.4408 17.0206 13.6106 14.9886 14.8161C14.4031 15.126 13.7831 15.3671 13.1287 15.5049C12.9221 15.5393 12.7843 15.6771 12.8188 15.8838C12.8188 16.056 12.991 16.1937 13.1976 16.1937Z" fill="#7556FF"/>
</svg>
