<svg width="18" height="18" viewBox="0 0 18 18" fill="none" xmlns="http://www.w3.org/2000/svg">
<path d="M8.8926 18C6.52928 17.9843 4.29697 17.0358 2.60963 15.3275C0.917053 13.614 -0.00521797 11.3659 2.22077e-05 8.99214C0.0157427 4.03493 4.05068 0 8.9974 0H9.02885C11.4288 0.00524017 13.6874 0.958952 15.3904 2.67773C17.083 4.38603 18.0105 6.63406 18 9.00786C17.9895 11.4236 17.0463 13.6873 15.3433 15.3799C13.6402 17.0672 11.3712 18 8.95024 18H8.8926ZM9.00788 1.25764C4.73714 1.25764 1.25766 4.7214 1.25766 8.97642C1.25766 11.0463 2.05941 12.9956 3.52142 14.4629C4.98343 15.9301 6.92229 16.7371 8.98168 16.7371C13.2629 16.7371 16.7424 13.2576 16.7424 8.9869C16.7424 6.92751 15.9354 4.98865 14.4734 3.52664C13.0114 2.06463 11.0673 1.25764 9.00788 1.25764Z" fill="#1A2145"/>
<path d="M11.4761 12.1309C11.3241 12.1309 11.1878 12.0733 11.0673 11.958C10.2446 11.1406 9.41142 10.3074 8.60968 9.50038L8.54679 9.4375C8.42627 9.31697 8.37387 9.15977 8.37387 8.94492C8.37911 8.35278 8.37387 7.7554 8.37387 7.17374C8.37387 7.01653 8.37387 6.85933 8.37387 6.69688V6.49251C8.37387 6.24623 8.37387 5.99994 8.37387 5.74841C8.37387 5.15627 8.36863 4.54317 8.37911 3.94579C8.38435 3.65234 8.61492 3.40081 8.90313 3.36413C8.92933 3.35889 8.96077 3.35889 8.98697 3.35889C9.28042 3.35889 9.51623 3.53705 9.58959 3.8043C9.61579 3.89863 9.61579 4.01391 9.61579 4.11871C9.61579 5.434 9.62103 6.95889 9.61579 8.45234C9.61579 8.65147 9.67867 8.80343 9.82016 8.94492C10.5014 9.61566 11.1826 10.3021 11.8481 10.9676L11.9162 11.0357C12.1101 11.2296 12.1678 11.4288 12.0996 11.6698C12.0315 11.9109 11.8795 12.0523 11.6333 12.11C11.5809 12.1205 11.5285 12.1309 11.4761 12.1309Z" fill="#1A2145"/>
</svg>
