<svg width="16" height="16" viewBox="0 0 16 16" fill="none" xmlns="http://www.w3.org/2000/svg">
<path d="M14.8581 13.1921L14.8572 13.1912L10.4654 8.95942L10.4652 8.9592L9.47355 8.01625L14.8572 2.84176C14.9702 2.73318 15.0623 2.6121 15.1203 2.47822C15.1773 2.34667 15.212 2.20307 15.212 2.05832C15.212 1.90666 15.1896 1.76163 15.1196 1.62627C15.0632 1.49659 14.9835 1.36467 14.8791 1.26434L14.8791 1.26429L14.8771 1.26258C14.7653 1.16581 14.6401 1.07783 14.5016 1.02239C14.3626 0.966717 14.2025 0.945117 14.0559 0.945117C13.9061 0.945117 13.7577 0.978337 13.6114 1.03243L13.6114 1.03242L13.6102 1.03291C13.4717 1.08836 13.3459 1.17653 13.2436 1.27487L7.04468 7.233C6.94078 7.33286 6.86053 7.45437 6.80346 7.58601L6.80344 7.58601L6.80291 7.58733C6.7465 7.72831 6.71172 7.87157 6.71172 8.01644C6.71172 8.16119 6.74644 8.3048 6.80346 8.43635C6.86053 8.568 6.94078 8.6895 7.04468 8.78936L13.2436 14.7475L13.2436 14.7475L13.2446 14.7484C13.4629 14.9472 13.7492 15.0457 14.0449 15.0457C14.343 15.0457 14.6291 14.9246 14.8353 14.7264C15.0525 14.5177 15.168 14.2526 15.1682 13.965C15.1795 13.6768 15.0639 13.4009 14.8581 13.1921Z" fill="#B3B3B3" stroke="#B3B3B3" stroke-width="0.1"/>
<path d="M1.30397 2.79865L1.30489 2.79955L5.69671 7.0313L5.69695 7.03153L6.68856 7.97447L1.30493 13.149C1.19196 13.2575 1.09984 13.3786 1.0418 13.5125C0.984779 13.644 0.950061 13.7877 0.950061 13.9324C0.950061 14.0841 0.972501 14.2291 1.04251 14.3644C1.09891 14.4941 1.17865 14.6261 1.28303 14.7264L1.28298 14.7264L1.28496 14.7281C1.39682 14.8249 1.52206 14.9129 1.66051 14.9683C1.79952 15.024 1.95958 15.0456 2.10623 15.0456C2.25602 15.0456 2.40437 15.0124 2.5507 14.9583L2.55071 14.9583L2.55196 14.9578C2.6904 14.9024 2.81617 14.8142 2.91849 14.7159L9.11743 8.75772C9.22133 8.65786 9.30158 8.53636 9.35865 8.40471L9.35867 8.40472L9.35919 8.4034C9.41561 8.26241 9.45039 8.11915 9.45039 7.97428C9.45039 7.82953 9.41567 7.68592 9.35865 7.55438C9.30158 7.42273 9.22133 7.30122 9.11743 7.20136L2.91849 1.24323L2.9185 1.24322L2.9175 1.24231C2.69917 1.04351 2.41293 0.945057 2.11719 0.945057C1.81912 0.945057 1.53301 1.06612 1.32684 1.26428C1.10965 1.47303 0.994137 1.73813 0.993871 2.02568C0.982627 2.31397 1.09819 2.58987 1.30397 2.79865Z" fill="#B3B3B3" stroke="#B3B3B3" stroke-width="0.1"/>
</svg>
