<svg width="22" height="19" viewBox="0 0 22 19" fill="none" xmlns="http://www.w3.org/2000/svg">
<path d="M1.69231 4.31818H20.3077C20.5321 4.31818 20.7473 4.22719 20.906 4.06523C21.0647 3.90327 21.1538 3.6836 21.1538 3.45455C21.1538 3.22549 21.0647 3.00583 20.906 2.84386C20.7473 2.6819 20.5321 2.59091 20.3077 2.59091H1.69231C1.46789 2.59091 1.25267 2.6819 1.09399 2.84386C0.935302 3.00583 0.846154 3.22549 0.846154 3.45455C0.846154 3.6836 0.935302 3.90327 1.09399 4.06523C1.25267 4.22719 1.46789 4.31818 1.69231 4.31818ZM3.38462 1.72727H18.6154C18.8398 1.72727 19.055 1.63628 19.2137 1.47432C19.3724 1.31236 19.4615 1.09269 19.4615 0.863636C19.4615 0.634586 19.3724 0.414917 19.2137 0.252953C19.055 0.0909902 18.8398 0 18.6154 0H3.38462C3.1602 0 2.94498 0.0909902 2.78629 0.252953C2.62761 0.414917 2.53846 0.634586 2.53846 0.863636C2.53846 1.09269 2.62761 1.31236 2.78629 1.47432C2.94498 1.63628 3.1602 1.72727 3.38462 1.72727ZM21.1538 5.18182H0.846154C0.62174 5.18182 0.406517 5.27281 0.247833 5.43477C0.0891481 5.59674 0 5.8164 0 6.04545V18.1364C0 18.3654 0.0891481 18.5851 0.247833 18.747C0.406517 18.909 0.62174 19 0.846154 19H21.1538C21.3783 19 21.5935 18.909 21.7522 18.747C21.9109 18.5851 22 18.3654 22 18.1364V6.04545C22 5.8164 21.9109 5.59674 21.7522 5.43477C21.5935 5.27281 21.3783 5.18182 21.1538 5.18182ZM3.98538 9.24955C3.82323 9.40736 3.60865 9.49682 3.38462 9.5C3.27404 9.49864 3.1648 9.47516 3.06308 9.43091C2.96054 9.38717 2.86609 9.32583 2.78385 9.24955C2.62923 9.08404 2.54158 8.86503 2.53846 8.63636C2.5398 8.52351 2.5628 8.41201 2.60615 8.30818C2.64643 8.20217 2.70681 8.10532 2.78385 8.02318C2.86609 7.9469 2.96054 7.88555 3.06308 7.84182C3.26964 7.75587 3.50109 7.75665 3.70709 7.84399C3.91309 7.93132 4.07697 8.09815 4.16308 8.30818C4.20643 8.41201 4.22943 8.52351 4.23077 8.63636C4.22765 8.86503 4.14001 9.08404 3.98538 9.24955ZM11 15.5455C10.3306 15.5455 9.67621 15.3428 9.11961 14.9633C8.56301 14.5837 8.1292 14.0441 7.87302 13.4129C7.61685 12.7817 7.54982 12.0871 7.68042 11.417C7.81102 10.7468 8.13337 10.1313 8.60672 9.64818C9.08006 9.16505 9.68314 8.83604 10.3397 8.70274C10.9962 8.56945 11.6768 8.63786 12.2952 8.89933C12.9137 9.16079 13.4423 9.60357 13.8142 10.1717C14.1861 10.7398 14.3846 11.4077 14.3846 12.0909C14.3846 13.0071 14.028 13.8858 13.3933 14.5336C12.7585 15.1815 11.8977 15.5455 11 15.5455ZM19.2162 16.1586C19.0783 16.3005 18.8966 16.3891 18.7019 16.4096C18.5073 16.43 18.3117 16.3809 18.1485 16.2707C17.9853 16.1605 17.8645 15.9959 17.8068 15.805C17.7492 15.6142 17.7581 15.4088 17.8321 15.2239C17.9061 15.039 18.0406 14.886 18.2127 14.7909C18.3848 14.6958 18.5839 14.6646 18.776 14.7025C18.9682 14.7404 19.1415 14.8452 19.2665 14.9989C19.3915 15.1525 19.4604 15.3457 19.4615 15.5455C19.4584 15.7741 19.3708 15.9931 19.2162 16.1586Z" fill="#1A2145"/>
</svg>
