<svg width="18" height="24" viewBox="0 0 18 24" fill="none" xmlns="http://www.w3.org/2000/svg">
<path d="M17.2623 5.10885L13.3792 1.20212C13.3086 1.13168 13.2249 1.07595 13.1329 1.03812C13.0408 1.0003 12.9423 0.981124 12.8428 0.981702H4.91805C4.41576 0.983704 3.9346 1.18534 3.57943 1.54268C3.22425 1.90003 3.02383 2.38411 3.02184 2.88946V4.02196H1.88865C1.38706 4.02397 0.906687 4.22585 0.552712 4.58341C0.198737 4.94097 -3.98084e-06 5.42507 0 5.92972V21.8911C0.00397214 22.3931 0.204468 22.8733 0.558015 23.2276C0.911563 23.5819 1.38966 23.7816 1.88865 23.7836H12.4651C12.9667 23.7816 13.4471 23.5797 13.801 23.2222C14.155 22.8646 14.3538 22.3805 14.3537 21.8759V20.7434H15.5851C16.0874 20.7414 16.5686 20.5397 16.9238 20.1824C17.2789 19.8251 17.4794 19.341 17.4814 18.8356V5.6485C17.4786 5.44726 17.4003 5.2545 17.2623 5.10885ZM13.5983 3.57352L14.9052 4.88843H13.5983V3.57352ZM12.8428 21.8759C12.8438 21.9264 12.8348 21.9766 12.8163 22.0236C12.7977 22.0706 12.7701 22.1134 12.7349 22.1495C12.6997 22.1856 12.6577 22.2143 12.6114 22.2339C12.5651 22.2534 12.5153 22.2635 12.4651 22.2635H1.88865C1.8384 22.2635 1.78866 22.2534 1.74233 22.2339C1.69601 22.2143 1.65402 22.1856 1.61885 22.1495C1.58367 22.1134 1.55601 22.0706 1.53748 22.0236C1.51894 21.9766 1.50992 21.9264 1.51092 21.8759V5.91452C1.5129 5.81505 1.55357 5.72033 1.62419 5.6507C1.69482 5.58106 1.78977 5.54207 1.88865 5.54209H3.02184V18.8356C3.02383 19.341 3.22425 19.8251 3.57943 20.1824C3.9346 20.5397 4.41576 20.7414 4.91805 20.7434H12.8428V21.8759ZM15.5851 19.2232H4.91805C4.81586 19.2232 4.71786 19.1824 4.64561 19.1097C4.57336 19.037 4.53276 18.9384 4.53276 18.8356V2.87426C4.53667 2.77411 4.57898 2.67938 4.65082 2.60994C4.72265 2.5405 4.81843 2.50175 4.91805 2.50183H12.0874V5.6485C12.0874 5.74831 12.1069 5.84715 12.1449 5.93936C12.1828 6.03158 12.2385 6.11537 12.3086 6.18594C12.3788 6.25652 12.4621 6.31251 12.5537 6.3507C12.6454 6.3889 12.7436 6.40856 12.8428 6.40856H15.9704V18.8356C15.9704 18.9384 15.9298 19.037 15.8576 19.1097C15.7853 19.1824 15.6873 19.2232 15.5851 19.2232Z" fill="white"/>
</svg>
