<svg width="20" height="24" viewBox="0 0 20 24" fill="none" xmlns="http://www.w3.org/2000/svg">
<mask id="path-1-outside-1_110_1485" maskUnits="userSpaceOnUse" x="-0.53125" y="-0.461914" width="21" height="25" fill="black">
<rect fill="white" x="-0.53125" y="-0.461914" width="21" height="25"/>
<path d="M18.8516 8.26822H17.9098C17.7916 7.28727 17.3538 6.37634 16.6676 5.68376C15.9814 4.99119 15.0873 4.55776 14.1309 4.45408C14.0226 3.37975 13.5307 2.38481 12.7503 1.66153C11.9698 0.938257 10.9562 0.53799 9.90532 0.538086C8.85444 0.538182 7.8409 0.938634 7.06056 1.66205C6.28023 2.38547 5.7885 3.3805 5.68041 4.45485C4.73084 4.5643 3.84522 5.00067 3.16754 5.69301C2.48987 6.38536 2.05999 7.29295 1.94781 8.26822H0.959536C0.829374 8.26823 0.704545 8.32137 0.612507 8.41597C0.520468 8.51056 0.468758 8.63886 0.46875 8.77264V10.165C0.472756 12.6539 1.40496 15.0466 3.07349 16.8505C4.74202 18.6544 7.0199 19.7323 9.43828 19.8623V22.5907H5.04014C4.90998 22.5907 4.78514 22.6439 4.6931 22.7385C4.60106 22.8331 4.54936 22.9614 4.54936 23.0951C4.54936 23.2289 4.60106 23.3572 4.6931 23.4518C4.78514 23.5464 4.90998 23.5996 5.04014 23.5996H14.5704C14.7006 23.5996 14.8254 23.5464 14.9175 23.4518C15.0095 23.3572 15.0612 23.2289 15.0612 23.0951C15.0612 22.9614 15.0095 22.8331 14.9175 22.7385C14.8254 22.6439 14.7006 22.5907 14.5704 22.5907H10.4199V19.8622C12.8316 19.7253 15.1007 18.6437 16.7603 16.84C18.42 15.0363 19.344 12.6475 19.3424 10.165V8.77264C19.3424 8.63886 19.2907 8.51056 19.1987 8.41597C19.1066 8.32137 18.9818 8.26823 18.8516 8.26822ZM16.9218 8.26822H10.461C10.4658 8.23648 10.4696 8.20446 10.4752 8.17303C10.4829 8.12974 10.4909 8.08664 10.5002 8.04396C10.5136 7.98276 10.5291 7.92251 10.5457 7.86263C10.5572 7.82104 10.5684 7.77926 10.5814 7.73831C10.6005 7.67834 10.6224 7.61972 10.6446 7.56128C10.6593 7.52277 10.673 7.48376 10.689 7.44596C10.7148 7.38506 10.7439 7.32597 10.773 7.26705C10.7894 7.23401 10.8042 7.20009 10.8216 7.16768C10.8606 7.09493 10.9033 7.02455 10.9473 6.95521C10.9578 6.93874 10.9668 6.92125 10.9775 6.90497C11.0332 6.82057 11.0926 6.73904 11.1556 6.66039C11.1755 6.6354 11.1976 6.61237 11.2182 6.58798C11.2628 6.53528 11.3076 6.48275 11.3553 6.43303C11.3828 6.40428 11.4123 6.37761 11.4408 6.34993C11.4845 6.30751 11.5282 6.26519 11.5742 6.22528C11.6062 6.19738 11.6398 6.1713 11.6729 6.14471C11.7183 6.10826 11.764 6.07224 11.8113 6.03824C11.8467 6.01279 11.8831 5.98868 11.9195 5.96466C11.9672 5.9332 12.0156 5.90272 12.0649 5.87381C12.103 5.85152 12.1416 5.83002 12.1806 5.80931C12.2313 5.78234 12.2829 5.75694 12.3351 5.73268C12.3747 5.7143 12.4145 5.69617 12.4549 5.67939C12.5092 5.65685 12.5645 5.63666 12.6202 5.6171C12.6608 5.60282 12.7012 5.58817 12.7425 5.57554C12.8014 5.55753 12.8615 5.54266 12.9218 5.52807C12.9614 5.51849 13.0006 5.50765 13.0407 5.49956C13.1084 5.48594 13.1775 5.47641 13.2467 5.46717C13.2809 5.46263 13.3146 5.45603 13.3492 5.45258C13.4536 5.44211 13.5592 5.43605 13.6663 5.43605C14.4481 5.43256 15.2055 5.71586 15.8023 6.23502C16.399 6.75418 16.796 7.47513 16.9218 8.26822H16.9218ZM9.92907 1.54699C10.7166 1.55273 11.4756 1.85068 12.0664 2.38597C12.6571 2.92127 13.0399 3.65788 13.1441 4.46019C13.1082 4.46473 13.0742 4.47503 13.0385 4.48051C12.9265 4.49775 12.8158 4.51826 12.7068 4.5444C12.6517 4.5576 12.5974 4.57232 12.5432 4.58771C12.4402 4.61693 12.3392 4.65036 12.2396 4.68728C12.1895 4.70581 12.1391 4.72327 12.0899 4.74368C11.973 4.7922 11.8592 4.84666 11.7476 4.90537C11.7209 4.91938 11.693 4.93093 11.6667 4.94552C11.5316 5.02068 11.4007 5.10334 11.2745 5.19314C11.2378 5.21913 11.2036 5.24807 11.1677 5.27519C11.0788 5.34249 10.9919 5.41207 10.9085 5.48615C10.8669 5.52306 10.827 5.56131 10.7868 5.59984C10.7117 5.67192 10.6392 5.74668 10.5695 5.82413C10.5329 5.86471 10.4962 5.90476 10.4611 5.94676C10.3852 6.03755 10.314 6.13219 10.2455 6.22923C10.2233 6.26072 10.199 6.2904 10.1776 6.32251C10.0904 6.45326 10.0102 6.5888 9.9374 6.72854C9.93408 6.73494 9.92973 6.74067 9.92644 6.74707C9.92287 6.74021 9.91817 6.73408 9.91458 6.72724C9.84114 6.58798 9.76034 6.45295 9.67254 6.32276C9.65025 6.28976 9.62506 6.2592 9.60194 6.22686C9.53313 6.13062 9.46174 6.0367 9.3856 5.9466C9.34977 5.90423 9.31224 5.86375 9.27485 5.82281C9.20443 5.74566 9.13145 5.67119 9.05591 5.59941C9.01508 5.56065 8.9744 5.52211 8.93208 5.48501C8.84727 5.41062 8.75897 5.34077 8.66859 5.27322C8.63285 5.24653 8.59876 5.21787 8.56219 5.19228C8.43425 5.10243 8.30166 5.01977 8.16501 4.94466C8.13707 4.92936 8.10744 4.91723 8.07912 4.90254C7.96742 4.84463 7.85356 4.79078 7.73653 4.74285C7.68651 4.72235 7.63534 4.70474 7.58438 4.68614C7.48361 4.64932 7.38153 4.61607 7.27743 4.58691C7.22249 4.57155 7.16765 4.55671 7.11184 4.54353C7.00127 4.51743 6.88888 4.49701 6.77526 4.47984C6.73894 4.47432 6.70418 4.46401 6.66754 4.45945C6.77936 3.65195 7.17069 2.91294 7.76976 2.37799C8.36883 1.84303 9.13547 1.548 9.92907 1.54699ZM6.14489 5.43606C6.25347 5.43606 6.36063 5.44211 6.46655 5.45259C6.50165 5.45604 6.53586 5.46263 6.57064 5.46722C6.64074 5.47642 6.7108 5.48593 6.77946 5.49957C6.82019 5.50765 6.85992 5.51845 6.90009 5.52805C6.96126 5.54268 7.02233 5.55755 7.08217 5.57559C7.12393 5.5882 7.16479 5.60283 7.20585 5.61703C7.2624 5.63661 7.31863 5.65684 7.37375 5.6794C7.41476 5.69618 7.45502 5.71429 7.49519 5.7327C7.54826 5.75699 7.60071 5.78242 7.65227 5.80945C7.6916 5.83007 7.73048 5.85144 7.76891 5.87355C7.81942 5.90271 7.86885 5.93343 7.91762 5.96517C7.95417 5.98894 7.99066 6.01274 8.02621 6.03792C8.07453 6.07216 8.12129 6.10839 8.16766 6.14512C8.201 6.17157 8.23479 6.19746 8.26708 6.22514C8.31396 6.26532 8.35868 6.30787 8.40329 6.3506C8.43193 6.378 8.46149 6.40441 8.48911 6.43282C8.53788 6.48294 8.58368 6.5359 8.62927 6.58903C8.64985 6.61302 8.67187 6.63568 8.69179 6.66028C8.75553 6.73903 8.81579 6.82061 8.87256 6.90501C8.88344 6.92126 8.89257 6.9388 8.90318 6.95525C8.94781 7.02452 8.99103 7.09484 9.03061 7.16756C9.04852 7.2005 9.06389 7.23501 9.08072 7.2686C9.10993 7.32679 9.13896 7.38512 9.16481 7.4452C9.18152 7.48408 9.1959 7.52423 9.21118 7.56388C9.23323 7.62109 9.25491 7.67844 9.2739 7.73712C9.28756 7.7794 9.29931 7.82246 9.31132 7.86548C9.32759 7.92364 9.34295 7.98213 9.3561 8.04152C9.36601 8.08622 9.37455 8.13142 9.38267 8.17674C9.38807 8.20697 9.3919 8.23773 9.39648 8.26823H2.93537C3.05375 7.48031 3.44228 6.76183 4.03083 6.24248C4.61938 5.72312 5.36917 5.4371 6.14489 5.43604V5.43606ZM18.3609 10.165C18.364 11.3083 18.1477 12.441 17.7242 13.4982C17.3007 14.5554 16.6784 15.5163 15.8929 16.3259C15.1074 17.1355 14.1743 17.7778 13.1469 18.2161C12.1194 18.6543 11.018 18.8799 9.90558 18.8799C8.79319 18.8799 7.69173 18.6543 6.66431 18.2161C5.6369 17.7778 4.70372 17.1355 3.91826 16.3259C3.1328 15.5163 2.51049 14.5554 2.087 13.4982C1.6635 12.441 1.44714 11.3083 1.45031 10.165V9.27706H18.3608L18.3609 10.165Z"/>
</mask>
<path d="M18.8516 8.26822H17.9098C17.7916 7.28727 17.3538 6.37634 16.6676 5.68376C15.9814 4.99119 15.0873 4.55776 14.1309 4.45408C14.0226 3.37975 13.5307 2.38481 12.7503 1.66153C11.9698 0.938257 10.9562 0.53799 9.90532 0.538086C8.85444 0.538182 7.8409 0.938634 7.06056 1.66205C6.28023 2.38547 5.7885 3.3805 5.68041 4.45485C4.73084 4.5643 3.84522 5.00067 3.16754 5.69301C2.48987 6.38536 2.05999 7.29295 1.94781 8.26822H0.959536C0.829374 8.26823 0.704545 8.32137 0.612507 8.41597C0.520468 8.51056 0.468758 8.63886 0.46875 8.77264V10.165C0.472756 12.6539 1.40496 15.0466 3.07349 16.8505C4.74202 18.6544 7.0199 19.7323 9.43828 19.8623V22.5907H5.04014C4.90998 22.5907 4.78514 22.6439 4.6931 22.7385C4.60106 22.8331 4.54936 22.9614 4.54936 23.0951C4.54936 23.2289 4.60106 23.3572 4.6931 23.4518C4.78514 23.5464 4.90998 23.5996 5.04014 23.5996H14.5704C14.7006 23.5996 14.8254 23.5464 14.9175 23.4518C15.0095 23.3572 15.0612 23.2289 15.0612 23.0951C15.0612 22.9614 15.0095 22.8331 14.9175 22.7385C14.8254 22.6439 14.7006 22.5907 14.5704 22.5907H10.4199V19.8622C12.8316 19.7253 15.1007 18.6437 16.7603 16.84C18.42 15.0363 19.344 12.6475 19.3424 10.165V8.77264C19.3424 8.63886 19.2907 8.51056 19.1987 8.41597C19.1066 8.32137 18.9818 8.26823 18.8516 8.26822ZM16.9218 8.26822H10.461C10.4658 8.23648 10.4696 8.20446 10.4752 8.17303C10.4829 8.12974 10.4909 8.08664 10.5002 8.04396C10.5136 7.98276 10.5291 7.92251 10.5457 7.86263C10.5572 7.82104 10.5684 7.77926 10.5814 7.73831C10.6005 7.67834 10.6224 7.61972 10.6446 7.56128C10.6593 7.52277 10.673 7.48376 10.689 7.44596C10.7148 7.38506 10.7439 7.32597 10.773 7.26705C10.7894 7.23401 10.8042 7.20009 10.8216 7.16768C10.8606 7.09493 10.9033 7.02455 10.9473 6.95521C10.9578 6.93874 10.9668 6.92125 10.9775 6.90497C11.0332 6.82057 11.0926 6.73904 11.1556 6.66039C11.1755 6.6354 11.1976 6.61237 11.2182 6.58798C11.2628 6.53528 11.3076 6.48275 11.3553 6.43303C11.3828 6.40428 11.4123 6.37761 11.4408 6.34993C11.4845 6.30751 11.5282 6.26519 11.5742 6.22528C11.6062 6.19738 11.6398 6.1713 11.6729 6.14471C11.7183 6.10826 11.764 6.07224 11.8113 6.03824C11.8467 6.01279 11.8831 5.98868 11.9195 5.96466C11.9672 5.9332 12.0156 5.90272 12.0649 5.87381C12.103 5.85152 12.1416 5.83002 12.1806 5.80931C12.2313 5.78234 12.2829 5.75694 12.3351 5.73268C12.3747 5.7143 12.4145 5.69617 12.4549 5.67939C12.5092 5.65685 12.5645 5.63666 12.6202 5.6171C12.6608 5.60282 12.7012 5.58817 12.7425 5.57554C12.8014 5.55753 12.8615 5.54266 12.9218 5.52807C12.9614 5.51849 13.0006 5.50765 13.0407 5.49956C13.1084 5.48594 13.1775 5.47641 13.2467 5.46717C13.2809 5.46263 13.3146 5.45603 13.3492 5.45258C13.4536 5.44211 13.5592 5.43605 13.6663 5.43605C14.4481 5.43256 15.2055 5.71586 15.8023 6.23502C16.399 6.75418 16.796 7.47513 16.9218 8.26822H16.9218ZM9.92907 1.54699C10.7166 1.55273 11.4756 1.85068 12.0664 2.38597C12.6571 2.92127 13.0399 3.65788 13.1441 4.46019C13.1082 4.46473 13.0742 4.47503 13.0385 4.48051C12.9265 4.49775 12.8158 4.51826 12.7068 4.5444C12.6517 4.5576 12.5974 4.57232 12.5432 4.58771C12.4402 4.61693 12.3392 4.65036 12.2396 4.68728C12.1895 4.70581 12.1391 4.72327 12.0899 4.74368C11.973 4.7922 11.8592 4.84666 11.7476 4.90537C11.7209 4.91938 11.693 4.93093 11.6667 4.94552C11.5316 5.02068 11.4007 5.10334 11.2745 5.19314C11.2378 5.21913 11.2036 5.24807 11.1677 5.27519C11.0788 5.34249 10.9919 5.41207 10.9085 5.48615C10.8669 5.52306 10.827 5.56131 10.7868 5.59984C10.7117 5.67192 10.6392 5.74668 10.5695 5.82413C10.5329 5.86471 10.4962 5.90476 10.4611 5.94676C10.3852 6.03755 10.314 6.13219 10.2455 6.22923C10.2233 6.26072 10.199 6.2904 10.1776 6.32251C10.0904 6.45326 10.0102 6.5888 9.9374 6.72854C9.93408 6.73494 9.92973 6.74067 9.92644 6.74707C9.92287 6.74021 9.91817 6.73408 9.91458 6.72724C9.84114 6.58798 9.76034 6.45295 9.67254 6.32276C9.65025 6.28976 9.62506 6.2592 9.60194 6.22686C9.53313 6.13062 9.46174 6.0367 9.3856 5.9466C9.34977 5.90423 9.31224 5.86375 9.27485 5.82281C9.20443 5.74566 9.13145 5.67119 9.05591 5.59941C9.01508 5.56065 8.9744 5.52211 8.93208 5.48501C8.84727 5.41062 8.75897 5.34077 8.66859 5.27322C8.63285 5.24653 8.59876 5.21787 8.56219 5.19228C8.43425 5.10243 8.30166 5.01977 8.16501 4.94466C8.13707 4.92936 8.10744 4.91723 8.07912 4.90254C7.96742 4.84463 7.85356 4.79078 7.73653 4.74285C7.68651 4.72235 7.63534 4.70474 7.58438 4.68614C7.48361 4.64932 7.38153 4.61607 7.27743 4.58691C7.22249 4.57155 7.16765 4.55671 7.11184 4.54353C7.00127 4.51743 6.88888 4.49701 6.77526 4.47984C6.73894 4.47432 6.70418 4.46401 6.66754 4.45945C6.77936 3.65195 7.17069 2.91294 7.76976 2.37799C8.36883 1.84303 9.13547 1.548 9.92907 1.54699ZM6.14489 5.43606C6.25347 5.43606 6.36063 5.44211 6.46655 5.45259C6.50165 5.45604 6.53586 5.46263 6.57064 5.46722C6.64074 5.47642 6.7108 5.48593 6.77946 5.49957C6.82019 5.50765 6.85992 5.51845 6.90009 5.52805C6.96126 5.54268 7.02233 5.55755 7.08217 5.57559C7.12393 5.5882 7.16479 5.60283 7.20585 5.61703C7.2624 5.63661 7.31863 5.65684 7.37375 5.6794C7.41476 5.69618 7.45502 5.71429 7.49519 5.7327C7.54826 5.75699 7.60071 5.78242 7.65227 5.80945C7.6916 5.83007 7.73048 5.85144 7.76891 5.87355C7.81942 5.90271 7.86885 5.93343 7.91762 5.96517C7.95417 5.98894 7.99066 6.01274 8.02621 6.03792C8.07453 6.07216 8.12129 6.10839 8.16766 6.14512C8.201 6.17157 8.23479 6.19746 8.26708 6.22514C8.31396 6.26532 8.35868 6.30787 8.40329 6.3506C8.43193 6.378 8.46149 6.40441 8.48911 6.43282C8.53788 6.48294 8.58368 6.5359 8.62927 6.58903C8.64985 6.61302 8.67187 6.63568 8.69179 6.66028C8.75553 6.73903 8.81579 6.82061 8.87256 6.90501C8.88344 6.92126 8.89257 6.9388 8.90318 6.95525C8.94781 7.02452 8.99103 7.09484 9.03061 7.16756C9.04852 7.2005 9.06389 7.23501 9.08072 7.2686C9.10993 7.32679 9.13896 7.38512 9.16481 7.4452C9.18152 7.48408 9.1959 7.52423 9.21118 7.56388C9.23323 7.62109 9.25491 7.67844 9.2739 7.73712C9.28756 7.7794 9.29931 7.82246 9.31132 7.86548C9.32759 7.92364 9.34295 7.98213 9.3561 8.04152C9.36601 8.08622 9.37455 8.13142 9.38267 8.17674C9.38807 8.20697 9.3919 8.23773 9.39648 8.26823H2.93537C3.05375 7.48031 3.44228 6.76183 4.03083 6.24248C4.61938 5.72312 5.36917 5.4371 6.14489 5.43604V5.43606ZM18.3609 10.165C18.364 11.3083 18.1477 12.441 17.7242 13.4982C17.3007 14.5554 16.6784 15.5163 15.8929 16.3259C15.1074 17.1355 14.1743 17.7778 13.1469 18.2161C12.1194 18.6543 11.018 18.8799 9.90558 18.8799C8.79319 18.8799 7.69173 18.6543 6.66431 18.2161C5.6369 17.7778 4.70372 17.1355 3.91826 16.3259C3.1328 15.5163 2.51049 14.5554 2.087 13.4982C1.6635 12.441 1.44714 11.3083 1.45031 10.165V9.27706H18.3608L18.3609 10.165Z" fill="#FF84CB"/>
<path d="M18.8516 8.26822H17.9098C17.7916 7.28727 17.3538 6.37634 16.6676 5.68376C15.9814 4.99119 15.0873 4.55776 14.1309 4.45408C14.0226 3.37975 13.5307 2.38481 12.7503 1.66153C11.9698 0.938257 10.9562 0.53799 9.90532 0.538086C8.85444 0.538182 7.8409 0.938634 7.06056 1.66205C6.28023 2.38547 5.7885 3.3805 5.68041 4.45485C4.73084 4.5643 3.84522 5.00067 3.16754 5.69301C2.48987 6.38536 2.05999 7.29295 1.94781 8.26822H0.959536C0.829374 8.26823 0.704545 8.32137 0.612507 8.41597C0.520468 8.51056 0.468758 8.63886 0.46875 8.77264V10.165C0.472756 12.6539 1.40496 15.0466 3.07349 16.8505C4.74202 18.6544 7.0199 19.7323 9.43828 19.8623V22.5907H5.04014C4.90998 22.5907 4.78514 22.6439 4.6931 22.7385C4.60106 22.8331 4.54936 22.9614 4.54936 23.0951C4.54936 23.2289 4.60106 23.3572 4.6931 23.4518C4.78514 23.5464 4.90998 23.5996 5.04014 23.5996H14.5704C14.7006 23.5996 14.8254 23.5464 14.9175 23.4518C15.0095 23.3572 15.0612 23.2289 15.0612 23.0951C15.0612 22.9614 15.0095 22.8331 14.9175 22.7385C14.8254 22.6439 14.7006 22.5907 14.5704 22.5907H10.4199V19.8622C12.8316 19.7253 15.1007 18.6437 16.7603 16.84C18.42 15.0363 19.344 12.6475 19.3424 10.165V8.77264C19.3424 8.63886 19.2907 8.51056 19.1987 8.41597C19.1066 8.32137 18.9818 8.26823 18.8516 8.26822ZM16.9218 8.26822H10.461C10.4658 8.23648 10.4696 8.20446 10.4752 8.17303C10.4829 8.12974 10.4909 8.08664 10.5002 8.04396C10.5136 7.98276 10.5291 7.92251 10.5457 7.86263C10.5572 7.82104 10.5684 7.77926 10.5814 7.73831C10.6005 7.67834 10.6224 7.61972 10.6446 7.56128C10.6593 7.52277 10.673 7.48376 10.689 7.44596C10.7148 7.38506 10.7439 7.32597 10.773 7.26705C10.7894 7.23401 10.8042 7.20009 10.8216 7.16768C10.8606 7.09493 10.9033 7.02455 10.9473 6.95521C10.9578 6.93874 10.9668 6.92125 10.9775 6.90497C11.0332 6.82057 11.0926 6.73904 11.1556 6.66039C11.1755 6.6354 11.1976 6.61237 11.2182 6.58798C11.2628 6.53528 11.3076 6.48275 11.3553 6.43303C11.3828 6.40428 11.4123 6.37761 11.4408 6.34993C11.4845 6.30751 11.5282 6.26519 11.5742 6.22528C11.6062 6.19738 11.6398 6.1713 11.6729 6.14471C11.7183 6.10826 11.764 6.07224 11.8113 6.03824C11.8467 6.01279 11.8831 5.98868 11.9195 5.96466C11.9672 5.9332 12.0156 5.90272 12.0649 5.87381C12.103 5.85152 12.1416 5.83002 12.1806 5.80931C12.2313 5.78234 12.2829 5.75694 12.3351 5.73268C12.3747 5.7143 12.4145 5.69617 12.4549 5.67939C12.5092 5.65685 12.5645 5.63666 12.6202 5.6171C12.6608 5.60282 12.7012 5.58817 12.7425 5.57554C12.8014 5.55753 12.8615 5.54266 12.9218 5.52807C12.9614 5.51849 13.0006 5.50765 13.0407 5.49956C13.1084 5.48594 13.1775 5.47641 13.2467 5.46717C13.2809 5.46263 13.3146 5.45603 13.3492 5.45258C13.4536 5.44211 13.5592 5.43605 13.6663 5.43605C14.4481 5.43256 15.2055 5.71586 15.8023 6.23502C16.399 6.75418 16.796 7.47513 16.9218 8.26822H16.9218ZM9.92907 1.54699C10.7166 1.55273 11.4756 1.85068 12.0664 2.38597C12.6571 2.92127 13.0399 3.65788 13.1441 4.46019C13.1082 4.46473 13.0742 4.47503 13.0385 4.48051C12.9265 4.49775 12.8158 4.51826 12.7068 4.5444C12.6517 4.5576 12.5974 4.57232 12.5432 4.58771C12.4402 4.61693 12.3392 4.65036 12.2396 4.68728C12.1895 4.70581 12.1391 4.72327 12.0899 4.74368C11.973 4.7922 11.8592 4.84666 11.7476 4.90537C11.7209 4.91938 11.693 4.93093 11.6667 4.94552C11.5316 5.02068 11.4007 5.10334 11.2745 5.19314C11.2378 5.21913 11.2036 5.24807 11.1677 5.27519C11.0788 5.34249 10.9919 5.41207 10.9085 5.48615C10.8669 5.52306 10.827 5.56131 10.7868 5.59984C10.7117 5.67192 10.6392 5.74668 10.5695 5.82413C10.5329 5.86471 10.4962 5.90476 10.4611 5.94676C10.3852 6.03755 10.314 6.13219 10.2455 6.22923C10.2233 6.26072 10.199 6.2904 10.1776 6.32251C10.0904 6.45326 10.0102 6.5888 9.9374 6.72854C9.93408 6.73494 9.92973 6.74067 9.92644 6.74707C9.92287 6.74021 9.91817 6.73408 9.91458 6.72724C9.84114 6.58798 9.76034 6.45295 9.67254 6.32276C9.65025 6.28976 9.62506 6.2592 9.60194 6.22686C9.53313 6.13062 9.46174 6.0367 9.3856 5.9466C9.34977 5.90423 9.31224 5.86375 9.27485 5.82281C9.20443 5.74566 9.13145 5.67119 9.05591 5.59941C9.01508 5.56065 8.9744 5.52211 8.93208 5.48501C8.84727 5.41062 8.75897 5.34077 8.66859 5.27322C8.63285 5.24653 8.59876 5.21787 8.56219 5.19228C8.43425 5.10243 8.30166 5.01977 8.16501 4.94466C8.13707 4.92936 8.10744 4.91723 8.07912 4.90254C7.96742 4.84463 7.85356 4.79078 7.73653 4.74285C7.68651 4.72235 7.63534 4.70474 7.58438 4.68614C7.48361 4.64932 7.38153 4.61607 7.27743 4.58691C7.22249 4.57155 7.16765 4.55671 7.11184 4.54353C7.00127 4.51743 6.88888 4.49701 6.77526 4.47984C6.73894 4.47432 6.70418 4.46401 6.66754 4.45945C6.77936 3.65195 7.17069 2.91294 7.76976 2.37799C8.36883 1.84303 9.13547 1.548 9.92907 1.54699ZM6.14489 5.43606C6.25347 5.43606 6.36063 5.44211 6.46655 5.45259C6.50165 5.45604 6.53586 5.46263 6.57064 5.46722C6.64074 5.47642 6.7108 5.48593 6.77946 5.49957C6.82019 5.50765 6.85992 5.51845 6.90009 5.52805C6.96126 5.54268 7.02233 5.55755 7.08217 5.57559C7.12393 5.5882 7.16479 5.60283 7.20585 5.61703C7.2624 5.63661 7.31863 5.65684 7.37375 5.6794C7.41476 5.69618 7.45502 5.71429 7.49519 5.7327C7.54826 5.75699 7.60071 5.78242 7.65227 5.80945C7.6916 5.83007 7.73048 5.85144 7.76891 5.87355C7.81942 5.90271 7.86885 5.93343 7.91762 5.96517C7.95417 5.98894 7.99066 6.01274 8.02621 6.03792C8.07453 6.07216 8.12129 6.10839 8.16766 6.14512C8.201 6.17157 8.23479 6.19746 8.26708 6.22514C8.31396 6.26532 8.35868 6.30787 8.40329 6.3506C8.43193 6.378 8.46149 6.40441 8.48911 6.43282C8.53788 6.48294 8.58368 6.5359 8.62927 6.58903C8.64985 6.61302 8.67187 6.63568 8.69179 6.66028C8.75553 6.73903 8.81579 6.82061 8.87256 6.90501C8.88344 6.92126 8.89257 6.9388 8.90318 6.95525C8.94781 7.02452 8.99103 7.09484 9.03061 7.16756C9.04852 7.2005 9.06389 7.23501 9.08072 7.2686C9.10993 7.32679 9.13896 7.38512 9.16481 7.4452C9.18152 7.48408 9.1959 7.52423 9.21118 7.56388C9.23323 7.62109 9.25491 7.67844 9.2739 7.73712C9.28756 7.7794 9.29931 7.82246 9.31132 7.86548C9.32759 7.92364 9.34295 7.98213 9.3561 8.04152C9.36601 8.08622 9.37455 8.13142 9.38267 8.17674C9.38807 8.20697 9.3919 8.23773 9.39648 8.26823H2.93537C3.05375 7.48031 3.44228 6.76183 4.03083 6.24248C4.61938 5.72312 5.36917 5.4371 6.14489 5.43604V5.43606ZM18.3609 10.165C18.364 11.3083 18.1477 12.441 17.7242 13.4982C17.3007 14.5554 16.6784 15.5163 15.8929 16.3259C15.1074 17.1355 14.1743 17.7778 13.1469 18.2161C12.1194 18.6543 11.018 18.8799 9.90558 18.8799C8.79319 18.8799 7.69173 18.6543 6.66431 18.2161C5.6369 17.7778 4.70372 17.1355 3.91826 16.3259C3.1328 15.5163 2.51049 14.5554 2.087 13.4982C1.6635 12.441 1.44714 11.3083 1.45031 10.165V9.27706H18.3608L18.3609 10.165Z" stroke="#FF84CB" stroke-width="0.4" mask="url(#path-1-outside-1_110_1485)"/>
</svg>
