<svg width="22" height="15" viewBox="0 0 22 15" fill="none" xmlns="http://www.w3.org/2000/svg">
<path d="M19.4615 0H2.53846C1.86522 0 1.21955 0.263392 0.743498 0.732233C0.267444 1.20107 0 1.83696 0 2.5V2.91667H22V2.5C22 1.83696 21.7326 1.20107 21.2565 0.732233C20.7804 0.263392 20.1348 0 19.4615 0ZM0 12.5C0 13.163 0.267444 13.7989 0.743498 14.2678C1.21955 14.7366 1.86522 15 2.53846 15H19.4615C20.1348 15 20.7804 14.7366 21.2565 14.2678C21.7326 13.7989 22 13.163 22 12.5V4.58333H0V12.5ZM3.38462 10.4167H5.5C5.72441 10.4167 5.93964 10.5045 6.09832 10.6607C6.25701 10.817 6.34615 11.029 6.34615 11.25C6.34615 11.471 6.25701 11.683 6.09832 11.8393C5.93964 11.9955 5.72441 12.0833 5.5 12.0833H3.38462C3.1602 12.0833 2.94498 11.9955 2.78629 11.8393C2.62761 11.683 2.53846 11.471 2.53846 11.25C2.53846 11.029 2.62761 10.817 2.78629 10.6607C2.94498 10.5045 3.1602 10.4167 3.38462 10.4167Z" fill="#1A2145"/>
</svg>
