<svg width="21" height="16" viewBox="0 0 21 16" fill="none" xmlns="http://www.w3.org/2000/svg">
<path d="M2.50732 2.10323H2.40732V2.20323V12.9288V13.0288H2.50732H18.5073H18.6073V12.9288V2.20323V2.10323H18.5073H2.50732ZM2.50732 0.158105H18.5073C19.0089 0.158105 19.4914 0.371743 19.8484 0.754591C20.2056 1.13768 20.4073 1.65866 20.4073 2.20323V12.9288C20.4073 13.4734 20.2056 13.9944 19.8484 14.3775C19.4914 14.7603 19.0089 14.974 18.5073 14.974H2.50732C2.00576 14.974 1.5232 14.7603 1.16625 14.3775C0.809085 13.9944 0.607324 13.4734 0.607324 12.9288V2.20323C0.607324 1.65866 0.809085 1.13767 1.16625 0.754591C1.5232 0.371743 2.00576 0.158105 2.50732 0.158105ZM11.5073 4.44835H16.5073C16.7437 4.44835 16.9719 4.54899 17.1413 4.73069C17.3109 4.91263 17.4073 5.1608 17.4073 5.42091C17.4073 5.68103 17.3109 5.9292 17.1413 6.11114C16.9719 6.29284 16.7437 6.39348 16.5073 6.39348H11.5073C11.271 6.39348 11.0428 6.29284 10.8734 6.11114C10.7037 5.9292 10.6073 5.68103 10.6073 5.42091C10.6073 5.1608 10.7037 4.91263 10.8734 4.73069C11.0428 4.54899 11.271 4.44835 11.5073 4.44835ZM11.5073 7.66604H16.5073C16.7437 7.66604 16.9719 7.76667 17.1413 7.94838C17.3109 8.13032 17.4073 8.37849 17.4073 8.6386C17.4073 8.89871 17.3109 9.14688 17.1413 9.32882C16.9719 9.51052 16.7437 9.61116 16.5073 9.61116H11.5073C11.271 9.61116 11.0428 9.51052 10.8734 9.32882C10.7037 9.14688 10.6073 8.89871 10.6073 8.6386C10.6073 8.37849 10.7037 8.13031 10.8734 7.94838C11.0428 7.76667 11.271 7.66604 11.5073 7.66604Z" fill="#1A2145" stroke="white" stroke-width="0.2"/>
<g clip-path="url(#clip0_110_1894)">
<path d="M7.25725 5.25382V5.81653C7.25725 6.12094 7.11966 6.4069 6.88118 6.60984C6.63352 6.82201 6.31249 6.94193 5.97311 6.94193C5.63373 6.94193 5.30352 6.82201 5.06504 6.60984C4.82655 6.4069 4.68896 6.12094 4.68896 5.81653V5.25382C4.68896 4.95864 4.82655 4.67267 5.06504 4.4605C5.30352 4.24834 5.63373 4.12842 5.97311 4.12842C6.31249 4.12842 6.63352 4.24834 6.88118 4.4605C7.11966 4.67267 7.25725 4.95864 7.25725 5.25382Z" fill="#1A2145"/>
<path d="M8.22057 8.57485V9.03608C8.22057 9.25748 8.1105 9.47887 7.93623 9.63569C7.75278 9.7925 7.50512 9.88475 7.25747 9.88475H4.68918C4.43235 9.88475 4.1847 9.7925 4.01042 9.63569C3.82697 9.47887 3.72607 9.25748 3.72607 9.03608V8.54718C3.72607 8.23354 3.83614 7.9199 4.03794 7.66161C4.23973 7.40332 4.52408 7.20038 4.85429 7.08046C4.90015 7.07124 4.93684 7.06201 4.9827 7.06201C5.02856 7.06201 5.06525 7.07124 5.11111 7.08046H6.75298C6.77133 7.08046 6.7805 7.08046 6.78967 7.08969C6.78967 7.08046 6.79884 7.08046 6.79884 7.08046C6.9456 7.07124 7.03733 7.08046 7.0465 7.08046C7.39505 7.20038 7.68857 7.40332 7.89954 7.67084C8.10133 7.93835 8.22057 8.25199 8.22057 8.57485Z" fill="#1A2145"/>
</g>
<defs>
<clipPath id="clip0_110_1894">
<rect width="6" height="7.68429" fill="white" transform="translate(3.50732 4.12842)"/>
</clipPath>
</defs>
</svg>
