<svg width="13" height="15" viewBox="0 0 13 15" fill="none" xmlns="http://www.w3.org/2000/svg">
<path fill-rule="evenodd" clip-rule="evenodd" d="M8.65723 0.791425C7.93151 0.478046 7.15039 0.313127 6.35993 0.30639C5.56415 0.294068 4.77418 0.443804 4.03811 0.746489C3.30204 1.04917 2.63526 1.49847 2.07835 2.06704C0.947612 3.21214 0.307604 4.75279 0.294156 6.36203C0.280708 7.97126 0.894879 9.5224 2.00632 10.6862L5.65567 14.4636C5.72912 14.5407 5.81721 14.6023 5.91477 14.6449C6.01234 14.6875 6.11743 14.7102 6.22388 14.7117C6.33018 14.7141 6.43578 14.694 6.53373 14.6526C6.63167 14.6112 6.71973 14.5495 6.79209 14.4716L10.5055 10.7503C11.6373 9.60621 12.2787 8.06613 12.2937 6.45689C12.3086 4.84766 11.6959 3.29593 10.5855 2.13107C10.0386 1.5603 9.38295 1.1048 8.65723 0.791425ZM6.23162 8.48195C7.30142 8.48195 8.16866 7.61471 8.16866 6.54492C8.16866 5.47512 7.30142 4.60788 6.23162 4.60788C5.16183 4.60788 4.29459 5.47512 4.29459 6.54492C4.29459 7.61471 5.16183 8.48195 6.23162 8.48195Z" fill="#BFC2CE"/>
</svg>
