<svg width="21" height="20" viewBox="0 0 21 20" fill="none" xmlns="http://www.w3.org/2000/svg">
<path d="M10.5073 0C8.52952 0 6.59612 0.58649 4.95163 1.6853C3.30713 2.78412 2.02541 4.3459 1.26853 6.17317C0.511657 8.00043 0.313624 10.0111 0.699476 11.9509C1.08533 13.8907 2.03774 15.6725 3.43626 17.0711C4.83479 18.4696 6.61662 19.422 8.55643 19.8079C10.4962 20.1937 12.5069 19.9957 14.3342 19.2388C16.1614 18.4819 17.7232 17.2002 18.822 15.5557C19.9208 13.9112 20.5073 11.9778 20.5073 10C20.5073 8.68678 20.2487 7.38642 19.7461 6.17317C19.2436 4.95991 18.507 3.85752 17.5784 2.92893C16.6498 2.00035 15.5474 1.26375 14.3342 0.761205C13.1209 0.258658 11.8205 0 10.5073 0ZM10.5073 18C8.92508 18 7.37836 17.5308 6.06277 16.6518C4.74717 15.7727 3.72179 14.5233 3.11629 13.0615C2.51079 11.5997 2.35237 9.99113 2.66105 8.43928C2.96973 6.88743 3.73165 5.46197 4.85047 4.34315C5.96929 3.22433 7.39476 2.4624 8.94661 2.15372C10.4985 1.84504 12.107 2.00346 13.5688 2.60896C15.0306 3.21447 16.28 4.23984 17.1591 5.55544C18.0381 6.87103 18.5073 8.41775 18.5073 10C18.5073 12.1217 17.6645 14.1566 16.1642 15.6569C14.6639 17.1571 12.6291 18 10.5073 18Z" fill="#1A2145"/>
<path d="M10.7246 4.00007C9.79635 4.00007 8.90611 4.36882 8.24974 5.02519C7.59336 5.68157 7.22461 6.57181 7.22461 7.50007C7.22461 7.76528 7.32997 8.01964 7.5175 8.20717C7.70504 8.39471 7.95939 8.50007 8.22461 8.50007C8.48983 8.50007 8.74418 8.39471 8.93172 8.20717C9.11925 8.01964 9.22461 7.76528 9.22461 7.50007C9.22461 7.2034 9.31258 6.91339 9.4774 6.66671C9.64223 6.42004 9.8765 6.22778 10.1506 6.11425C10.4247 6.00072 10.7263 5.97101 11.0172 6.02889C11.3082 6.08677 11.5755 6.22963 11.7853 6.43941C11.995 6.64919 12.1379 6.91646 12.1958 7.20743C12.2537 7.4984 12.224 7.8 12.1104 8.07409C11.9969 8.34818 11.8046 8.58245 11.558 8.74727C11.3113 8.91209 11.0213 9.00007 10.7246 9.00007C10.4594 9.00007 10.205 9.10542 10.0175 9.29296C9.82997 9.4805 9.72461 9.73485 9.72461 10.0001V12.0001C9.72461 12.2653 9.82997 12.5196 10.0175 12.7072C10.205 12.8947 10.4594 13.0001 10.7246 13.0001C10.9898 13.0001 11.2442 12.8947 11.4317 12.7072C11.6193 12.5196 11.7246 12.2653 11.7246 12.0001V10.8401C12.5327 10.6041 13.2283 10.0839 13.6831 9.37551C14.1379 8.66709 14.3213 7.81814 14.1996 6.98513C14.0778 6.15213 13.659 5.39122 13.0204 4.84266C12.3818 4.29409 11.5665 3.99484 10.7246 4.00007Z" fill="#1A2145"/>
<path d="M10.7246 16C11.2769 16 11.7246 15.5523 11.7246 15C11.7246 14.4477 11.2769 14 10.7246 14C10.1723 14 9.72461 14.4477 9.72461 15C9.72461 15.5523 10.1723 16 10.7246 16Z" fill="#1A2145"/>
</svg>
