<svg width="20" height="20" viewBox="0 0 20 20" fill="none" xmlns="http://www.w3.org/2000/svg">
<path d="M15.4131 7.38335L16.8803 5.91616C18.7532 6.99662 20.0001 8.48973 20.0001 10.1443C20.0001 13.4475 15.0583 16.1177 10.0328 16.1247C9.01008 16.1246 7.9902 16.0177 6.98973 15.8057L8.73102 14.0654C9.15563 14.1093 9.59021 14.1322 10.0298 14.1312H10.0318C9.61812 14.1312 9.21942 14.0684 8.84465 13.9518L10.8192 11.9763C11.2876 11.775 11.6634 11.3992 11.8657 10.9307L13.8393 8.9562C14.0251 9.55136 14.0687 10.1818 13.9667 10.7969C13.8646 11.412 13.6197 11.9946 13.2517 12.4979C12.8836 13.0011 12.4027 13.4111 11.8474 13.6948C11.2922 13.9784 10.6782 14.1279 10.0547 14.1312C14.2858 14.1163 18.0066 11.9544 18.0066 10.1443C18.0066 9.20438 16.988 8.16479 15.4131 7.38335ZM6.14151 11.0164C6.01089 10.4338 6.01282 9.82918 6.14716 9.24734C6.2815 8.66551 6.54482 8.12128 6.91768 7.65485C7.29054 7.18842 7.7634 6.8117 8.30136 6.55251C8.83933 6.29332 9.42864 6.15828 10.0258 6.15737C5.82156 6.14242 2.0589 8.32825 2.0589 10.1443C2.0589 11.0374 2.95994 12.0152 4.37829 12.7797L2.92506 14.2309C1.19572 13.1624 0.0654297 11.7241 0.0654297 10.1443C0.0654297 6.84113 5.03315 4.14696 10.0328 4.1639C10.9438 4.16689 11.8538 4.2576 12.7329 4.42505L10.9617 6.19525C10.6727 6.17332 10.3796 6.16036 10.0846 6.15737C10.3657 6.16136 10.6398 6.19425 10.9049 6.25306L6.14052 11.0164H6.14151ZM19.095 0.881664C19.2819 1.06858 19.3869 1.32206 19.3869 1.58635C19.3869 1.85065 19.2819 2.10413 19.095 2.29104L2.1805 19.2056C2.08862 19.3009 1.97869 19.3769 1.85712 19.4292C1.73555 19.4815 1.60478 19.5091 1.47244 19.5103C1.34009 19.5116 1.20883 19.4865 1.0863 19.4364C0.963771 19.3864 0.852432 19.3125 0.758781 19.2189C0.66513 19.1254 0.591041 19.0142 0.540838 18.8917C0.490635 18.7693 0.465322 18.638 0.466378 18.5057C0.467433 18.3734 0.494835 18.2425 0.546985 18.1209C0.599135 17.9993 0.674989 17.8892 0.77012 17.7972L17.6847 0.88266C17.7772 0.789988 17.8872 0.71647 18.0082 0.66631C18.1292 0.61615 18.2589 0.590332 18.3899 0.590332C18.5208 0.590332 18.6506 0.61615 18.7716 0.66631C18.8926 0.71647 19.0025 0.789988 19.095 0.88266V0.881664Z" fill="#7C7C7C"/>
</svg>
