<svg width="13" height="16" viewBox="0 0 13 16" fill="none" xmlns="http://www.w3.org/2000/svg">
<path fill-rule="evenodd" clip-rule="evenodd" d="M8.65723 1.43653C7.93151 1.12124 7.1504 0.955316 6.35993 0.948538C5.56415 0.93614 4.77419 1.08679 4.03811 1.39132C3.30204 1.69585 2.63526 2.14789 2.07835 2.71992C0.947612 3.872 0.307604 5.42205 0.294156 7.0411C0.280708 8.66014 0.894879 10.2207 2.00632 11.3917L5.65567 15.1921C5.72912 15.2696 5.81721 15.3316 5.91477 15.3745C6.01234 15.4174 6.11743 15.4402 6.22388 15.4417C6.33018 15.4441 6.43578 15.4238 6.53373 15.3822C6.63167 15.3406 6.71973 15.2785 6.79209 15.2001L10.5055 11.4561C11.6373 10.3051 12.2787 8.75559 12.2937 7.13654C12.3086 5.51749 11.6959 3.95631 10.5855 2.78434C10.0386 2.2101 9.38295 1.75182 8.65723 1.43653ZM6.23162 9.17394C7.30142 9.17394 8.16866 8.30141 8.16866 7.22509C8.16866 6.14877 7.30142 5.27625 6.23162 5.27625C5.16183 5.27625 4.29459 6.14877 4.29459 7.22509C4.29459 8.30141 5.16183 9.17394 6.23162 9.17394Z" fill="white"/>
</svg>
