<svg width="28" height="28" viewBox="0 0 28 28" fill="none" xmlns="http://www.w3.org/2000/svg">
<path d="M16.3333 19.8333C16.3333 19.4833 16.45 19.2499 16.6833 19.0166L22.5167 13.1833C22.9833 12.7166 23.6833 12.7166 24.15 13.1833C24.6167 13.6499 24.6167 14.3499 24.15 14.8166L18.3167 20.6499C17.85 21.1166 17.15 21.1166 16.6833 20.6499C16.45 20.4166 16.3333 20.1833 16.3333 19.8333Z" fill="white"/>
<path d="M16.3333 8.16667C16.3333 7.81667 16.45 7.58333 16.6833 7.35C17.15 6.88333 17.85 6.88333 18.3167 7.35L24.15 13.1833C24.6167 13.65 24.6167 14.35 24.15 14.8167C23.6833 15.2833 22.9833 15.2833 22.5167 14.8167L16.6833 8.98333C16.45 8.75 16.3333 8.51667 16.3333 8.16667Z" fill="white"/>
<path d="M3.5 13.9999C3.5 13.2999 3.96667 12.8333 4.66667 12.8333L23.3333 12.8333C24.0333 12.8333 24.5 13.2999 24.5 13.9999C24.5 14.6999 24.0333 15.1666 23.3333 15.1666L4.66667 15.1666C3.96667 15.1666 3.5 14.6999 3.5 13.9999Z" fill="white"/>
</svg>
