<svg width="21" height="23" viewBox="0 0 21 23" fill="none" xmlns="http://www.w3.org/2000/svg">
<path d="M4.50732 1.14746L1.50732 5.14746V19.1475C1.50732 19.6779 1.71804 20.1866 2.09311 20.5617C2.46818 20.9367 2.97689 21.1475 3.50732 21.1475H17.5073C18.0378 21.1475 18.5465 20.9367 18.9215 20.5617C19.2966 20.1866 19.5073 19.6779 19.5073 19.1475V5.14746L16.5073 1.14746H4.50732Z" stroke="#1A2145" stroke-width="2" stroke-linecap="round" stroke-linejoin="round"/>
<path d="M1.50732 5.14746H19.5073" stroke="#1A2145" stroke-width="2" stroke-linecap="round" stroke-linejoin="round"/>
<path d="M14.5073 9.14746C14.5073 10.2083 14.0859 11.2257 13.3358 11.9759C12.5856 12.726 11.5682 13.1475 10.5073 13.1475C9.44646 13.1475 8.42904 12.726 7.6789 11.9759C6.92875 11.2257 6.50732 10.2083 6.50732 9.14746" stroke="#1A2145" stroke-width="2" stroke-linecap="round" stroke-linejoin="round"/>
</svg>
