<svg width="21" height="21" viewBox="0 0 21 21" fill="none" xmlns="http://www.w3.org/2000/svg">
<path d="M18.8529 5.94282C18.8529 5.92099 18.8529 5.92099 18.8529 5.94282C18.8529 5.92099 18.8529 5.92099 18.8529 5.94282C18.8529 5.92099 18.8529 5.92099 18.8529 5.94282C18.8529 5.92099 18.8529 5.92099 18.8529 5.94282C18.8306 5.89917 18.8083 5.87734 18.8083 5.87734C18.8083 5.85552 18.786 5.85552 18.7637 5.85552L18.7414 5.83369C18.7191 5.83369 18.7191 5.81187 18.6968 5.81187L18.6745 5.79004C18.6745 5.79004 18.6522 5.79004 18.6299 5.76821C18.6076 5.76821 18.6076 5.74639 18.5853 5.74639C18.5853 5.74639 18.5853 5.74639 18.563 5.74639C18.5407 5.74639 18.5184 5.72456 18.4961 5.72456C18.4293 5.72456 18.3847 5.72456 18.3178 5.74639C18.2955 5.74639 18.2955 5.74639 18.2955 5.76821C18.2732 5.76821 18.2509 5.79004 18.2509 5.79004L16.2887 6.83768L10.5136 9.93693V3.47651V1.29394C10.5136 1.05385 10.3129 0.857422 10.0676 0.857422C6.41082 0.857422 3.04387 2.79991 1.28236 5.92099C0.457347 7.38332 0.0336914 9.02025 0.0336914 10.679C0.0336914 12.3378 0.457347 13.9747 1.28236 15.437C3.04387 18.5581 6.41082 20.5006 10.0676 20.5006C13.7244 20.5006 17.0914 18.5581 18.8529 15.437C19.6779 13.9747 20.1016 12.3378 20.1016 10.679C20.1016 9.02025 19.6779 7.38332 18.8529 5.94282ZM18.2732 14.6076L17.0914 13.9747C17.6042 12.9489 17.8718 11.8139 17.8718 10.679C17.8718 9.54407 17.6042 8.40913 17.1137 7.38332L18.2955 6.75037C18.8975 7.97261 19.232 9.32581 19.232 10.679C19.2097 12.054 18.8752 13.3854 18.2732 14.6076ZM16.311 7.79801C16.7346 8.69286 16.9799 9.67502 16.9799 10.679C16.9799 11.683 16.7569 12.6651 16.311 13.56L10.9818 10.679L16.311 7.79801ZM3.82429 7.79801L9.15343 10.679L3.82429 13.56C3.40064 12.6651 3.15536 11.683 3.15536 10.679C3.15536 9.67502 3.37834 8.69286 3.82429 7.79801ZM4.24795 7.03411C5.42972 5.22257 7.43651 4.06581 9.62168 3.93485V9.93693L4.24795 7.03411ZM9.62168 11.4211V17.4232C7.43651 17.2922 5.42972 16.1354 4.24795 14.3239L9.62168 11.4211ZM10.5136 11.4211L15.8873 14.3239C14.7055 16.1354 12.6988 17.2922 10.5136 17.4232V11.4211ZM9.62168 1.75228V3.06182C7.10205 3.19278 4.80539 4.52415 3.46753 6.61942L2.28575 5.98647C3.86889 3.47651 6.6115 1.88323 9.62168 1.75228ZM1.8621 6.75037L3.04387 7.38332C2.53103 8.40913 2.26346 9.54407 2.26346 10.679C2.26346 11.8139 2.53103 12.9489 3.02158 13.9747L1.8621 14.6076C1.26006 13.3854 0.925597 12.054 0.925597 10.679C0.925597 9.30398 1.26006 7.97261 1.8621 6.75037ZM2.28575 15.3715L3.46753 14.7386C4.80539 16.8339 7.10205 18.1434 9.62168 18.2962V19.6057C6.6115 19.4748 3.86889 17.8815 2.28575 15.3715ZM10.5136 19.6057V18.2962C13.0332 18.1652 15.3299 16.8339 16.6677 14.7386L17.8495 15.3715C16.2664 17.8815 13.5238 19.4748 10.5136 19.6057ZM7.83787 6.0956C7.83787 6.20473 7.79327 6.31386 7.70408 6.40116C7.61489 6.48846 7.5034 6.53211 7.39192 6.53211C7.28043 6.53211 7.16894 6.48846 7.07975 6.40116C7.05745 6.37933 7.03515 6.35751 7.03515 6.33568C7.03515 6.31386 7.01286 6.29203 6.99056 6.24838C6.96826 6.22655 6.96826 6.20473 6.96826 6.16108C6.96826 6.13925 6.96826 6.0956 6.96826 6.07377C6.96826 6.05195 6.96826 6.0083 6.96826 5.98647C6.96826 5.96465 6.99056 5.94282 6.99056 5.89917C6.99056 5.87734 7.01286 5.85552 7.03515 5.83369C7.05745 5.81186 7.05745 5.79004 7.07975 5.76821C7.23583 5.61543 7.548 5.61543 7.70408 5.76821C7.72638 5.79004 7.74868 5.81186 7.74868 5.83369C7.77098 5.85552 7.77098 5.87734 7.79327 5.89917C7.81557 5.92099 7.81557 5.94282 7.81557 5.98647C7.83787 6.03012 7.83787 6.07377 7.83787 6.0956ZM6.94596 15.3497C6.94596 15.3279 6.94596 15.2842 6.94596 15.2624C6.94596 15.1533 6.99056 15.0442 7.07975 14.9569C7.23583 14.7822 7.548 14.7822 7.70408 14.9569C7.79327 15.0442 7.83787 15.1533 7.83787 15.2624C7.83787 15.2842 7.83787 15.3279 7.83787 15.3497C7.83787 15.3715 7.81557 15.4152 7.81557 15.437C7.81557 15.4588 7.79327 15.4807 7.77098 15.5025C7.74868 15.5243 7.72638 15.5461 7.70408 15.568C7.61489 15.6553 7.5034 15.6989 7.39192 15.6989C7.28043 15.6989 7.16894 15.6553 7.07975 15.568C7.05745 15.5461 7.03515 15.5243 7.03515 15.5025C7.01286 15.4807 7.01286 15.4588 6.99056 15.437C6.96826 15.3934 6.96826 15.3715 6.94596 15.3497ZM13.0555 14.9569C13.1447 15.0442 13.1893 15.1533 13.1893 15.2624C13.1893 15.2842 13.1893 15.3279 13.1893 15.3497C13.1893 15.3715 13.167 15.4152 13.167 15.437C13.167 15.4588 13.1447 15.4807 13.1224 15.5025C13.1001 15.5243 13.0778 15.5461 13.0778 15.568C13.0332 15.6116 12.9886 15.6334 12.944 15.6553C12.8548 15.6989 12.8102 15.6989 12.7434 15.6989C12.6319 15.6989 12.5204 15.6553 12.4312 15.568C12.4089 15.5461 12.3866 15.5243 12.3643 15.5025C12.342 15.4807 12.342 15.4588 12.3197 15.437C12.3197 15.4152 12.2974 15.3934 12.2974 15.3497C12.2974 15.3279 12.2974 15.2842 12.2974 15.2624C12.2974 15.1533 12.342 15.0442 12.4312 14.9569C12.4535 14.935 12.4758 14.9132 12.4981 14.9132C12.5204 14.8914 12.5427 14.8914 12.565 14.8695C12.5873 14.8695 12.6096 14.8477 12.6542 14.8477C12.7211 14.8477 12.7656 14.8477 12.8325 14.8477C12.8548 14.8477 12.8771 14.8695 12.9217 14.8695C12.944 14.8914 12.9663 14.8914 12.9886 14.9132C13.0109 14.9132 13.0332 14.935 13.0555 14.9569ZM4.49322 10.679C4.49322 10.5699 4.53782 10.4607 4.62701 10.3734C4.6493 10.3516 4.6716 10.3298 4.6939 10.3298C4.7162 10.308 4.7385 10.308 4.76079 10.2861C4.78309 10.2643 4.80539 10.2643 4.84998 10.2643C4.98377 10.2425 5.13985 10.2861 5.25134 10.3734C5.34053 10.4607 5.38513 10.5699 5.38513 10.679C5.38513 10.7445 5.36283 10.7881 5.34053 10.8536C5.31823 10.8973 5.29594 10.9627 5.25134 10.9846C5.16215 11.0719 5.05066 11.1155 4.93917 11.1155C4.82769 11.1155 4.7162 11.0719 4.62701 10.9846C4.58241 10.9409 4.56011 10.8973 4.53782 10.8536C4.49322 10.7881 4.49322 10.7445 4.49322 10.679ZM14.7501 10.679C14.7501 10.5699 14.7947 10.4607 14.8839 10.3734C14.9062 10.3516 14.9285 10.3298 14.9508 10.3298C14.9731 10.308 14.9954 10.308 15.0177 10.2861C15.04 10.2643 15.0623 10.2643 15.1069 10.2643C15.263 10.2425 15.3968 10.2861 15.5083 10.3734C15.5975 10.4607 15.642 10.5699 15.642 10.679C15.642 10.7445 15.642 10.7881 15.5975 10.8536C15.5752 10.8973 15.5529 10.9627 15.5083 10.9846C15.4191 11.0719 15.3076 11.1155 15.1961 11.1155C15.0846 11.1155 14.9731 11.0719 14.8839 10.9846C14.7947 10.8973 14.7501 10.7881 14.7501 10.679Z" fill="#FE7B31"/>
</svg>
