<svg width="16" height="19" viewBox="0 0 16 19" fill="none" xmlns="http://www.w3.org/2000/svg">
<path d="M10.9858 9.36302C11.111 9.41969 11.2212 9.46606 11.3264 9.52274C13.9262 10.8211 15.479 12.9334 15.9198 15.8753C16.02 16.5296 15.9949 17.2097 15.9999 17.8743C16.0049 18.2813 15.6994 18.5853 15.2937 18.6419C15.2185 18.6522 15.1434 18.6522 15.0682 18.6522C10.3597 18.6522 5.65611 18.6522 0.947539 18.6522C0.682056 18.6522 0.421581 18.6213 0.246262 18.3998C0.136062 18.2607 0.0308702 18.0804 0.020852 17.9103C-0.0793304 16.1998 0.171126 14.5563 0.99763 13.0365C1.89927 11.3878 3.18661 10.1874 4.87469 9.43515C4.92478 9.41454 4.96986 9.38878 5.02496 9.35787C2.71075 7.4516 2.63561 3.98424 4.63926 1.95947C6.5277 0.0480453 9.58326 0.0738057 11.4366 2.01614C13.3752 4.05122 13.29 7.43614 10.9858 9.36302ZM14.4271 16.9933C14.2918 14.3399 13.1748 12.3152 10.8756 11.1353C8.53635 9.9349 6.23216 10.1771 4.13334 11.7794C2.45528 13.0622 1.65883 14.8448 1.59872 16.9933C5.88653 16.9933 10.1393 16.9933 14.4271 16.9933ZM11.2012 5.4835C11.1912 3.6442 9.76359 2.18616 7.97032 2.19647C6.21713 2.20162 4.79955 3.69572 4.80957 5.51956C4.81959 7.31249 6.2522 8.78083 7.99537 8.78083C9.7686 8.77568 11.2112 7.29703 11.2012 5.4835Z" fill="#1A2145"/>
</svg>
