<svg width="18" height="18" viewBox="0 0 18 18" fill="none" xmlns="http://www.w3.org/2000/svg">
<path d="M1.94026 9.12577L8.88312 16.0754L7.22338 17.7368C6.84935 18.0877 6.26494 18.0877 5.89091 17.7368L0.280519 12.1209C0.0935064 11.9337 0 11.6997 0 11.4657C0 11.2083 0.0935064 10.9743 0.280519 10.8105L1.94026 9.12577ZM18 0V6.94963L9.53766 15.4202L2.59481 8.47059L11.0571 0H18ZM15.5455 4.32889C15.5455 3.8375 15.3584 3.36952 15.0078 2.99512C14.2831 2.26974 13.0909 2.26974 12.3662 2.99512C11.6416 3.72051 11.6416 4.91388 12.3662 5.63926C12.7169 5.99025 13.1844 6.17745 13.6987 6.17745C14.1896 6.17745 14.6805 5.99025 15.0312 5.63926C15.3351 5.31167 15.5455 4.84368 15.5455 4.32889ZM13.6753 3.39292C13.4416 3.39292 13.2078 3.48651 13.0208 3.67371C12.6468 4.0481 12.6468 4.63308 13.0208 5.00747C13.2078 5.19467 13.4416 5.26487 13.6753 5.26487C13.9091 5.26487 14.1662 5.17127 14.3299 5.00747C14.5169 4.82028 14.6104 4.58629 14.6104 4.35229C14.6104 4.1183 14.5169 3.8609 14.3299 3.69711C14.1429 3.48651 13.9091 3.39292 13.6753 3.39292Z" fill="#1A2145"/>
</svg>
