<svg width="15" height="15" viewBox="0 0 15 15" fill="none" xmlns="http://www.w3.org/2000/svg">
<g clip-path="url(#clip0_110_1420)">
<path d="M0.439941 5.62787C0.552273 5.39874 0.758214 5.36601 0.970395 5.34637C1.41972 5.30709 1.86905 5.26781 2.31837 5.22198C2.76146 5.17616 3.20454 5.13033 3.64763 5.08451C4.08447 5.03868 4.51508 4.9994 4.95192 4.96013C5.06425 4.94703 5.18282 4.93394 5.29516 4.93394C5.37004 4.93394 5.37628 4.86848 5.40125 4.8161C5.88802 3.62465 6.37478 2.43319 6.86779 1.24174C6.96764 0.99297 7.06749 0.744204 7.17359 0.501985C7.24223 0.351416 7.34832 0.259766 7.51682 0.259766C7.68532 0.259766 7.79765 0.34487 7.86006 0.501985C8.15337 1.21555 8.44043 1.92911 8.73374 2.64268C8.77119 2.72124 8.7275 2.76706 8.68382 2.81943C8.39051 3.17949 8.0972 3.53954 7.82261 3.91269C7.30464 4.62626 6.84283 5.37255 6.43095 6.15813C5.9317 7.11391 5.52606 8.11552 5.21403 9.14986C4.91448 10.1515 4.70854 11.1727 4.58996 12.2202C4.5338 12.698 4.50884 13.1825 4.48387 13.6604C4.48387 13.7062 4.47763 13.7586 4.44643 13.7979C4.14688 13.9877 3.85357 14.1841 3.54778 14.3608C3.25447 14.5311 2.96116 14.2561 3.00484 13.9877C3.06101 13.6407 3.14214 13.3003 3.21702 12.9599C3.47289 11.7488 3.735 10.5443 4.00334 9.33316C4.02207 9.24806 3.99086 9.19569 3.9347 9.14332C3.51033 8.75707 3.09221 8.36429 2.66785 7.97805C2.09371 7.44778 1.51957 6.92406 0.945433 6.3938C0.845583 6.30215 0.758214 6.2105 0.658364 6.1254C0.564754 6.05993 0.496107 5.96828 0.439941 5.85699C0.439941 5.78498 0.439941 5.70642 0.439941 5.62787Z" fill="#FEC750"/>
<path d="M4.44629 13.8043C4.46501 13.2806 4.49621 12.7634 4.55238 12.2397C4.68343 10.95 4.97674 9.69312 5.38863 8.47548C5.86915 7.06144 6.5369 5.7456 7.35443 4.51487C7.72262 3.96496 8.11578 3.4347 8.54015 2.93062C8.60879 2.84552 8.72737 2.78005 8.72737 2.64258C9.02068 3.35614 9.31398 4.06316 9.60729 4.77673C9.65098 4.87492 9.69466 4.93384 9.81324 4.94039C10.3936 4.98621 10.974 5.05168 11.5544 5.10405C12.1972 5.16951 12.8337 5.23498 13.4765 5.30044C13.7136 5.32663 13.9508 5.34627 14.1879 5.36591C14.3627 5.379 14.5 5.45101 14.5624 5.63431C14.6248 5.81107 14.5624 5.94854 14.4438 6.05983C13.9258 6.54427 13.4016 7.02871 12.8836 7.5066C12.2783 8.0696 11.6667 8.63259 11.0551 9.18904C10.9865 9.25451 11.0239 9.31343 11.0364 9.37234C11.155 9.94189 11.286 10.5114 11.4046 11.0744C11.6043 12.0106 11.804 12.9467 12.0037 13.8829C12.0411 14.0596 12.0224 14.2233 11.8789 14.3411C11.7229 14.4655 11.5731 14.4328 11.4171 14.3346C10.5621 13.7978 9.70715 13.2675 8.85218 12.7372C8.43406 12.4754 8.02217 12.2201 7.61029 11.9582C7.5354 11.9124 7.48548 11.9189 7.41059 11.9647C6.45577 12.5605 5.49472 13.1562 4.5399 13.7585C4.51494 13.7716 4.47749 13.7847 4.44629 13.8043Z" fill="#FEDB64"/>
</g>
<defs>
<clipPath id="clip0_110_1420">
<rect width="14.16" height="14.16" fill="white" transform="translate(0.439941 0.259766)"/>
</clipPath>
</defs>
</svg>
