<svg width="19" height="19" viewBox="0 0 19 19" fill="none" xmlns="http://www.w3.org/2000/svg">
<path d="M8.0005 14.3598C8.78843 14.3598 9.56865 14.2036 10.2966 13.9003C11.0246 13.5969 11.686 13.1523 12.2431 12.5917C12.8003 12.0312 13.2423 11.3657 13.5438 10.6333C13.8453 9.90092 14.0005 9.11594 14.0005 8.32321C14.0005 7.53047 13.8453 6.7455 13.5438 6.01311C13.2423 5.28072 12.8003 4.61525 12.2431 4.0547C11.686 3.49415 11.0246 3.0495 10.2966 2.74613C9.56865 2.44277 8.78843 2.28663 8.0005 2.28663C6.4092 2.28663 4.88308 2.92262 3.75786 4.0547C2.63264 5.18678 2.0005 6.72221 2.0005 8.32321C2.0005 9.92421 2.63264 11.4596 3.75786 12.5917C4.88308 13.7238 6.4092 14.3598 8.0005 14.3598ZM14.3205 13.2591L17.9005 16.8609C17.9959 16.9538 18.072 17.0649 18.1244 17.1877C18.1767 17.3105 18.2042 17.4425 18.2052 17.5761C18.2063 17.7097 18.1809 17.8421 18.1305 17.9657C18.0802 18.0894 18.0058 18.2016 17.9119 18.296C17.8179 18.3904 17.7062 18.4651 17.5833 18.5156C17.4604 18.5661 17.3287 18.5914 17.1959 18.5902C17.0631 18.5889 16.9319 18.5611 16.8099 18.5083C16.688 18.4554 16.5777 18.3787 16.4855 18.2826L12.9055 14.6807C11.298 15.9362 9.2753 16.5281 7.24926 16.336C5.22322 16.1438 3.34611 15.1821 2.00005 13.6465C0.654 12.111 -0.0598121 10.117 0.00392902 8.0706C0.0676701 6.02418 0.904173 4.07911 2.34315 2.63136C3.78213 1.18361 5.7154 0.342008 7.74943 0.277879C9.78345 0.213749 11.7653 0.931913 13.2916 2.28617C14.8178 3.64043 15.7737 5.52899 15.9647 7.56738C16.1557 9.60577 15.5674 11.6408 14.3195 13.2581L14.3205 13.2591Z" fill="#BFC2CE"/>
</svg>
