<svg width="20" height="20" viewBox="0 0 20 20" fill="none" xmlns="http://www.w3.org/2000/svg">
<path d="M11.3932 5.20716V12.6459C11.3932 12.9955 11.2543 13.3309 11.007 13.5782C10.7598 13.8254 10.4244 13.9643 10.0748 13.9643C9.72508 13.9643 9.38973 13.8254 9.14247 13.5782C8.89521 13.3309 8.7563 12.9955 8.7563 12.6459V5.20716L7.27832 6.68646C7.03075 6.93386 6.69504 7.07277 6.34504 7.07265C5.99505 7.07253 5.65944 6.93337 5.41205 6.6858C5.16465 6.43823 5.02573 6.10252 5.02586 5.75253C5.02598 5.40254 5.16513 5.06693 5.4127 4.81953L9.14261 1.09226C9.26477 0.969401 9.41001 0.871902 9.56998 0.805371C9.72995 0.73884 9.9015 0.70459 10.0748 0.70459C10.248 0.70459 10.4196 0.73884 10.5795 0.805371C10.7395 0.871902 10.8847 0.969401 11.0069 1.09226L14.7368 4.82085C14.8593 4.94343 14.9565 5.08894 15.0227 5.24908C15.089 5.40921 15.1231 5.58082 15.123 5.75412C15.1229 5.92742 15.0887 6.09901 15.0224 6.25909C14.956 6.41918 14.8587 6.56462 14.7361 6.68712C14.6136 6.80962 14.4681 6.90677 14.3079 6.97303C14.1478 7.0393 13.9762 7.07337 13.8029 7.07331C13.6296 7.07325 13.458 7.03905 13.2979 6.97268C13.1378 6.9063 12.9924 6.80904 12.8699 6.68646L11.3932 5.20716ZM4.80094 8.61668C5.15062 8.61668 5.48597 8.75559 5.73323 9.00284C5.98049 9.2501 6.1194 9.58545 6.1194 9.93513C6.1194 10.2848 5.98049 10.6202 5.73323 10.8674C5.48597 11.1147 5.15062 11.2536 4.80094 11.2536H3.48249V16.5274H16.667V11.2536H15.3486C14.9989 11.2536 14.6635 11.1147 14.4163 10.8674C14.169 10.6202 14.0301 10.2848 14.0301 9.93513C14.0301 9.58545 14.169 9.2501 14.4163 9.00284C14.6635 8.75559 14.9989 8.61668 15.3486 8.61668H16.667C17.3664 8.61668 18.0371 8.89449 18.5316 9.38901C19.0261 9.88352 19.3039 10.5542 19.3039 11.2536V16.5274C19.3039 17.2268 19.0261 17.8975 18.5316 18.392C18.0371 18.8865 17.3664 19.1643 16.667 19.1643H3.48249C2.78314 19.1643 2.11243 18.8865 1.61791 18.392C1.1234 17.8975 0.845581 17.2268 0.845581 16.5274V11.2536C0.845581 10.5542 1.1234 9.88352 1.61791 9.38901C2.11243 8.89449 2.78314 8.61668 3.48249 8.61668H4.80094Z" fill="#1A2145"/>
</svg>
