<svg width="20" height="16" viewBox="0 0 20 16" fill="none" xmlns="http://www.w3.org/2000/svg">
<path d="M19.0201 4.39157L19.0197 4.39191L9.09747 14.3682C8.72707 14.7203 8.24027 14.9252 7.7472 14.9252C7.25062 14.9252 6.76675 14.7178 6.42218 14.3721L1.44826 9.38185C1.11103 9.04351 0.917773 8.56063 0.917773 8.05037C0.917773 7.56028 1.11799 7.09316 1.46969 6.71905C1.83263 6.37589 2.2969 6.18515 2.80238 6.16588C3.29864 6.16782 3.75991 6.35568 4.12371 6.70156L7.42848 10.0172L7.7472 10.337L8.06592 10.0172L16.3446 1.71129C16.7084 1.36541 17.1697 1.17754 17.6659 1.1756C18.1739 1.19496 18.6371 1.38727 18.9987 1.75004C19.3465 2.099 19.5505 2.56491 19.5505 3.06009C19.5505 3.57035 19.3573 4.05323 19.0201 4.39157Z" fill="#18DAA0" stroke="#FCFCFC" stroke-width="0.9"/>
</svg>
