<svg width="18" height="18" viewBox="0 0 18 18" fill="none" xmlns="http://www.w3.org/2000/svg">
<g clip-path="url(#clip0_110_1496)">
<path d="M5.19361 7.93873C6.47325 9.93095 8.0828 11.5477 10.0772 12.8242C10.3422 12.5539 10.6121 12.2836 10.877 12.0133C11.2419 11.6378 11.6768 11.4276 12.2067 11.4276C12.6715 11.4276 13.0864 11.5728 13.4163 11.8931C14.0311 12.4938 14.646 13.0995 15.2358 13.7252C15.8306 14.3559 15.8806 15.347 15.3158 16.0077C14.9159 16.4782 14.461 16.9187 13.9762 17.3092C13.3963 17.7797 12.6865 17.9649 11.9367 17.9949C10.7721 18.045 9.68236 17.7597 8.64265 17.2791C5.04365 15.6123 2.40938 12.9643 0.729846 9.37533C0.264975 8.38422 0.00504731 7.32805 4.86987e-05 6.22682C-0.00494991 5.19067 0.374945 4.30469 1.09974 3.56386C1.32968 3.3286 1.56461 3.09334 1.80455 2.86308C2.56933 2.11725 3.63904 2.11725 4.39883 2.86308C4.94867 3.40368 5.49852 3.9543 6.03837 4.50491C6.77317 5.25074 6.77817 6.33695 6.04837 7.08778C5.77344 7.3731 5.48353 7.64841 5.19361 7.93873ZM11.7868 16.7936C12.4816 16.7736 13.1264 16.5383 13.6563 16.0127C13.8612 15.8075 14.0661 15.6073 14.2661 15.407C14.576 15.0917 14.576 14.7713 14.2661 14.456C13.7412 13.9304 13.2164 13.4048 12.6915 12.8792C12.3766 12.5639 12.0417 12.5639 11.7268 12.8742C11.3619 13.2346 11.002 13.6 10.6421 13.9604C10.3672 14.2357 10.1172 14.2658 9.78233 14.0655C7.368 12.6139 5.43354 10.6768 3.97894 8.25909C3.774 7.91871 3.80399 7.66843 4.08391 7.38311C4.45381 7.0127 4.82871 6.64229 5.19361 6.26687C5.46353 5.99156 5.46353 5.64618 5.18861 5.37087C4.64876 4.82026 4.10391 4.26464 3.55406 3.71904C3.26914 3.43372 2.93423 3.43372 2.63932 3.70902C2.41438 3.92426 2.18944 4.1395 1.9645 4.35975C1.36967 4.9454 1.13473 5.6662 1.19472 6.48711C1.2647 7.42316 1.55462 8.30914 1.95451 9.15508C2.57433 10.4665 3.4041 11.6278 4.38883 12.689C5.77344 14.1807 7.358 15.407 9.24248 16.2129C10.0523 16.5483 10.882 16.7535 11.7868 16.7936Z" fill="#1A2145"/>
<path d="M18 8.77977C18 8.87488 18.005 8.96498 18 9.06009C17.99 9.39546 17.73 9.65575 17.4051 9.66076C17.0802 9.66076 16.8103 9.40047 16.8053 9.06509C16.8003 8.30925 16.7253 7.56843 16.4954 6.84763C15.5806 3.95941 13.6562 2.12737 10.717 1.39656C10.1821 1.26642 9.62226 1.24639 9.06742 1.20134C8.68252 1.17131 8.4176 0.94606 8.4126 0.600676C8.4126 0.245281 8.68252 8.0405e-06 9.07741 8.0405e-06C12.6964 -0.00499753 16.0805 2.3276 17.3751 5.71637C17.775 6.74251 17.985 7.77866 18 8.77977Z" fill="#1A2145"/>
<path d="M14.216 8.4293C14.216 8.53942 14.216 8.59448 14.216 8.65455C14.201 8.98992 13.9361 9.25021 13.6162 9.25021C13.2913 9.25021 13.0264 8.98992 13.0214 8.65455C13.0164 8.10394 12.9214 7.56834 12.6665 7.07779C12.0017 5.77134 10.937 5.07056 9.46736 4.99048C9.07247 4.97045 8.81255 4.72518 8.82254 4.36478C8.83254 4.0194 9.10746 3.78414 9.49236 3.78914C11.9067 3.81417 13.9561 5.70627 14.1811 8.10894C14.201 8.23408 14.211 8.35922 14.216 8.4293Z" fill="#1A2145"/>
</g>
<defs>
<clipPath id="clip0_110_1496">
<rect width="18" height="18" fill="white"/>
</clipPath>
</defs>
</svg>
