<svg width="23" height="20" viewBox="0 0 23 20" fill="none" xmlns="http://www.w3.org/2000/svg">
<path d="M3.69423 8.95061L11.5183 16.7747L19.3424 8.95061C20.0342 8.25886 20.4228 7.32065 20.4228 6.34237C20.4228 5.36409 20.0342 4.42588 19.3424 3.73413C18.9999 3.39161 18.5933 3.11991 18.1458 2.93454C17.6982 2.74917 17.2186 2.65377 16.7342 2.65377C15.7559 2.65377 14.8177 3.04239 14.126 3.73413L11.5183 6.34176L8.91071 3.73536C8.2172 3.0529 7.28211 2.67211 6.30912 2.67596C5.33613 2.67981 4.40408 3.06797 3.71599 3.7559C3.0279 4.44383 2.63952 5.37579 2.63544 6.34877C2.63136 7.32176 3.01193 8.25694 3.69423 8.95061ZM10.6491 1.99449L11.5183 2.8637L12.3875 1.99449C12.9574 1.41957 13.6353 0.962877 14.3822 0.650632C15.129 0.338387 15.9302 0.176738 16.7398 0.174965C17.5493 0.173192 18.3512 0.331331 19.0994 0.640302C19.8477 0.949274 20.5275 1.40299 21.0999 1.97541C21.6723 2.54783 22.1261 3.22767 22.435 3.97591C22.744 4.72415 22.9021 5.52605 22.9004 6.33557C22.8986 7.14508 22.7369 7.94628 22.4247 8.69316C22.1125 9.44004 21.6558 10.1179 21.0808 10.6878L12.3888 19.3811C12.2746 19.4954 12.139 19.5861 11.9897 19.648C11.8405 19.7098 11.6805 19.7417 11.5189 19.7417C11.3574 19.7417 11.1974 19.7098 11.0481 19.648C10.8989 19.5861 10.7633 19.4954 10.6491 19.3811L1.95581 10.689C1.37308 10.121 0.908936 9.44282 0.590319 8.69398C0.271702 7.94513 0.10495 7.14047 0.0997356 6.32668C0.0945214 5.51288 0.250949 4.70615 0.559944 3.95328C0.86894 3.20042 1.32435 2.5164 1.89976 1.9409C2.47517 1.36541 3.15913 0.909903 3.91195 0.600802C4.66478 0.2917 5.47149 0.135158 6.28528 0.140257C7.09908 0.145356 7.90376 0.311995 8.65265 0.630506C9.40154 0.949017 10.0797 1.41306 10.6479 1.99572L10.6491 1.99449Z" fill="#7C7C7C"/>
</svg>
