<svg id="Layer_1" data-name="Layer 1" xmlns="http://www.w3.org/2000/svg" viewBox="0 0 1080 1080">
    <defs>
        <style>
            .cls-1,.cls-5{fill:#192145;}.cls-1,.cls-2{fill-rule:evenodd;}.cls-2,.cls-4{fill:#4bbc92;}.cls-3{fill:#ccc;}.cls-6{fill:#fff;}.cls-7{fill:none;}
        </style>
    </defs>
    <path class="cls-1"
          d="M538.38,20c284,0,514.2,232.83,514.2,520.05a525.38,525.38,0,0,1-23,154.12H885.68v7.69h141.51q-2.52,7.76-5.25,15.39H885.68V730h131.49c-75,193.23-261.12,330-478.79,330S134.62,923.25,59.59,730H191.08V717.2H54.81q-2.73-7.65-5.24-15.39H191.08v-7.69H47.15A525.05,525.05,0,0,1,24.17,540C24.17,252.78,254.39,20,538.38,20Z"/>
    <path class="cls-2"
          d="M238.62,669.26H219.15V652.14h57.57v17.12H257.25V772H238.62V669.26Zm47.07-17.12h50.79v17.12H304.31v31.68h25.57v17.12H304.31v36.82h32.17V772H285.69V652.14Zm87.7,121.57q-13.38,0-20.4-7.7t-7-21.75V679.88q0-14,7-21.75t20.4-7.7q13.38,0,20.4,7.7t7,21.75v12.67H383.21V678.68q0-11.13-9.31-11.13t-9.31,11.13v67q0,11,9.31,11t9.31-11V727.31h17.61v17q0,14-7,21.75t-20.4,7.7ZM412,652.14h18.63v48.8h20v-48.8h18.63V772H450.59V718.06h-20V772H412V652.14Zm126.13,0H510V772h29.29c18.62,0,28.27-9.93,28.27-28.42v-9.76c0-12.68-3.89-21.75-13.88-25.69,8.3-3.94,12-11.81,12-24.14v-4.28c0-18.5-8.3-27.57-27.6-27.57Zm-1.18,65.92c8.46,0,12,3.43,12,14.56v10.44c0,8.91-3.39,11.82-9.65,11.82H528.64V718.06Zm.68-48.8c6.6,0,9.48,3.77,9.48,12.33v6.68c0,9.59-4.24,12.67-11.18,12.67h-7.28V669.26ZM578.76,772h18.62V652.14H578.76V772Zm29.79-91.09c0,34.24,36.4,38.87,36.4,63.52,0,8.56-3.72,11.65-9.65,11.65s-9.65-3.09-9.65-11.65v-8.56h-17.6v7.36c0,19.18,9.48,30.14,27.76,30.14s27.77-11,27.77-30.14c0-34.24-36.4-38.87-36.4-63.52,0-8.56,3.38-11.82,9.31-11.82s9.31,3.26,9.31,11.82v5h17.61v-3.76c0-19.18-9.31-30.14-27.43-30.14s-27.43,11-27.43,30.14Zm60.28-11.65H688.3V772h18.62V669.26h19.47V652.14H668.83v17.12ZM792.42,772c-1.86-4.45-2-8.73-2-14.55V739c0-12.5-3-21.57-12.36-25.51,8.29-3.94,12.19-12,12.19-24.31v-9.42c0-18.5-8.3-27.57-27.6-27.57h-28.1V772h18.62V723.2h6.43c8.47,0,12.19,4.11,12.19,15.24v18.83c0,9.76.68,11.65,1.7,14.73ZM762.11,669.26c6.61,0,9.48,3.77,9.48,12.33v11.82c0,9.58-4.23,12.67-11.17,12.67h-7.28V669.26Zm57.57,10.45c0-8.56,3.72-11.82,9.65-11.82s9.65,3.26,9.65,11.82v64.72c0,8.56-3.73,11.82-9.65,11.82s-9.65-3.26-9.65-11.82V679.71Zm-18.63,63.52c0,19.18,10,30.14,28.28,30.14s28.27-11,28.27-30.14V680.91c0-19.18-10-30.14-28.27-30.14s-28.28,11-28.28,30.14Z"/>
    <ellipse class="cls-3" cx="538.38" cy="367.38" rx="118.63" ry="47.96"/>
    <circle class="cls-4" cx="671.46" cy="317.18" r="82.25"/>
    <circle class="cls-4" cx="406.44" cy="317.18" r="82.25"/>
    <circle class="cls-4" cx="538.95" cy="291.76" r="82.25" transform="translate(-55.77 143.77) rotate(-14.45)"/>
    <circle class="cls-4" cx="477.72" cy="244.2" r="82.25" transform="translate(-32.75 409.33) rotate(-45)"/>
    <circle class="cls-4" cx="600.18" cy="244.2" r="82.25" transform="translate(147.38 707.69) rotate(-67.81)"/>
    <ellipse class="cls-4" cx="538.95" cy="375.13" rx="119.2" ry="48.19"/>
    <polygon class="cls-4" points="658.15 375.13 593.78 375.13 419.75 375.13 419.75 512.5 658.15 512.5 658.15 375.13"/>
    <rect class="cls-5" x="419.74" y="511.68" width="237.27" height="69.26"/>
    <rect class="cls-6" x="419.74" y="556.9" width="237.27" height="24.03"/>
    <path class="cls-5" d="M549.24,156.13a8.37,8.37,0,0,1-1.75-.72,6,6,0,0,0,7.37.33A8.48,8.48,0,0,1,549.24,156.13Z"/>
    <path class="cls-7" d="M764.68,362c.09-.12.18-.27.27-.4-2.13-3.09-3.8-4.76-5-5.26A22.27,22.27,0,0,1,764.68,362Z"/>
    <path class="cls-7" d="M580.55,281.64a7.59,7.59,0,1,0,7.58,7.58A7.59,7.59,0,0,0,580.55,281.64Z"/>
    <path class="cls-7"
          d="M721.9,213.83c11.29,13,13.38,29.14,13.65,37.34.59.16,1.14.34,1.71.52a2,2,0,0,1-.83-1.55c-.27-8.25-2.37-24-13.36-36.64-8.85-10.19-21.56-16.2-37.76-17.87a2,2,0,0,1-1.71-1.38,44.22,44.22,0,0,0-7.52-13.8v1.36a46.14,46.14,0,0,1,7.33,13.75C699.9,197.25,712.83,203.39,721.9,213.83Z"/>
    <path class="cls-7" d="M543.1,224.43a7.59,7.59,0,1,0,7.59,7.59A7.6,7.6,0,0,0,543.1,224.43Z"/>
    <path class="cls-7" d="M410.53,143.47A66,66,0,0,1,425.85,140v-.9a65.93,65.93,0,0,0-15.32,3.09Z"/>
    <path class="cls-5" d="M410.53,150.79a57.42,57.42,0,0,1,15.32-3.44V140a66,66,0,0,0-15.32,3.46Z"/>
    <path class="cls-5"
          d="M672.76,200.44a23,23,0,0,0-.89-3.37h-.51a25.31,25.31,0,0,1,1.45,4.94,6,6,0,0,0,5.59,5.14l.49,0A8.11,8.11,0,0,1,672.76,200.44Z"/>
    <path class="cls-5" d="M410.53,156.32a54.2,54.2,0,0,1,15.32-4.18v-.72a53.31,53.31,0,0,0-15.32,3.73Z"/>
    <path class="cls-5"
          d="M771.94,346.46c.7-9.28-3.45-19-12.3-29a8,8,0,0,1-1.94-6.66c.25-1.56,5.22-35.53-19.09-45.66,23,11.52,18.12,44.61,17.88,46.18a6,6,0,0,0,1.42,4.92c9.1,10.26,13.35,20.38,12.62,30.08a30.16,30.16,0,0,1-3.33,11.54c.26.34.52.69.78,1.07A29.63,29.63,0,0,0,771.94,346.46Z"/>
    <path class="cls-5"
          d="M765,361.63a36.18,36.18,0,0,0,2.25-3.81c-4.06-5.31-7.43-5.4-9.37-2.56a5.53,5.53,0,0,1,2.15,1.11C761.15,356.87,762.82,358.54,765,361.63Z"/>
    <path class="cls-5" d="M425.85,139.11v-4.05a70.37,70.37,0,0,0-15.32,2.88v4.26A65.93,65.93,0,0,1,425.85,139.11Z"/>
    <path class="cls-5" d="M680.33,207.41c1.58.08,3.11.24,4.62.41-2-.28-4-.5-6.06-.62A8.33,8.33,0,0,0,680.33,207.41Z"/>
    <path class="cls-5" d="M410.53,155.15a53.31,53.31,0,0,1,15.32-3.73v-4.07a57.42,57.42,0,0,0-15.32,3.44Z"/>
    <path class="cls-5"
          d="M740.59,252.85c-1.07-.42-2.19-.81-3.33-1.16a1.71,1.71,0,0,0,.66.33C738.84,252.27,739.72,252.56,740.59,252.85Z"/>
    <path class="cls-5"
          d="M489.64,163.92a52.11,52.11,0,0,0-3.16,5,12.19,12.19,0,0,0,.94-1.4C488,166.54,488.74,165.28,489.64,163.92Z"/>
    <path class="cls-4" d="M335,285.88a7.92,7.92,0,0,0,2.43-1.31,23.31,23.31,0,0,0-4,2A15.05,15.05,0,0,1,335,285.88Z"/>
    <path class="cls-4" d="M338.8,354.52c-2.1-1-4-2.1-5.84-3.18q3.32,2.13,7.33,4.18A7.76,7.76,0,0,0,338.8,354.52Z"/>
    <path class="cls-5"
          d="M642,269.08c1.18-51.63-62.09-78.53-103.05-47.66a65.84,65.84,0,0,0-39.67-13.13c-35.14,0-64.25,27.07-63.38,60.79a75.18,75.18,0,0,0-22.33,6.72c-57.45,27.81-32.62,99.43,33.31,99.43H631c38,0,65.49-25.68,65.49-53.48C696.48,295.32,672.86,273.37,642,269.08ZM631,359.5H543.84V295.79c14.06-5.46,10.13-26.37-4.92-26.37s-19,20.9-4.92,26.37V359.5H461.18V336.3c14.07-5.45,10.13-26.37-4.91-26.37s-19,20.94-4.92,26.37v23.2h-4.5c-27.44,0-49.76-16.94-49.76-37.75,0-17.07,15.05-31.47,35.59-36.11h62.5V313.7c-14.07,5.46-10.13,26.37,4.92,26.37s19-20.9,4.91-26.37V275.8H452.4C446.77,248,470.3,224,499.25,224c16.6,0,31.28,8,39.67,19.47A48.51,48.51,0,0,1,567.7,225.2v20H499.15a13.66,13.66,0,1,0,0,9.84H567.7v68.13c-14.07,5.46-10.13,26.38,4.92,26.38a13.64,13.64,0,0,0,12.71-8.75h88.58C665.26,351.94,649.29,359.5,631,359.5Zm-45.66-28.58a13.68,13.68,0,0,0-7.8-7.8V300.27H590c5.46,14.1,26.37,10.11,26.37-4.92s-20.93-19-26.37-4.91H577.53V224.07c35-.76,58.15,31.92,45.1,60.51,35.26-4.53,65.36,19.84,56.57,46.34Z"/>
    <path class="cls-1"
          d="M604.79,496.77c.56-5.83,3.16-30,2.29-33.72-5.06-1.85-11.07,2.38-11.35-12.29-.25-13.6,6-35.18,11.46-47.93.61-1.43,1.3-2.76,1.93-4.06,1.67-3.41,1.24-3,2.92-3.1,1.23,2,.46,90.87.53,101a99.65,99.65,0,0,0,10.1.14c11.62,0,9.19-7.88,9.19-21.55v-83c0-8.3-3.65-9-11.32-9-5.4,0-37.85-.67-40.44.78-5.1,2.85-3.67,10.16-3.67,16.83v83c0,4.9-1.26,12.75,7.51,12.95C590.56,497,598.21,497,604.79,496.77Z"/>
    <path class="cls-1"
          d="M532.53,496.81l2.8-59.38c-1.83-1.43-4.6-1.76-7.13-6-2.16-3.56-2.11-6.48-2.1-11.25,0-4.92-.56-22.79.33-25.94,3.83-1.28,3,1.93,3,5.29,0,8.15-.3,20.63.06,27.92h3c.48-4.09.15-21.21.13-27.49,0-3.65-1-6.7,3-5.8,1.33,5,0,25.9.38,33.16l3.08.09c.35-7,.06-19.14,0-27,0-3.17-1.1-6.85,2.62-6.29,2,2.93.11,27.1.87,33.35l3,0c.36-7.1.08-19.48.06-27.47,0-3.46-.91-7,3-5.73.89,3.2.32,21,.33,26,0,9.3-2.1,14.09-9.23,16.91l2.78,59.68c23.69,0,22.66,2,22.66-18.09V396.56c0-7.12.42-13.11-7.28-13.31H517.6c-7.89.13-7.72,5.51-7.72,12.89v82.16C509.88,498.91,508.8,496.81,532.53,496.81Z"/>
    <path class="cls-1"
          d="M465.87,496.51c.54-10.1,1-20.24,1.42-30.26.45-10.46,2-19.65-1.67-29.13-3.38-8.74-8.9-11.14-8.07-23.8.56-8.66,5.44-18.36,13.71-18.22,8.09.13,12.9,9.92,13.35,18.66.63,12.19-4.94,15.14-8.21,23.7-3.54,9.25-2,18.93-1.55,29.18.42,9.92.71,20.3,1.44,30.18,23.56.11,22.49,1.77,22.49-18.1V396.13c0-5,1.31-12.66-7.51-12.89H450.82c-7.74.19-7.48,5.88-7.48,12.9v82.59c0,7.27-1.29,14.13,3.35,17.14C448.63,497.12,463.33,497.4,465.87,496.51Z"/>
</svg>