<svg width="562" height="464" viewBox="0 0 562 464" fill="none" xmlns="http://www.w3.org/2000/svg">
<g clip-path="url(#clip0_338_2547)">
<path opacity="0.35" d="M300.602 464C384.756 464 452.976 457.72 452.976 449.974C452.976 442.227 384.756 435.948 300.602 435.948C216.449 435.948 148.229 442.227 148.229 449.974C148.229 457.72 216.449 464 300.602 464Z" fill="#182145"/>
<path fill-rule="evenodd" clip-rule="evenodd" d="M25.17 234.653L23.5444 236.982L25.5764 238.336C25.9287 238.552 26.2538 238.796 26.606 238.986L27.6626 239.609L29.1257 237.172L28.0961 236.576L27.1208 235.953L25.17 234.653Z" fill="#231F20"/>
<path fill-rule="evenodd" clip-rule="evenodd" d="M18.586 229.455L16.6895 231.567L18.5318 233.164L20.4284 234.681L22.1894 232.433L20.3471 230.971L18.586 229.455Z" fill="#231F20"/>
<path fill-rule="evenodd" clip-rule="evenodd" d="M12.5713 223.579L10.5122 225.528L11.325 226.395L12.192 227.261L13.8989 228.967L15.8767 226.936C15.3078 226.395 14.7659 225.826 14.224 225.257L13.3841 224.445L12.5713 223.579Z" fill="#231F20"/>
<path fill-rule="evenodd" clip-rule="evenodd" d="M48.1449 244.564L47.5488 247.353L48.7409 247.624L49.9331 247.84L52.3173 248.246L52.7508 245.43L50.4478 245.024L49.2828 244.835L48.1449 244.564Z" fill="#231F20"/>
<path fill-rule="evenodd" clip-rule="evenodd" d="M40.0713 242.29L39.123 244.97L41.4531 245.755L43.7831 246.432L44.5417 243.698L42.293 243.048L40.0713 242.29Z" fill="#231F20"/>
<path fill-rule="evenodd" clip-rule="evenodd" d="M32.404 238.986L31.1035 241.531L32.1873 242.1L33.2981 242.587L34.4089 243.102L35.5469 243.589L36.6306 240.99L35.5739 240.502L34.5173 240.015L33.4607 239.527L32.404 238.986Z" fill="#231F20"/>
<path fill-rule="evenodd" clip-rule="evenodd" d="M73.2881 245.999L73.5861 248.815L75.9974 248.544L78.4087 248.165L77.9211 245.376L75.6181 245.728L73.2881 245.999Z" fill="#231F20"/>
<path fill-rule="evenodd" clip-rule="evenodd" d="M64.8887 246.405V249.248H67.3271C68.1399 249.248 68.9527 249.194 69.7655 249.167L69.6029 246.324C68.8172 246.351 68.0315 246.405 67.2458 246.405H64.8887Z" fill="#231F20"/>
<path fill-rule="evenodd" clip-rule="evenodd" d="M56.5168 245.918L56.2188 248.761C57.8173 248.924 59.4158 249.059 61.0414 249.14L61.204 246.297C59.6325 246.243 58.0611 246.08 56.5168 245.918Z" fill="#231F20"/>
<path fill-rule="evenodd" clip-rule="evenodd" d="M97.4551 239.175L98.6743 241.721L99.7851 241.206L100.869 240.665L101.953 240.096L103.009 239.5L101.627 237.009C101.302 237.199 100.95 237.415 100.598 237.578L99.5684 238.119L98.5117 238.661L97.4551 239.175Z" fill="#231F20"/>
<path fill-rule="evenodd" clip-rule="evenodd" d="M89.6792 242.371L90.6004 245.051L92.9033 244.212L95.1521 243.318L94.0684 240.692L91.8738 241.558L89.6792 242.371Z" fill="#231F20"/>
<path fill-rule="evenodd" clip-rule="evenodd" d="M81.6328 244.645L82.256 247.407L83.4481 247.136L84.6131 246.839L85.8052 246.541L86.9702 246.216L86.1574 243.481L85.0466 243.806L83.9087 244.104L82.7707 244.375L81.6328 244.645Z" fill="#231F20"/>
<path fill-rule="evenodd" clip-rule="evenodd" d="M118.344 225.041L120.241 227.153C121.46 226.07 122.625 224.987 123.763 223.85L121.785 221.819C120.674 222.929 119.509 223.985 118.344 225.041Z" fill="#231F20"/>
<path fill-rule="evenodd" clip-rule="evenodd" d="M111.842 230.402L113.549 232.677C114.199 232.19 114.849 231.702 115.472 231.188C116.095 230.673 116.746 230.186 117.342 229.671L115.527 227.478L113.711 228.967L111.842 230.402Z" fill="#231F20"/>
<path fill-rule="evenodd" clip-rule="evenodd" d="M104.906 235.141L106.396 237.551L108.428 236.251L110.46 234.897L108.834 232.568L106.884 233.868L104.906 235.141Z" fill="#231F20"/>
<path fill-rule="evenodd" clip-rule="evenodd" d="M135.278 206.195L137.581 207.874L140.371 203.975L138.014 202.35C137.12 203.65 136.199 204.922 135.278 206.195Z" fill="#231F20"/>
<path fill-rule="evenodd" clip-rule="evenodd" d="M130.049 212.856L132.243 214.671L133.029 213.75L133.761 212.802C134.275 212.179 134.79 211.557 135.278 210.907L133.029 209.174L131.566 211.015L130.807 211.936L130.049 212.856Z" fill="#231F20"/>
<path fill-rule="evenodd" clip-rule="evenodd" d="M124.467 219.138L126.499 221.088C127.068 220.519 127.61 219.924 128.152 219.328L129.778 217.541L127.637 215.672L126.066 217.405C125.551 218.001 124.982 218.543 124.467 219.138Z" fill="#231F20"/>
<path fill-rule="evenodd" clip-rule="evenodd" d="M148.743 184.641L151.263 185.968C152.021 184.56 152.753 183.152 153.457 181.717L150.938 180.444C150.206 181.852 149.502 183.26 148.743 184.641Z" fill="#231F20"/>
<path fill-rule="evenodd" clip-rule="evenodd" d="M144.598 192.034L147.063 193.469L148.255 191.411L149.447 189.326L146.955 187.945L145.79 190.003C145.41 190.68 145.004 191.357 144.598 192.034Z" fill="#231F20"/>
<path fill-rule="evenodd" clip-rule="evenodd" d="M140.127 199.209L142.512 200.752L143.812 198.749L145.086 196.718L142.674 195.229L141.428 197.232L140.127 199.209Z" fill="#231F20"/>
<path fill-rule="evenodd" clip-rule="evenodd" d="M159.418 161.517L162.073 162.573C162.669 161.111 163.238 159.622 163.807 158.132L161.152 157.131C160.583 158.593 160.014 160.055 159.418 161.517Z" fill="#231F20"/>
<path fill-rule="evenodd" clip-rule="evenodd" d="M156.14 169.343L158.768 170.507C159.093 169.776 159.391 169.018 159.716 168.287L160.637 166.093L158.009 165.01C157.711 165.741 157.413 166.445 157.088 167.176C156.763 167.908 156.465 168.639 156.14 169.343Z" fill="#231F20"/>
<path fill-rule="evenodd" clip-rule="evenodd" d="M152.618 177.033L155.164 178.251C155.517 177.547 155.869 176.816 156.194 176.112L157.224 173.946L154.623 172.754C154.297 173.458 153.972 174.19 153.62 174.894C153.268 175.598 152.97 176.329 152.618 177.033Z" fill="#231F20"/>
<path fill-rule="evenodd" clip-rule="evenodd" d="M167.708 137.472L170.472 138.203C170.878 136.633 171.258 135.062 171.583 133.465L168.792 132.896C168.494 134.44 168.115 135.956 167.708 137.472Z" fill="#231F20"/>
<path fill-rule="evenodd" clip-rule="evenodd" d="M165.243 145.542L167.953 146.435C168.44 144.919 168.928 143.402 169.389 141.886L166.679 141.047C166.219 142.536 165.731 144.052 165.243 145.542Z" fill="#231F20"/>
<path fill-rule="evenodd" clip-rule="evenodd" d="M162.453 153.556L165.135 154.531L165.948 152.257L166.733 150.009L164.051 149.089L163.265 151.309L162.453 153.556Z" fill="#231F20"/>
<path fill-rule="evenodd" clip-rule="evenodd" d="M168.494 112.859L171.177 111.911C171.041 111.505 170.879 111.099 170.716 110.693C170.554 110.287 170.364 109.907 170.174 109.501C169.985 109.095 169.768 108.716 169.524 108.337L169.199 107.768L168.82 107.2L166.517 108.879L166.815 109.339L167.086 109.799C167.302 110.124 167.438 110.449 167.627 110.774C167.817 111.099 167.953 111.451 168.088 111.803C168.224 112.155 168.386 112.507 168.494 112.859Z" fill="#231F20"/>
<path fill-rule="evenodd" clip-rule="evenodd" d="M169.93 120.901L172.775 120.793C172.702 119.122 172.521 117.458 172.233 115.81L169.442 116.352C169.715 117.854 169.878 119.375 169.93 120.901Z" fill="#231F20"/>
<path fill-rule="evenodd" clip-rule="evenodd" d="M169.442 129.187L172.26 129.593C172.477 127.968 172.666 126.344 172.748 124.692L169.903 124.556C169.822 126.1 169.659 127.643 169.442 129.187Z" fill="#231F20"/>
<path fill-rule="evenodd" clip-rule="evenodd" d="M149.258 105.115L147.958 102.597C146.404 103.394 144.964 104.396 143.677 105.575L145.573 107.66C146.697 106.67 147.934 105.815 149.258 105.115Z" fill="#231F20"/>
<path fill-rule="evenodd" clip-rule="evenodd" d="M156.925 103.382L157.169 100.539C156.275 100.485 155.377 100.512 154.487 100.62C153.6 100.705 152.722 100.859 151.859 101.08L152.563 103.842C153.274 103.652 153.999 103.516 154.731 103.436C155.461 103.377 156.193 103.359 156.925 103.382Z" fill="#231F20"/>
<path fill-rule="evenodd" clip-rule="evenodd" d="M164.132 106.252L165.92 104.005C164.548 102.856 162.978 101.966 161.287 101.378L160.312 104.059C161.711 104.546 163.006 105.29 164.132 106.252Z" fill="#231F20"/>
<path fill-rule="evenodd" clip-rule="evenodd" d="M138.312 125.721H135.467V126.966L135.549 128.212C135.557 128.629 135.593 129.045 135.657 129.457C135.675 129.875 135.721 130.291 135.792 130.703L138.61 130.324C138.556 129.945 138.529 129.566 138.475 129.187C138.42 128.808 138.393 128.428 138.393 128.022L138.312 126.885V125.721Z" fill="#231F20"/>
<path fill-rule="evenodd" clip-rule="evenodd" d="M139.559 117.652L136.849 116.785C136.344 118.393 135.981 120.042 135.766 121.713L138.583 122.092C138.783 120.587 139.109 119.102 139.559 117.652Z" fill="#231F20"/>
<path fill-rule="evenodd" clip-rule="evenodd" d="M143.162 110.368L140.859 108.662C140.344 109.366 139.884 110.097 139.45 110.828C139.017 111.559 138.637 112.317 138.285 113.076L140.859 114.294C141.184 113.59 141.563 112.913 141.916 112.236C142.29 111.587 142.706 110.963 143.162 110.368Z" fill="#231F20"/>
<path fill-rule="evenodd" clip-rule="evenodd" d="M145.898 149.224L143.487 150.74C144.354 152.094 145.248 153.448 146.196 154.775L148.499 153.123C147.578 151.851 146.738 150.551 145.898 149.224Z" fill="#231F20"/>
<path fill-rule="evenodd" clip-rule="evenodd" d="M141.97 141.832L139.369 142.996L139.856 144.106L140.398 145.216L140.669 145.758L140.967 146.3L141.536 147.383L144.029 146.029L143.487 145L143.216 144.485L142.945 143.944L142.43 142.915L141.97 141.832Z" fill="#231F20"/>
<path fill-rule="evenodd" clip-rule="evenodd" d="M139.287 133.979L136.524 134.656C136.903 136.254 137.391 137.825 137.933 139.395L140.615 138.42C140.087 136.967 139.644 135.484 139.287 133.979Z" fill="#231F20"/>
<path fill-rule="evenodd" clip-rule="evenodd" d="M162.398 168.287L160.529 170.426C161.721 171.482 162.967 172.511 164.214 173.513L166.002 171.319C164.782 170.317 163.563 169.316 162.398 168.287Z" fill="#231F20"/>
<path fill-rule="evenodd" clip-rule="evenodd" d="M156.302 162.465L154.243 164.414C155.354 165.579 156.519 166.716 157.684 167.826L159.635 165.768C158.497 164.685 157.386 163.575 156.302 162.465Z" fill="#231F20"/>
<path fill-rule="evenodd" clip-rule="evenodd" d="M150.775 156.129L148.554 157.889L149.312 158.836L150.098 159.784L151.669 161.625L153.81 159.73C153.295 159.134 152.753 158.566 152.266 157.943L151.507 157.049L150.775 156.129Z" fill="#231F20"/>
<path fill-rule="evenodd" clip-rule="evenodd" d="M183.233 182.638L181.906 185.129C182.61 185.535 183.342 185.887 184.046 186.239C184.751 186.591 185.509 186.943 186.241 187.295L187.433 184.723L185.32 183.694L183.233 182.638Z" fill="#231F20"/>
<path fill-rule="evenodd" clip-rule="evenodd" d="M175.918 178.386L174.401 180.796C175.756 181.663 177.137 182.502 178.546 183.287L179.955 180.823C178.6 180.038 177.246 179.253 175.918 178.386Z" fill="#231F20"/>
<path fill-rule="evenodd" clip-rule="evenodd" d="M169.009 173.621L167.302 175.895C168.576 176.87 169.903 177.791 171.231 178.711L172.829 176.356C171.529 175.489 170.255 174.569 169.009 173.621Z" fill="#231F20"/>
<path fill-rule="evenodd" clip-rule="evenodd" d="M206.913 191.33L206.344 194.091C207.129 194.281 207.942 194.416 208.728 194.552L211.139 194.931L211.519 192.115L209.216 191.763L206.913 191.33Z" fill="#231F20"/>
<path fill-rule="evenodd" clip-rule="evenodd" d="M198.785 189.19L197.918 191.898C199.462 192.386 201.007 192.819 202.578 193.252L203.282 190.49C201.765 190.084 200.275 189.678 198.785 189.19Z" fill="#231F20"/>
<path fill-rule="evenodd" clip-rule="evenodd" d="M190.901 186.266L189.79 188.893L192.039 189.813L194.288 190.653L195.263 187.999L193.068 187.16L190.901 186.266Z" fill="#231F20"/>
<path fill-rule="evenodd" clip-rule="evenodd" d="M419.597 188.568L419.19 191.357C420.711 191.589 422.208 191.961 423.661 192.467L424.609 189.786C422.986 189.206 421.306 188.797 419.597 188.568Z" fill="#231F20"/>
<path fill-rule="evenodd" clip-rule="evenodd" d="M410.385 188.703L410.872 191.492L412.01 191.33L412.606 191.249L413.175 191.194L414.34 191.113H415.505V188.27H414.232L412.932 188.378L412.281 188.432C412.072 188.446 411.864 188.473 411.658 188.514L410.385 188.703Z" fill="#231F20"/>
<path fill-rule="evenodd" clip-rule="evenodd" d="M401.661 191.546L402.907 194.092C403.259 193.902 403.638 193.767 403.991 193.604L405.074 193.144L406.158 192.738L407.269 192.359L406.429 189.651C406.023 189.759 405.616 189.922 405.21 190.057L404.018 190.49L402.826 191.005C402.446 191.194 402.04 191.33 401.661 191.546Z" fill="#231F20"/>
<path fill-rule="evenodd" clip-rule="evenodd" d="M438.914 206.249L436.097 206.601L436.178 207.684C436.205 208.063 436.178 208.442 436.178 208.794C436.192 208.984 436.192 209.174 436.178 209.363L436.124 209.932L436.07 210.473L435.988 211.042L438.779 211.502C438.828 211.288 438.864 211.071 438.887 210.852L438.941 210.202L439.023 209.552V208.876C439.023 208.442 439.05 208.009 439.023 207.576L438.914 206.249Z" fill="#231F20"/>
<path fill-rule="evenodd" clip-rule="evenodd" d="M435.419 197.584L433.144 199.263C433.604 199.859 433.956 200.509 434.363 201.159L434.85 202.161L434.959 202.404L435.067 202.648L435.257 203.19L437.939 202.188L437.695 201.565L437.56 201.267C437.526 201.163 437.48 201.063 437.424 200.969L436.855 199.778C436.418 199.021 435.939 198.288 435.419 197.584Z" fill="#231F20"/>
<path fill-rule="evenodd" clip-rule="evenodd" d="M428.429 191.492L427.047 193.983C428.371 194.74 429.615 195.629 430.759 196.637L432.656 194.525C431.358 193.367 429.942 192.351 428.429 191.492Z" fill="#231F20"/>
<path fill-rule="evenodd" clip-rule="evenodd" d="M423.661 226.936L423.471 224.093C422.809 224.13 422.145 224.084 421.493 223.958C420.87 223.813 420.268 223.585 419.705 223.281L418.296 225.745C419.113 226.197 419.988 226.534 420.897 226.747C421.806 226.931 422.735 226.995 423.661 226.936Z" fill="#231F20"/>
<path fill-rule="evenodd" clip-rule="evenodd" d="M432.276 223.146L430.461 220.979C429.34 221.94 428.079 222.725 426.722 223.308L427.806 225.935C429.427 225.233 430.934 224.293 432.276 223.146Z" fill="#231F20"/>
<path fill-rule="evenodd" clip-rule="evenodd" d="M437.668 215.564L435.013 214.535C434.85 214.887 434.742 215.266 434.579 215.591L434.336 216.079L434.092 216.566C433.736 217.221 433.329 217.845 432.873 218.434L435.148 220.167C435.677 219.461 436.157 218.719 436.584 217.947C436.7 217.757 436.799 217.558 436.882 217.351L437.18 216.756L437.668 215.564Z" fill="#231F20"/>
<path fill-rule="evenodd" clip-rule="evenodd" d="M417.131 205.22L419.001 207.386C419.534 206.92 420.115 206.511 420.735 206.168C421.365 205.811 422.027 205.511 422.713 205.274L421.764 202.594C420.923 202.888 420.108 203.25 419.326 203.677C418.55 204.126 417.816 204.642 417.131 205.22Z" fill="#231F20"/>
<path fill-rule="evenodd" clip-rule="evenodd" d="M412.742 213.587L415.56 213.912C415.729 212.513 416.171 211.161 416.86 209.932L414.395 208.497C413.503 210.063 412.941 211.796 412.742 213.587Z" fill="#231F20"/>
<path fill-rule="evenodd" clip-rule="evenodd" d="M415.045 222.739L417.375 221.088C416.557 219.938 415.994 218.627 415.722 217.243L412.932 217.811C413.289 219.582 414.008 221.26 415.045 222.739Z" fill="#231F20"/>
<path fill-rule="evenodd" clip-rule="evenodd" d="M443.845 200.888L443.628 203.731L446.067 203.947L448.532 204.218L448.857 201.375C448.018 201.294 447.178 201.186 446.338 201.131C445.498 201.077 444.685 200.969 443.845 200.888Z" fill="#231F20"/>
<path fill-rule="evenodd" clip-rule="evenodd" d="M434.823 200.617L434.877 203.46H437.316C438.129 203.487 438.941 203.487 439.754 203.542L439.863 200.698C439.023 200.644 438.183 200.644 437.343 200.617H434.823Z" fill="#231F20"/>
<path fill-rule="evenodd" clip-rule="evenodd" d="M425.774 201.538L426.343 204.327C427.129 204.165 427.914 204.056 428.7 203.921C429.486 203.785 430.271 203.704 431.084 203.65L430.84 200.834C429.973 200.888 429.134 200.996 428.294 201.105C427.454 201.213 426.614 201.348 425.774 201.538Z" fill="#231F20"/>
<path fill-rule="evenodd" clip-rule="evenodd" d="M470.478 204.95L469.937 207.739L474.813 208.741L475.382 205.952L470.478 204.95Z" fill="#231F20"/>
<path fill-rule="evenodd" clip-rule="evenodd" d="M461.7 203.298L461.185 206.087L466.062 206.98L466.604 204.191L461.7 203.298Z" fill="#231F20"/>
<path fill-rule="evenodd" clip-rule="evenodd" d="M452.84 201.89L452.461 204.706L457.365 205.437L457.798 202.648C456.146 202.377 454.52 202.106 452.84 201.89Z" fill="#231F20"/>
<path fill-rule="evenodd" clip-rule="evenodd" d="M496.786 210.446L496.217 213.235L501.094 214.237L501.663 211.448L496.786 210.446Z" fill="#231F20"/>
<path fill-rule="evenodd" clip-rule="evenodd" d="M488.035 208.632L487.439 211.394L492.316 212.45L492.912 209.661L488.035 208.632Z" fill="#231F20"/>
<path fill-rule="evenodd" clip-rule="evenodd" d="M479.311 206.764L478.742 209.553L483.591 210.582L484.187 207.82L479.311 206.764Z" fill="#231F20"/>
<path fill-rule="evenodd" clip-rule="evenodd" d="M523.148 214.995L522.823 217.838L525.315 218.109L527.835 218.353L528.079 215.51L525.613 215.293L523.148 214.995Z" fill="#231F20"/>
<path fill-rule="evenodd" clip-rule="evenodd" d="M514.342 213.75L513.882 216.566L516.374 216.945L518.867 217.297L519.246 214.508L516.808 214.129L514.342 213.75Z" fill="#231F20"/>
<path fill-rule="evenodd" clip-rule="evenodd" d="M505.591 212.207L505.077 214.995C506.702 215.32 508.355 215.618 510.008 215.889L510.495 213.1L505.591 212.207Z" fill="#231F20"/>
<path fill-rule="evenodd" clip-rule="evenodd" d="M549.564 214.914L550.16 217.703L551.406 217.405L552.68 217.107L553.953 216.755L555.199 216.322L554.251 213.642L553.113 214.021L551.948 214.346C551.558 214.47 551.159 214.57 550.756 214.643L549.564 214.914Z" fill="#231F20"/>
<path fill-rule="evenodd" clip-rule="evenodd" d="M540.867 215.916L540.976 218.759C542.682 218.678 544.389 218.569 546.096 218.353L545.744 215.537C544.145 215.726 542.493 215.834 540.867 215.916Z" fill="#231F20"/>
<path fill-rule="evenodd" clip-rule="evenodd" d="M532.062 215.808L531.899 218.651C533.579 218.759 535.286 218.813 536.965 218.813V215.97C535.34 215.97 533.714 215.916 532.062 215.808Z" fill="#231F20"/>
<path opacity="0.44" d="M330.676 42.5929C388.358 50.5537 438.616 79.7703 464.816 131.732C495.485 192.683 488.902 284.503 435.88 332.891C382.316 381.766 305.181 390.728 238.043 370.312C233.221 368.85 228.461 367.216 223.765 365.411C191.903 353.226 161.585 334.407 141.997 306.517C124.061 280.956 116.258 249.248 115.906 218.028C115.039 140.695 169.036 73.8674 241.43 49.958C269.445 40.7245 300.439 38.3959 330.676 42.5929Z" fill="#4BBC92"/>
<path opacity="0.44" d="M327.316 355.717C319.757 355.88 312.171 355.717 304.612 355.203C265.814 352.576 224.686 340.337 191.361 320.218C154.08 297.69 138.448 256.83 128.071 216.539C125.849 207.901 120.241 178.089 122.408 170.615C117.921 186.014 115.73 201.99 115.906 218.028C116.258 249.248 124.061 280.956 141.997 306.517C161.585 334.407 191.903 353.226 223.765 365.411C228.461 367.234 233.221 368.868 238.043 370.312C293.558 387.181 383.779 388.048 425.828 339.741C417.89 348.839 378.956 350.599 367.089 352.305C353.922 354.201 340.619 355.446 327.316 355.717Z" fill="#4BBC92"/>
<path d="M450.808 150.713C451.674 152.047 452.426 153.451 453.057 154.91L452.651 153.962C453.428 155.801 454.01 157.716 454.385 159.676C454.574 160.624 455.414 161.625 456.227 162.086C457.167 162.609 458.272 162.754 459.316 162.492C460.291 162.167 461.212 161.571 461.7 160.651C462.211 159.707 462.356 158.608 462.106 157.564C461.359 153.691 459.879 149.996 457.744 146.679C457.201 145.795 456.353 145.14 455.36 144.837C454.317 144.56 453.207 144.706 452.271 145.244C451.404 145.785 450.646 146.624 450.429 147.626C450.212 148.628 450.239 149.82 450.808 150.713Z" fill="white"/>
<path d="M460.914 174.542C466.062 174.542 466.089 166.527 460.914 166.527C455.739 166.527 455.739 174.542 460.914 174.542Z" fill="white"/>
<path d="M329.619 46.4378C372.264 52.5031 411.929 73.2987 440.323 105.819C467.959 137.418 482.941 178.874 480.72 220.871C478.986 253.797 467.173 286.507 446.148 312.014C428.321 333.595 404.695 349.868 378.713 360.131C326.395 380.737 264.487 379.545 213.171 356.394C188.327 345.211 165.65 328.639 149.15 306.815C131.349 283.258 121.677 254.718 120.16 225.339C117.857 181.771 133.571 139.124 162.452 106.55C194.396 70.5097 239.913 48.252 287.977 45.0297C302.255 44.082 316.533 44.7048 330.676 46.6002C335.797 47.2772 335.742 39.2352 330.676 38.5853C277.464 31.4639 223.63 44.5965 181.255 77.8748C145.438 105.981 119.997 147.247 113.603 192.548C108.807 226.395 114.036 261.92 130.265 292.166C143.921 317.619 165.081 338.442 189.763 353.226C240.644 383.715 305.669 390.322 362.375 374.103C390.715 366.006 417.456 351.845 438.914 331.51C461.592 309.983 477.197 281.931 484.35 251.55C494.429 208.632 487.33 163.196 464.518 125.45C441.949 88.11 405.725 59.9494 364.353 46.2753C353.733 42.8021 342.826 40.2741 331.76 38.7207C326.693 37.9896 324.526 45.7338 329.619 46.4378Z" fill="#4BBC92"/>
<path d="M442.653 338.604C442.653 342.557 385.432 345.752 314.826 345.752C244.221 345.752 187.026 342.557 187.026 338.604C187.026 334.65 244.248 331.482 314.826 331.482C385.405 331.482 442.653 334.678 442.653 338.604Z" fill="#E4EAF8"/>
<path d="M435.771 230.7C436.72 228.426 446.988 234.437 451.838 243.833C452.651 245.403 455.035 244.293 454.303 242.696C454.086 242.154 453.788 241.531 453.409 240.8C449.914 233.327 443.601 229.807 441.921 228.29C437.18 224.337 448.478 225.826 453.816 235.953C453.952 236.241 454.185 236.472 454.474 236.605C454.764 236.739 455.091 236.765 455.398 236.681C455.706 236.597 455.973 236.408 456.155 236.146C456.336 235.884 456.419 235.566 456.389 235.249C456.281 233.679 455.604 233.164 454.195 231.567C450.022 226.666 445.525 225.231 444.008 224.093C442.49 222.956 442.924 222.036 444.631 222.008C455.902 222.415 457.284 238.445 456.2 227.018C456.146 226.341 452.109 223.119 447.855 220.709C446.094 219.138 448.505 217.73 451.675 219.355C452.894 219.978 454.195 218.705 453.518 217.514C451.946 214.616 450.32 212.531 451.784 211.529C454.005 209.932 456.633 216.728 456.281 219.626C456.25 219.797 456.259 219.973 456.308 220.14C456.374 220.408 456.512 220.652 456.707 220.847C456.901 221.042 457.146 221.18 457.413 221.247C457.68 221.314 457.961 221.307 458.225 221.226C458.488 221.146 458.725 220.995 458.909 220.79C461.889 217.514 465.791 218.245 464.057 220.438C464.003 220.546 457.5 225.881 457.609 226.828C458.449 234.166 456.498 229.726 462.079 224.797C463.569 223.444 467.227 221.034 467.985 222.658C468.527 223.796 466.766 224.689 464.138 227.045C460.128 230.592 458.665 233.543 458.015 236.17C457.95 236.465 457.986 236.774 458.118 237.046C458.249 237.318 458.467 237.539 458.738 237.673C459.009 237.807 459.317 237.846 459.614 237.785C459.91 237.724 460.177 237.565 460.372 237.334C466.468 230.24 475.219 227.343 475.815 229.211C476.195 230.43 473.485 231.269 468.907 234.031C462.323 237.984 458.557 243.048 456.985 244.835C456.811 245.015 456.689 245.24 456.633 245.485C455.252 252.254 454.357 251.388 457.5 248.111C468.446 236.387 481.83 236.982 475.87 240.15C473.567 241.477 463.732 244.862 457.446 251.117C456.362 252.2 457.609 253.987 458.99 253.31C468.202 248.951 476.899 253.066 463.976 256.397C457.446 258.076 453.572 260.811 451.702 261.596C451.388 261.735 451.137 261.986 450.998 262.3C447.557 269.746 447.936 266.009 453.843 263.735C464.978 259.348 472.131 266.686 466.333 267.12C464.436 267.336 460.183 266.443 455.17 267.742C450.158 269.042 447.421 271.533 445.986 272.237C445.767 272.375 445.582 272.56 445.444 272.779C441.759 278.898 441.84 277.138 445.633 275.703C460.047 269.99 470.884 280.333 463.542 279.954C460.968 279.927 455.008 277.653 446.446 278.844C439.456 279.711 442.165 278.628 433.739 289.973C422.008 305.597 441.651 278.736 448.857 263.627C448.938 263.453 448.979 263.263 448.979 263.072C448.979 262.88 448.938 262.69 448.857 262.516C447.963 260.594 446.554 256.559 443.357 252.389C439.483 247.326 435.202 244.835 433.631 243.183C429.215 238.797 439.646 238.228 446.853 250.007C452.109 258.509 448.803 266.361 452.976 253.337C453.06 253.084 453.079 252.814 453.03 252.552C449.887 239.501 435.067 232.379 435.771 230.7Z" fill="#35C5A7"/>
<path d="M73.6943 281.633C74.5342 285.965 76.6475 288.998 79.4652 291.002C82.283 293.006 85.9677 294.251 90.2214 294.793C98.7287 296.174 110.108 296.228 122.95 298.069C135.793 299.91 149.746 303.891 161.477 309.902C173.209 315.913 182.095 324.036 185.997 329.939C162.453 293.628 116.258 273.753 73.6943 281.633Z" fill="#35C5A7"/>
<path d="M73.6945 281.633C72.8817 277.328 73.8841 273.835 76.6477 270.992C79.4112 268.149 83.8003 266.253 89.4358 265.116C100.734 263.031 116.583 265.874 131.133 272.968C145.682 280.063 158.741 291.3 167.817 302.266C176.894 313.233 182.095 324.091 185.997 329.939C162.453 293.629 116.258 273.754 73.6945 281.633Z" fill="#72D6C1"/>
<path d="M87.8643 327.123C91.4677 332.43 96.5884 332.674 102.657 331.022C108.726 329.371 116.394 325.905 125.416 323.007C134.438 320.11 144.761 318.025 154.325 317.809C163.889 317.592 172.315 319.46 176.893 321.708C148.987 307.817 113.847 309.929 87.8643 327.123Z" fill="#35C5A7"/>
<path d="M87.8642 327.123C84.3149 321.951 86.6449 316.346 93.4183 311.689C100.192 307.032 111.165 304.188 122.706 304.161C134.248 304.134 146.224 306.977 155.679 310.795C165.135 314.613 172.315 319.487 176.893 321.708C148.987 307.817 113.847 309.929 87.8642 327.123Z" fill="#72D6C1"/>
<path d="M463 341.528H135.359C129.934 341.528 124.731 343.682 120.895 347.516C117.058 351.35 114.903 356.55 114.903 361.972C114.9 364.659 115.426 367.32 116.453 369.804C117.479 372.287 118.985 374.544 120.885 376.445C122.785 378.346 125.041 379.855 127.525 380.884C130.008 381.913 132.67 382.442 135.359 382.442H463C465.691 382.446 468.356 381.919 470.843 380.892C473.33 379.864 475.589 378.356 477.492 376.455C479.394 374.553 480.903 372.295 481.931 369.81C482.959 367.325 483.487 364.661 483.483 361.972C483.483 359.285 482.953 356.624 481.923 354.142C480.894 351.66 479.384 349.405 477.482 347.507C475.58 345.608 473.322 344.102 470.837 343.077C468.352 342.051 465.689 341.525 463 341.528Z" fill="#182145"/>
<path d="M458.421 345.455H139.938C138.594 345.451 137.263 345.712 136.02 346.224C134.778 346.735 133.649 347.487 132.698 348.435C131.746 349.383 130.991 350.51 130.476 351.75C129.961 352.99 129.696 354.32 129.696 355.663C129.696 358.377 130.775 360.981 132.696 362.9C134.617 364.82 137.221 365.898 139.938 365.898H458.421C461.138 365.898 463.743 364.82 465.663 362.9C467.584 360.981 468.663 358.377 468.663 355.663C468.663 354.32 468.398 352.99 467.883 351.75C467.368 350.51 466.613 349.383 465.661 348.435C464.71 347.487 463.581 346.735 462.339 346.224C461.096 345.712 459.765 345.451 458.421 345.455Z" fill="#2B3F90"/>
<path d="M311.467 183.775C311.472 186.181 310.763 188.534 309.43 190.537C308.096 192.54 306.198 194.102 303.976 195.027C301.753 195.951 299.307 196.196 296.945 195.73C294.584 195.264 292.413 194.108 290.709 192.409C289.005 190.709 287.844 188.543 287.372 186.184C286.901 183.825 287.14 181.379 288.06 179.156C288.98 176.933 290.539 175.032 292.54 173.695C294.541 172.358 296.894 171.644 299.302 171.644C302.523 171.644 305.613 172.921 307.894 175.196C310.175 177.47 311.459 180.555 311.467 183.775Z" fill="#1F2677"/>
<path d="M457.148 341.528H141.455C141.455 298.204 158.957 258.942 187.243 230.429H187.27C215.881 201.619 255.492 183.775 299.302 183.775C383.508 183.775 452.353 249.736 456.904 332.755C457.04 335.653 457.148 338.577 457.148 341.528Z" fill="#2B3F90"/>
<path d="M457.148 341.528H141.455C141.455 298.204 158.957 258.942 187.243 230.429H187.27C164.214 259.971 191.253 332.755 291.499 332.755H456.904C457.04 335.652 457.148 338.577 457.148 341.528Z" fill="#182145"/>
<path d="M411.02 267.855C416.716 259.32 402.118 239.594 378.415 223.796C354.713 207.998 330.881 202.11 325.186 210.644C319.491 219.179 334.088 238.905 357.791 254.703C381.493 270.502 405.325 276.39 411.02 267.855Z" fill="#2E79E9"/>
<path d="M299.302 156.075L299.031 105.386C299.037 105.316 299.067 105.25 299.117 105.201C299.166 105.151 299.232 105.121 299.302 105.115C299.374 105.115 299.442 105.143 299.493 105.194C299.544 105.245 299.573 105.314 299.573 105.386L299.302 156.075Z" fill="#FDB527"/>
<path d="M257.848 164.387L236.146 136.687C236.1 136.63 236.078 136.556 236.085 136.482C236.093 136.409 236.13 136.341 236.187 136.294C236.245 136.248 236.318 136.226 236.392 136.233C236.466 136.241 236.533 136.278 236.58 136.335L257.848 164.387Z" fill="#FDB527"/>
<path d="M340.782 164.388L362.05 136.335C362.267 136.064 362.7 136.389 362.484 136.66L340.782 164.388Z" fill="#FDB527"/>
<path d="M432.737 147.816C468.35 147.816 497.219 118.963 497.219 83.3715C497.219 47.7798 468.35 18.927 432.737 18.927C397.124 18.927 368.254 47.7798 368.254 83.3715C368.254 118.963 397.124 147.816 432.737 147.816Z" fill="#96BCF4"/>
<path d="M477.531 125.693C502.713 100.526 502.713 59.722 477.531 34.5549C452.349 9.38779 411.521 9.38779 386.339 34.5549C361.157 59.722 361.157 100.526 386.339 125.693C411.521 150.86 452.349 150.86 477.531 125.693Z" fill="#E4EAF8"/>
<path d="M422.441 95.5023C422.441 73.0821 434.661 75.3025 441.759 65.3921C448.397 56.0504 439.835 46.2213 418.946 54.4799C408.813 58.4874 397.813 37.042 434.335 37.042C461.537 37.042 471.101 62.4678 446.582 79.9598C425.422 95.6106 453.518 95.5023 422.441 95.5023ZM420.572 115.54C420.572 101.974 441.082 102.055 441.082 115.54C441.082 129.024 420.572 129.078 420.572 115.54Z" fill="#4BBC92"/>
<path d="M316.224 36.8762C320.045 20.722 310.039 4.53068 293.875 0.711972C277.711 -3.10673 261.51 6.89321 257.689 23.0475C253.868 39.2017 263.874 55.393 280.038 59.2117C296.202 63.0304 312.403 53.0305 316.224 36.8762Z" fill="#004C89"/>
<path d="M287.164 49.985C283.219 49.9904 279.361 48.8261 276.078 46.6395C272.795 44.453 270.235 41.3424 268.721 37.7013C267.208 34.0602 266.809 30.0523 267.576 26.1846C268.342 22.317 270.239 18.7635 273.027 15.9736C275.814 13.1838 279.367 11.283 283.236 10.5119C287.105 9.74072 291.116 10.1338 294.761 11.6414C298.407 13.149 301.523 15.7033 303.715 18.9812C305.907 22.2591 307.077 26.1132 307.077 30.056C307.07 35.3346 304.971 40.3954 301.239 44.1305C297.506 47.8656 292.445 49.9707 287.164 49.985ZM287.164 11.3454C283.453 11.3401 279.825 12.4351 276.737 14.492C273.65 16.5489 271.243 19.475 269.82 22.9C268.398 26.3249 268.024 30.0947 268.747 33.7319C269.469 37.3692 271.256 40.7104 273.879 43.3325C276.503 45.9547 279.846 47.7398 283.486 48.4619C287.125 49.1841 290.897 48.8107 294.324 47.3892C297.751 45.9676 300.679 43.5618 302.737 40.4762C304.795 37.3907 305.891 33.7642 305.885 30.056C305.878 25.0958 303.903 20.3409 300.394 16.8335C296.884 13.3262 292.127 11.3526 287.164 11.3454Z" fill="white"/>
<path d="M277.356 16.4088C279.461 14.9163 281.88 13.9252 284.428 13.5115C284.644 13.4673 284.868 13.4719 285.083 13.5249C285.298 13.5779 285.498 13.6781 285.669 13.8181C285.84 13.9581 285.978 14.1344 286.073 14.3343C286.167 14.5342 286.216 14.7526 286.216 14.9737V24.1801C286.222 24.4778 286.14 24.7707 285.978 25.0209C285.816 25.2711 285.584 25.4672 285.309 25.5838C285.035 25.7004 284.732 25.7322 284.44 25.675C284.147 25.6179 283.879 25.4744 283.669 25.2632L277.139 18.7375C276.985 18.5776 276.867 18.3864 276.794 18.1769C276.72 17.9674 276.693 17.7445 276.714 17.5235C276.734 17.3025 276.802 17.0885 276.913 16.8961C277.024 16.7037 277.175 16.5375 277.356 16.4088Z" fill="white"/>
<path d="M270.582 27.3212C270.989 24.7769 271.992 22.3647 273.508 20.2811C273.635 20.1008 273.798 19.9501 273.989 19.8395C274.179 19.7288 274.391 19.6608 274.61 19.6402C274.829 19.6196 275.05 19.6469 275.257 19.7201C275.465 19.7934 275.654 19.9109 275.811 20.0645L282.341 26.5631C282.547 26.7749 282.686 27.0422 282.742 27.3322C282.798 27.6221 282.768 27.9221 282.656 28.1953C282.544 28.4684 282.354 28.7029 282.111 28.8699C281.867 29.0369 281.58 29.1292 281.284 29.1354H272.045C271.823 29.1318 271.604 29.0794 271.404 28.9818C271.204 28.8842 271.028 28.7439 270.889 28.5708C270.749 28.3977 270.649 28.196 270.596 27.9801C270.543 27.7641 270.539 27.5392 270.582 27.3212Z" fill="white"/>
<path d="M289.873 13.4845C292.42 13.9146 294.838 14.9142 296.944 16.4089C297.125 16.5376 297.276 16.7038 297.387 16.8961C297.498 17.0885 297.566 17.3025 297.587 17.5236C297.607 17.7446 297.58 17.9675 297.507 18.177C297.433 18.3865 297.315 18.5777 297.161 18.7375L290.632 25.2632C290.422 25.4745 290.153 25.6179 289.861 25.6751C289.568 25.7322 289.265 25.7004 288.991 25.5838C288.717 25.4672 288.484 25.2712 288.323 25.0209C288.161 24.7707 288.078 24.4778 288.085 24.1801V14.9738C288.09 14.7534 288.142 14.5367 288.238 14.3382C288.333 14.1396 288.471 13.9639 288.64 13.8228C288.81 13.6817 289.007 13.5785 289.22 13.5202C289.433 13.4618 289.655 13.4497 289.873 13.4845Z" fill="white"/>
<path d="M291.96 26.5631L298.489 20.0645C298.647 19.9109 298.836 19.7934 299.043 19.7201C299.251 19.6469 299.472 19.6196 299.691 19.6402C299.91 19.6608 300.122 19.7288 300.312 19.8395C300.502 19.9501 300.666 20.1008 300.792 20.2811C302.309 22.3647 303.311 24.7769 303.718 27.3212C303.762 27.5392 303.757 27.7641 303.704 27.9801C303.651 28.196 303.551 28.3977 303.412 28.5708C303.272 28.7439 303.096 28.8842 302.896 28.9818C302.696 29.0794 302.477 29.1318 302.255 29.1354H293.016C292.721 29.1292 292.434 29.0369 292.19 28.8699C291.946 28.7029 291.757 28.4684 291.644 28.1953C291.532 27.9221 291.502 27.6221 291.558 27.3322C291.614 27.0422 291.754 26.7749 291.96 26.5631Z" fill="white"/>
<path d="M290.632 34.8757L297.161 41.4014C297.315 41.5588 297.433 41.7478 297.506 41.9551C297.579 42.1625 297.606 42.3833 297.586 42.6023C297.565 42.8213 297.497 43.0331 297.386 43.2232C297.276 43.4132 297.125 43.5769 296.945 43.703C294.85 45.219 292.427 46.2209 289.873 46.6273C289.655 46.6669 289.43 46.6582 289.216 46.6017C289.001 46.5452 288.801 46.4423 288.631 46.3002C288.46 46.1582 288.323 45.9806 288.229 45.7798C288.134 45.5789 288.085 45.3599 288.085 45.1381V35.9317C288.084 35.6363 288.171 35.3472 288.334 35.1012C288.498 34.8552 288.731 34.6634 289.004 34.5502C289.277 34.437 289.578 34.4075 289.867 34.4655C290.157 34.5234 290.423 34.6662 290.632 34.8757Z" fill="white"/>
<path d="M293.016 31.0037H302.255C302.476 31.0032 302.695 31.052 302.895 31.1465C303.095 31.241 303.271 31.3788 303.411 31.5499C303.551 31.721 303.652 31.9211 303.705 32.1358C303.758 32.3504 303.762 32.5742 303.718 32.7908C303.306 35.3421 302.304 37.762 300.792 39.858C300.666 40.0383 300.502 40.1889 300.312 40.2996C300.122 40.4103 299.91 40.4783 299.691 40.4989C299.471 40.5195 299.251 40.4922 299.043 40.419C298.836 40.3457 298.646 40.2282 298.489 40.0746L291.959 33.549C291.75 33.3407 291.607 33.0748 291.549 32.7851C291.491 32.4954 291.521 32.1951 291.634 31.9222C291.747 31.6493 291.939 31.4163 292.185 31.2528C292.431 31.0892 292.721 31.0025 293.016 31.0037Z" fill="white"/>
<path d="M284.427 46.6273C281.875 46.216 279.453 45.2146 277.356 43.703C277.176 43.5769 277.025 43.4132 276.914 43.2232C276.803 43.0331 276.735 42.8213 276.715 42.6023C276.694 42.3833 276.721 42.1625 276.795 41.9551C276.868 41.7478 276.986 41.5588 277.139 41.4014L283.669 34.8757C283.877 34.6662 284.143 34.5234 284.433 34.4655C284.723 34.4075 285.023 34.437 285.296 34.5502C285.569 34.6634 285.803 34.8552 285.966 35.1012C286.13 35.3472 286.217 35.6363 286.216 35.9317V45.1381C286.215 45.3599 286.166 45.5789 286.072 45.7798C285.977 45.9806 285.84 46.1582 285.67 46.3002C285.499 46.4423 285.299 46.5452 285.085 46.6017C284.87 46.6582 284.646 46.6669 284.427 46.6273Z" fill="white"/>
<path d="M273.508 39.858C271.996 37.762 270.994 35.3421 270.582 32.7908C270.538 32.5742 270.543 32.3504 270.596 32.1358C270.649 31.9211 270.749 31.721 270.889 31.5499C271.029 31.3788 271.206 31.241 271.406 31.1465C271.606 31.052 271.824 31.0032 272.045 31.0037H281.284C281.58 31.0025 281.869 31.0892 282.115 31.2528C282.361 31.4163 282.553 31.6493 282.667 31.9222C282.78 32.1951 282.809 32.4954 282.751 32.7851C282.693 33.0748 282.551 33.3407 282.341 33.549L275.811 40.0746C275.654 40.2282 275.465 40.3457 275.257 40.419C275.05 40.4922 274.829 40.5195 274.61 40.4989C274.391 40.4783 274.179 40.4103 273.989 40.2996C273.798 40.1889 273.635 40.0383 273.508 39.858Z" fill="white"/>
<path d="M287.137 31.8971C288.154 31.8971 288.979 31.0728 288.979 30.0559C288.979 29.039 288.154 28.2146 287.137 28.2146C286.119 28.2146 285.294 29.039 285.294 30.0559C285.294 31.0728 286.119 31.8971 287.137 31.8971Z" fill="white"/>
<path d="M348.896 91.5647C358.609 81.8574 358.609 66.1187 348.896 56.4114C339.183 46.7041 323.435 46.7041 313.722 56.4114C304.009 66.1187 304.009 81.8574 313.722 91.5647C323.435 101.272 339.183 101.272 348.896 91.5647Z" fill="#182145"/>
<path d="M342.272 73.8404C342.155 73.6727 342.08 73.4799 342.051 73.2776C342.023 73.0753 342.043 72.8692 342.109 72.676C342.566 71.3358 342.76 69.9197 342.678 68.5061C342.353 62.549 337.287 57.7292 331.326 57.7292H331.245C328.243 57.7577 325.374 58.9676 323.259 61.0965C321.144 63.2255 319.954 66.1018 319.947 69.1018C319.949 70.3465 320.16 71.582 320.57 72.7573C320.618 72.9452 320.626 73.1413 320.593 73.3325C320.561 73.5238 320.488 73.7061 320.38 73.8674C320.106 74.3362 319.956 74.8677 319.947 75.4108C319.954 76.2248 320.282 77.003 320.861 77.5761C321.439 78.1491 322.221 78.4706 323.035 78.4706C323.273 78.4719 323.509 78.4446 323.74 78.3894L328.346 89.8702C328.581 90.4497 328.984 90.9458 329.502 91.2951C330.021 91.6444 330.633 91.831 331.258 91.831C331.884 91.831 332.495 91.6444 333.014 91.2951C333.533 90.9458 333.936 90.4497 334.171 89.8702L338.777 78.3352C339.049 78.4195 339.332 78.4651 339.617 78.4706C340.431 78.4706 341.213 78.1491 341.791 77.5761C342.37 77.003 342.698 76.2248 342.705 75.4108C342.695 74.8592 342.546 74.319 342.272 73.8404ZM337.639 76.3044C337.599 76.2292 337.541 76.165 337.47 76.1178C337.399 76.0705 337.317 76.0416 337.232 76.0336C337.144 76.0286 337.057 76.0524 336.984 76.1012C336.911 76.15 336.855 76.2213 336.826 76.3044C336.538 77.0166 336.035 77.6211 335.386 78.0333C334.738 78.4454 333.976 78.6445 333.209 78.6027C332.441 78.5609 331.706 78.2803 331.106 77.8002C330.506 77.3202 330.072 76.6646 329.863 75.9253C329.833 75.8434 329.782 75.7706 329.715 75.7138C329.649 75.6569 329.569 75.6179 329.484 75.6004H329.429C329.353 75.5997 329.277 75.6194 329.211 75.6574C329.144 75.6955 329.089 75.7506 329.05 75.817C328.897 76.0666 328.681 76.2724 328.425 76.4147C328.169 76.557 327.88 76.6309 327.587 76.6293C327.256 76.6326 326.932 76.5396 326.653 76.3617C326.374 76.1838 326.152 75.9287 326.016 75.6275C325.98 75.5374 325.916 75.4618 325.832 75.4127C325.749 75.3636 325.651 75.3439 325.555 75.3567C325.46 75.3724 325.373 75.4174 325.305 75.4853C325.237 75.5533 325.191 75.6409 325.176 75.7358C325.103 76.2501 324.846 76.7205 324.453 77.0593C324.059 77.3981 323.555 77.5821 323.035 77.577C322.653 77.5805 322.277 77.4829 321.945 77.2942C321.613 77.1054 321.336 76.8323 321.144 76.5024C320.951 76.1725 320.849 75.7976 320.848 75.4157C320.848 75.0338 320.948 74.6585 321.139 74.3277C321.518 73.6779 321.627 73.0551 321.41 72.4865C320.866 70.9139 320.707 69.2345 320.943 67.5877C321.18 65.9409 321.807 64.3745 322.771 63.0185C323.736 61.6626 325.011 60.5564 326.489 59.7918C327.967 59.0273 329.607 58.6265 331.272 58.6228H331.326C336.799 58.6228 341.486 63.0635 341.784 68.5602C341.857 69.854 341.682 71.1499 341.269 72.3782C341.16 72.6959 341.125 73.0345 341.167 73.3678C341.21 73.7011 341.328 74.0203 341.513 74.3007C341.703 74.6405 341.805 75.0219 341.811 75.4108C341.799 75.9031 341.621 76.3768 341.306 76.7557C340.992 77.1347 340.559 77.3969 340.077 77.5C339.595 77.6032 339.093 77.5414 338.651 77.3245C338.208 77.1076 337.852 76.7483 337.639 76.3044Z" fill="white"/>
<path d="M267.612 104.99C279.356 93.2523 279.356 74.2218 267.612 62.4842C255.867 50.7466 236.825 50.7466 225.081 62.4842C213.336 74.2218 213.336 93.2523 225.081 104.99C236.825 116.727 255.867 116.727 267.612 104.99Z" fill="#FDB527"/>
<path d="M262.698 91.7927C261.993 91.0916 261.038 90.6981 260.043 90.6981C259.048 90.6981 258.094 91.0916 257.388 91.7927C257.22 91.9606 257.066 92.1417 256.927 92.3343L254.299 89.7077C254.585 89.4229 254.823 89.0938 255.004 88.7329C256.738 85.3753 254.299 76.4668 248.393 70.591C247.313 69.5118 246.031 68.6557 244.62 68.0717C243.209 67.4876 241.697 67.187 240.17 67.187C238.643 67.187 237.131 67.4876 235.72 68.0717C234.309 68.6557 233.027 69.5118 231.947 70.591C230.867 71.6702 230.011 72.9514 229.426 74.3615C228.842 75.7715 228.541 77.2828 228.541 78.809C228.541 80.3353 228.842 81.8465 229.426 83.2566C230.011 84.6666 230.867 85.9479 231.947 87.0271C237.853 92.93 246.74 95.3669 250.1 93.634C250.453 93.4279 250.788 93.1924 251.102 92.93L253.215 95.042C253.396 95.2054 253.524 95.4191 253.582 95.6556C253.64 95.8921 253.625 96.1405 253.541 96.3688C253.247 97.0087 253.158 97.7231 253.284 98.4155C253.41 99.1079 253.745 99.7451 254.245 100.241C254.894 100.882 255.77 101.242 256.683 101.242C257.596 101.242 258.473 100.882 259.122 100.241C259.582 99.8076 259.718 99.1578 259.853 98.6433C259.989 98.1288 259.989 98.1559 260.016 98.1018C260.227 98.028 260.445 97.9736 260.666 97.9393C261.344 97.831 262.156 97.6685 262.698 97.127C263.053 96.7791 263.335 96.3641 263.527 95.9061C263.719 95.4482 263.818 94.9565 263.818 94.4598C263.818 93.9632 263.719 93.4715 263.527 93.0135C263.335 92.5556 263.053 92.1406 262.698 91.7927ZM260.504 96.9645C259.989 97.0457 259.582 97.127 259.312 97.3707C259.088 97.675 258.94 98.0275 258.878 98.3996C258.825 98.8121 258.667 99.2038 258.417 99.5369C257.956 99.9932 257.333 100.249 256.683 100.249C256.034 100.249 255.411 99.9932 254.949 99.5369C254.593 99.1828 254.356 98.7274 254.268 98.2331C254.181 97.7387 254.249 97.2295 254.462 96.775C254.626 96.3613 254.663 95.9077 254.566 95.4732C254.469 95.0386 254.244 94.6431 253.92 94.338L251.78 92.1989C252.159 91.6844 252.403 91.2241 252.511 91.1428C252.619 91.0616 253.053 90.7908 253.568 90.3847L256.711 93.5257C256.766 93.5817 256.835 93.6233 256.911 93.6469C256.986 93.6704 257.066 93.6753 257.144 93.6611C257.227 93.6461 257.305 93.6112 257.371 93.5593C257.437 93.5073 257.489 93.44 257.523 93.3632C257.655 93.0401 257.848 92.7458 258.092 92.4967C258.613 91.9797 259.318 91.6906 260.053 91.6931C260.787 91.6957 261.49 91.9896 262.007 92.5103C262.525 93.0309 262.814 93.7356 262.811 94.4694C262.809 95.2032 262.515 95.9059 261.994 96.4229C261.669 96.7479 261.018 96.8562 260.504 96.9645Z" fill="white"/>
<path d="M385.052 184.506C403.503 168.909 391.284 160.515 385.134 167.312C385.002 167.453 384.843 167.565 384.665 167.642C384.488 167.719 384.297 167.759 384.104 167.759C383.911 167.759 383.72 167.719 383.543 167.642C383.366 167.565 383.206 167.453 383.075 167.312C376.924 160.515 364.705 168.909 383.156 184.506C383.421 184.731 383.757 184.855 384.104 184.855C384.452 184.855 384.788 184.731 385.052 184.506Z" fill="#FF5C5B"/>
<path d="M397.949 180.878C393.56 160.678 381.72 143.375 365.193 131.245C335.634 109.528 294.533 110.991 262.319 125.477C242.974 134.169 225.553 149.441 216.287 168.693C206.019 190.057 204.908 213.993 211.302 236.684C217.019 255.882 228.534 271.966 244.898 283.528C260.341 294.441 279.767 299.775 298.543 300.398C317.319 301.02 337.043 296.092 353.651 286.859C371.425 276.976 384.782 261.948 392.449 243.21C400.469 223.66 402.447 201.511 397.949 180.878ZM299.193 142.942C297.053 143.294 298.245 143.077 299.193 142.942V142.942ZM235.171 200.292C235.171 200.13 235.226 199.859 235.253 199.588C235.361 198.83 235.497 198.045 235.632 197.287C236.445 193.062 237.718 189.028 239.1 184.966C239.154 184.804 239.29 184.506 239.398 184.262C239.723 183.531 240.048 182.8 240.401 182.069C241.213 180.417 242.107 178.766 243.056 177.168C244.004 175.57 245.277 173.648 246.469 171.942L246.795 171.482C247.662 170.372 248.583 169.316 249.531 168.26C252.307 165.191 255.314 162.34 258.526 159.73L259.203 159.189C260.07 158.566 260.964 157.916 261.859 157.32C263.376 156.291 264.92 155.316 266.492 154.369C269.661 152.5 272.94 150.876 276.245 149.305L276.652 149.116L278.575 148.358C280.499 147.654 282.423 146.977 284.373 146.381C287.731 145.331 291.14 144.454 294.588 143.754C296.159 143.429 297.73 143.186 299.302 142.915H299.708L303.583 142.536C306.888 142.319 310.193 142.238 313.499 142.346C315.341 142.4 317.156 142.509 318.972 142.671L321.166 142.888L321.546 142.942L322.358 143.105C325.745 143.781 329.078 144.485 332.383 145.487C334.117 146.002 335.797 146.652 337.504 147.22L337.964 147.41L340.132 148.412C342.338 149.48 344.482 150.674 346.553 151.986C311.53 181.609 277.618 212.486 244.817 244.618C243.868 243.129 242.974 241.639 242.162 240.096C241.701 239.23 241.268 238.363 240.834 237.47C240.671 237.118 239.29 233.57 240.319 236.359C239.479 234.031 238.639 231.729 237.935 229.373C236.772 225.339 235.876 221.232 235.253 217.08C235.226 216.918 235.226 216.755 235.199 216.539C235.117 215.483 235.009 214.427 234.955 213.398C234.828 211.105 234.774 208.804 234.792 206.493C234.846 204.408 235.036 202.35 235.171 200.292ZM372.346 211.15L372.183 212.856C372.129 212.937 371.804 215.32 371.777 215.483C371.397 217.676 370.937 219.869 370.395 222.035C369.383 226.124 368.098 230.141 366.548 234.058C366.358 234.41 365.383 236.684 365.139 237.226C364.087 239.36 362.911 241.43 361.617 243.427C361.21 244.076 360.75 244.753 360.316 245.403L358.962 247.163C358.176 248.084 357.39 249.032 356.55 249.952C355.223 251.387 353.814 252.768 352.378 254.122L350.156 256.072L347.962 257.778C345.298 259.667 342.54 261.42 339.698 263.031C337.964 264.006 336.176 264.926 334.361 265.766L333.196 266.307C333.25 266.253 331.435 267.038 331.001 267.201C327.247 268.615 323.411 269.8 319.514 270.748C317.78 271.154 316.018 271.533 314.23 271.858L311.304 272.345C314.555 271.777 310.681 272.4 310.248 272.427C305.972 272.855 301.671 272.973 297.378 272.779C295.102 272.67 292.854 272.454 290.605 272.183L290.28 272.102L286.73 271.452C282.488 270.605 278.313 269.446 274.24 267.986L271.856 267.065L271.395 266.876C302.716 236.26 335.083 206.782 368.499 178.441C368.824 179.361 369.149 180.255 369.447 181.148C370.043 183.044 370.585 184.966 371.018 186.916C371.452 188.865 371.885 190.978 372.21 193.035C372.237 193.333 372.264 193.604 372.292 193.739C372.4 195.31 372.563 196.853 372.644 198.424C372.829 202.668 372.73 206.92 372.346 211.15Z" fill="white"/>
</g>
<defs>
<clipPath id="clip0_338_2547">
<rect width="562" height="464" fill="white"/>
</clipPath>
</defs>
</svg>
