<svg width="148" height="122" viewBox="0 0 148 122" fill="none" xmlns="http://www.w3.org/2000/svg">
    <path d="M73.4996 121.5C106.581 121.5 133.4 94.6821 133.4 61.6002C133.4 28.5183 106.581 1.7002 73.4996 1.7002C40.4178 1.7002 13.5996 28.5183 13.5996 61.6002C13.5996 94.6821 40.4178 121.5 73.4996 121.5Z" fill="#182145"/>
    <path d="M91.6007 13.0403L51.0458 14.9528C35.6541 15.6787 23.7652 28.7445 24.491 44.1361L26.4012 84.6411C27.127 100.033 40.1928 111.922 55.5845 111.196L96.1394 109.283C111.531 108.557 123.42 95.4917 122.694 80.1L120.784 39.5951C120.058 24.2034 106.992 12.3144 91.6007 13.0403Z" fill="#2A7D61"/>
    <path d="M132.3 0.799805H120.2V12.8598H132.3V0.799805Z" fill="#FFCB78"/>
    <path d="M132.3 12.8999H120.2V24.9599H132.3V12.8999Z" fill="#E6E6E6"/>
    <path d="M120.4 12.8999H108.3V24.9599H120.4V12.8999Z" fill="#FFCB78"/>
    <path d="M120.4 0.799805H108.3V12.8598H120.4V0.799805Z" fill="#E6E6E6"/>
    <path d="M132.3 24.8999H120.2V36.9599H132.3V24.8999Z" fill="#FFCB78"/>
    <path d="M132.3 37H120.2V49.06H132.3V37Z" fill="#E6E6E6"/>
    <path d="M120.4 37H108.3V49.06H120.4V37Z" fill="#4BBC92"/>
    <path d="M120.4 24.8999H108.3V36.9599H120.4V24.8999Z" fill="#E6E6E6"/>
    <path d="M132.3 49.0996H120.2V61.1596H132.3V49.0996Z" fill="#4BBC92"/>
    <path d="M132.3 61.0996H120.2V73.1596H132.3V61.0996Z" fill="#E6E6E6"/>
    <path d="M120.4 61.0996H108.3V73.1596H120.4V61.0996Z" fill="#4BBC92"/>
    <path d="M120.4 49.0996H108.3V61.1596H120.4V49.0996Z" fill="#E6E6E6"/>
    <path d="M132.3 73.1997H120.2V85.2597H132.3V73.1997Z" fill="#4BBC92"/>
    <path d="M132.3 85.1997H120.2V97.2597H132.3V85.1997Z" fill="#E6E6E6"/>
    <path d="M120.4 85.1997H108.3V97.2597H120.4V85.1997Z" fill="#4BBC92"/>
    <path d="M120.4 73.1997H108.3V85.2597H120.4V73.1997Z" fill="#E6E6E6"/>
    <path d="M132.3 97.2998H120.2V109.36H132.3V97.2998Z" fill="#FFCB78"/>
    <path d="M132.3 109.4H120.2V121.46H132.3V109.4Z" fill="#E6E6E6"/>
    <path d="M120.4 109.4H108.3V121.46H120.4V109.4Z" fill="#FFCB78"/>
    <path d="M120.4 97.2998H108.3V109.36H120.4V97.2998Z" fill="#E6E6E6"/>
    <path d="M108.3 0.799805H96.2002V12.8598H108.3V0.799805Z" fill="#FFCB78"/>
    <path d="M108.3 12.8999H96.2002V24.9599H108.3V12.8999Z" fill="#E6E6E6"/>
    <path d="M96.3998 12.8999H84.2998V24.9599H96.3998V12.8999Z" fill="#4BBC92"/>
    <path d="M96.3998 0.799805H84.2998V12.8598H96.3998V0.799805Z" fill="#E6E6E6"/>
    <path d="M108.3 24.8999H96.2002V36.9599H108.3V24.8999Z" fill="#4BBC92"/>
    <path d="M108.3 37H96.2002V49.06H108.3V37Z" fill="#E6E6E6"/>
    <path d="M96.3998 37H84.2998V49.06H96.3998V37Z" fill="#4BBC92"/>
    <path d="M96.3998 24.8999H84.2998V36.9599H96.3998V24.8999Z" fill="#E6E6E6"/>
    <path d="M108.3 49.0996H96.2002V61.1596H108.3V49.0996Z" fill="#4BBC92"/>
    <path d="M108.3 61.0996H96.2002V73.1596H108.3V61.0996Z" fill="#E6E6E6"/>
    <path d="M96.3998 61.0996H84.2998V73.1596H96.3998V61.0996Z" fill="#4BBC92"/>
    <path d="M96.3998 49.0996H84.2998V61.1596H96.3998V49.0996Z" fill="#E6E6E6"/>
    <path d="M108.3 73.1997H96.2002V85.2597H108.3V73.1997Z" fill="#4BBC92"/>
    <path d="M108.3 85.1997H96.2002V97.2597H108.3V85.1997Z" fill="#E6E6E6"/>
    <path d="M96.3998 85.1997H84.2998V97.2597H96.3998V85.1997Z" fill="#4BBC92"/>
    <path d="M96.3998 73.1997H84.2998V85.2597H96.3998V73.1997Z" fill="#E6E6E6"/>
    <path d="M108.3 97.2998H96.2002V109.36H108.3V97.2998Z" fill="#4BBC92"/>
    <path d="M108.3 109.4H96.2002V121.46H108.3V109.4Z" fill="#E6E6E6"/>
    <path d="M96.3998 109.4H84.2998V121.46H96.3998V109.4Z" fill="#4BBC92"/>
    <path d="M96.3998 97.2998H84.2998V109.36H96.3998V97.2998Z" fill="#E6E6E6"/>
    <path d="M84.3998 0.799805H72.2998V12.8598H84.3998V0.799805Z" fill="#4BBC92"/>
    <path d="M84.3998 12.8999H72.2998V24.9599H84.3998V12.8999Z" fill="#E6E6E6"/>
    <path d="M72.5004 12.8999H60.4004V24.9599H72.5004V12.8999Z" fill="#4BBC92"/>
    <path d="M72.5004 0.799805H60.4004V12.8598H72.5004V0.799805Z" fill="#E6E6E6"/>
    <path d="M84.3998 24.8999H72.2998V36.9599H84.3998V24.8999Z" fill="#4BBC92"/>
    <path d="M84.3998 37H72.2998V49.06H84.3998V37Z" fill="#E6E6E6"/>
    <path d="M72.5004 37H60.4004V49.06H72.5004V37Z" fill="#4BBC92"/>
    <path d="M72.5004 24.8999H60.4004V36.9599H72.5004V24.8999Z" fill="#E6E6E6"/>
    <path d="M84.3998 49.0996H72.2998V61.1596H84.3998V49.0996Z" fill="#4BBC92"/>
    <path d="M84.3998 61.0996H72.2998V73.1596H84.3998V61.0996Z" fill="#E6E6E6"/>
    <path d="M72.5004 61.0996H60.4004V73.1596H72.5004V61.0996Z" fill="#4BBC92"/>
    <path d="M72.5004 49.0996H60.4004V61.1596H72.5004V49.0996Z" fill="#E6E6E6"/>
    <path d="M84.3998 73.1997H72.2998V85.2597H84.3998V73.1997Z" fill="#4BBC92"/>
    <path d="M84.3998 85.1997H72.2998V97.2597H84.3998V85.1997Z" fill="#E6E6E6"/>
    <path d="M72.5004 85.1997H60.4004V97.2597H72.5004V85.1997Z" fill="#4BBC92"/>
    <path d="M72.5004 73.1997H60.4004V85.2597H72.5004V73.1997Z" fill="#E6E6E6"/>
    <path d="M84.3998 97.2998H72.2998V109.36H84.3998V97.2998Z" fill="#4BBC92"/>
    <path d="M84.3998 109.4H72.2998V121.46H84.3998V109.4Z" fill="#E6E6E6"/>
    <path d="M72.5004 109.4H60.4004V121.46H72.5004V109.4Z" fill="#4BBC92"/>
    <path d="M72.5004 97.2998H60.4004V109.36H72.5004V97.2998Z" fill="#E6E6E6"/>
    <path d="M60.3998 0.799805H48.2998V12.8598H60.3998V0.799805Z" fill="#4BBC92"/>
    <path d="M60.3998 12.8999H48.2998V24.9599H60.3998V12.8999Z" fill="#E6E6E6"/>
    <path d="M48.5004 12.8999H36.4004V24.9599H48.5004V12.8999Z" fill="#4BBC92"/>
    <path d="M48.5004 0.799805H36.4004V12.8598H48.5004V0.799805Z" fill="#E6E6E6"/>
    <path d="M60.3998 24.8999H48.2998V36.9599H60.3998V24.8999Z" fill="#4BBC92"/>
    <path d="M60.3998 37H48.2998V49.06H60.3998V37Z" fill="#E6E6E6"/>
    <path d="M48.5004 37H36.4004V49.06H48.5004V37Z" fill="#4BBC92"/>
    <path d="M48.5004 24.8999H36.4004V36.9599H48.5004V24.8999Z" fill="#E6E6E6"/>
    <path d="M60.3998 49.0996H48.2998V61.1596H60.3998V49.0996Z" fill="#4BBC92"/>
    <path d="M60.3998 61.0996H48.2998V73.1596H60.3998V61.0996Z" fill="#E6E6E6"/>
    <path d="M48.5004 61.0996H36.4004V73.1596H48.5004V61.0996Z" fill="#4BBC92"/>
    <path d="M48.5004 49.0996H36.4004V61.1596H48.5004V49.0996Z" fill="#E6E6E6"/>
    <path d="M60.3998 73.1997H48.2998V85.2597H60.3998V73.1997Z" fill="#4BBC92"/>
    <path d="M60.3998 85.1997H48.2998V97.2597H60.3998V85.1997Z" fill="#E6E6E6"/>
    <path d="M48.5004 85.1997H36.4004V97.2597H48.5004V85.1997Z" fill="#4BBC92"/>
    <path d="M48.5004 73.1997H36.4004V85.2597H48.5004V73.1997Z" fill="#E6E6E6"/>
    <path d="M60.3998 97.2998H48.2998V109.36H60.3998V97.2998Z" fill="#4BBC92"/>
    <path d="M60.3998 109.4H48.2998V121.46H60.3998V109.4Z" fill="#E6E6E6"/>
    <path d="M48.5004 109.4H36.4004V121.46H48.5004V109.4Z" fill="#FFCB78"/>
    <path d="M48.5004 97.2998H36.4004V109.36H48.5004V97.2998Z" fill="#E6E6E6"/>
    <path d="M36.5004 0.799805H24.4004V12.8598H36.5004V0.799805Z" fill="#FFCB78"/>
    <path d="M36.5004 12.8999H24.4004V24.9599H36.5004V12.8999Z" fill="#E6E6E6"/>
    <path d="M24.6 12.8999H12.5V24.9599H24.6V12.8999Z" fill="#FFCB78"/>
    <path d="M24.6 0.799805H12.5V12.8598H24.6V0.799805Z" fill="#E6E6E6"/>
    <path d="M36.5004 24.8999H24.4004V36.9599H36.5004V24.8999Z" fill="#4BBC92"/>
    <path d="M36.5004 37H24.4004V49.06H36.5004V37Z" fill="#E6E6E6"/>
    <path d="M24.6 37H12.5V49.06H24.6V37Z" fill="#4BBC92"/>
    <path d="M24.6 24.8999H12.5V36.9599H24.6V24.8999Z" fill="#E6E6E6"/>
    <path d="M36.5004 49.0996H24.4004V61.1596H36.5004V49.0996Z" fill="#4BBC92"/>
    <path d="M36.5004 61.0996H24.4004V73.1596H36.5004V61.0996Z" fill="#E6E6E6"/>
    <path d="M24.6 61.0996H12.5V73.1596H24.6V61.0996Z" fill="#4BBC92"/>
    <path d="M24.6 49.0996H12.5V61.1596H24.6V49.0996Z" fill="#E6E6E6"/>
    <path d="M36.5004 73.1997H24.4004V85.2597H36.5004V73.1997Z" fill="#4BBC92"/>
    <path d="M36.5004 85.1997H24.4004V97.2597H36.5004V85.1997Z" fill="#E6E6E6"/>
    <path d="M24.6 85.1997H12.5V97.2597H24.6V85.1997Z" fill="#FFCB78"/>
    <path d="M24.6 73.1997H12.5V85.2597H24.6V73.1997Z" fill="#E6E6E6"/>
    <path d="M36.5004 97.2998H24.4004V109.36H36.5004V97.2998Z" fill="#FFCB78"/>
    <path d="M36.5004 109.4H24.4004V121.46H36.5004V109.4Z" fill="#E6E6E6"/>
    <path d="M24.6 109.4H12.5V121.46H24.6V109.4Z" fill="#FFCB78"/>
    <g opacity="0.14">
        <path opacity="0.14" d="M82.9711 103.838C103.568 99.2713 116.564 78.8723 111.998 58.2751C107.431 37.6779 87.0323 24.6823 66.4351 29.2486C45.8379 33.8149 32.8423 54.2139 37.4086 74.8111C41.9749 95.4083 62.3739 108.404 82.9711 103.838Z" fill="black"/>
    </g>
    <path d="M76.2274 101.592C96.5903 99.8817 111.712 81.9882 110.002 61.6253C108.292 41.2625 90.3981 26.1413 70.0353 27.8512C49.6724 29.5611 34.5512 47.4546 36.2611 67.8175C37.971 88.1804 55.8646 103.302 76.2274 101.592Z" fill="#EAEAEA"/>
    <path d="M81.1775 97.0752C99.2216 92.7432 110.337 74.6038 106.005 56.5598C101.673 38.5157 83.534 27.3999 65.49 31.7319C47.446 36.0639 36.3301 54.2033 40.6621 72.2473C44.9941 90.2914 63.1335 101.407 81.1775 97.0752Z" fill="#E3E2E1"/>
    <g opacity="0.4">
        <g opacity="0.4">
            <g opacity="0.13">
                <path opacity="0.13" d="M104 45.2999L99.3002 50.2999L90.7002 40.3999L81.7002 40.9999L123.1 84.5999L113 68.8999L118.2 63.1999L104 45.2999Z" fill="#1E1E1E"/>
            </g>
            <g opacity="0.13">
                <path opacity="0.13" d="M57.2998 89.1999L79.2998 119.8L123.1 84.5999L81.0998 40.3999L57.2998 89.1999Z" fill="#1E1E1E"/>
            </g>
        </g>
    </g>
    <path d="M71.5996 74.2002L72.9996 74.7002L80.6996 77.7002L81.4996 76.4002L82.1996 75.3002C82.8711 72.0722 84.6375 69.1754 87.1996 67.1002L88.1996 66.0002C88.739 65.3717 89.1776 64.6633 89.4996 63.9002C89.6231 63.4835 89.7907 63.0812 89.9996 62.7002C90.8116 61.083 91.8191 59.5717 92.9996 58.2002C93.3815 57.9192 93.7186 57.5821 93.9996 57.2002C94.6996 51.9002 98.1996 49.1002 103.8 45.9002C103.99 45.5645 104.094 45.1862 104.1 44.8002C104.111 44.4639 104.077 44.1276 104 43.8002C103.2 42.6002 99.3996 40.9002 97.3996 40.7002H96.3996C92.8996 42.7002 92.1996 45.9002 89.6996 48.5002C89.3775 48.8232 89.1076 49.1943 88.8996 49.6002C88.0827 50.5555 87.5922 51.7467 87.4996 53.0002L87.1996 54.4002C86.3417 57.1628 84.6252 59.5799 82.2996 61.3002L80.9996 62.3002C78.3996 66.1002 77.2996 70.7002 72.1996 73.2002C71.9659 73.5121 71.7649 73.8472 71.5996 74.2002V74.2002Z" fill="#995451"/>
    <path d="M88.3004 55.2998C88.3066 55.751 88.2036 56.197 88.0004 56.5998C87.2004 58.5998 84.8004 60.0998 83.3004 61.8998C83.0014 62.2418 82.7336 62.61 82.5004 62.9998C82.1791 63.3002 81.9657 63.6981 81.8934 64.132C81.8211 64.5658 81.8938 65.0114 82.1004 65.3998C82.1004 64.5998 82.8004 63.6998 82.9004 63.1998L83.9004 61.9998C85.7004 60.0998 87.8004 58.3998 88.7004 56.0998C88.893 55.6522 89.0274 55.1816 89.1004 54.6998C90.7004 50.2998 96.2004 48.2998 98.6004 44.0998L98.9004 42.7998C98.9793 42.3712 99.0128 41.9354 99.0004 41.4998L97.4004 40.7998L97.1004 42.1998C96.4119 44.2969 95.2085 46.1879 93.6004 47.6998L92.7004 48.5998C91.0891 50.1148 89.7675 51.9108 88.8004 53.8998C88.5743 54.3431 88.4063 54.8136 88.3004 55.2998V55.2998Z" fill="#BC6862"/>
    <path d="M77.7996 74.9002C79.6996 71.0002 84.2996 68.2002 85.2996 63.9002C85.4049 63.5086 85.5738 63.137 85.7996 62.8002C86.6996 60.5002 88.2996 58.5002 89.0996 56.2002C88.5996 58.6002 86.6996 60.1002 85.1996 62.0002L84.2996 63.1002C83.4996 67.1002 79.9996 69.9002 76.1996 72.3002C74.7996 72.9002 74.5996 73.9002 74.6996 75.3002C74.9561 75.5895 75.3143 75.7686 75.6996 75.8002L76.9996 76.3002C77.3609 75.8944 77.6334 75.4175 77.7996 74.9002V74.9002Z" fill="#BC6862"/>
    <path d="M89.7002 55.6C92.9002 51.6 95.4002 48 99.7002 44.7C99.9111 44.2503 100.078 43.7815 100.2 43.3C100.299 42.8723 100.299 42.4277 100.2 42C100.113 42.4138 99.9784 42.8164 99.8002 43.2L99.2002 44.5C96.0002 47.8 92.3002 50.2 90.7002 54.3C90.3988 54.757 90.0646 55.1915 89.7002 55.6V55.6Z" fill="#DE8072"/>
    <path d="M82.1 65.8999C79.8 68.6999 75.1 70.2999 73.5 73.7999V74.7999C73.6298 74.5119 73.798 74.2428 74 73.9999C75.9 71.3999 80.4 70.0999 81.4 67.0999C81.67 66.7224 81.9043 66.3207 82.1 65.8999V65.8999Z" fill="#DE8072"/>
    <path d="M99.3 48.0002C100.547 47.6843 101.644 46.9412 102.4 45.9002C102.574 45.6199 102.709 45.3171 102.8 45.0002C102.856 44.5962 102.832 44.1851 102.729 43.7904C102.626 43.3957 102.446 43.0252 102.2 42.7002C102.095 43.1547 101.926 43.5923 101.7 44.0002L101.1 45.2002C96 48.6002 92.4 52.2002 90.6 56.9002L89.7 58.1002C88.5263 59.6563 87.5206 61.3323 86.7 63.1002L86.1 64.3002C83.7 68.3002 79.5 71.3002 78.5 75.9002C78.5991 76.3135 78.8061 76.6931 79.1 77.0002L79.7 75.8002C81.3 72.4002 84.2 69.7002 86.4 66.3002L87.3 65.1002L88 63.9002C88.1 63.5002 88.3 63.2002 88.4 62.8002C89.1275 60.954 90.1398 59.2331 91.4 57.7002L92.4 56.6002C95 54.4002 93.3 50.2002 97.3 48.8002L99.3 48.0002Z" fill="#DE8072"/>
    <g opacity="0.4">
        <path opacity="0.4" d="M87.3996 67.4002L88.0996 66.5002C88.7946 65.7774 89.2787 64.8783 89.4996 63.9002C89.6231 63.4835 89.7907 63.0812 89.9996 62.7002C90.8116 61.083 91.8191 59.5717 92.9996 58.2002C93.3815 57.9192 93.7186 57.5821 93.9996 57.2002C94.6996 51.9002 98.1996 49.1002 103.8 45.9002C103.99 45.5645 104.094 45.1862 104.1 44.8002C104.111 44.4639 104.077 44.1276 104 43.8002C103.2 42.6002 99.3996 40.9002 97.3996 40.7002H96.3996C92.8996 42.7002 92.1996 45.9002 89.6996 48.5002C89.3775 48.8232 89.1076 49.1943 88.8996 49.6002C88.0827 50.5555 87.5922 51.7467 87.4996 53.0002L87.1996 54.4002C86.3417 57.1628 84.6252 59.5799 82.2996 61.3002L80.9996 62.3002C78.3996 66.1002 77.2996 70.7002 72.1996 73.2002C71.9715 73.4805 71.7706 73.7819 71.5996 74.1002L72.9996 74.6002L74.6996 75.2002C74.9996 75.6002 76.2996 75.8002 76.9996 76.2002C77.0261 76.2002 77.0516 76.1897 77.0703 76.1709C77.0891 76.1522 77.0996 76.1267 77.0996 76.1002L80.6996 77.6002L81.4996 76.3002C81.7748 75.9799 81.9793 75.605 82.0996 75.2002C82.8996 72.9002 83.7996 70.2002 86.2996 68.2002L87.3996 67.4002Z" fill="#73504D"/>
    </g>
    <path d="M80.9003 78.2001H91.2003C90.8003 75.3001 91.4003 72.6001 91.7003 69.8001C91.7003 69.4001 91.8004 69.0001 91.8004 68.6001C91.9459 68.2822 92.0468 67.9456 92.1004 67.6001C92.0828 67.1934 92.0156 66.7905 91.9003 66.4001C89.3003 62.5001 88.4003 58.5001 90.7003 54.3001L91.0003 53.0001C92.1003 49.6001 91.6003 46.6001 92.0003 43.1001C91.9003 42.7001 91.9004 42.3001 91.8004 42.0001C91.6344 41.2701 91.2508 40.6076 90.7003 40.1001C88.9003 39.1001 83.0004 39.1001 82.1004 40.1001L81.4003 41.0001C81.2078 41.3066 81.0723 41.6454 81.0003 42.0001C80.3003 45.9001 82.5003 50.0001 80.7003 53.9001L80.4003 54.9001C79.3003 58.5001 80.3003 62.2001 81.1003 65.9001C81.1987 66.3279 81.1987 66.7723 81.1003 67.2001C81.0979 67.6824 80.9958 68.1591 80.8004 68.6001C80.8004 69.0001 80.7003 69.4001 80.7003 69.8001C80.6003 72.2001 81.1003 74.6001 80.9003 77.3001V78.2001Z" fill="#995451"/>
    <path d="M82.2996 55.6998C79.2996 58.7998 82.0996 62.4998 83.8996 65.6998C84.0778 66.0834 84.212 66.486 84.2996 66.8998C84.2823 66.5155 84.1798 66.1398 83.9996 65.7998C82.2996 62.1998 80.9996 58.5998 82.9996 54.9998L83.8996 53.7998C85.4001 52.0425 86.3516 49.8832 86.6361 47.59C86.9205 45.2968 86.5253 42.9705 85.4996 40.8998L84.7996 39.7998H82.9996L83.5996 40.9998C85.1996 45.4998 85.1996 50.2998 82.9996 54.2998C82.7996 54.7998 82.4996 55.1998 82.2996 55.6998Z" fill="#BC6862"/>
    <path d="M86.7997 76.8001C85.9933 74.9286 85.9219 72.8219 86.5997 70.9001C86.6173 70.4935 86.6845 70.0905 86.7997 69.7001C87.0106 69.2504 87.178 68.7816 87.2997 68.3001C87.3827 67.872 87.4162 67.4358 87.3997 67.0001C87.4997 63.2001 79.7997 59.8001 83.8997 56.1001C79.7997 59.5001 85.6997 62.9001 85.6997 66.6001L85.3997 67.6001C85.2863 68.6806 84.8309 69.6966 84.0997 70.5001L83.4997 71.8001C82.5997 74.0001 82.2997 76.1001 84.2997 78.2001C84.7997 78.5001 86.1997 78.2001 87.0997 78.3001C87.0972 77.7855 86.9953 77.2761 86.7997 76.8001V76.8001Z" fill="#BC6862"/>
    <path d="M84.4004 55.3998L85.2004 54.3998C88.9004 50.5998 88.4004 45.4998 87.0004 40.9998C86.7691 40.5773 86.5014 40.1758 86.2004 39.7998C86.3004 40.1998 86.5004 40.5998 86.6004 40.9998C87.5004 45.4998 88.4004 50.2998 85.4004 54.0998L84.4004 55.3998Z" fill="#DE8072"/>
    <path d="M84.3997 67.2998C83.8661 68.2314 83.1914 69.0747 82.3997 69.7998L81.7997 71.1998C81.3776 72.3708 81.2663 73.6312 81.4766 74.8581C81.6869 76.0849 82.2117 77.2363 82.9997 78.1998C82.4478 75.7978 82.4478 73.3018 82.9997 70.8998C83.0997 70.4998 83.2997 70.0998 83.3997 69.6998C83.5954 69.279 83.8298 68.8773 84.0997 68.4998L84.3997 67.2998Z" fill="#DE8072"/>
    <path d="M90.6 45.3998C90.7004 44.4357 90.7004 43.4639 90.6 42.4998C90.5453 42.1866 90.4442 41.8832 90.3 41.5998C90.118 41.1891 89.8563 40.8186 89.5302 40.5097C89.2041 40.2007 88.8199 39.9594 88.4 39.7998L88.7 41.0998C89.7613 45.3552 89.3015 49.8477 87.4 53.7998L86.2 54.9998C83.3 58.6998 86.8 62.9998 88.4 67.0998C88.382 67.5392 88.315 67.9753 88.2 68.3998C88.0783 68.8813 87.9109 69.3501 87.7 69.7998C87.521 70.2522 87.387 70.7211 87.3 71.1998C86.6 74.0998 86.3 76.8998 89.3 78.1998C88.5 75.4998 89.3 72.9998 89.9 70.4998C90.0149 70.0753 90.082 69.6392 90.1 69.1998C90.2225 68.7769 90.2898 68.34 90.3 67.8998V66.6998C88.2 62.5998 85.8 58.3998 88.4 54.3998C88.7014 53.9428 89.0357 53.5083 89.4 53.0998C90.7 50.9998 89.8 48.8998 90.6 46.8998V45.3998Z" fill="#DE8072"/>
    <path d="M48.0005 86.6002C42.5583 80.171 39.7294 71.9323 40.0742 63.5161C40.419 55.0999 43.9123 47.1202 49.8621 41.1578C55.812 35.1954 63.7843 31.6852 72.1998 31.3226C80.6152 30.9601 88.8599 33.7716 95.3005 39.2002L97.6005 37.0002C90.8874 31.0171 82.1926 27.7388 73.2005 27.8002C66.0894 27.8029 59.1298 29.8548 53.1546 33.7102C47.1794 37.5656 42.4418 43.0611 39.5088 49.5391C36.5758 56.0171 35.5716 63.203 36.6165 70.2369C37.6614 77.2707 40.711 83.8545 45.4005 89.2002L48.0005 86.6002Z" fill="#EFEAEA"/>
    <path d="M58 53.4999L64.4 48.8999L65.5 44.1999L62.4 38.3999L58.1 36.9999L62.5 37.8999L65.8 42.4999L64.2 36.9999L61.9 32.1999L65.6 38.5999V37.1999L65.3 33.4999L65.8 35.6999L66.2 43.5999L68.5 40.7999C68.5 40.7999 67.9 31.0999 68.1 30.4999C68.3 29.8999 69 39.9999 69 39.9999C69 39.9999 73.9 32.0999 76.1 30.3999L67.8 42.8999L72.1 39.3999L74.3 33.8999L72.6 39.4999L71.7 41.3999L73.6 40.8999L81.4 31.9999L78.2 37.2999L82.4 36.0999L77.7 38.0999L75.7 39.8999L78.2 39.4999L75.6 40.4999L71.7 44.7999L70.7 46.0999L72.8 42.0999L71.3 41.8999L68.3 43.0999L66.6 44.8999L65.6 47.6999V49.1999L61.8 51.5999L58.2 53.7999L58 53.4999Z" fill="#00AE68"/>
    <path d="M78.9004 59.8002L84.3004 58.1002L86.1004 55.1002L85.3004 50.5002L82.7004 48.6002L85.5004 50.2002L86.7004 54.0002L86.9004 50.0002L86.4004 46.2002L87.4004 51.3002L87.7004 50.4002L88.4004 47.9002L88.2004 49.5002L86.7004 54.9002L88.9004 53.5002C88.9004 53.5002 90.7004 46.8002 90.9004 46.4002C91.1004 46.0002 89.4004 53.1002 89.4004 53.1002C89.4004 53.1002 94.5004 48.9002 96.4004 48.2002L87.9004 54.8002L91.7004 53.4002L94.4004 50.2002L92.0004 53.6002L90.9004 54.6002H92.3004L99.6004 50.4002L96.3004 53.2002L99.3004 53.4002L95.7004 53.6002L94.0004 54.4002L95.8004 54.7002H93.8004L90.2004 56.7002L89.2004 57.4002L91.5004 55.2002L90.6004 54.7002L88.2004 54.9002L86.7004 55.6002L85.4004 57.4002L85.0004 58.3002L81.9004 59.1002L79.0004 59.8002H78.9004Z" fill="#00AE68"/>
    <path d="M82.7002 59.1C82.6802 58.8874 82.6118 58.6821 82.5002 58.5C81.4685 54.8954 81.5381 51.0647 82.7002 47.5C83.0198 46.3958 83.0882 45.234 82.9002 44.1C82.6884 42.7133 82.0815 41.4171 81.1523 40.3663C80.223 39.3156 79.0107 38.5548 77.6604 38.175C76.31 37.7952 74.8789 37.8125 73.5381 38.2248C72.1973 38.6372 71.0038 39.4271 70.1002 40.5C69.1276 41.5689 67.9368 42.4167 66.6085 42.986C65.2801 43.5553 63.845 43.8329 62.4002 43.8C61.4956 43.7671 60.5901 43.8342 59.7002 44C52.5002 44.9 48.0002 49.1 46.9002 56.4C46.5002 59.1 41.2002 58.8 41.2002 63.7C41.3002 73.5 53.6002 80.9 55.4002 85.5C56.5002 88.5 58.0002 91.3 61.2002 91.3C62.2706 91.3238 63.3261 91.0457 64.2458 90.4974C65.1654 89.9491 65.9121 89.1529 66.4002 88.2C67.2642 86.5635 68.682 85.2875 70.4002 84.6L70.7002 84.4C73.7803 83.1856 77.1264 82.8061 80.4002 83.3C81.2205 83.4854 82.0677 83.5193 82.9002 83.4C85.4111 83.2189 87.782 82.1743 89.6101 80.4435C91.4382 78.7128 92.6109 76.4026 92.9289 73.9053C93.247 71.408 92.6908 68.8776 91.3549 66.7439C90.0189 64.6102 87.9856 63.0046 85.6002 62.2C84.8991 61.9618 84.2676 61.5542 83.7617 61.0134C83.2558 60.4727 82.8912 59.8154 82.7002 59.1Z" fill="#F2F2F2"/>
    <path d="M65.1004 75.1002C70.4576 75.1002 74.8004 70.7574 74.8004 65.4002C74.8004 60.043 70.4576 55.7002 65.1004 55.7002C59.7432 55.7002 55.4004 60.043 55.4004 65.4002C55.4004 70.7574 59.7432 75.1002 65.1004 75.1002Z" fill="#E8951C"/>
    <path d="M54.4995 64.5999C54.4797 66.5423 55.0376 68.4468 56.1023 70.0715C57.167 71.6962 58.6906 72.9678 60.4794 73.7249C62.2683 74.482 64.2418 74.6904 66.1494 74.3236C68.0569 73.9569 69.8125 73.0315 71.193 71.665C72.5736 70.2985 73.517 68.5526 73.9033 66.6489C74.2896 64.7452 74.1014 62.7696 73.3627 60.9731C72.624 59.1765 71.3681 57.64 69.7544 56.5587C68.1407 55.4774 66.242 54.9 64.2995 54.8999C61.7176 54.8998 59.24 55.9185 57.405 57.7348C55.57 59.5511 54.5259 62.0181 54.4995 64.5999Z" fill="#FFA81D"/>
    <g opacity="0.46">
        <path opacity="0.46" d="M57.3004 64.3999C57.6451 64.2751 57.9582 64.0761 58.2174 63.8168C58.4766 63.5576 58.6757 63.2446 58.8004 62.8999C59.1863 61.7991 59.9521 60.8722 60.9603 60.2856C61.9685 59.699 63.1528 59.4913 64.3004 59.6998C64.6574 59.757 65.0228 59.7327 65.3691 59.6288C65.7154 59.5249 66.0338 59.3441 66.3004 59.0998V59.0998C66.7004 58.4998 66.4004 57.5999 65.1004 57.2999C63.2514 56.9402 61.3348 57.2708 59.7131 58.2291C58.0915 59.1873 56.8773 60.7068 56.3004 62.4999C55.9004 63.6999 56.6004 64.4999 57.3004 64.3999V64.3999Z" fill="#F9EC97"/>
    </g>
    <path d="M80.3996 42.9002C80.606 44.0068 80.5022 45.1489 80.0996 46.2002C78.9192 49.7666 78.8843 53.6129 79.9996 57.2002C80.0196 57.4128 80.088 57.6181 80.1996 57.8002C80.4064 58.5197 80.7754 59.1822 81.2781 59.7369C81.7808 60.2916 82.4039 60.7238 83.0996 61.0002L84.2996 61.5002C83.5464 60.8708 82.9909 60.0375 82.6996 59.1002C82.6796 58.8876 82.6112 58.6823 82.4996 58.5002C81.4679 54.8956 81.5376 51.0649 82.6996 47.5002C83.0192 46.396 83.0876 45.2343 82.8996 44.1002C82.6558 42.7197 82.0301 41.4352 81.0933 40.3923C80.1565 39.3495 78.9461 38.59 77.5996 38.2002C79.084 39.365 80.0821 41.0403 80.3996 42.9002V42.9002Z" fill="#E6E6E6"/>
    <path d="M85.6 62.2002H85.5C87.3719 63.4627 88.8056 65.2754 89.603 67.3878C90.4003 69.5002 90.5219 71.8082 89.9511 73.9927C89.3803 76.1772 88.1451 78.1306 86.4163 79.5829C84.6875 81.0353 82.5503 81.9149 80.3 82.1002H77.9C74.5944 81.558 71.2032 81.9386 68.1 83.2002H67.8C66.1026 83.9324 64.7205 85.2437 63.9 86.9002C63.378 87.8248 62.6237 88.5971 61.7117 89.1408C60.7997 89.6845 59.7616 89.9807 58.7 90.0002H58C58.4181 90.4215 58.9172 90.7539 59.4671 90.9773C60.017 91.2007 60.6065 91.3106 61.2 91.3002C62.2704 91.324 63.3259 91.0459 64.2456 90.4976C65.1652 89.9493 65.9119 89.1531 66.4 88.2002C67.2641 86.5637 68.6818 85.2877 70.4 84.6002L70.7 84.4002C73.7801 83.1858 77.1262 82.8063 80.4 83.3002C81.2203 83.4856 82.0675 83.5195 82.9 83.4002C85.4657 83.1719 87.8676 82.0423 89.6798 80.2117C91.4921 78.3812 92.5975 75.9681 92.8 73.4002C92.989 71.003 92.3873 68.6099 91.087 66.5871C89.7867 64.5644 87.8593 63.0235 85.6 62.2002Z" fill="#E6E6E6"/>
    <path d="M71.0002 44.9002C71.3461 44.7137 71.7391 44.6333 72.1304 44.6689C72.5216 44.7044 72.8937 44.8544 73.2002 45.1002C73.5288 45.3096 73.7889 45.6105 73.9488 45.9658C74.1087 46.3211 74.1613 46.7154 74.1002 47.1002C74.0143 47.5905 73.8035 48.0505 73.4883 48.4358C73.173 48.8211 72.7639 49.1188 72.3002 49.3002C71.3713 49.6521 70.3925 49.8546 69.4002 49.9002L61.6002 50.6002C59.7549 50.5612 57.9413 51.0844 56.4002 52.1002C55.291 53.1824 54.4665 54.5222 54.0002 56.0002C52.4002 60.8002 50.4002 65.4002 48.6002 70.0002C47.8002 65.3002 49.7002 60.5002 51.5002 56.0002C52.1592 54.3654 52.9624 52.7925 53.9002 51.3002C54.9012 49.8348 56.3894 48.7718 58.1002 48.3002C59.9002 47.9002 61.7002 48.4002 63.5002 48.6002C65.3002 48.8002 67.3002 48.7002 68.6002 47.5002C69.9002 46.3002 69.9002 45.4002 71.0002 44.9002Z" fill="white"/>
    <path d="M147.1 68.8999H147.2V23.8999H147.1C145.892 23.8999 144.696 24.1379 143.58 24.6002C142.464 25.0626 141.449 25.7402 140.595 26.5945C139.741 27.4488 139.063 28.463 138.601 29.5792C138.138 30.6954 137.9 31.8917 137.9 33.0999V59.6999C137.9 62.1399 138.87 64.4799 140.595 66.2053C142.32 67.9306 144.66 68.8999 147.1 68.8999Z" fill="#E3E3E3"/>
    <path d="M143.3 111.1C145.5 111.1 147.2 109.6 147.2 107.8V66H139.4V107.8C139.4 109.6 141.1 111.1 143.3 111.1Z" fill="#636363"/>
    <path d="M139.4 67.9L147.2 68.4V64.3L138.4 62.5L139.4 65.4V67.9Z" fill="#E3E3E3"/>
    <g opacity="0.23">
        <path opacity="0.23" d="M147.2 23.8999C145.995 23.8595 144.797 24.0991 143.7 24.5999V111.1C144.612 111.127 145.498 110.798 146.171 110.182C146.843 109.565 147.248 108.711 147.3 107.8V23.8999H147.2Z" fill="#4D4D4D"/>
    </g>
    <path d="M3.59961 52.5L2.59961 57.5H8.49961L7.39961 52.5H3.59961Z" fill="#C9C9C9"/>
    <path d="M0.300444 48.0002C0.283357 48.1092 0.292258 48.2206 0.326419 48.3255C0.360579 48.4304 0.419035 48.5257 0.497019 48.6036C0.575004 48.6816 0.670312 48.7401 0.775176 48.7742C0.880039 48.8084 0.991488 48.8173 1.10044 48.8002V48.8002C1.31262 48.8002 1.5161 48.7159 1.66613 48.5659C1.81616 48.4159 1.90045 48.2124 1.90045 48.0002V32.6002C1.90182 32.3779 1.82085 32.1629 1.67313 31.9967C1.52542 31.8305 1.32141 31.7249 1.10044 31.7002V31.7002C0.986415 31.6993 0.873515 31.7228 0.769309 31.7691C0.665102 31.8154 0.572 31.8835 0.496241 31.9687C0.420483 32.0539 0.363819 32.1544 0.33005 32.2633C0.296282 32.3722 0.286187 32.4871 0.300444 32.6002V48.0002Z" fill="#DEDEDE"/>
    <path d="M3.29982 48.0002C3.29982 48.2124 3.38411 48.4159 3.53414 48.5659C3.68417 48.7159 3.88765 48.8002 4.09982 48.8002V48.8002C4.20878 48.8173 4.32023 48.8084 4.42509 48.7742C4.52996 48.7401 4.62526 48.6816 4.70325 48.6036C4.78123 48.5257 4.83969 48.4304 4.87385 48.3255C4.90801 48.2206 4.91691 48.1092 4.89982 48.0002V32.6002C4.91408 32.4871 4.90399 32.3722 4.87022 32.2633C4.83645 32.1544 4.77979 32.0539 4.70403 31.9687C4.62827 31.8835 4.53517 31.8154 4.43096 31.7691C4.32675 31.7228 4.21385 31.6993 4.09982 31.7002V31.7002C3.87885 31.7249 3.67485 31.8305 3.52714 31.9967C3.37942 32.1629 3.29845 32.3779 3.29982 32.6002V48.0002Z" fill="#DEDEDE"/>
    <path d="M6.29982 48.0002C6.29982 48.2124 6.38411 48.4159 6.53414 48.5659C6.68417 48.7159 6.88765 48.8002 7.09982 48.8002V48.8002C7.20878 48.8173 7.32023 48.8084 7.42509 48.7742C7.52996 48.7401 7.62526 48.6816 7.70325 48.6036C7.78123 48.5257 7.83969 48.4304 7.87385 48.3255C7.90801 48.2206 7.91691 48.1092 7.89982 48.0002V32.6002C7.91408 32.4871 7.90399 32.3722 7.87022 32.2633C7.83645 32.1544 7.77979 32.0539 7.70403 31.9687C7.62827 31.8835 7.53517 31.8154 7.43096 31.7691C7.32675 31.7228 7.21385 31.6993 7.09982 31.7002V31.7002C6.87885 31.7249 6.67485 31.8305 6.52714 31.9967C6.37942 32.1629 6.29845 32.3779 6.29982 32.6002V48.0002Z" fill="#C9C9C9"/>
    <path d="M9.20021 48.0002C9.20021 48.2124 9.2845 48.4159 9.43453 48.5659C9.58456 48.7159 9.78804 48.8002 10.0002 48.8002V48.8002C10.1092 48.8173 10.2206 48.8084 10.3255 48.7742C10.4303 48.7401 10.5257 48.6816 10.6036 48.6036C10.6816 48.5257 10.7401 48.4304 10.7742 48.3255C10.8084 48.2206 10.8173 48.1092 10.8002 48.0002V32.6002C10.8145 32.4871 10.8044 32.3722 10.7706 32.2633C10.7368 32.1544 10.6802 32.0539 10.6044 31.9687C10.5287 31.8835 10.4356 31.8154 10.3313 31.7691C10.2271 31.7228 10.1142 31.6993 10.0002 31.7002V31.7002C9.77925 31.7249 9.57524 31.8305 9.42753 31.9967C9.27981 32.1629 9.19884 32.3779 9.20021 32.6002V48.0002Z" fill="#C9C9C9"/>
    <path d="M5.49981 53.9002H5.5998C6.97893 53.9002 8.30157 53.3523 9.27676 52.3772C10.2519 51.402 10.7998 50.0793 10.7998 48.7002V44.2002H0.299805V48.7002C0.299805 50.0793 0.84766 51.402 1.82285 52.3772C2.79804 53.3523 4.12068 53.9002 5.49981 53.9002Z" fill="#DEDEDE"/>
    <path d="M5.50036 102.9H5.60036C5.98975 102.9 6.37521 102.822 6.73373 102.67C7.09226 102.518 7.41651 102.296 7.68715 102.016C7.95779 101.736 8.16927 101.404 8.30899 101.041C8.4487 100.677 8.51379 100.289 8.50036 99.9V57.5H2.60036V99.9C2.58693 100.289 2.65201 100.677 2.79173 101.041C2.93144 101.404 3.14293 101.736 3.41357 102.016C3.68421 102.296 4.00846 102.518 4.36698 102.67C4.72551 102.822 5.11096 102.9 5.50036 102.9V102.9Z" fill="#636363"/>
    <path d="M5.70039 57.5C5.90039 61.5 6.90039 92.7 5.40039 102.9H5.60039C5.98978 102.9 6.37524 102.822 6.73376 102.67C7.09229 102.518 7.41654 102.296 7.68718 102.016C7.95782 101.736 8.1693 101.404 8.30902 101.041C8.44873 100.677 8.51382 100.289 8.50039 99.9V57.5H5.70039Z" fill="#666666"/>
    <path d="M10.8002 48.7002V44.2002H6.30019L5.7002 53.5002C5.98717 54.8181 5.98717 56.1823 5.7002 57.5002H8.50019L7.60019 53.5002C8.56408 53.1287 9.38925 52.4678 9.96226 51.6082C10.5353 50.7487 10.828 49.7328 10.8002 48.7002V48.7002Z" fill="#C9C9C9"/>
    <path d="M71.6997 91.3998C71.6997 89.2998 74.2997 84.2999 76.2997 81.9999C82.4997 74.6999 92.0997 76.2999 99.9997 79.7999C101.7 80.5999 103.2 77.9998 101.5 77.1998C92.7997 73.3998 82.4997 71.5999 75.0997 78.7999C72.0997 81.7999 68.7997 86.9998 68.6997 91.3998C68.5997 93.3998 71.5997 93.3998 71.6997 91.3998V91.3998Z" fill="#2A7D61"/>
</svg>
